{
  "header": {
    "keySignatures": [
      {
        "key": "B",
        "scale": "major",
        "ticks": 0
      },
      {
        "key": "Eb",
        "scale": "major",
        "ticks": 147840
      },
      {
        "key": "Db",
        "scale": "major",
        "ticks": 155520
      },
      {
        "key": "B",
        "scale": "major",
        "ticks": 0
      },
      {
        "key": "Eb",
        "scale": "major",
        "ticks": 147840
      },
      {
        "key": "Db",
        "scale": "major",
        "ticks": 155520
      }
    ],
    "meta": [],
    "name": "",
    "ppq": 480,
    "tempos": [
      {
        "bpm": 79.99978666723555,
        "ticks": 0
      }
    ],
    "timeSignatures": [
      {
        "ticks": 0,
        "timeSignature": [
          4,
          4
        ],
        "measures": 0
      }
    ]
  },
  "tracks": [
    {
      "channel": 0,
      "controlChanges": {
        "7": [
          {
            "number": 7,
            "ticks": 0,
            "time": 0,
            "value": 0.7874015748031497
          }
        ],
        "10": [
          {
            "number": 10,
            "ticks": 0,
            "time": 0,
            "value": 0.49606299212598426
          }
        ],
        "91": [
          {
            "number": 91,
            "ticks": 0,
            "time": 0,
            "value": 0
          }
        ],
        "93": [
          {
            "number": 93,
            "ticks": 0,
            "time": 0,
            "value": 0
          }
        ],
        "121": [
          {
            "number": 121,
            "ticks": 0,
            "time": 0,
            "value": 0
          }
        ]
      },
      "pitchBends": [],
      "instrument": {
        "family": "piano",
        "number": 0,
        "name": "acoustic grand piano"
      },
      "name": "",
      "notes": [
        {
          "duration": 0.37343849583333333,
          "durationTicks": 239,
          "midi": 75,
          "name": "D#5",
          "ticks": 0,
          "time": 0,
          "velocity": 0.6299212598425197
        },
        {
          "duration": 0.30625081666666665,
          "durationTicks": 196,
          "midi": 80,
          "name": "G#5",
          "ticks": 42,
          "time": 0.065625175,
          "velocity": 0.6299212598425197
        },
        {
          "duration": 0.23906313749999997,
          "durationTicks": 153,
          "midi": 83,
          "name": "B5",
          "ticks": 85,
          "time": 0.13281285416666666,
          "velocity": 0.6299212598425197
        },
        {
          "duration": 0.3546884458333333,
          "durationTicks": 227,
          "midi": 82,
          "name": "A#5",
          "ticks": 240,
          "time": 0.375001,
          "velocity": 0.6299212598425197
        },
        {
          "duration": 0.35468844583333337,
          "durationTicks": 227,
          "midi": 80,
          "name": "G#5",
          "ticks": 480,
          "time": 0.750002,
          "velocity": 0.6299212598425197
        },
        {
          "duration": 0.35468844583333325,
          "durationTicks": 227,
          "midi": 78,
          "name": "F#5",
          "ticks": 720,
          "time": 1.125003,
          "velocity": 0.6299212598425197
        },
        {
          "duration": 1.4234412958333331,
          "durationTicks": 911,
          "midi": 78,
          "name": "F#5",
          "ticks": 960,
          "time": 1.500004,
          "velocity": 0.6299212598425197
        },
        {
          "duration": 1.4234412958333331,
          "durationTicks": 911,
          "midi": 80,
          "name": "G#5",
          "ticks": 960,
          "time": 1.500004,
          "velocity": 0.6299212598425197
        },
        {
          "duration": 0.35468844583333325,
          "durationTicks": 227,
          "midi": 73,
          "name": "C#5",
          "ticks": 1920,
          "time": 3.000008,
          "velocity": 0.6299212598425197
        },
        {
          "duration": 0.35468844583333325,
          "durationTicks": 227,
          "midi": 76,
          "name": "E5",
          "ticks": 1920,
          "time": 3.000008,
          "velocity": 0.6299212598425197
        },
        {
          "duration": 0.35468844583333325,
          "durationTicks": 227,
          "midi": 80,
          "name": "G#5",
          "ticks": 1920,
          "time": 3.000008,
          "velocity": 0.6299212598425197
        },
        {
          "duration": 0.3546884458333328,
          "durationTicks": 227,
          "midi": 78,
          "name": "F#5",
          "ticks": 2160,
          "time": 3.375009,
          "velocity": 0.6299212598425197
        },
        {
          "duration": 0.35468844583333325,
          "durationTicks": 227,
          "midi": 76,
          "name": "E5",
          "ticks": 2400,
          "time": 3.7500099999999996,
          "velocity": 0.6299212598425197
        },
        {
          "duration": 0.35468844583333325,
          "durationTicks": 227,
          "midi": 73,
          "name": "C#5",
          "ticks": 2640,
          "time": 4.125011,
          "velocity": 0.6299212598425197
        },
        {
          "duration": 0.710939395833333,
          "durationTicks": 455,
          "midi": 66,
          "name": "F#4",
          "ticks": 2880,
          "time": 4.500012,
          "velocity": 0.6299212598425197
        },
        {
          "duration": 0.710939395833333,
          "durationTicks": 455,
          "midi": 71,
          "name": "B4",
          "ticks": 2880,
          "time": 4.500012,
          "velocity": 0.6299212598425197
        },
        {
          "duration": 0.710939395833333,
          "durationTicks": 455,
          "midi": 75,
          "name": "D#5",
          "ticks": 2880,
          "time": 4.500012,
          "velocity": 0.6299212598425197
        },
        {
          "duration": 0.7109393958333339,
          "durationTicks": 455,
          "midi": 66,
          "name": "F#4",
          "ticks": 3360,
          "time": 5.250013999999999,
          "velocity": 0.6299212598425197
        },
        {
          "duration": 0.7109393958333339,
          "durationTicks": 455,
          "midi": 70,
          "name": "A#4",
          "ticks": 3360,
          "time": 5.250013999999999,
          "velocity": 0.6299212598425197
        },
        {
          "duration": 0.7109393958333339,
          "durationTicks": 455,
          "midi": 73,
          "name": "C#5",
          "ticks": 3360,
          "time": 5.250013999999999,
          "velocity": 0.6299212598425197
        },
        {
          "duration": 0.35468844583333325,
          "durationTicks": 227,
          "midi": 63,
          "name": "D#4",
          "ticks": 3840,
          "time": 6.000016,
          "velocity": 0.6299212598425197
        },
        {
          "duration": 0.35468844583333325,
          "durationTicks": 227,
          "midi": 68,
          "name": "G#4",
          "ticks": 3840,
          "time": 6.000016,
          "velocity": 0.6299212598425197
        },
        {
          "duration": 0.35468844583333325,
          "durationTicks": 227,
          "midi": 71,
          "name": "B4",
          "ticks": 3840,
          "time": 6.000016,
          "velocity": 0.6299212598425197
        },
        {
          "duration": 0.35468844583333325,
          "durationTicks": 227,
          "midi": 70,
          "name": "A#4",
          "ticks": 4080,
          "time": 6.375017,
          "velocity": 0.6299212598425197
        },
        {
          "duration": 0.35468844583333237,
          "durationTicks": 227,
          "midi": 71,
          "name": "B4",
          "ticks": 4320,
          "time": 6.750018,
          "velocity": 0.6299212598425197
        },
        {
          "duration": 0.35468844583333325,
          "durationTicks": 227,
          "midi": 75,
          "name": "D#5",
          "ticks": 4560,
          "time": 7.125018999999999,
          "velocity": 0.6299212598425197
        },
        {
          "duration": 0.7109393958333339,
          "durationTicks": 455,
          "midi": 66,
          "name": "F#4",
          "ticks": 4800,
          "time": 7.500019999999999,
          "velocity": 0.6299212598425197
        },
        {
          "duration": 0.7109393958333339,
          "durationTicks": 455,
          "midi": 70,
          "name": "A#4",
          "ticks": 4800,
          "time": 7.500019999999999,
          "velocity": 0.6299212598425197
        },
        {
          "duration": 0.7109393958333339,
          "durationTicks": 455,
          "midi": 73,
          "name": "C#5",
          "ticks": 4800,
          "time": 7.500019999999999,
          "velocity": 0.6299212598425197
        },
        {
          "duration": 0.35468844583333237,
          "durationTicks": 227,
          "midi": 70,
          "name": "A#4",
          "ticks": 5280,
          "time": 8.250022,
          "velocity": 0.6299212598425197
        },
        {
          "duration": 0.35468844583333414,
          "durationTicks": 227,
          "midi": 66,
          "name": "F#4",
          "ticks": 5520,
          "time": 8.625022999999999,
          "velocity": 0.6299212598425197
        },
        {
          "duration": 1.4234412958333333,
          "durationTicks": 911,
          "midi": 61,
          "name": "C#4",
          "ticks": 5760,
          "time": 9.000024,
          "velocity": 0.6299212598425197
        },
        {
          "duration": 1.4234412958333333,
          "durationTicks": 911,
          "midi": 66,
          "name": "F#4",
          "ticks": 5760,
          "time": 9.000024,
          "velocity": 0.6299212598425197
        },
        {
          "duration": 1.4234412958333333,
          "durationTicks": 911,
          "midi": 68,
          "name": "G#4",
          "ticks": 5760,
          "time": 9.000024,
          "velocity": 0.6299212598425197
        },
        {
          "duration": 0.7109393958333339,
          "durationTicks": 455,
          "midi": 61,
          "name": "C#4",
          "ticks": 6720,
          "time": 10.500027999999999,
          "velocity": 0.6299212598425197
        },
        {
          "duration": 0.7109393958333339,
          "durationTicks": 455,
          "midi": 66,
          "name": "F#4",
          "ticks": 6720,
          "time": 10.500027999999999,
          "velocity": 0.6299212598425197
        },
        {
          "duration": 0.7109393958333339,
          "durationTicks": 455,
          "midi": 68,
          "name": "G#4",
          "ticks": 6720,
          "time": 10.500027999999999,
          "velocity": 0.6299212598425197
        },
        {
          "duration": 0.7109393958333339,
          "durationTicks": 455,
          "midi": 63,
          "name": "D#4",
          "ticks": 7200,
          "time": 11.250029999999999,
          "velocity": 0.6299212598425197
        },
        {
          "duration": 0.7109393958333339,
          "durationTicks": 455,
          "midi": 67,
          "name": "G4",
          "ticks": 7200,
          "time": 11.250029999999999,
          "velocity": 0.6299212598425197
        },
        {
          "duration": 0.7109393958333339,
          "durationTicks": 455,
          "midi": 70,
          "name": "A#4",
          "ticks": 7200,
          "time": 11.250029999999999,
          "velocity": 0.6299212598425197
        },
        {
          "duration": 0.35468844583333237,
          "durationTicks": 227,
          "midi": 63,
          "name": "D#4",
          "ticks": 7680,
          "time": 12.000032,
          "velocity": 0.6299212598425197
        },
        {
          "duration": 0.35468844583333237,
          "durationTicks": 227,
          "midi": 68,
          "name": "G#4",
          "ticks": 7680,
          "time": 12.000032,
          "velocity": 0.6299212598425197
        },
        {
          "duration": 0.35468844583333237,
          "durationTicks": 227,
          "midi": 71,
          "name": "B4",
          "ticks": 7680,
          "time": 12.000032,
          "velocity": 0.6299212598425197
        },
        {
          "duration": 0.35468844583333414,
          "durationTicks": 227,
          "midi": 70,
          "name": "A#4",
          "ticks": 7920,
          "time": 12.375032999999998,
          "velocity": 0.6299212598425197
        },
        {
          "duration": 0.35468844583333237,
          "durationTicks": 227,
          "midi": 68,
          "name": "G#4",
          "ticks": 8160,
          "time": 12.750034,
          "velocity": 0.6299212598425197
        },
        {
          "duration": 0.35468844583333414,
          "durationTicks": 227,
          "midi": 66,
          "name": "F#4",
          "ticks": 8400,
          "time": 13.125034999999999,
          "velocity": 0.6299212598425197
        },
        {
          "duration": 1.4234412958333333,
          "durationTicks": 911,
          "midi": 66,
          "name": "F#4",
          "ticks": 8640,
          "time": 13.500036,
          "velocity": 0.6299212598425197
        },
        {
          "duration": 1.4234412958333333,
          "durationTicks": 911,
          "midi": 68,
          "name": "G#4",
          "ticks": 8640,
          "time": 13.500036,
          "velocity": 0.6299212598425197
        },
        {
          "duration": 0.35468844583333414,
          "durationTicks": 227,
          "midi": 61,
          "name": "C#4",
          "ticks": 9600,
          "time": 15.000039999999998,
          "velocity": 0.6299212598425197
        },
        {
          "duration": 0.35468844583333414,
          "durationTicks": 227,
          "midi": 64,
          "name": "E4",
          "ticks": 9600,
          "time": 15.000039999999998,
          "velocity": 0.6299212598425197
        },
        {
          "duration": 0.35468844583333414,
          "durationTicks": 227,
          "midi": 68,
          "name": "G#4",
          "ticks": 9600,
          "time": 15.000039999999998,
          "velocity": 0.6299212598425197
        },
        {
          "duration": 0.35468844583333237,
          "durationTicks": 227,
          "midi": 66,
          "name": "F#4",
          "ticks": 9840,
          "time": 15.375041,
          "velocity": 0.6299212598425197
        },
        {
          "duration": 0.35468844583333414,
          "durationTicks": 227,
          "midi": 64,
          "name": "E4",
          "ticks": 10080,
          "time": 15.750041999999999,
          "velocity": 0.6299212598425197
        },
        {
          "duration": 0.35468844583333237,
          "durationTicks": 227,
          "midi": 61,
          "name": "C#4",
          "ticks": 10320,
          "time": 16.125042999999998,
          "velocity": 0.6299212598425197
        },
        {
          "duration": 0.7109393958333357,
          "durationTicks": 455,
          "midi": 54,
          "name": "F#3",
          "ticks": 10560,
          "time": 16.500044,
          "velocity": 0.6299212598425197
        },
        {
          "duration": 0.7109393958333357,
          "durationTicks": 455,
          "midi": 59,
          "name": "B3",
          "ticks": 10560,
          "time": 16.500044,
          "velocity": 0.6299212598425197
        },
        {
          "duration": 0.7109393958333357,
          "durationTicks": 455,
          "midi": 63,
          "name": "D#4",
          "ticks": 10560,
          "time": 16.500044,
          "velocity": 0.6299212598425197
        },
        {
          "duration": 0.7109393958333357,
          "durationTicks": 455,
          "midi": 54,
          "name": "F#3",
          "ticks": 11040,
          "time": 17.250045999999998,
          "velocity": 0.6299212598425197
        },
        {
          "duration": 0.7109393958333357,
          "durationTicks": 455,
          "midi": 58,
          "name": "A#3",
          "ticks": 11040,
          "time": 17.250045999999998,
          "velocity": 0.6299212598425197
        },
        {
          "duration": 0.7109393958333357,
          "durationTicks": 455,
          "midi": 61,
          "name": "C#4",
          "ticks": 11040,
          "time": 17.250045999999998,
          "velocity": 0.6299212598425197
        },
        {
          "duration": 0.35468844583333237,
          "durationTicks": 227,
          "midi": 51,
          "name": "D#3",
          "ticks": 11520,
          "time": 18.000048,
          "velocity": 0.6299212598425197
        },
        {
          "duration": 0.35468844583333237,
          "durationTicks": 227,
          "midi": 56,
          "name": "G#3",
          "ticks": 11520,
          "time": 18.000048,
          "velocity": 0.6299212598425197
        },
        {
          "duration": 0.35468844583333237,
          "durationTicks": 227,
          "midi": 59,
          "name": "B3",
          "ticks": 11520,
          "time": 18.000048,
          "velocity": 0.6299212598425197
        },
        {
          "duration": 0.3546884458333359,
          "durationTicks": 227,
          "midi": 58,
          "name": "A#3",
          "ticks": 11760,
          "time": 18.375048999999997,
          "velocity": 0.6299212598425197
        },
        {
          "duration": 0.35468844583333237,
          "durationTicks": 227,
          "midi": 59,
          "name": "B3",
          "ticks": 12000,
          "time": 18.750049999999998,
          "velocity": 0.6299212598425197
        },
        {
          "duration": 0.35468844583333237,
          "durationTicks": 227,
          "midi": 63,
          "name": "D#4",
          "ticks": 12240,
          "time": 19.125051,
          "velocity": 0.6299212598425197
        },
        {
          "duration": 0.7109393958333321,
          "durationTicks": 455,
          "midi": 61,
          "name": "C#4",
          "ticks": 12480,
          "time": 19.500052,
          "velocity": 0.6299212598425197
        },
        {
          "duration": 0.7109393958333357,
          "durationTicks": 455,
          "midi": 58,
          "name": "A#3",
          "ticks": 12960,
          "time": 20.250054,
          "velocity": 0.6299212598425197
        },
        {
          "duration": 0.7109393958333357,
          "durationTicks": 455,
          "midi": 61,
          "name": "C#4",
          "ticks": 12960,
          "time": 20.250054,
          "velocity": 0.6299212598425197
        },
        {
          "duration": 0.7109393958333357,
          "durationTicks": 455,
          "midi": 66,
          "name": "F#4",
          "ticks": 12960,
          "time": 20.250054,
          "velocity": 0.6299212598425197
        },
        {
          "duration": 1.4234412958333351,
          "durationTicks": 911,
          "midi": 59,
          "name": "B3",
          "ticks": 13440,
          "time": 21.000055999999997,
          "velocity": 0.6299212598425197
        },
        {
          "duration": 1.4234412958333351,
          "durationTicks": 911,
          "midi": 66,
          "name": "F#4",
          "ticks": 13440,
          "time": 21.000055999999997,
          "velocity": 0.6299212598425197
        },
        {
          "duration": 1.4234412958333351,
          "durationTicks": 911,
          "midi": 68,
          "name": "G#4",
          "ticks": 13440,
          "time": 21.000055999999997,
          "velocity": 0.6299212598425197
        },
        {
          "duration": 0.35468844583333237,
          "durationTicks": 227,
          "midi": 63,
          "name": "D#4",
          "ticks": 14400,
          "time": 22.500059999999998,
          "velocity": 0.6299212598425197
        },
        {
          "duration": 0.35468844583333237,
          "durationTicks": 227,
          "midi": 64,
          "name": "E4",
          "ticks": 14640,
          "time": 22.875061,
          "velocity": 0.6299212598425197
        },
        {
          "duration": 0.35468844583333237,
          "durationTicks": 227,
          "midi": 71,
          "name": "B4",
          "ticks": 14880,
          "time": 23.250062,
          "velocity": 0.6299212598425197
        },
        {
          "duration": 0.3546884458333359,
          "durationTicks": 227,
          "midi": 75,
          "name": "D#5",
          "ticks": 15120,
          "time": 23.625062999999997,
          "velocity": 0.6299212598425197
        },
        {
          "duration": 2.848445095833334,
          "durationTicks": 1823,
          "midi": 80,
          "name": "G#5",
          "ticks": 15360,
          "time": 24.000064,
          "velocity": 0.6299212598425197
        },
        {
          "duration": 0.3546884458333359,
          "durationTicks": 227,
          "midi": 71,
          "name": "B4",
          "ticks": 17280,
          "time": 27.000072,
          "velocity": 0.6299212598425197
        },
        {
          "duration": 0.3546884458333359,
          "durationTicks": 227,
          "midi": 70,
          "name": "A#4",
          "ticks": 17520,
          "time": 27.375072999999997,
          "velocity": 0.6299212598425197
        },
        {
          "duration": 0.3546884458333359,
          "durationTicks": 227,
          "midi": 71,
          "name": "B4",
          "ticks": 17760,
          "time": 27.750073999999998,
          "velocity": 0.6299212598425197
        },
        {
          "duration": 0.3546884458333359,
          "durationTicks": 227,
          "midi": 75,
          "name": "D#5",
          "ticks": 18000,
          "time": 28.125075,
          "velocity": 0.6299212598425197
        },
        {
          "duration": 0.7109393958333321,
          "durationTicks": 455,
          "midi": 73,
          "name": "C#5",
          "ticks": 18240,
          "time": 28.500075999999996,
          "velocity": 0.6299212598425197
        },
        {
          "duration": 0.3546884458333359,
          "durationTicks": 227,
          "midi": 70,
          "name": "A#4",
          "ticks": 18720,
          "time": 29.250078,
          "velocity": 0.6299212598425197
        },
        {
          "duration": 0.3546884458333359,
          "durationTicks": 227,
          "midi": 66,
          "name": "F#4",
          "ticks": 18960,
          "time": 29.625079,
          "velocity": 0.6299212598425197
        },
        {
          "duration": 2.848445095833334,
          "durationTicks": 1823,
          "midi": 68,
          "name": "G#4",
          "ticks": 19200,
          "time": 30.000079999999997,
          "velocity": 0.6299212598425197
        },
        {
          "duration": 0.35468844583333237,
          "durationTicks": 227,
          "midi": 71,
          "name": "B4",
          "ticks": 21120,
          "time": 33.000088,
          "velocity": 0.6299212598425197
        },
        {
          "duration": 0.35468844583333947,
          "durationTicks": 227,
          "midi": 73,
          "name": "C#5",
          "ticks": 21360,
          "time": 33.375088999999996,
          "velocity": 0.6299212598425197
        },
        {
          "duration": 0.35468844583333237,
          "durationTicks": 227,
          "midi": 75,
          "name": "D#5",
          "ticks": 21600,
          "time": 33.75009,
          "velocity": 0.6299212598425197
        },
        {
          "duration": 0.7109393958333285,
          "durationTicks": 455,
          "midi": 80,
          "name": "G#5",
          "ticks": 21840,
          "time": 34.125091,
          "velocity": 0.6299212598425197
        },
        {
          "duration": 0.35468844583333237,
          "durationTicks": 227,
          "midi": 78,
          "name": "F#5",
          "ticks": 22320,
          "time": 34.875093,
          "velocity": 0.6299212598425197
        },
        {
          "duration": 0.35468844583333947,
          "durationTicks": 227,
          "midi": 77,
          "name": "F5",
          "ticks": 22560,
          "time": 35.250094,
          "velocity": 0.6299212598425197
        },
        {
          "duration": 0.35468844583333947,
          "durationTicks": 227,
          "midi": 73,
          "name": "C#5",
          "ticks": 22800,
          "time": 35.625094999999995,
          "velocity": 0.6299212598425197
        },
        {
          "duration": 1.4234412958333351,
          "durationTicks": 911,
          "midi": 75,
          "name": "D#5",
          "ticks": 23040,
          "time": 36.000096,
          "velocity": 0.6299212598425197
        },
        {
          "duration": 1.4234412958333351,
          "durationTicks": 911,
          "midi": 58,
          "name": "A#3",
          "ticks": 24000,
          "time": 37.500099999999996,
          "velocity": 0.6299212598425197
        },
        {
          "duration": 1.4234412958333351,
          "durationTicks": 911,
          "midi": 63,
          "name": "D#4",
          "ticks": 24000,
          "time": 37.500099999999996,
          "velocity": 0.6299212598425197
        },
        {
          "duration": 0.35468844583333237,
          "durationTicks": 227,
          "midi": 75,
          "name": "D#5",
          "ticks": 24480,
          "time": 38.250102,
          "velocity": 0.6299212598425197
        },
        {
          "duration": 0.35468844583333947,
          "durationTicks": 227,
          "midi": 78,
          "name": "F#5",
          "ticks": 24720,
          "time": 38.625102999999996,
          "velocity": 0.6299212598425197
        },
        {
          "duration": 0.7109393958333285,
          "durationTicks": 455,
          "midi": 80,
          "name": "G#5",
          "ticks": 24960,
          "time": 39.000104,
          "velocity": 0.6299212598425197
        },
        {
          "duration": 0.7109393958333357,
          "durationTicks": 455,
          "midi": 82,
          "name": "A#5",
          "ticks": 25440,
          "time": 39.750105999999995,
          "velocity": 0.6299212598425197
        },
        {
          "duration": 1.0671903458333318,
          "durationTicks": 683,
          "midi": 78,
          "name": "F#5",
          "ticks": 25920,
          "time": 40.500108,
          "velocity": 0.6299212598425197
        },
        {
          "duration": 0.35468844583333947,
          "durationTicks": 227,
          "midi": 75,
          "name": "D#5",
          "ticks": 26640,
          "time": 41.625111,
          "velocity": 0.6299212598425197
        },
        {
          "duration": 0.35468844583333947,
          "durationTicks": 227,
          "midi": 76,
          "name": "E5",
          "ticks": 26880,
          "time": 42.000111999999994,
          "velocity": 0.6299212598425197
        },
        {
          "duration": 0.35468844583333237,
          "durationTicks": 227,
          "midi": 75,
          "name": "D#5",
          "ticks": 27120,
          "time": 42.375113,
          "velocity": 0.6299212598425197
        },
        {
          "duration": 0.35468844583333947,
          "durationTicks": 227,
          "midi": 76,
          "name": "E5",
          "ticks": 27360,
          "time": 42.750113999999996,
          "velocity": 0.6299212598425197
        },
        {
          "duration": 0.35468844583333947,
          "durationTicks": 227,
          "midi": 80,
          "name": "G#5",
          "ticks": 27600,
          "time": 43.125114999999994,
          "velocity": 0.6299212598425197
        },
        {
          "duration": 0.7109393958333285,
          "durationTicks": 455,
          "midi": 78,
          "name": "F#5",
          "ticks": 27840,
          "time": 43.500116,
          "velocity": 0.6299212598425197
        },
        {
          "duration": 0.35468844583333947,
          "durationTicks": 227,
          "midi": 75,
          "name": "D#5",
          "ticks": 28320,
          "time": 44.25011799999999,
          "velocity": 0.6299212598425197
        },
        {
          "duration": 0.35468844583333237,
          "durationTicks": 227,
          "midi": 73,
          "name": "C#5",
          "ticks": 28560,
          "time": 44.625119,
          "velocity": 0.6299212598425197
        },
        {
          "duration": 1.4234412958333351,
          "durationTicks": 911,
          "midi": 71,
          "name": "B4",
          "ticks": 28800,
          "time": 45.000119999999995,
          "velocity": 0.6299212598425197
        },
        {
          "duration": 0.35468844583333237,
          "durationTicks": 227,
          "midi": 68,
          "name": "G#4",
          "ticks": 30000,
          "time": 46.875125,
          "velocity": 0.6299212598425197
        },
        {
          "duration": 0.35468844583333947,
          "durationTicks": 227,
          "midi": 70,
          "name": "A#4",
          "ticks": 30240,
          "time": 47.250125999999995,
          "velocity": 0.6299212598425197
        },
        {
          "duration": 0.35468844583333237,
          "durationTicks": 227,
          "midi": 71,
          "name": "B4",
          "ticks": 30480,
          "time": 47.625127,
          "velocity": 0.6299212598425197
        },
        {
          "duration": 0.7109393958333357,
          "durationTicks": 455,
          "midi": 73,
          "name": "C#5",
          "ticks": 30720,
          "time": 48.000128,
          "velocity": 0.6299212598425197
        },
        {
          "duration": 0.35468844583332526,
          "durationTicks": 227,
          "midi": 64,
          "name": "E4",
          "ticks": 31200,
          "time": 48.75013,
          "velocity": 0.6299212598425197
        },
        {
          "duration": 0.35468844583333237,
          "durationTicks": 227,
          "midi": 61,
          "name": "C#4",
          "ticks": 31440,
          "time": 49.125130999999996,
          "velocity": 0.6299212598425197
        },
        {
          "duration": 0.7109393958333428,
          "durationTicks": 455,
          "midi": 56,
          "name": "G#3",
          "ticks": 31680,
          "time": 49.500131999999994,
          "velocity": 0.6299212598425197
        },
        {
          "duration": 0.7109393958333428,
          "durationTicks": 455,
          "midi": 58,
          "name": "A#3",
          "ticks": 31680,
          "time": 49.500131999999994,
          "velocity": 0.6299212598425197
        },
        {
          "duration": 0.7109393958333428,
          "durationTicks": 455,
          "midi": 63,
          "name": "D#4",
          "ticks": 31680,
          "time": 49.500131999999994,
          "velocity": 0.6299212598425197
        },
        {
          "duration": 0.35468844583333237,
          "durationTicks": 227,
          "midi": 55,
          "name": "G3",
          "ticks": 32160,
          "time": 50.250133999999996,
          "velocity": 0.6299212598425197
        },
        {
          "duration": 0.35468844583333237,
          "durationTicks": 227,
          "midi": 70,
          "name": "A#4",
          "ticks": 32400,
          "time": 50.62513499999999,
          "velocity": 0.6299212598425197
        },
        {
          "duration": 0.35468844583333237,
          "durationTicks": 227,
          "midi": 71,
          "name": "B4",
          "ticks": 32640,
          "time": 51.000136,
          "velocity": 0.6299212598425197
        },
        {
          "duration": 0.35468844583333237,
          "durationTicks": 227,
          "midi": 70,
          "name": "A#4",
          "ticks": 32880,
          "time": 51.375136999999995,
          "velocity": 0.6299212598425197
        },
        {
          "duration": 0.35468844583332526,
          "durationTicks": 227,
          "midi": 71,
          "name": "B4",
          "ticks": 33120,
          "time": 51.750138,
          "velocity": 0.6299212598425197
        },
        {
          "duration": 0.35468844583333237,
          "durationTicks": 227,
          "midi": 75,
          "name": "D#5",
          "ticks": 33360,
          "time": 52.125139,
          "velocity": 0.6299212598425197
        },
        {
          "duration": 0.7109393958333357,
          "durationTicks": 455,
          "midi": 73,
          "name": "C#5",
          "ticks": 33600,
          "time": 52.500139999999995,
          "velocity": 0.6299212598425197
        },
        {
          "duration": 0.35468844583333237,
          "durationTicks": 227,
          "midi": 70,
          "name": "A#4",
          "ticks": 34080,
          "time": 53.250142,
          "velocity": 0.6299212598425197
        },
        {
          "duration": 0.35468844583333237,
          "durationTicks": 227,
          "midi": 66,
          "name": "F#4",
          "ticks": 34320,
          "time": 53.625142999999994,
          "velocity": 0.6299212598425197
        },
        {
          "duration": 1.423441295833328,
          "durationTicks": 911,
          "midi": 68,
          "name": "G#4",
          "ticks": 34560,
          "time": 54.000144,
          "velocity": 0.6299212598425197
        },
        {
          "duration": 0.35468844583333237,
          "durationTicks": 227,
          "midi": 59,
          "name": "B3",
          "ticks": 35520,
          "time": 55.500147999999996,
          "velocity": 0.6299212598425197
        },
        {
          "duration": 0.35468844583333237,
          "durationTicks": 227,
          "midi": 63,
          "name": "D#4",
          "ticks": 35760,
          "time": 55.87514899999999,
          "velocity": 0.6299212598425197
        },
        {
          "duration": 0.35468844583332526,
          "durationTicks": 227,
          "midi": 68,
          "name": "G#4",
          "ticks": 36000,
          "time": 56.25015,
          "velocity": 0.6299212598425197
        },
        {
          "duration": 0.35468844583333237,
          "durationTicks": 227,
          "midi": 70,
          "name": "A#4",
          "ticks": 36240,
          "time": 56.625150999999995,
          "velocity": 0.6299212598425197
        },
        {
          "duration": 0.35468844583333237,
          "durationTicks": 227,
          "midi": 71,
          "name": "B4",
          "ticks": 36480,
          "time": 57.00015199999999,
          "velocity": 0.6299212598425197
        },
        {
          "duration": 0.35468844583333237,
          "durationTicks": 227,
          "midi": 73,
          "name": "C#5",
          "ticks": 36720,
          "time": 57.375153,
          "velocity": 0.6299212598425197
        },
        {
          "duration": 0.35468844583333237,
          "durationTicks": 227,
          "midi": 75,
          "name": "D#5",
          "ticks": 36960,
          "time": 57.750153999999995,
          "velocity": 0.6299212598425197
        },
        {
          "duration": 0.7109393958333428,
          "durationTicks": 455,
          "midi": 80,
          "name": "G#5",
          "ticks": 37200,
          "time": 58.12515499999999,
          "velocity": 0.6299212598425197
        },
        {
          "duration": 0.35468844583333237,
          "durationTicks": 227,
          "midi": 78,
          "name": "F#5",
          "ticks": 37680,
          "time": 58.875156999999994,
          "velocity": 0.6299212598425197
        },
        {
          "duration": 0.35468844583332526,
          "durationTicks": 227,
          "midi": 77,
          "name": "F5",
          "ticks": 37920,
          "time": 59.250158,
          "velocity": 0.6299212598425197
        },
        {
          "duration": 0.35468844583333237,
          "durationTicks": 227,
          "midi": 73,
          "name": "C#5",
          "ticks": 38160,
          "time": 59.625159,
          "velocity": 0.6299212598425197
        },
        {
          "duration": 1.423441295833328,
          "durationTicks": 911,
          "midi": 75,
          "name": "D#5",
          "ticks": 38400,
          "time": 60.000159999999994,
          "velocity": 0.6299212598425197
        },
        {
          "duration": 1.423441295833328,
          "durationTicks": 911,
          "midi": 58,
          "name": "A#3",
          "ticks": 39360,
          "time": 61.500164,
          "velocity": 0.6299212598425197
        },
        {
          "duration": 1.423441295833328,
          "durationTicks": 911,
          "midi": 63,
          "name": "D#4",
          "ticks": 39360,
          "time": 61.500164,
          "velocity": 0.6299212598425197
        },
        {
          "duration": 0.35468844583333237,
          "durationTicks": 227,
          "midi": 75,
          "name": "D#5",
          "ticks": 39840,
          "time": 62.25016599999999,
          "velocity": 0.6299212598425197
        },
        {
          "duration": 0.35468844583332526,
          "durationTicks": 227,
          "midi": 78,
          "name": "F#5",
          "ticks": 40080,
          "time": 62.625167,
          "velocity": 0.6299212598425197
        },
        {
          "duration": 0.7109393958333357,
          "durationTicks": 455,
          "midi": 80,
          "name": "G#5",
          "ticks": 40320,
          "time": 63.000167999999995,
          "velocity": 0.6299212598425197
        },
        {
          "duration": 0.7109393958333357,
          "durationTicks": 455,
          "midi": 82,
          "name": "A#5",
          "ticks": 40800,
          "time": 63.75017,
          "velocity": 0.6299212598425197
        },
        {
          "duration": 1.067190345833339,
          "durationTicks": 683,
          "midi": 78,
          "name": "F#5",
          "ticks": 41280,
          "time": 64.50017199999999,
          "velocity": 0.6299212598425197
        },
        {
          "duration": 0.35468844583333237,
          "durationTicks": 227,
          "midi": 75,
          "name": "D#5",
          "ticks": 42000,
          "time": 65.625175,
          "velocity": 0.6299212598425197
        },
        {
          "duration": 0.35468844583333237,
          "durationTicks": 227,
          "midi": 76,
          "name": "E5",
          "ticks": 42240,
          "time": 66.000176,
          "velocity": 0.6299212598425197
        },
        {
          "duration": 0.35468844583333237,
          "durationTicks": 227,
          "midi": 75,
          "name": "D#5",
          "ticks": 42480,
          "time": 66.375177,
          "velocity": 0.6299212598425197
        },
        {
          "duration": 0.35468844583333237,
          "durationTicks": 227,
          "midi": 76,
          "name": "E5",
          "ticks": 42720,
          "time": 66.75017799999999,
          "velocity": 0.6299212598425197
        },
        {
          "duration": 0.35468844583333237,
          "durationTicks": 227,
          "midi": 80,
          "name": "G#5",
          "ticks": 42960,
          "time": 67.12517899999999,
          "velocity": 0.6299212598425197
        },
        {
          "duration": 1.423441295833328,
          "durationTicks": 911,
          "midi": 78,
          "name": "F#5",
          "ticks": 43200,
          "time": 67.50018,
          "velocity": 0.6299212598425197
        },
        {
          "duration": 0.35468844583333237,
          "durationTicks": 227,
          "midi": 71,
          "name": "B4",
          "ticks": 44160,
          "time": 69.00018399999999,
          "velocity": 0.6299212598425197
        },
        {
          "duration": 0.35468844583331816,
          "durationTicks": 227,
          "midi": 70,
          "name": "A#4",
          "ticks": 44400,
          "time": 69.375185,
          "velocity": 0.6299212598425197
        },
        {
          "duration": 0.35468844583333237,
          "durationTicks": 227,
          "midi": 71,
          "name": "B4",
          "ticks": 44640,
          "time": 69.750186,
          "velocity": 0.6299212598425197
        },
        {
          "duration": 0.35468844583333237,
          "durationTicks": 227,
          "midi": 75,
          "name": "D#5",
          "ticks": 44880,
          "time": 70.125187,
          "velocity": 0.6299212598425197
        },
        {
          "duration": 0.7109393958333357,
          "durationTicks": 455,
          "midi": 73,
          "name": "C#5",
          "ticks": 45120,
          "time": 70.500188,
          "velocity": 0.6299212598425197
        },
        {
          "duration": 0.35468844583333237,
          "durationTicks": 227,
          "midi": 70,
          "name": "A#4",
          "ticks": 45600,
          "time": 71.25018999999999,
          "velocity": 0.6299212598425197
        },
        {
          "duration": 0.35468844583331816,
          "durationTicks": 227,
          "midi": 66,
          "name": "F#4",
          "ticks": 45840,
          "time": 71.625191,
          "velocity": 0.6299212598425197
        },
        {
          "duration": 1.423441295833328,
          "durationTicks": 911,
          "midi": 68,
          "name": "G#4",
          "ticks": 46080,
          "time": 72.000192,
          "velocity": 0.6299212598425197
        },
        {
          "duration": 0.35468844583333237,
          "durationTicks": 227,
          "midi": 63,
          "name": "D#4",
          "ticks": 47040,
          "time": 73.50019599999999,
          "velocity": 0.6299212598425197
        },
        {
          "duration": 0.35468844583331816,
          "durationTicks": 227,
          "midi": 68,
          "name": "G#4",
          "ticks": 47280,
          "time": 73.875197,
          "velocity": 0.6299212598425197
        },
        {
          "duration": 0.35468844583333237,
          "durationTicks": 227,
          "midi": 71,
          "name": "B4",
          "ticks": 47520,
          "time": 74.250198,
          "velocity": 0.6299212598425197
        },
        {
          "duration": 0.35468844583333237,
          "durationTicks": 227,
          "midi": 75,
          "name": "D#5",
          "ticks": 47760,
          "time": 74.625199,
          "velocity": 0.6299212598425197
        },
        {
          "duration": 2.9984454958333373,
          "durationTicks": 1919,
          "midi": 71,
          "name": "B4",
          "ticks": 48000,
          "time": 75.00019999999999,
          "velocity": 0.6299212598425197
        },
        {
          "duration": 2.934382825,
          "durationTicks": 1878,
          "midi": 75,
          "name": "D#5",
          "ticks": 48040,
          "time": 75.06270016666666,
          "velocity": 0.6299212598425197
        },
        {
          "duration": 2.868757649999992,
          "durationTicks": 1836,
          "midi": 80,
          "name": "G#5",
          "ticks": 48082,
          "time": 75.12832534166667,
          "velocity": 0.6299212598425197
        },
        {
          "duration": 0.7109393958333357,
          "durationTicks": 455,
          "midi": 75,
          "name": "D#5",
          "ticks": 49920,
          "time": 78.000208,
          "velocity": 0.6299212598425197
        },
        {
          "duration": 0.7109393958333357,
          "durationTicks": 455,
          "midi": 78,
          "name": "F#5",
          "ticks": 50400,
          "time": 78.75021,
          "velocity": 0.6299212598425197
        },
        {
          "duration": 1.423441295833328,
          "durationTicks": 911,
          "midi": 77,
          "name": "F5",
          "ticks": 50880,
          "time": 79.50021199999999,
          "velocity": 0.6299212598425197
        },
        {
          "duration": 0.35468844583333237,
          "durationTicks": 227,
          "midi": 75,
          "name": "D#5",
          "ticks": 52080,
          "time": 81.37521699999999,
          "velocity": 0.6299212598425197
        },
        {
          "duration": 0.35468844583333237,
          "durationTicks": 227,
          "midi": 78,
          "name": "F#5",
          "ticks": 52320,
          "time": 81.75021799999999,
          "velocity": 0.6299212598425197
        },
        {
          "duration": 0.35468844583333237,
          "durationTicks": 227,
          "midi": 80,
          "name": "G#5",
          "ticks": 52560,
          "time": 82.12521899999999,
          "velocity": 0.6299212598425197
        },
        {
          "duration": 0.35468844583333237,
          "durationTicks": 227,
          "midi": 77,
          "name": "F5",
          "ticks": 52800,
          "time": 82.50022,
          "velocity": 0.6299212598425197
        },
        {
          "duration": 0.35468844583333237,
          "durationTicks": 227,
          "midi": 75,
          "name": "D#5",
          "ticks": 53040,
          "time": 82.875221,
          "velocity": 0.6299212598425197
        },
        {
          "duration": 0.7109393958333357,
          "durationTicks": 455,
          "midi": 73,
          "name": "C#5",
          "ticks": 53280,
          "time": 83.250222,
          "velocity": 0.6299212598425197
        },
        {
          "duration": 5.698452695833339,
          "durationTicks": 3647,
          "midi": 75,
          "name": "D#5",
          "ticks": 53760,
          "time": 84.00022399999999,
          "velocity": 0.6299212598425197
        },
        {
          "duration": 0.7109393958333357,
          "durationTicks": 455,
          "midi": 60,
          "name": "C4",
          "ticks": 55680,
          "time": 87.000232,
          "velocity": 0.6299212598425197
        },
        {
          "duration": 0.7109393958333357,
          "durationTicks": 455,
          "midi": 75,
          "name": "D#5",
          "ticks": 57600,
          "time": 90.00023999999999,
          "velocity": 0.6299212598425197
        },
        {
          "duration": 0.7109393958333357,
          "durationTicks": 455,
          "midi": 78,
          "name": "F#5",
          "ticks": 58080,
          "time": 90.750242,
          "velocity": 0.6299212598425197
        },
        {
          "duration": 1.423441295833328,
          "durationTicks": 911,
          "midi": 77,
          "name": "F5",
          "ticks": 58560,
          "time": 91.500244,
          "velocity": 0.6299212598425197
        },
        {
          "duration": 0.35468844583333237,
          "durationTicks": 227,
          "midi": 75,
          "name": "D#5",
          "ticks": 59760,
          "time": 93.375249,
          "velocity": 0.6299212598425197
        },
        {
          "duration": 0.35468844583333237,
          "durationTicks": 227,
          "midi": 78,
          "name": "F#5",
          "ticks": 60000,
          "time": 93.75025,
          "velocity": 0.6299212598425197
        },
        {
          "duration": 0.35468844583333237,
          "durationTicks": 227,
          "midi": 80,
          "name": "G#5",
          "ticks": 60240,
          "time": 94.12525099999999,
          "velocity": 0.6299212598425197
        },
        {
          "duration": 0.35468844583333237,
          "durationTicks": 227,
          "midi": 77,
          "name": "F5",
          "ticks": 60480,
          "time": 94.50025199999999,
          "velocity": 0.6299212598425197
        },
        {
          "duration": 0.35468844583333237,
          "durationTicks": 227,
          "midi": 75,
          "name": "D#5",
          "ticks": 60720,
          "time": 94.87525299999999,
          "velocity": 0.6299212598425197
        },
        {
          "duration": 0.7109393958333357,
          "durationTicks": 455,
          "midi": 73,
          "name": "C#5",
          "ticks": 60960,
          "time": 95.250254,
          "velocity": 0.6299212598425197
        },
        {
          "duration": 4.9859507958333324,
          "durationTicks": 3191,
          "midi": 75,
          "name": "D#5",
          "ticks": 61440,
          "time": 96.000256,
          "velocity": 0.6299212598425197
        },
        {
          "duration": 0.35468844583333237,
          "durationTicks": 227,
          "midi": 58,
          "name": "A#3",
          "ticks": 62400,
          "time": 97.50026,
          "velocity": 0.6299212598425197
        },
        {
          "duration": 0.35468844583333237,
          "durationTicks": 227,
          "midi": 63,
          "name": "D#4",
          "ticks": 62640,
          "time": 97.875261,
          "velocity": 0.6299212598425197
        },
        {
          "duration": 0.35468844583333237,
          "durationTicks": 227,
          "midi": 68,
          "name": "G#4",
          "ticks": 62880,
          "time": 98.25026199999999,
          "velocity": 0.6299212598425197
        },
        {
          "duration": 0.35468844583333237,
          "durationTicks": 227,
          "midi": 70,
          "name": "A#4",
          "ticks": 63120,
          "time": 98.62526299999999,
          "velocity": 0.6299212598425197
        },
        {
          "duration": 2.1359431958333346,
          "durationTicks": 1367,
          "midi": 67,
          "name": "G4",
          "ticks": 63360,
          "time": 99.00026399999999,
          "velocity": 0.6299212598425197
        },
        {
          "duration": 0.35468844583333237,
          "durationTicks": 227,
          "midi": 75,
          "name": "D#5",
          "ticks": 64800,
          "time": 101.25026999999999,
          "velocity": 0.6299212598425197
        },
        {
          "duration": 0.35468844583333237,
          "durationTicks": 227,
          "midi": 78,
          "name": "F#5",
          "ticks": 65040,
          "time": 101.625271,
          "velocity": 0.6299212598425197
        },
        {
          "duration": 0.7109393958333214,
          "durationTicks": 455,
          "midi": 80,
          "name": "G#5",
          "ticks": 65280,
          "time": 102.000272,
          "velocity": 0.6299212598425197
        },
        {
          "duration": 0.7109393958333214,
          "durationTicks": 455,
          "midi": 82,
          "name": "A#5",
          "ticks": 65760,
          "time": 102.75027399999999,
          "velocity": 0.6299212598425197
        },
        {
          "duration": 1.067190345833339,
          "durationTicks": 683,
          "midi": 78,
          "name": "F#5",
          "ticks": 66240,
          "time": 103.500276,
          "velocity": 0.6299212598425197
        },
        {
          "duration": 0.35468844583333237,
          "durationTicks": 227,
          "midi": 75,
          "name": "D#5",
          "ticks": 66960,
          "time": 104.62527899999999,
          "velocity": 0.6299212598425197
        },
        {
          "duration": 0.35468844583333237,
          "durationTicks": 227,
          "midi": 76,
          "name": "E5",
          "ticks": 67200,
          "time": 105.00027999999999,
          "velocity": 0.6299212598425197
        },
        {
          "duration": 0.35468844583333237,
          "durationTicks": 227,
          "midi": 75,
          "name": "D#5",
          "ticks": 67440,
          "time": 105.37528099999999,
          "velocity": 0.6299212598425197
        },
        {
          "duration": 0.35468844583331816,
          "durationTicks": 227,
          "midi": 76,
          "name": "E5",
          "ticks": 67680,
          "time": 105.750282,
          "velocity": 0.6299212598425197
        },
        {
          "duration": 0.35468844583333237,
          "durationTicks": 227,
          "midi": 80,
          "name": "G#5",
          "ticks": 67920,
          "time": 106.125283,
          "velocity": 0.6299212598425197
        },
        {
          "duration": 1.4234412958333422,
          "durationTicks": 911,
          "midi": 78,
          "name": "F#5",
          "ticks": 68160,
          "time": 106.500284,
          "velocity": 0.6299212598425197
        },
        {
          "duration": 0.35468844583331816,
          "durationTicks": 227,
          "midi": 71,
          "name": "B4",
          "ticks": 69120,
          "time": 108.000288,
          "velocity": 0.6299212598425197
        },
        {
          "duration": 0.35468844583333237,
          "durationTicks": 227,
          "midi": 70,
          "name": "A#4",
          "ticks": 69360,
          "time": 108.375289,
          "velocity": 0.6299212598425197
        },
        {
          "duration": 0.35468844583333237,
          "durationTicks": 227,
          "midi": 71,
          "name": "B4",
          "ticks": 69600,
          "time": 108.75028999999999,
          "velocity": 0.6299212598425197
        },
        {
          "duration": 0.35468844583333237,
          "durationTicks": 227,
          "midi": 75,
          "name": "D#5",
          "ticks": 69840,
          "time": 109.12529099999999,
          "velocity": 0.6299212598425197
        },
        {
          "duration": 0.7109393958333357,
          "durationTicks": 455,
          "midi": 73,
          "name": "C#5",
          "ticks": 70080,
          "time": 109.50029199999999,
          "velocity": 0.6299212598425197
        },
        {
          "duration": 0.35468844583333237,
          "durationTicks": 227,
          "midi": 70,
          "name": "A#4",
          "ticks": 70560,
          "time": 110.250294,
          "velocity": 0.6299212598425197
        },
        {
          "duration": 0.35468844583333237,
          "durationTicks": 227,
          "midi": 66,
          "name": "F#4",
          "ticks": 70800,
          "time": 110.625295,
          "velocity": 0.6299212598425197
        },
        {
          "duration": 1.4234412958333422,
          "durationTicks": 911,
          "midi": 68,
          "name": "G#4",
          "ticks": 71040,
          "time": 111.00029599999999,
          "velocity": 0.6299212598425197
        },
        {
          "duration": 0.35468844583333237,
          "durationTicks": 227,
          "midi": 63,
          "name": "D#4",
          "ticks": 72000,
          "time": 112.5003,
          "velocity": 0.6299212598425197
        },
        {
          "duration": 0.35468844583333237,
          "durationTicks": 227,
          "midi": 68,
          "name": "G#4",
          "ticks": 72240,
          "time": 112.875301,
          "velocity": 0.6299212598425197
        },
        {
          "duration": 0.35468844583333237,
          "durationTicks": 227,
          "midi": 70,
          "name": "A#4",
          "ticks": 72480,
          "time": 113.25030199999999,
          "velocity": 0.6299212598425197
        },
        {
          "duration": 0.35468844583333237,
          "durationTicks": 227,
          "midi": 71,
          "name": "B4",
          "ticks": 72720,
          "time": 113.62530299999999,
          "velocity": 0.6299212598425197
        },
        {
          "duration": 0.37343849583334077,
          "durationTicks": 239,
          "midi": 75,
          "name": "D#5",
          "ticks": 72960,
          "time": 114.00030399999999,
          "velocity": 0.6299212598425197
        },
        {
          "duration": 0.30625081666666176,
          "durationTicks": 196,
          "midi": 80,
          "name": "G#5",
          "ticks": 73002,
          "time": 114.065929175,
          "velocity": 0.6299212598425197
        },
        {
          "duration": 0.23906313749999697,
          "durationTicks": 153,
          "midi": 83,
          "name": "B5",
          "ticks": 73045,
          "time": 114.13311685416666,
          "velocity": 0.6299212598425197
        },
        {
          "duration": 0.35468844583331816,
          "durationTicks": 227,
          "midi": 82,
          "name": "A#5",
          "ticks": 73200,
          "time": 114.375305,
          "velocity": 0.6299212598425197
        },
        {
          "duration": 0.35468844583333237,
          "durationTicks": 227,
          "midi": 80,
          "name": "G#5",
          "ticks": 73440,
          "time": 114.750306,
          "velocity": 0.6299212598425197
        },
        {
          "duration": 0.35468844583333237,
          "durationTicks": 227,
          "midi": 78,
          "name": "F#5",
          "ticks": 73680,
          "time": 115.12530699999999,
          "velocity": 0.6299212598425197
        },
        {
          "duration": 1.4234412958333422,
          "durationTicks": 911,
          "midi": 78,
          "name": "F#5",
          "ticks": 73920,
          "time": 115.50030799999999,
          "velocity": 0.6299212598425197
        },
        {
          "duration": 1.4234412958333422,
          "durationTicks": 911,
          "midi": 80,
          "name": "G#5",
          "ticks": 73920,
          "time": 115.50030799999999,
          "velocity": 0.6299212598425197
        },
        {
          "duration": 0.35468844583333237,
          "durationTicks": 227,
          "midi": 73,
          "name": "C#5",
          "ticks": 74880,
          "time": 117.000312,
          "velocity": 0.6299212598425197
        },
        {
          "duration": 0.35468844583333237,
          "durationTicks": 227,
          "midi": 76,
          "name": "E5",
          "ticks": 74880,
          "time": 117.000312,
          "velocity": 0.6299212598425197
        },
        {
          "duration": 0.35468844583333237,
          "durationTicks": 227,
          "midi": 80,
          "name": "G#5",
          "ticks": 74880,
          "time": 117.000312,
          "velocity": 0.6299212598425197
        },
        {
          "duration": 0.35468844583333237,
          "durationTicks": 227,
          "midi": 78,
          "name": "F#5",
          "ticks": 75120,
          "time": 117.37531299999999,
          "velocity": 0.6299212598425197
        },
        {
          "duration": 0.35468844583333237,
          "durationTicks": 227,
          "midi": 76,
          "name": "E5",
          "ticks": 75360,
          "time": 117.75031399999999,
          "velocity": 0.6299212598425197
        },
        {
          "duration": 0.35468844583333237,
          "durationTicks": 227,
          "midi": 73,
          "name": "C#5",
          "ticks": 75600,
          "time": 118.12531499999999,
          "velocity": 0.6299212598425197
        },
        {
          "duration": 0.7109393958333214,
          "durationTicks": 455,
          "midi": 66,
          "name": "F#4",
          "ticks": 75840,
          "time": 118.500316,
          "velocity": 0.6299212598425197
        },
        {
          "duration": 0.7109393958333214,
          "durationTicks": 455,
          "midi": 71,
          "name": "B4",
          "ticks": 75840,
          "time": 118.500316,
          "velocity": 0.6299212598425197
        },
        {
          "duration": 0.7109393958333214,
          "durationTicks": 455,
          "midi": 75,
          "name": "D#5",
          "ticks": 75840,
          "time": 118.500316,
          "velocity": 0.6299212598425197
        },
        {
          "duration": 0.7109393958333214,
          "durationTicks": 455,
          "midi": 66,
          "name": "F#4",
          "ticks": 76320,
          "time": 119.250318,
          "velocity": 0.6299212598425197
        },
        {
          "duration": 0.7109393958333214,
          "durationTicks": 455,
          "midi": 70,
          "name": "A#4",
          "ticks": 76320,
          "time": 119.250318,
          "velocity": 0.6299212598425197
        },
        {
          "duration": 0.7109393958333214,
          "durationTicks": 455,
          "midi": 73,
          "name": "C#5",
          "ticks": 76320,
          "time": 119.250318,
          "velocity": 0.6299212598425197
        },
        {
          "duration": 0.35468844583333237,
          "durationTicks": 227,
          "midi": 63,
          "name": "D#4",
          "ticks": 76800,
          "time": 120.00031999999999,
          "velocity": 0.6299212598425197
        },
        {
          "duration": 0.35468844583333237,
          "durationTicks": 227,
          "midi": 68,
          "name": "G#4",
          "ticks": 76800,
          "time": 120.00031999999999,
          "velocity": 0.6299212598425197
        },
        {
          "duration": 0.35468844583333237,
          "durationTicks": 227,
          "midi": 71,
          "name": "B4",
          "ticks": 76800,
          "time": 120.00031999999999,
          "velocity": 0.6299212598425197
        },
        {
          "duration": 0.35468844583333237,
          "durationTicks": 227,
          "midi": 70,
          "name": "A#4",
          "ticks": 77040,
          "time": 120.37532099999999,
          "velocity": 0.6299212598425197
        },
        {
          "duration": 0.35468844583331816,
          "durationTicks": 227,
          "midi": 71,
          "name": "B4",
          "ticks": 77280,
          "time": 120.750322,
          "velocity": 0.6299212598425197
        },
        {
          "duration": 0.35468844583333237,
          "durationTicks": 227,
          "midi": 75,
          "name": "D#5",
          "ticks": 77520,
          "time": 121.125323,
          "velocity": 0.6299212598425197
        },
        {
          "duration": 0.7109393958333214,
          "durationTicks": 455,
          "midi": 66,
          "name": "F#4",
          "ticks": 77760,
          "time": 121.50032399999999,
          "velocity": 0.6299212598425197
        },
        {
          "duration": 0.7109393958333214,
          "durationTicks": 455,
          "midi": 70,
          "name": "A#4",
          "ticks": 77760,
          "time": 121.50032399999999,
          "velocity": 0.6299212598425197
        },
        {
          "duration": 0.7109393958333214,
          "durationTicks": 455,
          "midi": 73,
          "name": "C#5",
          "ticks": 77760,
          "time": 121.50032399999999,
          "velocity": 0.6299212598425197
        },
        {
          "duration": 0.35468844583333237,
          "durationTicks": 227,
          "midi": 70,
          "name": "A#4",
          "ticks": 78240,
          "time": 122.25032599999999,
          "velocity": 0.6299212598425197
        },
        {
          "duration": 0.35468844583333237,
          "durationTicks": 227,
          "midi": 66,
          "name": "F#4",
          "ticks": 78480,
          "time": 122.62532699999998,
          "velocity": 0.6299212598425197
        },
        {
          "duration": 1.423441295833328,
          "durationTicks": 911,
          "midi": 61,
          "name": "C#4",
          "ticks": 78720,
          "time": 123.000328,
          "velocity": 0.6299212598425197
        },
        {
          "duration": 1.423441295833328,
          "durationTicks": 911,
          "midi": 66,
          "name": "F#4",
          "ticks": 78720,
          "time": 123.000328,
          "velocity": 0.6299212598425197
        },
        {
          "duration": 1.423441295833328,
          "durationTicks": 911,
          "midi": 68,
          "name": "G#4",
          "ticks": 78720,
          "time": 123.000328,
          "velocity": 0.6299212598425197
        },
        {
          "duration": 0.7109393958333357,
          "durationTicks": 455,
          "midi": 61,
          "name": "C#4",
          "ticks": 79680,
          "time": 124.50033199999999,
          "velocity": 0.6299212598425197
        },
        {
          "duration": 0.7109393958333357,
          "durationTicks": 455,
          "midi": 66,
          "name": "F#4",
          "ticks": 79680,
          "time": 124.50033199999999,
          "velocity": 0.6299212598425197
        },
        {
          "duration": 0.7109393958333357,
          "durationTicks": 455,
          "midi": 68,
          "name": "G#4",
          "ticks": 79680,
          "time": 124.50033199999999,
          "velocity": 0.6299212598425197
        },
        {
          "duration": 0.7109393958333214,
          "durationTicks": 455,
          "midi": 63,
          "name": "D#4",
          "ticks": 80160,
          "time": 125.250334,
          "velocity": 0.6299212598425197
        },
        {
          "duration": 0.7109393958333214,
          "durationTicks": 455,
          "midi": 67,
          "name": "G4",
          "ticks": 80160,
          "time": 125.250334,
          "velocity": 0.6299212598425197
        },
        {
          "duration": 0.7109393958333214,
          "durationTicks": 455,
          "midi": 70,
          "name": "A#4",
          "ticks": 80160,
          "time": 125.250334,
          "velocity": 0.6299212598425197
        },
        {
          "duration": 0.35468844583333237,
          "durationTicks": 227,
          "midi": 63,
          "name": "D#4",
          "ticks": 80640,
          "time": 126.00033599999999,
          "velocity": 0.6299212598425197
        },
        {
          "duration": 0.35468844583333237,
          "durationTicks": 227,
          "midi": 68,
          "name": "G#4",
          "ticks": 80640,
          "time": 126.00033599999999,
          "velocity": 0.6299212598425197
        },
        {
          "duration": 0.35468844583333237,
          "durationTicks": 227,
          "midi": 71,
          "name": "B4",
          "ticks": 80640,
          "time": 126.00033599999999,
          "velocity": 0.6299212598425197
        },
        {
          "duration": 0.35468844583333237,
          "durationTicks": 227,
          "midi": 70,
          "name": "A#4",
          "ticks": 80880,
          "time": 126.37533699999999,
          "velocity": 0.6299212598425197
        },
        {
          "duration": 0.35468844583333237,
          "durationTicks": 227,
          "midi": 68,
          "name": "G#4",
          "ticks": 81120,
          "time": 126.75033799999999,
          "velocity": 0.6299212598425197
        },
        {
          "duration": 0.35468844583331816,
          "durationTicks": 227,
          "midi": 66,
          "name": "F#4",
          "ticks": 81360,
          "time": 127.125339,
          "velocity": 0.6299212598425197
        },
        {
          "duration": 1.423441295833328,
          "durationTicks": 911,
          "midi": 66,
          "name": "F#4",
          "ticks": 81600,
          "time": 127.50034,
          "velocity": 0.6299212598425197
        },
        {
          "duration": 1.423441295833328,
          "durationTicks": 911,
          "midi": 68,
          "name": "G#4",
          "ticks": 81600,
          "time": 127.50034,
          "velocity": 0.6299212598425197
        },
        {
          "duration": 0.3546884458333466,
          "durationTicks": 227,
          "midi": 61,
          "name": "C#4",
          "ticks": 82560,
          "time": 129.00034399999998,
          "velocity": 0.6299212598425197
        },
        {
          "duration": 0.3546884458333466,
          "durationTicks": 227,
          "midi": 64,
          "name": "E4",
          "ticks": 82560,
          "time": 129.00034399999998,
          "velocity": 0.6299212598425197
        },
        {
          "duration": 0.3546884458333466,
          "durationTicks": 227,
          "midi": 68,
          "name": "G#4",
          "ticks": 82560,
          "time": 129.00034399999998,
          "velocity": 0.6299212598425197
        },
        {
          "duration": 0.3546884458333466,
          "durationTicks": 227,
          "midi": 66,
          "name": "F#4",
          "ticks": 82800,
          "time": 129.37534499999998,
          "velocity": 0.6299212598425197
        },
        {
          "duration": 0.3546884458333466,
          "durationTicks": 227,
          "midi": 64,
          "name": "E4",
          "ticks": 83040,
          "time": 129.75034599999998,
          "velocity": 0.6299212598425197
        },
        {
          "duration": 0.3546884458333466,
          "durationTicks": 227,
          "midi": 61,
          "name": "C#4",
          "ticks": 83280,
          "time": 130.12534699999998,
          "velocity": 0.6299212598425197
        },
        {
          "duration": 0.7109393958333214,
          "durationTicks": 455,
          "midi": 54,
          "name": "F#3",
          "ticks": 83520,
          "time": 130.500348,
          "velocity": 0.6299212598425197
        },
        {
          "duration": 0.7109393958333214,
          "durationTicks": 455,
          "midi": 59,
          "name": "B3",
          "ticks": 83520,
          "time": 130.500348,
          "velocity": 0.6299212598425197
        },
        {
          "duration": 0.7109393958333214,
          "durationTicks": 455,
          "midi": 63,
          "name": "D#4",
          "ticks": 83520,
          "time": 130.500348,
          "velocity": 0.6299212598425197
        },
        {
          "duration": 0.7109393958333214,
          "durationTicks": 455,
          "midi": 54,
          "name": "F#3",
          "ticks": 84000,
          "time": 131.25035,
          "velocity": 0.6299212598425197
        },
        {
          "duration": 0.7109393958333214,
          "durationTicks": 455,
          "midi": 58,
          "name": "A#3",
          "ticks": 84000,
          "time": 131.25035,
          "velocity": 0.6299212598425197
        },
        {
          "duration": 0.7109393958333214,
          "durationTicks": 455,
          "midi": 61,
          "name": "C#4",
          "ticks": 84000,
          "time": 131.25035,
          "velocity": 0.6299212598425197
        },
        {
          "duration": 0.35468844583331816,
          "durationTicks": 227,
          "midi": 51,
          "name": "D#3",
          "ticks": 84480,
          "time": 132.000352,
          "velocity": 0.6299212598425197
        },
        {
          "duration": 0.35468844583331816,
          "durationTicks": 227,
          "midi": 56,
          "name": "G#3",
          "ticks": 84480,
          "time": 132.000352,
          "velocity": 0.6299212598425197
        },
        {
          "duration": 0.35468844583331816,
          "durationTicks": 227,
          "midi": 59,
          "name": "B3",
          "ticks": 84480,
          "time": 132.000352,
          "velocity": 0.6299212598425197
        },
        {
          "duration": 0.35468844583331816,
          "durationTicks": 227,
          "midi": 58,
          "name": "A#3",
          "ticks": 84720,
          "time": 132.375353,
          "velocity": 0.6299212598425197
        },
        {
          "duration": 0.3546884458333466,
          "durationTicks": 227,
          "midi": 59,
          "name": "B3",
          "ticks": 84960,
          "time": 132.750354,
          "velocity": 0.6299212598425197
        },
        {
          "duration": 0.3546884458333466,
          "durationTicks": 227,
          "midi": 63,
          "name": "D#4",
          "ticks": 85200,
          "time": 133.12535499999998,
          "velocity": 0.6299212598425197
        },
        {
          "duration": 0.7109393958333214,
          "durationTicks": 455,
          "midi": 61,
          "name": "C#4",
          "ticks": 85440,
          "time": 133.50035599999998,
          "velocity": 0.6299212598425197
        },
        {
          "duration": 0.7109393958333499,
          "durationTicks": 455,
          "midi": 58,
          "name": "A#3",
          "ticks": 85920,
          "time": 134.25035799999998,
          "velocity": 0.6299212598425197
        },
        {
          "duration": 0.7109393958333499,
          "durationTicks": 455,
          "midi": 61,
          "name": "C#4",
          "ticks": 85920,
          "time": 134.25035799999998,
          "velocity": 0.6299212598425197
        },
        {
          "duration": 0.7109393958333499,
          "durationTicks": 455,
          "midi": 66,
          "name": "F#4",
          "ticks": 85920,
          "time": 134.25035799999998,
          "velocity": 0.6299212598425197
        },
        {
          "duration": 1.423441295833328,
          "durationTicks": 911,
          "midi": 59,
          "name": "B3",
          "ticks": 86400,
          "time": 135.00036,
          "velocity": 0.6299212598425197
        },
        {
          "duration": 1.423441295833328,
          "durationTicks": 911,
          "midi": 66,
          "name": "F#4",
          "ticks": 86400,
          "time": 135.00036,
          "velocity": 0.6299212598425197
        },
        {
          "duration": 1.423441295833328,
          "durationTicks": 911,
          "midi": 68,
          "name": "G#4",
          "ticks": 86400,
          "time": 135.00036,
          "velocity": 0.6299212598425197
        },
        {
          "duration": 0.35468844583331816,
          "durationTicks": 227,
          "midi": 63,
          "name": "D#4",
          "ticks": 87360,
          "time": 136.500364,
          "velocity": 0.6299212598425197
        },
        {
          "duration": 0.3546884458333466,
          "durationTicks": 227,
          "midi": 64,
          "name": "E4",
          "ticks": 87600,
          "time": 136.875365,
          "velocity": 0.6299212598425197
        },
        {
          "duration": 0.3546884458333466,
          "durationTicks": 227,
          "midi": 71,
          "name": "B4",
          "ticks": 87840,
          "time": 137.25036599999999,
          "velocity": 0.6299212598425197
        },
        {
          "duration": 0.3546884458333466,
          "durationTicks": 227,
          "midi": 75,
          "name": "D#5",
          "ticks": 88080,
          "time": 137.62536699999998,
          "velocity": 0.6299212598425197
        },
        {
          "duration": 2.848445095833341,
          "durationTicks": 1823,
          "midi": 80,
          "name": "G#5",
          "ticks": 88320,
          "time": 138.00036799999998,
          "velocity": 0.6299212598425197
        },
        {
          "duration": 1.0671903458333531,
          "durationTicks": 683,
          "midi": 71,
          "name": "B4",
          "ticks": 90240,
          "time": 141.000376,
          "velocity": 0.6299212598425197
        },
        {
          "duration": 1.0671903458333531,
          "durationTicks": 683,
          "midi": 83,
          "name": "B5",
          "ticks": 90240,
          "time": 141.000376,
          "velocity": 0.6299212598425197
        },
        {
          "duration": 0.3546884458333466,
          "durationTicks": 227,
          "midi": 73,
          "name": "C#5",
          "ticks": 90960,
          "time": 142.12537899999998,
          "velocity": 0.6299212598425197
        },
        {
          "duration": 0.3546884458333466,
          "durationTicks": 227,
          "midi": 85,
          "name": "C#6",
          "ticks": 90960,
          "time": 142.12537899999998,
          "velocity": 0.6299212598425197
        },
        {
          "duration": 0.7109393958333499,
          "durationTicks": 455,
          "midi": 75,
          "name": "D#5",
          "ticks": 91200,
          "time": 142.50037999999998,
          "velocity": 0.6299212598425197
        },
        {
          "duration": 0.7109393958333499,
          "durationTicks": 455,
          "midi": 87,
          "name": "D#6",
          "ticks": 91200,
          "time": 142.50037999999998,
          "velocity": 0.6299212598425197
        },
        {
          "duration": 0.7109393958333214,
          "durationTicks": 455,
          "midi": 78,
          "name": "F#5",
          "ticks": 91680,
          "time": 143.250382,
          "velocity": 0.6299212598425197
        },
        {
          "duration": 0.7109393958333214,
          "durationTicks": 455,
          "midi": 90,
          "name": "F#6",
          "ticks": 91680,
          "time": 143.250382,
          "velocity": 0.6299212598425197
        },
        {
          "duration": 1.423441295833328,
          "durationTicks": 911,
          "midi": 73,
          "name": "C#5",
          "ticks": 92160,
          "time": 144.000384,
          "velocity": 0.6299212598425197
        },
        {
          "duration": 1.423441295833328,
          "durationTicks": 911,
          "midi": 85,
          "name": "C#6",
          "ticks": 92160,
          "time": 144.000384,
          "velocity": 0.6299212598425197
        },
        {
          "duration": 0.3546884458333466,
          "durationTicks": 227,
          "midi": 71,
          "name": "B4",
          "ticks": 93600,
          "time": 146.25038999999998,
          "velocity": 0.6299212598425197
        },
        {
          "duration": 0.3546884458333466,
          "durationTicks": 227,
          "midi": 83,
          "name": "B5",
          "ticks": 93600,
          "time": 146.25038999999998,
          "velocity": 0.6299212598425197
        },
        {
          "duration": 0.3546884458333466,
          "durationTicks": 227,
          "midi": 70,
          "name": "A#4",
          "ticks": 93840,
          "time": 146.62539099999998,
          "velocity": 0.6299212598425197
        },
        {
          "duration": 0.3546884458333466,
          "durationTicks": 227,
          "midi": 82,
          "name": "A#5",
          "ticks": 93840,
          "time": 146.62539099999998,
          "velocity": 0.6299212598425197
        },
        {
          "duration": 1.4234412958333564,
          "durationTicks": 911,
          "midi": 68,
          "name": "G#4",
          "ticks": 94080,
          "time": 147.00039199999998,
          "velocity": 0.6299212598425197
        },
        {
          "duration": 1.4234412958333564,
          "durationTicks": 911,
          "midi": 80,
          "name": "G#5",
          "ticks": 94080,
          "time": 147.00039199999998,
          "velocity": 0.6299212598425197
        },
        {
          "duration": 0.35468844583331816,
          "durationTicks": 227,
          "midi": 63,
          "name": "D#4",
          "ticks": 94800,
          "time": 148.125395,
          "velocity": 0.6299212598425197
        },
        {
          "duration": 1.423441295833328,
          "durationTicks": 911,
          "midi": 56,
          "name": "G#3",
          "ticks": 95040,
          "time": 148.500396,
          "velocity": 0.6299212598425197
        },
        {
          "duration": 1.423441295833328,
          "durationTicks": 911,
          "midi": 58,
          "name": "A#3",
          "ticks": 95040,
          "time": 148.500396,
          "velocity": 0.6299212598425197
        },
        {
          "duration": 1.423441295833328,
          "durationTicks": 911,
          "midi": 61,
          "name": "C#4",
          "ticks": 95040,
          "time": 148.500396,
          "velocity": 0.6299212598425197
        },
        {
          "duration": 0.35468844583331816,
          "durationTicks": 227,
          "midi": 66,
          "name": "F#4",
          "ticks": 95520,
          "time": 149.250398,
          "velocity": 0.6299212598425197
        },
        {
          "duration": 0.35468844583331816,
          "durationTicks": 227,
          "midi": 78,
          "name": "F#5",
          "ticks": 95520,
          "time": 149.250398,
          "velocity": 0.6299212598425197
        },
        {
          "duration": 0.3546884458333466,
          "durationTicks": 227,
          "midi": 68,
          "name": "G#4",
          "ticks": 95760,
          "time": 149.625399,
          "velocity": 0.6299212598425197
        },
        {
          "duration": 0.3546884458333466,
          "durationTicks": 227,
          "midi": 80,
          "name": "G#5",
          "ticks": 95760,
          "time": 149.625399,
          "velocity": 0.6299212598425197
        },
        {
          "duration": 1.4234412958333564,
          "durationTicks": 911,
          "midi": 68,
          "name": "G#4",
          "ticks": 96000,
          "time": 150.00039999999998,
          "velocity": 0.6299212598425197
        },
        {
          "duration": 1.4234412958333564,
          "durationTicks": 911,
          "midi": 80,
          "name": "G#5",
          "ticks": 96000,
          "time": 150.00039999999998,
          "velocity": 0.6299212598425197
        },
        {
          "duration": 0.35468844583331816,
          "durationTicks": 227,
          "midi": 70,
          "name": "A#4",
          "ticks": 97680,
          "time": 152.625407,
          "velocity": 0.6299212598425197
        },
        {
          "duration": 0.35468844583331816,
          "durationTicks": 227,
          "midi": 82,
          "name": "A#5",
          "ticks": 97680,
          "time": 152.625407,
          "velocity": 0.6299212598425197
        },
        {
          "duration": 1.0671903458333531,
          "durationTicks": 683,
          "midi": 71,
          "name": "B4",
          "ticks": 97920,
          "time": 153.000408,
          "velocity": 0.6299212598425197
        },
        {
          "duration": 1.0671903458333531,
          "durationTicks": 683,
          "midi": 83,
          "name": "B5",
          "ticks": 97920,
          "time": 153.000408,
          "velocity": 0.6299212598425197
        },
        {
          "duration": 0.3546884458333466,
          "durationTicks": 227,
          "midi": 73,
          "name": "C#5",
          "ticks": 98640,
          "time": 154.12541099999999,
          "velocity": 0.6299212598425197
        },
        {
          "duration": 0.3546884458333466,
          "durationTicks": 227,
          "midi": 85,
          "name": "C#6",
          "ticks": 98640,
          "time": 154.12541099999999,
          "velocity": 0.6299212598425197
        },
        {
          "duration": 0.7109393958333214,
          "durationTicks": 455,
          "midi": 75,
          "name": "D#5",
          "ticks": 98880,
          "time": 154.50041199999998,
          "velocity": 0.6299212598425197
        },
        {
          "duration": 0.7109393958333214,
          "durationTicks": 455,
          "midi": 87,
          "name": "D#6",
          "ticks": 98880,
          "time": 154.50041199999998,
          "velocity": 0.6299212598425197
        },
        {
          "duration": 0.7109393958333499,
          "durationTicks": 455,
          "midi": 78,
          "name": "F#5",
          "ticks": 99360,
          "time": 155.25041399999998,
          "velocity": 0.6299212598425197
        },
        {
          "duration": 0.7109393958333499,
          "durationTicks": 455,
          "midi": 90,
          "name": "F#6",
          "ticks": 99360,
          "time": 155.25041399999998,
          "velocity": 0.6299212598425197
        },
        {
          "duration": 1.423441295833328,
          "durationTicks": 911,
          "midi": 73,
          "name": "C#5",
          "ticks": 99840,
          "time": 156.000416,
          "velocity": 0.6299212598425197
        },
        {
          "duration": 1.423441295833328,
          "durationTicks": 911,
          "midi": 85,
          "name": "C#6",
          "ticks": 99840,
          "time": 156.000416,
          "velocity": 0.6299212598425197
        },
        {
          "duration": 0.3546884458333466,
          "durationTicks": 227,
          "midi": 71,
          "name": "B4",
          "ticks": 101520,
          "time": 158.62542299999998,
          "velocity": 0.6299212598425197
        },
        {
          "duration": 0.3546884458333466,
          "durationTicks": 227,
          "midi": 83,
          "name": "B5",
          "ticks": 101520,
          "time": 158.62542299999998,
          "velocity": 0.6299212598425197
        },
        {
          "duration": 1.0671903458333531,
          "durationTicks": 683,
          "midi": 73,
          "name": "C#5",
          "ticks": 101760,
          "time": 159.00042399999998,
          "velocity": 0.6299212598425197
        },
        {
          "duration": 1.0671903458333531,
          "durationTicks": 683,
          "midi": 85,
          "name": "C#6",
          "ticks": 101760,
          "time": 159.00042399999998,
          "velocity": 0.6299212598425197
        },
        {
          "duration": 0.35468844583331816,
          "durationTicks": 227,
          "midi": 75,
          "name": "D#5",
          "ticks": 102480,
          "time": 160.125427,
          "velocity": 0.6299212598425197
        },
        {
          "duration": 0.35468844583331816,
          "durationTicks": 227,
          "midi": 87,
          "name": "D#6",
          "ticks": 102480,
          "time": 160.125427,
          "velocity": 0.6299212598425197
        },
        {
          "duration": 0.7109393958333214,
          "durationTicks": 455,
          "midi": 76,
          "name": "E5",
          "ticks": 102720,
          "time": 160.500428,
          "velocity": 0.6299212598425197
        },
        {
          "duration": 0.7109393958333214,
          "durationTicks": 455,
          "midi": 88,
          "name": "E6",
          "ticks": 102720,
          "time": 160.500428,
          "velocity": 0.6299212598425197
        },
        {
          "duration": 0.7109393958333214,
          "durationTicks": 455,
          "midi": 80,
          "name": "G#5",
          "ticks": 103200,
          "time": 161.25043,
          "velocity": 0.6299212598425197
        },
        {
          "duration": 0.7109393958333214,
          "durationTicks": 455,
          "midi": 92,
          "name": "G#6",
          "ticks": 103200,
          "time": 161.25043,
          "velocity": 0.6299212598425197
        },
        {
          "duration": 0.7109393958333214,
          "durationTicks": 455,
          "midi": 75,
          "name": "D#5",
          "ticks": 103680,
          "time": 162.000432,
          "velocity": 0.6299212598425197
        },
        {
          "duration": 0.7109393958333214,
          "durationTicks": 455,
          "midi": 78,
          "name": "F#5",
          "ticks": 103680,
          "time": 162.000432,
          "velocity": 0.6299212598425197
        },
        {
          "duration": 0.7109393958333214,
          "durationTicks": 455,
          "midi": 82,
          "name": "A#5",
          "ticks": 103680,
          "time": 162.000432,
          "velocity": 0.6299212598425197
        },
        {
          "duration": 0.7109393958333214,
          "durationTicks": 455,
          "midi": 87,
          "name": "D#6",
          "ticks": 103680,
          "time": 162.000432,
          "velocity": 0.6299212598425197
        },
        {
          "duration": 0.7109393958333214,
          "durationTicks": 455,
          "midi": 61,
          "name": "C#4",
          "ticks": 104160,
          "time": 162.75043399999998,
          "velocity": 0.6299212598425197
        },
        {
          "duration": 0.7109393958333214,
          "durationTicks": 455,
          "midi": 66,
          "name": "F#4",
          "ticks": 104160,
          "time": 162.75043399999998,
          "velocity": 0.6299212598425197
        },
        {
          "duration": 0.7109393958333214,
          "durationTicks": 455,
          "midi": 70,
          "name": "A#4",
          "ticks": 104160,
          "time": 162.75043399999998,
          "velocity": 0.6299212598425197
        },
        {
          "duration": 0.7109393958333214,
          "durationTicks": 455,
          "midi": 63,
          "name": "D#4",
          "ticks": 104640,
          "time": 163.50043599999998,
          "velocity": 0.6299212598425197
        },
        {
          "duration": 0.7109393958333214,
          "durationTicks": 455,
          "midi": 68,
          "name": "G#4",
          "ticks": 104640,
          "time": 163.50043599999998,
          "velocity": 0.6299212598425197
        },
        {
          "duration": 0.7109393958333214,
          "durationTicks": 455,
          "midi": 72,
          "name": "C5",
          "ticks": 104640,
          "time": 163.50043599999998,
          "velocity": 0.6299212598425197
        },
        {
          "duration": 0.7109393958333499,
          "durationTicks": 455,
          "midi": 75,
          "name": "D#5",
          "ticks": 105120,
          "time": 164.25043799999997,
          "velocity": 0.6299212598425197
        },
        {
          "duration": 0.7109393958333499,
          "durationTicks": 455,
          "midi": 80,
          "name": "G#5",
          "ticks": 105120,
          "time": 164.25043799999997,
          "velocity": 0.6299212598425197
        },
        {
          "duration": 0.7109393958333499,
          "durationTicks": 455,
          "midi": 84,
          "name": "C6",
          "ticks": 105120,
          "time": 164.25043799999997,
          "velocity": 0.6299212598425197
        },
        {
          "duration": 0.7109393958333499,
          "durationTicks": 455,
          "midi": 87,
          "name": "D#6",
          "ticks": 105120,
          "time": 164.25043799999997,
          "velocity": 0.6299212598425197
        },
        {
          "duration": 1.423441295833328,
          "durationTicks": 911,
          "midi": 80,
          "name": "G#5",
          "ticks": 105600,
          "time": 165.00044,
          "velocity": 0.6299212598425197
        },
        {
          "duration": 1.423441295833328,
          "durationTicks": 911,
          "midi": 83,
          "name": "B5",
          "ticks": 105600,
          "time": 165.00044,
          "velocity": 0.6299212598425197
        },
        {
          "duration": 1.423441295833328,
          "durationTicks": 911,
          "midi": 88,
          "name": "E6",
          "ticks": 105600,
          "time": 165.00044,
          "velocity": 0.6299212598425197
        },
        {
          "duration": 1.423441295833328,
          "durationTicks": 911,
          "midi": 92,
          "name": "G#6",
          "ticks": 105600,
          "time": 165.00044,
          "velocity": 0.6299212598425197
        },
        {
          "duration": 0.35468844583331816,
          "durationTicks": 227,
          "midi": 59,
          "name": "B3",
          "ticks": 106560,
          "time": 166.500444,
          "velocity": 0.6299212598425197
        },
        {
          "duration": 0.3546884458333466,
          "durationTicks": 227,
          "midi": 64,
          "name": "E4",
          "ticks": 106800,
          "time": 166.87544499999998,
          "velocity": 0.6299212598425197
        },
        {
          "duration": 0.3546884458333466,
          "durationTicks": 227,
          "midi": 68,
          "name": "G#4",
          "ticks": 107040,
          "time": 167.25044599999998,
          "velocity": 0.6299212598425197
        },
        {
          "duration": 0.3546884458333466,
          "durationTicks": 227,
          "midi": 70,
          "name": "A#4",
          "ticks": 107280,
          "time": 167.62544699999998,
          "velocity": 0.6299212598425197
        },
        {
          "duration": 1.4234412958333564,
          "durationTicks": 911,
          "midi": 64,
          "name": "E4",
          "ticks": 107520,
          "time": 168.00044799999998,
          "velocity": 0.6299212598425197
        },
        {
          "duration": 1.4234412958333564,
          "durationTicks": 911,
          "midi": 68,
          "name": "G#4",
          "ticks": 107520,
          "time": 168.00044799999998,
          "velocity": 0.6299212598425197
        },
        {
          "duration": 1.4234412958333564,
          "durationTicks": 911,
          "midi": 71,
          "name": "B4",
          "ticks": 107520,
          "time": 168.00044799999998,
          "velocity": 0.6299212598425197
        },
        {
          "duration": 0.7109393958333214,
          "durationTicks": 455,
          "midi": 80,
          "name": "G#5",
          "ticks": 108480,
          "time": 169.500452,
          "velocity": 0.6299212598425197
        },
        {
          "duration": 0.7109393958333214,
          "durationTicks": 455,
          "midi": 83,
          "name": "B5",
          "ticks": 108480,
          "time": 169.500452,
          "velocity": 0.6299212598425197
        },
        {
          "duration": 0.7109393958333214,
          "durationTicks": 455,
          "midi": 87,
          "name": "D#6",
          "ticks": 108480,
          "time": 169.500452,
          "velocity": 0.6299212598425197
        },
        {
          "duration": 0.7109393958333214,
          "durationTicks": 455,
          "midi": 92,
          "name": "G#6",
          "ticks": 108480,
          "time": 169.500452,
          "velocity": 0.6299212598425197
        },
        {
          "duration": 0.7109393958333214,
          "durationTicks": 455,
          "midi": 78,
          "name": "F#5",
          "ticks": 108960,
          "time": 170.250454,
          "velocity": 0.6299212598425197
        },
        {
          "duration": 0.7109393958333214,
          "durationTicks": 455,
          "midi": 82,
          "name": "A#5",
          "ticks": 108960,
          "time": 170.250454,
          "velocity": 0.6299212598425197
        },
        {
          "duration": 0.7109393958333214,
          "durationTicks": 455,
          "midi": 85,
          "name": "C#6",
          "ticks": 108960,
          "time": 170.250454,
          "velocity": 0.6299212598425197
        },
        {
          "duration": 0.7109393958333214,
          "durationTicks": 455,
          "midi": 90,
          "name": "F#6",
          "ticks": 108960,
          "time": 170.250454,
          "velocity": 0.6299212598425197
        },
        {
          "duration": 2.1359431958333346,
          "durationTicks": 1367,
          "midi": 75,
          "name": "D#5",
          "ticks": 109440,
          "time": 171.00045599999999,
          "velocity": 0.6299212598425197
        },
        {
          "duration": 2.1359431958333346,
          "durationTicks": 1367,
          "midi": 78,
          "name": "F#5",
          "ticks": 109440,
          "time": 171.00045599999999,
          "velocity": 0.6299212598425197
        },
        {
          "duration": 2.1359431958333346,
          "durationTicks": 1367,
          "midi": 82,
          "name": "A#5",
          "ticks": 109440,
          "time": 171.00045599999999,
          "velocity": 0.6299212598425197
        },
        {
          "duration": 2.1359431958333346,
          "durationTicks": 1367,
          "midi": 87,
          "name": "D#6",
          "ticks": 109440,
          "time": 171.00045599999999,
          "velocity": 0.6299212598425197
        },
        {
          "duration": 0.7109393958333214,
          "durationTicks": 455,
          "midi": 73,
          "name": "C#5",
          "ticks": 110880,
          "time": 173.250462,
          "velocity": 0.6299212598425197
        },
        {
          "duration": 0.7109393958333214,
          "durationTicks": 455,
          "midi": 78,
          "name": "F#5",
          "ticks": 110880,
          "time": 173.250462,
          "velocity": 0.6299212598425197
        },
        {
          "duration": 0.7109393958333214,
          "durationTicks": 455,
          "midi": 82,
          "name": "A#5",
          "ticks": 110880,
          "time": 173.250462,
          "velocity": 0.6299212598425197
        },
        {
          "duration": 0.7109393958333214,
          "durationTicks": 455,
          "midi": 85,
          "name": "C#6",
          "ticks": 110880,
          "time": 173.250462,
          "velocity": 0.6299212598425197
        },
        {
          "duration": 1.423441295833328,
          "durationTicks": 911,
          "midi": 71,
          "name": "B4",
          "ticks": 111360,
          "time": 174.000464,
          "velocity": 0.6299212598425197
        },
        {
          "duration": 1.423441295833328,
          "durationTicks": 911,
          "midi": 75,
          "name": "D#5",
          "ticks": 111360,
          "time": 174.000464,
          "velocity": 0.6299212598425197
        },
        {
          "duration": 1.423441295833328,
          "durationTicks": 911,
          "midi": 80,
          "name": "G#5",
          "ticks": 111360,
          "time": 174.000464,
          "velocity": 0.6299212598425197
        },
        {
          "duration": 1.423441295833328,
          "durationTicks": 911,
          "midi": 83,
          "name": "B5",
          "ticks": 111360,
          "time": 174.000464,
          "velocity": 0.6299212598425197
        },
        {
          "duration": 0.7109393958333214,
          "durationTicks": 455,
          "midi": 78,
          "name": "F#5",
          "ticks": 112800,
          "time": 176.25046999999998,
          "velocity": 0.6299212598425197
        },
        {
          "duration": 0.7109393958333214,
          "durationTicks": 455,
          "midi": 82,
          "name": "A#5",
          "ticks": 112800,
          "time": 176.25046999999998,
          "velocity": 0.6299212598425197
        },
        {
          "duration": 0.7109393958333214,
          "durationTicks": 455,
          "midi": 85,
          "name": "C#6",
          "ticks": 112800,
          "time": 176.25046999999998,
          "velocity": 0.6299212598425197
        },
        {
          "duration": 0.7109393958333214,
          "durationTicks": 455,
          "midi": 90,
          "name": "F#6",
          "ticks": 112800,
          "time": 176.25046999999998,
          "velocity": 0.6299212598425197
        },
        {
          "duration": 1.4234412958333564,
          "durationTicks": 911,
          "midi": 80,
          "name": "G#5",
          "ticks": 113280,
          "time": 177.00047199999997,
          "velocity": 0.6299212598425197
        },
        {
          "duration": 1.4234412958333564,
          "durationTicks": 911,
          "midi": 83,
          "name": "B5",
          "ticks": 113280,
          "time": 177.00047199999997,
          "velocity": 0.6299212598425197
        },
        {
          "duration": 1.4234412958333564,
          "durationTicks": 911,
          "midi": 88,
          "name": "E6",
          "ticks": 113280,
          "time": 177.00047199999997,
          "velocity": 0.6299212598425197
        },
        {
          "duration": 1.4234412958333564,
          "durationTicks": 911,
          "midi": 92,
          "name": "G#6",
          "ticks": 113280,
          "time": 177.00047199999997,
          "velocity": 0.6299212598425197
        },
        {
          "duration": 0.35468844583331816,
          "durationTicks": 227,
          "midi": 59,
          "name": "B3",
          "ticks": 114240,
          "time": 178.500476,
          "velocity": 0.6299212598425197
        },
        {
          "duration": 0.35468844583331816,
          "durationTicks": 227,
          "midi": 64,
          "name": "E4",
          "ticks": 114480,
          "time": 178.875477,
          "velocity": 0.6299212598425197
        },
        {
          "duration": 0.35468844583331816,
          "durationTicks": 227,
          "midi": 68,
          "name": "G#4",
          "ticks": 114720,
          "time": 179.250478,
          "velocity": 0.6299212598425197
        },
        {
          "duration": 0.3546884458333466,
          "durationTicks": 227,
          "midi": 70,
          "name": "A#4",
          "ticks": 114960,
          "time": 179.62547899999998,
          "velocity": 0.6299212598425197
        },
        {
          "duration": 1.4234412958333564,
          "durationTicks": 911,
          "midi": 64,
          "name": "E4",
          "ticks": 115200,
          "time": 180.00047999999998,
          "velocity": 0.6299212598425197
        },
        {
          "duration": 1.4234412958333564,
          "durationTicks": 911,
          "midi": 68,
          "name": "G#4",
          "ticks": 115200,
          "time": 180.00047999999998,
          "velocity": 0.6299212598425197
        },
        {
          "duration": 1.4234412958333564,
          "durationTicks": 911,
          "midi": 71,
          "name": "B4",
          "ticks": 115200,
          "time": 180.00047999999998,
          "velocity": 0.6299212598425197
        },
        {
          "duration": 0.7109393958333214,
          "durationTicks": 455,
          "midi": 80,
          "name": "G#5",
          "ticks": 116160,
          "time": 181.500484,
          "velocity": 0.6299212598425197
        },
        {
          "duration": 0.7109393958333214,
          "durationTicks": 455,
          "midi": 83,
          "name": "B5",
          "ticks": 116160,
          "time": 181.500484,
          "velocity": 0.6299212598425197
        },
        {
          "duration": 0.7109393958333214,
          "durationTicks": 455,
          "midi": 87,
          "name": "D#6",
          "ticks": 116160,
          "time": 181.500484,
          "velocity": 0.6299212598425197
        },
        {
          "duration": 0.7109393958333214,
          "durationTicks": 455,
          "midi": 92,
          "name": "G#6",
          "ticks": 116160,
          "time": 181.500484,
          "velocity": 0.6299212598425197
        },
        {
          "duration": 0.7109393958333214,
          "durationTicks": 455,
          "midi": 78,
          "name": "F#5",
          "ticks": 116640,
          "time": 182.250486,
          "velocity": 0.6299212598425197
        },
        {
          "duration": 0.7109393958333214,
          "durationTicks": 455,
          "midi": 82,
          "name": "A#5",
          "ticks": 116640,
          "time": 182.250486,
          "velocity": 0.6299212598425197
        },
        {
          "duration": 0.7109393958333214,
          "durationTicks": 455,
          "midi": 85,
          "name": "C#6",
          "ticks": 116640,
          "time": 182.250486,
          "velocity": 0.6299212598425197
        },
        {
          "duration": 0.7109393958333214,
          "durationTicks": 455,
          "midi": 90,
          "name": "F#6",
          "ticks": 116640,
          "time": 182.250486,
          "velocity": 0.6299212598425197
        },
        {
          "duration": 1.423441295833328,
          "durationTicks": 911,
          "midi": 80,
          "name": "G#5",
          "ticks": 117120,
          "time": 183.000488,
          "velocity": 0.6299212598425197
        },
        {
          "duration": 1.423441295833328,
          "durationTicks": 911,
          "midi": 85,
          "name": "C#6",
          "ticks": 117120,
          "time": 183.000488,
          "velocity": 0.6299212598425197
        },
        {
          "duration": 1.423441295833328,
          "durationTicks": 911,
          "midi": 88,
          "name": "E6",
          "ticks": 117120,
          "time": 183.000488,
          "velocity": 0.6299212598425197
        },
        {
          "duration": 1.423441295833328,
          "durationTicks": 911,
          "midi": 92,
          "name": "G#6",
          "ticks": 117120,
          "time": 183.000488,
          "velocity": 0.6299212598425197
        },
        {
          "duration": 0.3546884458333466,
          "durationTicks": 227,
          "midi": 58,
          "name": "A#3",
          "ticks": 118080,
          "time": 184.50049199999998,
          "velocity": 0.6299212598425197
        },
        {
          "duration": 0.3546884458333466,
          "durationTicks": 227,
          "midi": 63,
          "name": "D#4",
          "ticks": 118320,
          "time": 184.87549299999998,
          "velocity": 0.6299212598425197
        },
        {
          "duration": 0.3546884458333466,
          "durationTicks": 227,
          "midi": 68,
          "name": "G#4",
          "ticks": 118560,
          "time": 185.25049399999997,
          "velocity": 0.6299212598425197
        },
        {
          "duration": 0.35468844583331816,
          "durationTicks": 227,
          "midi": 70,
          "name": "A#4",
          "ticks": 118800,
          "time": 185.625495,
          "velocity": 0.6299212598425197
        },
        {
          "duration": 0.7109393958333214,
          "durationTicks": 455,
          "midi": 63,
          "name": "D#4",
          "ticks": 119040,
          "time": 186.000496,
          "velocity": 0.6299212598425197
        },
        {
          "duration": 0.7109393958333214,
          "durationTicks": 455,
          "midi": 68,
          "name": "G#4",
          "ticks": 119040,
          "time": 186.000496,
          "velocity": 0.6299212598425197
        },
        {
          "duration": 0.7109393958333214,
          "durationTicks": 455,
          "midi": 72,
          "name": "C5",
          "ticks": 119040,
          "time": 186.000496,
          "velocity": 0.6299212598425197
        },
        {
          "duration": 0.7109393958333214,
          "durationTicks": 455,
          "midi": 65,
          "name": "F4",
          "ticks": 119520,
          "time": 186.750498,
          "velocity": 0.6299212598425197
        },
        {
          "duration": 0.7109393958333214,
          "durationTicks": 455,
          "midi": 70,
          "name": "A#4",
          "ticks": 119520,
          "time": 186.750498,
          "velocity": 0.6299212598425197
        },
        {
          "duration": 0.7109393958333214,
          "durationTicks": 455,
          "midi": 73,
          "name": "C#5",
          "ticks": 119520,
          "time": 186.750498,
          "velocity": 0.6299212598425197
        },
        {
          "duration": 0.7109393958333214,
          "durationTicks": 455,
          "midi": 66,
          "name": "F#4",
          "ticks": 120000,
          "time": 187.5005,
          "velocity": 0.6299212598425197
        },
        {
          "duration": 0.7109393958333214,
          "durationTicks": 455,
          "midi": 72,
          "name": "C5",
          "ticks": 120000,
          "time": 187.5005,
          "velocity": 0.6299212598425197
        },
        {
          "duration": 0.7109393958333214,
          "durationTicks": 455,
          "midi": 75,
          "name": "D#5",
          "ticks": 120000,
          "time": 187.5005,
          "velocity": 0.6299212598425197
        },
        {
          "duration": 0.7109393958333214,
          "durationTicks": 455,
          "midi": 75,
          "name": "D#5",
          "ticks": 120480,
          "time": 188.25050199999998,
          "velocity": 0.6299212598425197
        },
        {
          "duration": 0.7109393958333214,
          "durationTicks": 455,
          "midi": 80,
          "name": "G#5",
          "ticks": 120480,
          "time": 188.25050199999998,
          "velocity": 0.6299212598425197
        },
        {
          "duration": 0.7109393958333214,
          "durationTicks": 455,
          "midi": 84,
          "name": "C6",
          "ticks": 120480,
          "time": 188.25050199999998,
          "velocity": 0.6299212598425197
        },
        {
          "duration": 0.7109393958333214,
          "durationTicks": 455,
          "midi": 87,
          "name": "D#6",
          "ticks": 120480,
          "time": 188.25050199999998,
          "velocity": 0.6299212598425197
        },
        {
          "duration": 1.4234412958333564,
          "durationTicks": 911,
          "midi": 80,
          "name": "G#5",
          "ticks": 120960,
          "time": 189.00050399999998,
          "velocity": 0.6299212598425197
        },
        {
          "duration": 1.4234412958333564,
          "durationTicks": 911,
          "midi": 83,
          "name": "B5",
          "ticks": 120960,
          "time": 189.00050399999998,
          "velocity": 0.6299212598425197
        },
        {
          "duration": 1.4234412958333564,
          "durationTicks": 911,
          "midi": 88,
          "name": "E6",
          "ticks": 120960,
          "time": 189.00050399999998,
          "velocity": 0.6299212598425197
        },
        {
          "duration": 1.4234412958333564,
          "durationTicks": 911,
          "midi": 92,
          "name": "G#6",
          "ticks": 120960,
          "time": 189.00050399999998,
          "velocity": 0.6299212598425197
        },
        {
          "duration": 0.35468844583331816,
          "durationTicks": 227,
          "midi": 59,
          "name": "B3",
          "ticks": 121920,
          "time": 190.500508,
          "velocity": 0.6299212598425197
        },
        {
          "duration": 0.35468844583331816,
          "durationTicks": 227,
          "midi": 64,
          "name": "E4",
          "ticks": 122160,
          "time": 190.875509,
          "velocity": 0.6299212598425197
        },
        {
          "duration": 0.35468844583331816,
          "durationTicks": 227,
          "midi": 68,
          "name": "G#4",
          "ticks": 122400,
          "time": 191.25051,
          "velocity": 0.6299212598425197
        },
        {
          "duration": 0.35468844583331816,
          "durationTicks": 227,
          "midi": 70,
          "name": "A#4",
          "ticks": 122640,
          "time": 191.625511,
          "velocity": 0.6299212598425197
        },
        {
          "duration": 1.423441295833328,
          "durationTicks": 911,
          "midi": 64,
          "name": "E4",
          "ticks": 122880,
          "time": 192.000512,
          "velocity": 0.6299212598425197
        },
        {
          "duration": 1.423441295833328,
          "durationTicks": 911,
          "midi": 68,
          "name": "G#4",
          "ticks": 122880,
          "time": 192.000512,
          "velocity": 0.6299212598425197
        },
        {
          "duration": 1.423441295833328,
          "durationTicks": 911,
          "midi": 71,
          "name": "B4",
          "ticks": 122880,
          "time": 192.000512,
          "velocity": 0.6299212598425197
        },
        {
          "duration": 0.7109393958333499,
          "durationTicks": 455,
          "midi": 80,
          "name": "G#5",
          "ticks": 123840,
          "time": 193.50051599999998,
          "velocity": 0.6299212598425197
        },
        {
          "duration": 0.7109393958333499,
          "durationTicks": 455,
          "midi": 83,
          "name": "B5",
          "ticks": 123840,
          "time": 193.50051599999998,
          "velocity": 0.6299212598425197
        },
        {
          "duration": 0.7109393958333499,
          "durationTicks": 455,
          "midi": 87,
          "name": "D#6",
          "ticks": 123840,
          "time": 193.50051599999998,
          "velocity": 0.6299212598425197
        },
        {
          "duration": 0.7109393958333499,
          "durationTicks": 455,
          "midi": 92,
          "name": "G#6",
          "ticks": 123840,
          "time": 193.50051599999998,
          "velocity": 0.6299212598425197
        },
        {
          "duration": 0.7109393958333214,
          "durationTicks": 455,
          "midi": 78,
          "name": "F#5",
          "ticks": 124320,
          "time": 194.250518,
          "velocity": 0.6299212598425197
        },
        {
          "duration": 0.7109393958333214,
          "durationTicks": 455,
          "midi": 82,
          "name": "A#5",
          "ticks": 124320,
          "time": 194.250518,
          "velocity": 0.6299212598425197
        },
        {
          "duration": 0.7109393958333214,
          "durationTicks": 455,
          "midi": 85,
          "name": "C#6",
          "ticks": 124320,
          "time": 194.250518,
          "velocity": 0.6299212598425197
        },
        {
          "duration": 0.7109393958333214,
          "durationTicks": 455,
          "midi": 90,
          "name": "F#6",
          "ticks": 124320,
          "time": 194.250518,
          "velocity": 0.6299212598425197
        },
        {
          "duration": 1.0671903458333247,
          "durationTicks": 683,
          "midi": 75,
          "name": "D#5",
          "ticks": 124800,
          "time": 195.00052,
          "velocity": 0.6299212598425197
        },
        {
          "duration": 1.0671903458333247,
          "durationTicks": 683,
          "midi": 78,
          "name": "F#5",
          "ticks": 124800,
          "time": 195.00052,
          "velocity": 0.6299212598425197
        },
        {
          "duration": 1.0671903458333247,
          "durationTicks": 683,
          "midi": 82,
          "name": "A#5",
          "ticks": 124800,
          "time": 195.00052,
          "velocity": 0.6299212598425197
        },
        {
          "duration": 1.0671903458333247,
          "durationTicks": 683,
          "midi": 87,
          "name": "D#6",
          "ticks": 124800,
          "time": 195.00052,
          "velocity": 0.6299212598425197
        },
        {
          "duration": 1.0671903458333247,
          "durationTicks": 683,
          "midi": 78,
          "name": "F#5",
          "ticks": 125520,
          "time": 196.125523,
          "velocity": 0.6299212598425197
        },
        {
          "duration": 1.0671903458333247,
          "durationTicks": 683,
          "midi": 82,
          "name": "A#5",
          "ticks": 125520,
          "time": 196.125523,
          "velocity": 0.6299212598425197
        },
        {
          "duration": 1.0671903458333247,
          "durationTicks": 683,
          "midi": 87,
          "name": "D#6",
          "ticks": 125520,
          "time": 196.125523,
          "velocity": 0.6299212598425197
        },
        {
          "duration": 1.0671903458333247,
          "durationTicks": 683,
          "midi": 90,
          "name": "F#6",
          "ticks": 125520,
          "time": 196.125523,
          "velocity": 0.6299212598425197
        },
        {
          "duration": 2.848445095833341,
          "durationTicks": 1823,
          "midi": 75,
          "name": "D#5",
          "ticks": 126240,
          "time": 197.25052599999998,
          "velocity": 0.6299212598425197
        },
        {
          "duration": 2.848445095833341,
          "durationTicks": 1823,
          "midi": 78,
          "name": "F#5",
          "ticks": 126240,
          "time": 197.25052599999998,
          "velocity": 0.6299212598425197
        },
        {
          "duration": 2.848445095833341,
          "durationTicks": 1823,
          "midi": 82,
          "name": "A#5",
          "ticks": 126240,
          "time": 197.25052599999998,
          "velocity": 0.6299212598425197
        },
        {
          "duration": 2.848445095833341,
          "durationTicks": 1823,
          "midi": 87,
          "name": "D#6",
          "ticks": 126240,
          "time": 197.25052599999998,
          "velocity": 0.6299212598425197
        },
        {
          "duration": 0.7109393958333499,
          "durationTicks": 455,
          "midi": 75,
          "name": "D#5",
          "ticks": 128160,
          "time": 200.250534,
          "velocity": 0.6299212598425197
        },
        {
          "duration": 0.7109393958333499,
          "durationTicks": 455,
          "midi": 78,
          "name": "F#5",
          "ticks": 128160,
          "time": 200.250534,
          "velocity": 0.6299212598425197
        },
        {
          "duration": 0.7109393958333499,
          "durationTicks": 455,
          "midi": 82,
          "name": "A#5",
          "ticks": 128160,
          "time": 200.250534,
          "velocity": 0.6299212598425197
        },
        {
          "duration": 0.7109393958333499,
          "durationTicks": 455,
          "midi": 87,
          "name": "D#6",
          "ticks": 128160,
          "time": 200.250534,
          "velocity": 0.6299212598425197
        },
        {
          "duration": 1.423441295833328,
          "durationTicks": 911,
          "midi": 80,
          "name": "G#5",
          "ticks": 128640,
          "time": 201.00053599999998,
          "velocity": 0.6299212598425197
        },
        {
          "duration": 1.423441295833328,
          "durationTicks": 911,
          "midi": 83,
          "name": "B5",
          "ticks": 128640,
          "time": 201.00053599999998,
          "velocity": 0.6299212598425197
        },
        {
          "duration": 1.423441295833328,
          "durationTicks": 911,
          "midi": 88,
          "name": "E6",
          "ticks": 128640,
          "time": 201.00053599999998,
          "velocity": 0.6299212598425197
        },
        {
          "duration": 1.423441295833328,
          "durationTicks": 911,
          "midi": 92,
          "name": "G#6",
          "ticks": 128640,
          "time": 201.00053599999998,
          "velocity": 0.6299212598425197
        },
        {
          "duration": 0.3546884458333466,
          "durationTicks": 227,
          "midi": 59,
          "name": "B3",
          "ticks": 129600,
          "time": 202.50053999999997,
          "velocity": 0.6299212598425197
        },
        {
          "duration": 0.35468844583331816,
          "durationTicks": 227,
          "midi": 64,
          "name": "E4",
          "ticks": 129840,
          "time": 202.875541,
          "velocity": 0.6299212598425197
        },
        {
          "duration": 0.35468844583331816,
          "durationTicks": 227,
          "midi": 68,
          "name": "G#4",
          "ticks": 130080,
          "time": 203.250542,
          "velocity": 0.6299212598425197
        },
        {
          "duration": 0.35468844583331816,
          "durationTicks": 227,
          "midi": 75,
          "name": "D#5",
          "ticks": 130320,
          "time": 203.625543,
          "velocity": 0.6299212598425197
        },
        {
          "duration": 1.423441295833328,
          "durationTicks": 911,
          "midi": 64,
          "name": "E4",
          "ticks": 130560,
          "time": 204.000544,
          "velocity": 0.6299212598425197
        },
        {
          "duration": 1.423441295833328,
          "durationTicks": 911,
          "midi": 68,
          "name": "G#4",
          "ticks": 130560,
          "time": 204.000544,
          "velocity": 0.6299212598425197
        },
        {
          "duration": 1.423441295833328,
          "durationTicks": 911,
          "midi": 73,
          "name": "C#5",
          "ticks": 130560,
          "time": 204.000544,
          "velocity": 0.6299212598425197
        },
        {
          "duration": 0.7109393958333499,
          "durationTicks": 455,
          "midi": 83,
          "name": "B5",
          "ticks": 131520,
          "time": 205.50054799999998,
          "velocity": 0.6299212598425197
        },
        {
          "duration": 0.7109393958333499,
          "durationTicks": 455,
          "midi": 87,
          "name": "D#6",
          "ticks": 131520,
          "time": 205.50054799999998,
          "velocity": 0.6299212598425197
        },
        {
          "duration": 0.7109393958333499,
          "durationTicks": 455,
          "midi": 90,
          "name": "F#6",
          "ticks": 131520,
          "time": 205.50054799999998,
          "velocity": 0.6299212598425197
        },
        {
          "duration": 0.7109393958333499,
          "durationTicks": 455,
          "midi": 95,
          "name": "B6",
          "ticks": 131520,
          "time": 205.50054799999998,
          "velocity": 0.6299212598425197
        },
        {
          "duration": 0.7109393958333499,
          "durationTicks": 455,
          "midi": 82,
          "name": "A#5",
          "ticks": 132000,
          "time": 206.25054999999998,
          "velocity": 0.6299212598425197
        },
        {
          "duration": 0.7109393958333499,
          "durationTicks": 455,
          "midi": 85,
          "name": "C#6",
          "ticks": 132000,
          "time": 206.25054999999998,
          "velocity": 0.6299212598425197
        },
        {
          "duration": 0.7109393958333499,
          "durationTicks": 455,
          "midi": 90,
          "name": "F#6",
          "ticks": 132000,
          "time": 206.25054999999998,
          "velocity": 0.6299212598425197
        },
        {
          "duration": 0.7109393958333499,
          "durationTicks": 455,
          "midi": 94,
          "name": "A#6",
          "ticks": 132000,
          "time": 206.25054999999998,
          "velocity": 0.6299212598425197
        },
        {
          "duration": 2.8484450958333127,
          "durationTicks": 1823,
          "midi": 80,
          "name": "G#5",
          "ticks": 132480,
          "time": 207.000552,
          "velocity": 0.6299212598425197
        },
        {
          "duration": 2.8484450958333127,
          "durationTicks": 1823,
          "midi": 83,
          "name": "B5",
          "ticks": 132480,
          "time": 207.000552,
          "velocity": 0.6299212598425197
        },
        {
          "duration": 2.8484450958333127,
          "durationTicks": 1823,
          "midi": 87,
          "name": "D#6",
          "ticks": 132480,
          "time": 207.000552,
          "velocity": 0.6299212598425197
        },
        {
          "duration": 2.8484450958333127,
          "durationTicks": 1823,
          "midi": 92,
          "name": "G#6",
          "ticks": 132480,
          "time": 207.000552,
          "velocity": 0.6299212598425197
        },
        {
          "duration": 1.0671903458333247,
          "durationTicks": 683,
          "midi": 56,
          "name": "G#3",
          "ticks": 134400,
          "time": 210.00055999999998,
          "velocity": 0.6299212598425197
        },
        {
          "duration": 1.0671903458333247,
          "durationTicks": 683,
          "midi": 59,
          "name": "B3",
          "ticks": 134400,
          "time": 210.00055999999998,
          "velocity": 0.6299212598425197
        },
        {
          "duration": 1.0671903458333247,
          "durationTicks": 683,
          "midi": 63,
          "name": "D#4",
          "ticks": 134400,
          "time": 210.00055999999998,
          "velocity": 0.6299212598425197
        },
        {
          "duration": 1.7796922458333313,
          "durationTicks": 1139,
          "midi": 56,
          "name": "G#3",
          "ticks": 135120,
          "time": 211.12556299999997,
          "velocity": 0.6299212598425197
        },
        {
          "duration": 1.7796922458333313,
          "durationTicks": 1139,
          "midi": 61,
          "name": "C#4",
          "ticks": 135120,
          "time": 211.12556299999997,
          "velocity": 0.6299212598425197
        },
        {
          "duration": 1.7796922458333313,
          "durationTicks": 1139,
          "midi": 65,
          "name": "F4",
          "ticks": 135120,
          "time": 211.12556299999997,
          "velocity": 0.6299212598425197
        },
        {
          "duration": 1.0671903458333247,
          "durationTicks": 683,
          "midi": 56,
          "name": "G#3",
          "ticks": 136320,
          "time": 213.000568,
          "velocity": 0.6299212598425197
        },
        {
          "duration": 1.0671903458333247,
          "durationTicks": 683,
          "midi": 63,
          "name": "D#4",
          "ticks": 136320,
          "time": 213.000568,
          "velocity": 0.6299212598425197
        },
        {
          "duration": 1.0671903458333247,
          "durationTicks": 683,
          "midi": 66,
          "name": "F#4",
          "ticks": 136320,
          "time": 213.000568,
          "velocity": 0.6299212598425197
        },
        {
          "duration": 1.7796922458333313,
          "durationTicks": 1139,
          "midi": 56,
          "name": "G#3",
          "ticks": 137040,
          "time": 214.12557099999998,
          "velocity": 0.6299212598425197
        },
        {
          "duration": 1.7796922458333313,
          "durationTicks": 1139,
          "midi": 61,
          "name": "C#4",
          "ticks": 137040,
          "time": 214.12557099999998,
          "velocity": 0.6299212598425197
        },
        {
          "duration": 1.7796922458333313,
          "durationTicks": 1139,
          "midi": 65,
          "name": "F4",
          "ticks": 137040,
          "time": 214.12557099999998,
          "velocity": 0.6299212598425197
        },
        {
          "duration": 0.7109393958333499,
          "durationTicks": 455,
          "midi": 56,
          "name": "G#3",
          "ticks": 138240,
          "time": 216.000576,
          "velocity": 0.6299212598425197
        },
        {
          "duration": 0.7109393958333499,
          "durationTicks": 455,
          "midi": 63,
          "name": "D#4",
          "ticks": 138240,
          "time": 216.000576,
          "velocity": 0.6299212598425197
        },
        {
          "duration": 0.7109393958333499,
          "durationTicks": 455,
          "midi": 66,
          "name": "F#4",
          "ticks": 138240,
          "time": 216.000576,
          "velocity": 0.6299212598425197
        },
        {
          "duration": 0.7109393958333499,
          "durationTicks": 455,
          "midi": 56,
          "name": "G#3",
          "ticks": 138720,
          "time": 216.750578,
          "velocity": 0.6299212598425197
        },
        {
          "duration": 0.7109393958333499,
          "durationTicks": 455,
          "midi": 61,
          "name": "C#4",
          "ticks": 138720,
          "time": 216.750578,
          "velocity": 0.6299212598425197
        },
        {
          "duration": 0.7109393958333499,
          "durationTicks": 455,
          "midi": 65,
          "name": "F4",
          "ticks": 138720,
          "time": 216.750578,
          "velocity": 0.6299212598425197
        },
        {
          "duration": 0.7109393958333499,
          "durationTicks": 455,
          "midi": 56,
          "name": "G#3",
          "ticks": 139200,
          "time": 217.50057999999999,
          "velocity": 0.6299212598425197
        },
        {
          "duration": 0.7109393958333499,
          "durationTicks": 455,
          "midi": 59,
          "name": "B3",
          "ticks": 139200,
          "time": 217.50057999999999,
          "velocity": 0.6299212598425197
        },
        {
          "duration": 0.7109393958333499,
          "durationTicks": 455,
          "midi": 63,
          "name": "D#4",
          "ticks": 139200,
          "time": 217.50057999999999,
          "velocity": 0.6299212598425197
        },
        {
          "duration": 0.3546884458333466,
          "durationTicks": 227,
          "midi": 61,
          "name": "C#4",
          "ticks": 139680,
          "time": 218.25058199999998,
          "velocity": 0.6299212598425197
        },
        {
          "duration": 0.3546884458333466,
          "durationTicks": 227,
          "midi": 73,
          "name": "C#5",
          "ticks": 139680,
          "time": 218.25058199999998,
          "velocity": 0.6299212598425197
        },
        {
          "duration": 0.1765629708333165,
          "durationTicks": 113,
          "midi": 59,
          "name": "B3",
          "ticks": 139920,
          "time": 218.62558299999998,
          "velocity": 0.6299212598425197
        },
        {
          "duration": 0.1765629708333165,
          "durationTicks": 113,
          "midi": 71,
          "name": "B4",
          "ticks": 139920,
          "time": 218.62558299999998,
          "velocity": 0.6299212598425197
        },
        {
          "duration": 0.1765629708333165,
          "durationTicks": 113,
          "midi": 61,
          "name": "C#4",
          "ticks": 140040,
          "time": 218.81308349999998,
          "velocity": 0.6299212598425197
        },
        {
          "duration": 0.1765629708333165,
          "durationTicks": 113,
          "midi": 73,
          "name": "C#5",
          "ticks": 140040,
          "time": 218.81308349999998,
          "velocity": 0.6299212598425197
        },
        {
          "duration": 1.0671903458333247,
          "durationTicks": 683,
          "midi": 63,
          "name": "D#4",
          "ticks": 140160,
          "time": 219.00058399999998,
          "velocity": 0.6299212598425197
        },
        {
          "duration": 1.0671903458333247,
          "durationTicks": 683,
          "midi": 68,
          "name": "G#4",
          "ticks": 140160,
          "time": 219.00058399999998,
          "velocity": 0.6299212598425197
        },
        {
          "duration": 1.0671903458333247,
          "durationTicks": 683,
          "midi": 71,
          "name": "B4",
          "ticks": 140160,
          "time": 219.00058399999998,
          "velocity": 0.6299212598425197
        },
        {
          "duration": 1.0671903458333247,
          "durationTicks": 683,
          "midi": 75,
          "name": "D#5",
          "ticks": 140160,
          "time": 219.00058399999998,
          "velocity": 0.6299212598425197
        },
        {
          "duration": 1.7796922458333029,
          "durationTicks": 1139,
          "midi": 56,
          "name": "G#3",
          "ticks": 140880,
          "time": 220.125587,
          "velocity": 0.6299212598425197
        },
        {
          "duration": 1.7796922458333029,
          "durationTicks": 1139,
          "midi": 61,
          "name": "C#4",
          "ticks": 140880,
          "time": 220.125587,
          "velocity": 0.6299212598425197
        },
        {
          "duration": 1.7796922458333029,
          "durationTicks": 1139,
          "midi": 65,
          "name": "F4",
          "ticks": 140880,
          "time": 220.125587,
          "velocity": 0.6299212598425197
        },
        {
          "duration": 1.423441295833328,
          "durationTicks": 911,
          "midi": 56,
          "name": "G#3",
          "ticks": 142080,
          "time": 222.00059199999998,
          "velocity": 0.6299212598425197
        },
        {
          "duration": 1.423441295833328,
          "durationTicks": 911,
          "midi": 59,
          "name": "B3",
          "ticks": 142080,
          "time": 222.00059199999998,
          "velocity": 0.6299212598425197
        },
        {
          "duration": 1.423441295833328,
          "durationTicks": 911,
          "midi": 63,
          "name": "D#4",
          "ticks": 142080,
          "time": 222.00059199999998,
          "velocity": 0.6299212598425197
        },
        {
          "duration": 0.7109393958333499,
          "durationTicks": 455,
          "midi": 56,
          "name": "G#3",
          "ticks": 143040,
          "time": 223.50059599999997,
          "velocity": 0.6299212598425197
        },
        {
          "duration": 0.7109393958333499,
          "durationTicks": 455,
          "midi": 61,
          "name": "C#4",
          "ticks": 143040,
          "time": 223.50059599999997,
          "velocity": 0.6299212598425197
        },
        {
          "duration": 0.7109393958333499,
          "durationTicks": 455,
          "midi": 65,
          "name": "F4",
          "ticks": 143040,
          "time": 223.50059599999997,
          "velocity": 0.6299212598425197
        },
        {
          "duration": 0.7109393958333214,
          "durationTicks": 455,
          "midi": 56,
          "name": "G#3",
          "ticks": 143520,
          "time": 224.250598,
          "velocity": 0.6299212598425197
        },
        {
          "duration": 0.7109393958333214,
          "durationTicks": 455,
          "midi": 59,
          "name": "B3",
          "ticks": 143520,
          "time": 224.250598,
          "velocity": 0.6299212598425197
        },
        {
          "duration": 0.7109393958333214,
          "durationTicks": 455,
          "midi": 61,
          "name": "C#4",
          "ticks": 143520,
          "time": 224.250598,
          "velocity": 0.6299212598425197
        },
        {
          "duration": 1.423441295833328,
          "durationTicks": 911,
          "midi": 59,
          "name": "B3",
          "ticks": 144000,
          "time": 225.0006,
          "velocity": 0.6299212598425197
        },
        {
          "duration": 1.423441295833328,
          "durationTicks": 911,
          "midi": 63,
          "name": "D#4",
          "ticks": 144000,
          "time": 225.0006,
          "velocity": 0.6299212598425197
        },
        {
          "duration": 1.423441295833328,
          "durationTicks": 911,
          "midi": 68,
          "name": "G#4",
          "ticks": 144000,
          "time": 225.0006,
          "velocity": 0.6299212598425197
        },
        {
          "duration": 0.7109393958333499,
          "durationTicks": 455,
          "midi": 54,
          "name": "F#3",
          "ticks": 144960,
          "time": 226.50060399999998,
          "velocity": 0.6299212598425197
        },
        {
          "duration": 0.7109393958333499,
          "durationTicks": 455,
          "midi": 58,
          "name": "A#3",
          "ticks": 144960,
          "time": 226.50060399999998,
          "velocity": 0.6299212598425197
        },
        {
          "duration": 0.7109393958333499,
          "durationTicks": 455,
          "midi": 63,
          "name": "D#4",
          "ticks": 144960,
          "time": 226.50060399999998,
          "velocity": 0.6299212598425197
        },
        {
          "duration": 0.7109393958333499,
          "durationTicks": 455,
          "midi": 66,
          "name": "F#4",
          "ticks": 145440,
          "time": 227.25060599999998,
          "velocity": 0.6299212598425197
        },
        {
          "duration": 0.7109393958333499,
          "durationTicks": 455,
          "midi": 56,
          "name": "G#3",
          "ticks": 145920,
          "time": 228.00060799999997,
          "velocity": 0.6299212598425197
        },
        {
          "duration": 0.7109393958333499,
          "durationTicks": 455,
          "midi": 61,
          "name": "C#4",
          "ticks": 145920,
          "time": 228.00060799999997,
          "velocity": 0.6299212598425197
        },
        {
          "duration": 0.7109393958333499,
          "durationTicks": 455,
          "midi": 64,
          "name": "E4",
          "ticks": 145920,
          "time": 228.00060799999997,
          "velocity": 0.6299212598425197
        },
        {
          "duration": 0.7109393958333499,
          "durationTicks": 455,
          "midi": 63,
          "name": "D#4",
          "ticks": 146400,
          "time": 228.75061,
          "velocity": 0.6299212598425197
        },
        {
          "duration": 0.7109393958333499,
          "durationTicks": 455,
          "midi": 54,
          "name": "F#3",
          "ticks": 146880,
          "time": 229.500612,
          "velocity": 0.6299212598425197
        },
        {
          "duration": 0.7109393958333499,
          "durationTicks": 455,
          "midi": 58,
          "name": "A#3",
          "ticks": 146880,
          "time": 229.500612,
          "velocity": 0.6299212598425197
        },
        {
          "duration": 0.7109393958333499,
          "durationTicks": 455,
          "midi": 61,
          "name": "C#4",
          "ticks": 146880,
          "time": 229.500612,
          "velocity": 0.6299212598425197
        },
        {
          "duration": 0.7109393958333499,
          "durationTicks": 455,
          "midi": 59,
          "name": "B3",
          "ticks": 147360,
          "time": 230.25061399999998,
          "velocity": 0.6299212598425197
        },
        {
          "duration": 1.8750050000000158,
          "durationTicks": 1200,
          "midi": 58,
          "name": "A#3",
          "ticks": 147840,
          "time": 231.00061599999998,
          "velocity": 0.6299212598425197
        },
        {
          "duration": 0.35468844583331816,
          "durationTicks": 227,
          "midi": 62,
          "name": "D4",
          "ticks": 149280,
          "time": 233.250622,
          "velocity": 0.6299212598425197
        },
        {
          "duration": 0.35468844583331816,
          "durationTicks": 227,
          "midi": 65,
          "name": "F4",
          "ticks": 149520,
          "time": 233.625623,
          "velocity": 0.6299212598425197
        },
        {
          "duration": 0.7109393958333499,
          "durationTicks": 455,
          "midi": 58,
          "name": "A#3",
          "ticks": 149760,
          "time": 234.000624,
          "velocity": 0.6299212598425197
        },
        {
          "duration": 0.7109393958333499,
          "durationTicks": 455,
          "midi": 63,
          "name": "D#4",
          "ticks": 149760,
          "time": 234.000624,
          "velocity": 0.6299212598425197
        },
        {
          "duration": 0.7109393958333499,
          "durationTicks": 455,
          "midi": 67,
          "name": "G4",
          "ticks": 149760,
          "time": 234.000624,
          "velocity": 0.6299212598425197
        },
        {
          "duration": 0.7109393958333499,
          "durationTicks": 455,
          "midi": 55,
          "name": "G3",
          "ticks": 150240,
          "time": 234.75062599999998,
          "velocity": 0.6299212598425197
        },
        {
          "duration": 0.7109393958333499,
          "durationTicks": 455,
          "midi": 55,
          "name": "G3",
          "ticks": 150720,
          "time": 235.50062799999998,
          "velocity": 0.6299212598425197
        },
        {
          "duration": 0.7109393958333499,
          "durationTicks": 455,
          "midi": 58,
          "name": "A#3",
          "ticks": 150720,
          "time": 235.50062799999998,
          "velocity": 0.6299212598425197
        },
        {
          "duration": 0.7109393958333499,
          "durationTicks": 455,
          "midi": 55,
          "name": "G3",
          "ticks": 151200,
          "time": 236.25062999999997,
          "velocity": 0.6299212598425197
        },
        {
          "duration": 0.7109393958333499,
          "durationTicks": 455,
          "midi": 58,
          "name": "A#3",
          "ticks": 151200,
          "time": 236.25062999999997,
          "velocity": 0.6299212598425197
        },
        {
          "duration": 0.7109393958333499,
          "durationTicks": 455,
          "midi": 63,
          "name": "D#4",
          "ticks": 151200,
          "time": 236.25062999999997,
          "velocity": 0.6299212598425197
        },
        {
          "duration": 1.0671903458332963,
          "durationTicks": 683,
          "midi": 60,
          "name": "C4",
          "ticks": 151680,
          "time": 237.000632,
          "velocity": 0.6299212598425197
        },
        {
          "duration": 1.0671903458332963,
          "durationTicks": 683,
          "midi": 63,
          "name": "D#4",
          "ticks": 151680,
          "time": 237.000632,
          "velocity": 0.6299212598425197
        },
        {
          "duration": 1.0671903458332963,
          "durationTicks": 683,
          "midi": 67,
          "name": "G4",
          "ticks": 151680,
          "time": 237.000632,
          "velocity": 0.6299212598425197
        },
        {
          "duration": 0.35468844583331816,
          "durationTicks": 227,
          "midi": 63,
          "name": "D#4",
          "ticks": 152400,
          "time": 238.125635,
          "velocity": 0.6299212598425197
        },
        {
          "duration": 0.35468844583331816,
          "durationTicks": 227,
          "midi": 67,
          "name": "G4",
          "ticks": 152400,
          "time": 238.125635,
          "velocity": 0.6299212598425197
        },
        {
          "duration": 0.35468844583331816,
          "durationTicks": 227,
          "midi": 70,
          "name": "A#4",
          "ticks": 152400,
          "time": 238.125635,
          "velocity": 0.6299212598425197
        },
        {
          "duration": 0.7109393958333499,
          "durationTicks": 455,
          "midi": 63,
          "name": "D#4",
          "ticks": 152640,
          "time": 238.500636,
          "velocity": 0.6299212598425197
        },
        {
          "duration": 0.7109393958333499,
          "durationTicks": 455,
          "midi": 67,
          "name": "G4",
          "ticks": 152640,
          "time": 238.500636,
          "velocity": 0.6299212598425197
        },
        {
          "duration": 0.7109393958333499,
          "durationTicks": 455,
          "midi": 70,
          "name": "A#4",
          "ticks": 152640,
          "time": 238.500636,
          "velocity": 0.6299212598425197
        },
        {
          "duration": 0.7109393958333499,
          "durationTicks": 455,
          "midi": 63,
          "name": "D#4",
          "ticks": 153120,
          "time": 239.25063799999998,
          "velocity": 0.6299212598425197
        },
        {
          "duration": 0.7109393958333499,
          "durationTicks": 455,
          "midi": 72,
          "name": "C5",
          "ticks": 153120,
          "time": 239.25063799999998,
          "velocity": 0.6299212598425197
        },
        {
          "duration": 1.1250030000000208,
          "durationTicks": 720,
          "midi": 60,
          "name": "C4",
          "ticks": 153600,
          "time": 240.00063999999998,
          "velocity": 0.6299212598425197
        },
        {
          "duration": 1.4234412958333564,
          "durationTicks": 911,
          "midi": 65,
          "name": "F4",
          "ticks": 153600,
          "time": 240.00063999999998,
          "velocity": 0.6299212598425197
        },
        {
          "duration": 1.4234412958333564,
          "durationTicks": 911,
          "midi": 70,
          "name": "A#4",
          "ticks": 153600,
          "time": 240.00063999999998,
          "velocity": 0.6299212598425197
        },
        {
          "duration": 1.423441295833328,
          "durationTicks": 911,
          "midi": 69,
          "name": "A4",
          "ticks": 154560,
          "time": 241.500644,
          "velocity": 0.6299212598425197
        },
        {
          "duration": 0.35468844583331816,
          "durationTicks": 227,
          "midi": 73,
          "name": "C#5",
          "ticks": 155520,
          "time": 243.00064799999998,
          "velocity": 0.6299212598425197
        },
        {
          "duration": 0.35468844583331816,
          "durationTicks": 227,
          "midi": 85,
          "name": "C#6",
          "ticks": 155520,
          "time": 243.00064799999998,
          "velocity": 0.6299212598425197
        },
        {
          "duration": 0.35468844583331816,
          "durationTicks": 227,
          "midi": 72,
          "name": "C5",
          "ticks": 155760,
          "time": 243.37564899999998,
          "velocity": 0.6299212598425197
        },
        {
          "duration": 0.35468844583331816,
          "durationTicks": 227,
          "midi": 84,
          "name": "C6",
          "ticks": 155760,
          "time": 243.37564899999998,
          "velocity": 0.6299212598425197
        },
        {
          "duration": 0.3546884458333466,
          "durationTicks": 227,
          "midi": 73,
          "name": "C#5",
          "ticks": 156000,
          "time": 243.75064999999998,
          "velocity": 0.6299212598425197
        },
        {
          "duration": 0.3546884458333466,
          "durationTicks": 227,
          "midi": 85,
          "name": "C#6",
          "ticks": 156000,
          "time": 243.75064999999998,
          "velocity": 0.6299212598425197
        },
        {
          "duration": 0.3546884458333466,
          "durationTicks": 227,
          "midi": 77,
          "name": "F5",
          "ticks": 156240,
          "time": 244.12565099999998,
          "velocity": 0.6299212598425197
        },
        {
          "duration": 0.3546884458333466,
          "durationTicks": 227,
          "midi": 89,
          "name": "F6",
          "ticks": 156240,
          "time": 244.12565099999998,
          "velocity": 0.6299212598425197
        },
        {
          "duration": 0.7109393958333499,
          "durationTicks": 455,
          "midi": 75,
          "name": "D#5",
          "ticks": 156480,
          "time": 244.50065199999997,
          "velocity": 0.6299212598425197
        },
        {
          "duration": 0.7109393958333499,
          "durationTicks": 455,
          "midi": 87,
          "name": "D#6",
          "ticks": 156480,
          "time": 244.50065199999997,
          "velocity": 0.6299212598425197
        },
        {
          "duration": 0.3546884458333466,
          "durationTicks": 227,
          "midi": 72,
          "name": "C5",
          "ticks": 156960,
          "time": 245.25065399999997,
          "velocity": 0.6299212598425197
        },
        {
          "duration": 0.3546884458333466,
          "durationTicks": 227,
          "midi": 84,
          "name": "C6",
          "ticks": 156960,
          "time": 245.25065399999997,
          "velocity": 0.6299212598425197
        },
        {
          "duration": 0.35468844583331816,
          "durationTicks": 227,
          "midi": 68,
          "name": "G#4",
          "ticks": 157200,
          "time": 245.625655,
          "velocity": 0.6299212598425197
        },
        {
          "duration": 0.35468844583331816,
          "durationTicks": 227,
          "midi": 80,
          "name": "G#5",
          "ticks": 157200,
          "time": 245.625655,
          "velocity": 0.6299212598425197
        },
        {
          "duration": 0.7109393958333499,
          "durationTicks": 455,
          "midi": 70,
          "name": "A#4",
          "ticks": 157440,
          "time": 246.000656,
          "velocity": 0.6299212598425197
        },
        {
          "duration": 0.7109393958333499,
          "durationTicks": 455,
          "midi": 82,
          "name": "A#5",
          "ticks": 157440,
          "time": 246.000656,
          "velocity": 0.6299212598425197
        },
        {
          "duration": 0.1765629708333165,
          "durationTicks": 113,
          "midi": 61,
          "name": "C#4",
          "ticks": 157920,
          "time": 246.750658,
          "velocity": 0.6299212598425197
        },
        {
          "duration": 0.1765629708333165,
          "durationTicks": 113,
          "midi": 65,
          "name": "F4",
          "ticks": 158040,
          "time": 246.9381585,
          "velocity": 0.6299212598425197
        },
        {
          "duration": 0.1765629708333165,
          "durationTicks": 113,
          "midi": 70,
          "name": "A#4",
          "ticks": 158160,
          "time": 247.12565899999998,
          "velocity": 0.6299212598425197
        },
        {
          "duration": 0.1765629708333165,
          "durationTicks": 113,
          "midi": 72,
          "name": "C5",
          "ticks": 158280,
          "time": 247.31315949999998,
          "velocity": 0.6299212598425197
        },
        {
          "duration": 0.1765629708333165,
          "durationTicks": 113,
          "midi": 73,
          "name": "C#5",
          "ticks": 158400,
          "time": 247.50065999999998,
          "velocity": 0.6299212598425197
        },
        {
          "duration": 0.1765629708333165,
          "durationTicks": 113,
          "midi": 72,
          "name": "C5",
          "ticks": 158520,
          "time": 247.68816049999998,
          "velocity": 0.6299212598425197
        },
        {
          "duration": 0.1765629708333165,
          "durationTicks": 113,
          "midi": 70,
          "name": "A#4",
          "ticks": 158640,
          "time": 247.87566099999998,
          "velocity": 0.6299212598425197
        },
        {
          "duration": 0.1765629708333165,
          "durationTicks": 113,
          "midi": 65,
          "name": "F4",
          "ticks": 158760,
          "time": 248.06316149999998,
          "velocity": 0.6299212598425197
        },
        {
          "duration": 0.3546884458333466,
          "durationTicks": 227,
          "midi": 73,
          "name": "C#5",
          "ticks": 159360,
          "time": 249.00066399999997,
          "velocity": 0.6299212598425197
        },
        {
          "duration": 0.3546884458333466,
          "durationTicks": 227,
          "midi": 85,
          "name": "C#6",
          "ticks": 159360,
          "time": 249.00066399999997,
          "velocity": 0.6299212598425197
        },
        {
          "duration": 0.3546884458333466,
          "durationTicks": 227,
          "midi": 75,
          "name": "D#5",
          "ticks": 159600,
          "time": 249.37566499999997,
          "velocity": 0.6299212598425197
        },
        {
          "duration": 0.3546884458333466,
          "durationTicks": 227,
          "midi": 87,
          "name": "D#6",
          "ticks": 159600,
          "time": 249.37566499999997,
          "velocity": 0.6299212598425197
        },
        {
          "duration": 0.35468844583331816,
          "durationTicks": 227,
          "midi": 77,
          "name": "F5",
          "ticks": 159840,
          "time": 249.750666,
          "velocity": 0.6299212598425197
        },
        {
          "duration": 0.35468844583331816,
          "durationTicks": 227,
          "midi": 89,
          "name": "F6",
          "ticks": 159840,
          "time": 249.750666,
          "velocity": 0.6299212598425197
        },
        {
          "duration": 0.7109393958333499,
          "durationTicks": 455,
          "midi": 82,
          "name": "A#5",
          "ticks": 160080,
          "time": 250.125667,
          "velocity": 0.6299212598425197
        },
        {
          "duration": 0.7109393958333499,
          "durationTicks": 455,
          "midi": 94,
          "name": "A#6",
          "ticks": 160080,
          "time": 250.125667,
          "velocity": 0.6299212598425197
        },
        {
          "duration": 0.35468844583331816,
          "durationTicks": 227,
          "midi": 80,
          "name": "G#5",
          "ticks": 160560,
          "time": 250.875669,
          "velocity": 0.6299212598425197
        },
        {
          "duration": 0.35468844583331816,
          "durationTicks": 227,
          "midi": 92,
          "name": "G#6",
          "ticks": 160560,
          "time": 250.875669,
          "velocity": 0.6299212598425197
        },
        {
          "duration": 0.35468844583331816,
          "durationTicks": 227,
          "midi": 79,
          "name": "G5",
          "ticks": 160800,
          "time": 251.25066999999999,
          "velocity": 0.6299212598425197
        },
        {
          "duration": 0.35468844583331816,
          "durationTicks": 227,
          "midi": 91,
          "name": "G6",
          "ticks": 160800,
          "time": 251.25066999999999,
          "velocity": 0.6299212598425197
        },
        {
          "duration": 0.35468844583331816,
          "durationTicks": 227,
          "midi": 75,
          "name": "D#5",
          "ticks": 161040,
          "time": 251.62567099999998,
          "velocity": 0.6299212598425197
        },
        {
          "duration": 0.35468844583331816,
          "durationTicks": 227,
          "midi": 87,
          "name": "D#6",
          "ticks": 161040,
          "time": 251.62567099999998,
          "velocity": 0.6299212598425197
        },
        {
          "duration": 1.423441295833328,
          "durationTicks": 911,
          "midi": 77,
          "name": "F5",
          "ticks": 161280,
          "time": 252.00067199999998,
          "velocity": 0.6299212598425197
        },
        {
          "duration": 1.423441295833328,
          "durationTicks": 911,
          "midi": 89,
          "name": "F6",
          "ticks": 161280,
          "time": 252.00067199999998,
          "velocity": 0.6299212598425197
        },
        {
          "duration": 0.35468844583331816,
          "durationTicks": 227,
          "midi": 77,
          "name": "F5",
          "ticks": 162720,
          "time": 254.250678,
          "velocity": 0.6299212598425197
        },
        {
          "duration": 0.35468844583331816,
          "durationTicks": 227,
          "midi": 89,
          "name": "F6",
          "ticks": 162720,
          "time": 254.250678,
          "velocity": 0.6299212598425197
        },
        {
          "duration": 0.35468844583331816,
          "durationTicks": 227,
          "midi": 80,
          "name": "G#5",
          "ticks": 162960,
          "time": 254.625679,
          "velocity": 0.6299212598425197
        },
        {
          "duration": 0.35468844583331816,
          "durationTicks": 227,
          "midi": 92,
          "name": "G#6",
          "ticks": 162960,
          "time": 254.625679,
          "velocity": 0.6299212598425197
        },
        {
          "duration": 0.7109393958333499,
          "durationTicks": 455,
          "midi": 82,
          "name": "A#5",
          "ticks": 163200,
          "time": 255.00068,
          "velocity": 0.6299212598425197
        },
        {
          "duration": 0.7109393958333499,
          "durationTicks": 455,
          "midi": 94,
          "name": "A#6",
          "ticks": 163200,
          "time": 255.00068,
          "velocity": 0.6299212598425197
        },
        {
          "duration": 0.7109393958333499,
          "durationTicks": 455,
          "midi": 84,
          "name": "C6",
          "ticks": 163680,
          "time": 255.75068199999998,
          "velocity": 0.6299212598425197
        },
        {
          "duration": 0.7109393958333499,
          "durationTicks": 455,
          "midi": 96,
          "name": "C7",
          "ticks": 163680,
          "time": 255.75068199999998,
          "velocity": 0.6299212598425197
        },
        {
          "duration": 1.0671903458333531,
          "durationTicks": 683,
          "midi": 80,
          "name": "G#5",
          "ticks": 164160,
          "time": 256.500684,
          "velocity": 0.6299212598425197
        },
        {
          "duration": 1.0671903458333531,
          "durationTicks": 683,
          "midi": 92,
          "name": "G#6",
          "ticks": 164160,
          "time": 256.500684,
          "velocity": 0.6299212598425197
        },
        {
          "duration": 0.3546884458333466,
          "durationTicks": 227,
          "midi": 77,
          "name": "F5",
          "ticks": 164880,
          "time": 257.62568699999997,
          "velocity": 0.6299212598425197
        },
        {
          "duration": 0.3546884458333466,
          "durationTicks": 227,
          "midi": 89,
          "name": "F6",
          "ticks": 164880,
          "time": 257.62568699999997,
          "velocity": 0.6299212598425197
        },
        {
          "duration": 0.3546884458333466,
          "durationTicks": 227,
          "midi": 78,
          "name": "F#5",
          "ticks": 165120,
          "time": 258.00068799999997,
          "velocity": 0.6299212598425197
        },
        {
          "duration": 0.3546884458333466,
          "durationTicks": 227,
          "midi": 90,
          "name": "F#6",
          "ticks": 165120,
          "time": 258.00068799999997,
          "velocity": 0.6299212598425197
        },
        {
          "duration": 0.3546884458333466,
          "durationTicks": 227,
          "midi": 77,
          "name": "F5",
          "ticks": 165360,
          "time": 258.37568899999997,
          "velocity": 0.6299212598425197
        },
        {
          "duration": 0.3546884458333466,
          "durationTicks": 227,
          "midi": 89,
          "name": "F6",
          "ticks": 165360,
          "time": 258.37568899999997,
          "velocity": 0.6299212598425197
        },
        {
          "duration": 0.3546884458333466,
          "durationTicks": 227,
          "midi": 78,
          "name": "F#5",
          "ticks": 165600,
          "time": 258.75068999999996,
          "velocity": 0.6299212598425197
        },
        {
          "duration": 0.3546884458333466,
          "durationTicks": 227,
          "midi": 90,
          "name": "F#6",
          "ticks": 165600,
          "time": 258.75068999999996,
          "velocity": 0.6299212598425197
        },
        {
          "duration": 0.3546884458333466,
          "durationTicks": 227,
          "midi": 82,
          "name": "A#5",
          "ticks": 165840,
          "time": 259.12569099999996,
          "velocity": 0.6299212598425197
        },
        {
          "duration": 0.3546884458333466,
          "durationTicks": 227,
          "midi": 94,
          "name": "A#6",
          "ticks": 165840,
          "time": 259.12569099999996,
          "velocity": 0.6299212598425197
        },
        {
          "duration": 1.4234412958333564,
          "durationTicks": 911,
          "midi": 80,
          "name": "G#5",
          "ticks": 166080,
          "time": 259.50069199999996,
          "velocity": 0.6299212598425197
        },
        {
          "duration": 1.4234412958333564,
          "durationTicks": 911,
          "midi": 92,
          "name": "G#6",
          "ticks": 166080,
          "time": 259.50069199999996,
          "velocity": 0.6299212598425197
        },
        {
          "duration": 0.35468844583328973,
          "durationTicks": 227,
          "midi": 73,
          "name": "C#5",
          "ticks": 167040,
          "time": 261.000696,
          "velocity": 0.6299212598425197
        },
        {
          "duration": 0.35468844583328973,
          "durationTicks": 227,
          "midi": 85,
          "name": "C#6",
          "ticks": 167040,
          "time": 261.000696,
          "velocity": 0.6299212598425197
        },
        {
          "duration": 0.35468844583328973,
          "durationTicks": 227,
          "midi": 72,
          "name": "C5",
          "ticks": 167280,
          "time": 261.375697,
          "velocity": 0.6299212598425197
        },
        {
          "duration": 0.35468844583328973,
          "durationTicks": 227,
          "midi": 84,
          "name": "C6",
          "ticks": 167280,
          "time": 261.375697,
          "velocity": 0.6299212598425197
        },
        {
          "duration": 0.35468844583328973,
          "durationTicks": 227,
          "midi": 73,
          "name": "C#5",
          "ticks": 167520,
          "time": 261.750698,
          "velocity": 0.6299212598425197
        },
        {
          "duration": 0.35468844583328973,
          "durationTicks": 227,
          "midi": 85,
          "name": "C#6",
          "ticks": 167520,
          "time": 261.750698,
          "velocity": 0.6299212598425197
        },
        {
          "duration": 0.35468844583328973,
          "durationTicks": 227,
          "midi": 77,
          "name": "F5",
          "ticks": 167760,
          "time": 262.125699,
          "velocity": 0.6299212598425197
        },
        {
          "duration": 0.35468844583328973,
          "durationTicks": 227,
          "midi": 89,
          "name": "F6",
          "ticks": 167760,
          "time": 262.125699,
          "velocity": 0.6299212598425197
        },
        {
          "duration": 0.7109393958333499,
          "durationTicks": 455,
          "midi": 75,
          "name": "D#5",
          "ticks": 168000,
          "time": 262.5007,
          "velocity": 0.6299212598425197
        },
        {
          "duration": 0.7109393958333499,
          "durationTicks": 455,
          "midi": 87,
          "name": "D#6",
          "ticks": 168000,
          "time": 262.5007,
          "velocity": 0.6299212598425197
        },
        {
          "duration": 0.3546884458333466,
          "durationTicks": 227,
          "midi": 72,
          "name": "C5",
          "ticks": 168480,
          "time": 263.250702,
          "velocity": 0.6299212598425197
        },
        {
          "duration": 0.3546884458333466,
          "durationTicks": 227,
          "midi": 84,
          "name": "C6",
          "ticks": 168480,
          "time": 263.250702,
          "velocity": 0.6299212598425197
        },
        {
          "duration": 0.3546884458333466,
          "durationTicks": 227,
          "midi": 68,
          "name": "G#4",
          "ticks": 168720,
          "time": 263.625703,
          "velocity": 0.6299212598425197
        },
        {
          "duration": 0.3546884458333466,
          "durationTicks": 227,
          "midi": 80,
          "name": "G#5",
          "ticks": 168720,
          "time": 263.625703,
          "velocity": 0.6299212598425197
        },
        {
          "duration": 1.4234412958333564,
          "durationTicks": 911,
          "midi": 70,
          "name": "A#4",
          "ticks": 168960,
          "time": 264.000704,
          "velocity": 0.6299212598425197
        },
        {
          "duration": 1.4234412958333564,
          "durationTicks": 911,
          "midi": 82,
          "name": "A#5",
          "ticks": 168960,
          "time": 264.000704,
          "velocity": 0.6299212598425197
        },
        {
          "duration": 0.3546884458333466,
          "durationTicks": 227,
          "midi": 77,
          "name": "F5",
          "ticks": 170400,
          "time": 266.25070999999997,
          "velocity": 0.6299212598425197
        },
        {
          "duration": 0.3546884458333466,
          "durationTicks": 227,
          "midi": 89,
          "name": "F6",
          "ticks": 170400,
          "time": 266.25070999999997,
          "velocity": 0.6299212598425197
        },
        {
          "duration": 0.3546884458333466,
          "durationTicks": 227,
          "midi": 80,
          "name": "G#5",
          "ticks": 170640,
          "time": 266.62571099999997,
          "velocity": 0.6299212598425197
        },
        {
          "duration": 0.3546884458333466,
          "durationTicks": 227,
          "midi": 92,
          "name": "G#6",
          "ticks": 170640,
          "time": 266.62571099999997,
          "velocity": 0.6299212598425197
        },
        {
          "duration": 0.7109393958333499,
          "durationTicks": 455,
          "midi": 82,
          "name": "A#5",
          "ticks": 170880,
          "time": 267.00071199999996,
          "velocity": 0.6299212598425197
        },
        {
          "duration": 0.7109393958333499,
          "durationTicks": 455,
          "midi": 94,
          "name": "A#6",
          "ticks": 170880,
          "time": 267.00071199999996,
          "velocity": 0.6299212598425197
        },
        {
          "duration": 0.7109393958333499,
          "durationTicks": 455,
          "midi": 84,
          "name": "C6",
          "ticks": 171360,
          "time": 267.75071399999996,
          "velocity": 0.6299212598425197
        },
        {
          "duration": 0.7109393958333499,
          "durationTicks": 455,
          "midi": 96,
          "name": "C7",
          "ticks": 171360,
          "time": 267.75071399999996,
          "velocity": 0.6299212598425197
        },
        {
          "duration": 1.0671903458333531,
          "durationTicks": 683,
          "midi": 80,
          "name": "G#5",
          "ticks": 171840,
          "time": 268.50071599999995,
          "velocity": 0.6299212598425197
        },
        {
          "duration": 1.0671903458333531,
          "durationTicks": 683,
          "midi": 92,
          "name": "G#6",
          "ticks": 171840,
          "time": 268.50071599999995,
          "velocity": 0.6299212598425197
        },
        {
          "duration": 0.35468844583328973,
          "durationTicks": 227,
          "midi": 77,
          "name": "F5",
          "ticks": 172560,
          "time": 269.625719,
          "velocity": 0.6299212598425197
        },
        {
          "duration": 0.35468844583328973,
          "durationTicks": 227,
          "midi": 89,
          "name": "F6",
          "ticks": 172560,
          "time": 269.625719,
          "velocity": 0.6299212598425197
        },
        {
          "duration": 0.35468844583328973,
          "durationTicks": 227,
          "midi": 78,
          "name": "F#5",
          "ticks": 172800,
          "time": 270.00072,
          "velocity": 0.6299212598425197
        },
        {
          "duration": 0.35468844583328973,
          "durationTicks": 227,
          "midi": 90,
          "name": "F#6",
          "ticks": 172800,
          "time": 270.00072,
          "velocity": 0.6299212598425197
        },
        {
          "duration": 0.35468844583328973,
          "durationTicks": 227,
          "midi": 77,
          "name": "F5",
          "ticks": 173040,
          "time": 270.375721,
          "velocity": 0.6299212598425197
        },
        {
          "duration": 0.35468844583328973,
          "durationTicks": 227,
          "midi": 89,
          "name": "F6",
          "ticks": 173040,
          "time": 270.375721,
          "velocity": 0.6299212598425197
        },
        {
          "duration": 0.35468844583328973,
          "durationTicks": 227,
          "midi": 78,
          "name": "F#5",
          "ticks": 173280,
          "time": 270.750722,
          "velocity": 0.6299212598425197
        },
        {
          "duration": 0.35468844583328973,
          "durationTicks": 227,
          "midi": 90,
          "name": "F#6",
          "ticks": 173280,
          "time": 270.750722,
          "velocity": 0.6299212598425197
        },
        {
          "duration": 0.7109393958333499,
          "durationTicks": 455,
          "midi": 82,
          "name": "A#5",
          "ticks": 173520,
          "time": 271.125723,
          "velocity": 0.6299212598425197
        },
        {
          "duration": 0.7109393958333499,
          "durationTicks": 455,
          "midi": 94,
          "name": "A#6",
          "ticks": 173520,
          "time": 271.125723,
          "velocity": 0.6299212598425197
        },
        {
          "duration": 1.0671903458332963,
          "durationTicks": 683,
          "midi": 80,
          "name": "G#5",
          "ticks": 174000,
          "time": 271.875725,
          "velocity": 0.6299212598425197
        },
        {
          "duration": 1.0671903458332963,
          "durationTicks": 683,
          "midi": 92,
          "name": "G#6",
          "ticks": 174000,
          "time": 271.875725,
          "velocity": 0.6299212598425197
        },
        {
          "duration": 0.3546884458333466,
          "durationTicks": 227,
          "midi": 73,
          "name": "C#5",
          "ticks": 174720,
          "time": 273.000728,
          "velocity": 0.6299212598425197
        },
        {
          "duration": 0.3546884458333466,
          "durationTicks": 227,
          "midi": 85,
          "name": "C#6",
          "ticks": 174720,
          "time": 273.000728,
          "velocity": 0.6299212598425197
        },
        {
          "duration": 0.3546884458333466,
          "durationTicks": 227,
          "midi": 72,
          "name": "C5",
          "ticks": 174960,
          "time": 273.375729,
          "velocity": 0.6299212598425197
        },
        {
          "duration": 0.3546884458333466,
          "durationTicks": 227,
          "midi": 84,
          "name": "C6",
          "ticks": 174960,
          "time": 273.375729,
          "velocity": 0.6299212598425197
        },
        {
          "duration": 0.3546884458333466,
          "durationTicks": 227,
          "midi": 73,
          "name": "C#5",
          "ticks": 175200,
          "time": 273.75073,
          "velocity": 0.6299212598425197
        },
        {
          "duration": 0.3546884458333466,
          "durationTicks": 227,
          "midi": 85,
          "name": "C#6",
          "ticks": 175200,
          "time": 273.75073,
          "velocity": 0.6299212598425197
        },
        {
          "duration": 0.3546884458333466,
          "durationTicks": 227,
          "midi": 77,
          "name": "F5",
          "ticks": 175440,
          "time": 274.125731,
          "velocity": 0.6299212598425197
        },
        {
          "duration": 0.3546884458333466,
          "durationTicks": 227,
          "midi": 89,
          "name": "F6",
          "ticks": 175440,
          "time": 274.125731,
          "velocity": 0.6299212598425197
        },
        {
          "duration": 1.0671903458333531,
          "durationTicks": 683,
          "midi": 75,
          "name": "D#5",
          "ticks": 175680,
          "time": 274.50073199999997,
          "velocity": 0.6299212598425197
        },
        {
          "duration": 1.0671903458333531,
          "durationTicks": 683,
          "midi": 87,
          "name": "D#6",
          "ticks": 175680,
          "time": 274.50073199999997,
          "velocity": 0.6299212598425197
        },
        {
          "duration": 0.3546884458333466,
          "durationTicks": 227,
          "midi": 73,
          "name": "C#5",
          "ticks": 176400,
          "time": 275.62573499999996,
          "velocity": 0.6299212598425197
        },
        {
          "duration": 0.3546884458333466,
          "durationTicks": 227,
          "midi": 85,
          "name": "C#6",
          "ticks": 176400,
          "time": 275.62573499999996,
          "velocity": 0.6299212598425197
        },
        {
          "duration": 0.3546884458333466,
          "durationTicks": 227,
          "midi": 75,
          "name": "D#5",
          "ticks": 176640,
          "time": 276.00073599999996,
          "velocity": 0.6299212598425197
        },
        {
          "duration": 0.3546884458333466,
          "durationTicks": 227,
          "midi": 87,
          "name": "D#6",
          "ticks": 176640,
          "time": 276.00073599999996,
          "velocity": 0.6299212598425197
        },
        {
          "duration": 0.3546884458333466,
          "durationTicks": 227,
          "midi": 74,
          "name": "D5",
          "ticks": 176880,
          "time": 276.37573699999996,
          "velocity": 0.6299212598425197
        },
        {
          "duration": 0.3546884458333466,
          "durationTicks": 227,
          "midi": 86,
          "name": "D6",
          "ticks": 176880,
          "time": 276.37573699999996,
          "velocity": 0.6299212598425197
        },
        {
          "duration": 0.3546884458333466,
          "durationTicks": 227,
          "midi": 75,
          "name": "D#5",
          "ticks": 177120,
          "time": 276.75073799999996,
          "velocity": 0.6299212598425197
        },
        {
          "duration": 0.3546884458333466,
          "durationTicks": 227,
          "midi": 87,
          "name": "D#6",
          "ticks": 177120,
          "time": 276.75073799999996,
          "velocity": 0.6299212598425197
        },
        {
          "duration": 0.3546884458333466,
          "durationTicks": 227,
          "midi": 80,
          "name": "G#5",
          "ticks": 177360,
          "time": 277.12573899999995,
          "velocity": 0.6299212598425197
        },
        {
          "duration": 0.3546884458333466,
          "durationTicks": 227,
          "midi": 92,
          "name": "G#6",
          "ticks": 177360,
          "time": 277.12573899999995,
          "velocity": 0.6299212598425197
        },
        {
          "duration": 0.710939395833293,
          "durationTicks": 455,
          "midi": 77,
          "name": "F5",
          "ticks": 177600,
          "time": 277.50074,
          "velocity": 0.6299212598425197
        },
        {
          "duration": 0.710939395833293,
          "durationTicks": 455,
          "midi": 89,
          "name": "F6",
          "ticks": 177600,
          "time": 277.50074,
          "velocity": 0.6299212598425197
        },
        {
          "duration": 0.1765629708332881,
          "durationTicks": 113,
          "midi": 65,
          "name": "F4",
          "ticks": 178080,
          "time": 278.250742,
          "velocity": 0.6299212598425197
        },
        {
          "duration": 0.1765629708332881,
          "durationTicks": 113,
          "midi": 70,
          "name": "A#4",
          "ticks": 178200,
          "time": 278.4382425,
          "velocity": 0.6299212598425197
        },
        {
          "duration": 0.1765629708332881,
          "durationTicks": 113,
          "midi": 74,
          "name": "D5",
          "ticks": 178320,
          "time": 278.625743,
          "velocity": 0.6299212598425197
        },
        {
          "duration": 0.1765629708332881,
          "durationTicks": 113,
          "midi": 77,
          "name": "F5",
          "ticks": 178440,
          "time": 278.8132435,
          "velocity": 0.6299212598425197
        },
        {
          "duration": 0.35468844583328973,
          "durationTicks": 227,
          "midi": 78,
          "name": "F#5",
          "ticks": 178560,
          "time": 279.000744,
          "velocity": 0.6299212598425197
        },
        {
          "duration": 0.35468844583328973,
          "durationTicks": 227,
          "midi": 90,
          "name": "F#6",
          "ticks": 178560,
          "time": 279.000744,
          "velocity": 0.6299212598425197
        },
        {
          "duration": 0.35468844583328973,
          "durationTicks": 227,
          "midi": 77,
          "name": "F5",
          "ticks": 178800,
          "time": 279.375745,
          "velocity": 0.6299212598425197
        },
        {
          "duration": 0.35468844583328973,
          "durationTicks": 227,
          "midi": 89,
          "name": "F6",
          "ticks": 178800,
          "time": 279.375745,
          "velocity": 0.6299212598425197
        },
        {
          "duration": 0.35468844583328973,
          "durationTicks": 227,
          "midi": 78,
          "name": "F#5",
          "ticks": 179040,
          "time": 279.750746,
          "velocity": 0.6299212598425197
        },
        {
          "duration": 0.35468844583328973,
          "durationTicks": 227,
          "midi": 90,
          "name": "F#6",
          "ticks": 179040,
          "time": 279.750746,
          "velocity": 0.6299212598425197
        },
        {
          "duration": 0.3546884458333466,
          "durationTicks": 227,
          "midi": 82,
          "name": "A#5",
          "ticks": 179280,
          "time": 280.125747,
          "velocity": 0.6299212598425197
        },
        {
          "duration": 0.3546884458333466,
          "durationTicks": 227,
          "midi": 94,
          "name": "A#6",
          "ticks": 179280,
          "time": 280.125747,
          "velocity": 0.6299212598425197
        },
        {
          "duration": 0.7109393958333499,
          "durationTicks": 455,
          "midi": 80,
          "name": "G#5",
          "ticks": 179520,
          "time": 280.500748,
          "velocity": 0.6299212598425197
        },
        {
          "duration": 0.7109393958333499,
          "durationTicks": 455,
          "midi": 92,
          "name": "G#6",
          "ticks": 179520,
          "time": 280.500748,
          "velocity": 0.6299212598425197
        },
        {
          "duration": 0.7109393958333499,
          "durationTicks": 455,
          "midi": 77,
          "name": "F5",
          "ticks": 180000,
          "time": 281.25075,
          "velocity": 0.6299212598425197
        },
        {
          "duration": 0.7109393958333499,
          "durationTicks": 455,
          "midi": 89,
          "name": "F6",
          "ticks": 180000,
          "time": 281.25075,
          "velocity": 0.6299212598425197
        },
        {
          "duration": 0.7109393958333499,
          "durationTicks": 455,
          "midi": 82,
          "name": "A#5",
          "ticks": 180480,
          "time": 282.000752,
          "velocity": 0.6299212598425197
        },
        {
          "duration": 0.7109393958333499,
          "durationTicks": 455,
          "midi": 85,
          "name": "C#6",
          "ticks": 180480,
          "time": 282.000752,
          "velocity": 0.6299212598425197
        },
        {
          "duration": 0.7109393958333499,
          "durationTicks": 455,
          "midi": 90,
          "name": "F#6",
          "ticks": 180480,
          "time": 282.000752,
          "velocity": 0.6299212598425197
        },
        {
          "duration": 0.7109393958333499,
          "durationTicks": 455,
          "midi": 94,
          "name": "A#6",
          "ticks": 180480,
          "time": 282.000752,
          "velocity": 0.6299212598425197
        },
        {
          "duration": 0.7109393958333499,
          "durationTicks": 455,
          "midi": 53,
          "name": "F3",
          "ticks": 180960,
          "time": 282.750754,
          "velocity": 0.6299212598425197
        },
        {
          "duration": 0.7109393958333499,
          "durationTicks": 455,
          "midi": 58,
          "name": "A#3",
          "ticks": 180960,
          "time": 282.750754,
          "velocity": 0.6299212598425197
        },
        {
          "duration": 0.7109393958333499,
          "durationTicks": 455,
          "midi": 63,
          "name": "D#4",
          "ticks": 180960,
          "time": 282.750754,
          "velocity": 0.6299212598425197
        },
        {
          "duration": 0.7109393958333499,
          "durationTicks": 455,
          "midi": 61,
          "name": "C#4",
          "ticks": 181440,
          "time": 283.50075599999997,
          "velocity": 0.6299212598425197
        },
        {
          "duration": 0.7109393958333499,
          "durationTicks": 455,
          "midi": 66,
          "name": "F#4",
          "ticks": 181440,
          "time": 283.50075599999997,
          "velocity": 0.6299212598425197
        },
        {
          "duration": 0.7109393958333499,
          "durationTicks": 455,
          "midi": 70,
          "name": "A#4",
          "ticks": 181440,
          "time": 283.50075599999997,
          "velocity": 0.6299212598425197
        },
        {
          "duration": 0.7109393958333499,
          "durationTicks": 455,
          "midi": 73,
          "name": "C#5",
          "ticks": 181920,
          "time": 284.25075799999996,
          "velocity": 0.6299212598425197
        },
        {
          "duration": 0.7109393958333499,
          "durationTicks": 455,
          "midi": 78,
          "name": "F#5",
          "ticks": 181920,
          "time": 284.25075799999996,
          "velocity": 0.6299212598425197
        },
        {
          "duration": 0.7109393958333499,
          "durationTicks": 455,
          "midi": 82,
          "name": "A#5",
          "ticks": 181920,
          "time": 284.25075799999996,
          "velocity": 0.6299212598425197
        },
        {
          "duration": 0.7109393958333499,
          "durationTicks": 455,
          "midi": 85,
          "name": "C#6",
          "ticks": 182400,
          "time": 285.00075999999996,
          "velocity": 0.6299212598425197
        },
        {
          "duration": 0.7109393958333499,
          "durationTicks": 455,
          "midi": 89,
          "name": "F6",
          "ticks": 182400,
          "time": 285.00075999999996,
          "velocity": 0.6299212598425197
        },
        {
          "duration": 0.7109393958333499,
          "durationTicks": 455,
          "midi": 94,
          "name": "A#6",
          "ticks": 182400,
          "time": 285.00075999999996,
          "velocity": 0.6299212598425197
        },
        {
          "duration": 0.7109393958333499,
          "durationTicks": 455,
          "midi": 85,
          "name": "C#6",
          "ticks": 183360,
          "time": 286.500764,
          "velocity": 0.6299212598425197
        },
        {
          "duration": 0.7109393958333499,
          "durationTicks": 455,
          "midi": 97,
          "name": "C#7",
          "ticks": 183360,
          "time": 286.500764,
          "velocity": 0.6299212598425197
        },
        {
          "duration": 0.7109393958333499,
          "durationTicks": 455,
          "midi": 84,
          "name": "C6",
          "ticks": 183840,
          "time": 287.250766,
          "velocity": 0.6299212598425197
        },
        {
          "duration": 0.7109393958333499,
          "durationTicks": 455,
          "midi": 96,
          "name": "C7",
          "ticks": 183840,
          "time": 287.250766,
          "velocity": 0.6299212598425197
        },
        {
          "duration": 0.3734384958332839,
          "durationTicks": 239,
          "midi": 85,
          "name": "C#6",
          "ticks": 184320,
          "time": 288.000768,
          "velocity": 0.6299212598425197
        },
        {
          "duration": 0.30625081666664755,
          "durationTicks": 196,
          "midi": 89,
          "name": "F6",
          "ticks": 184362,
          "time": 288.066393175,
          "velocity": 0.6299212598425197
        },
        {
          "duration": 0.23906313750001118,
          "durationTicks": 153,
          "midi": 94,
          "name": "A#6",
          "ticks": 184405,
          "time": 288.1335808541666,
          "velocity": 0.6299212598425197
        },
        {
          "duration": 0.3546884458333466,
          "durationTicks": 227,
          "midi": 84,
          "name": "C6",
          "ticks": 184560,
          "time": 288.375769,
          "velocity": 0.6299212598425197
        },
        {
          "duration": 0.3546884458333466,
          "durationTicks": 227,
          "midi": 82,
          "name": "A#5",
          "ticks": 184800,
          "time": 288.75077,
          "velocity": 0.6299212598425197
        },
        {
          "duration": 0.3546884458333466,
          "durationTicks": 227,
          "midi": 80,
          "name": "G#5",
          "ticks": 185040,
          "time": 289.125771,
          "velocity": 0.6299212598425197
        },
        {
          "duration": 1.4234412958333564,
          "durationTicks": 911,
          "midi": 80,
          "name": "G#5",
          "ticks": 185280,
          "time": 289.500772,
          "velocity": 0.6299212598425197
        },
        {
          "duration": 1.4234412958333564,
          "durationTicks": 911,
          "midi": 82,
          "name": "A#5",
          "ticks": 185280,
          "time": 289.500772,
          "velocity": 0.6299212598425197
        },
        {
          "duration": 0.3546884458333466,
          "durationTicks": 227,
          "midi": 75,
          "name": "D#5",
          "ticks": 186240,
          "time": 291.000776,
          "velocity": 0.6299212598425197
        },
        {
          "duration": 0.3546884458333466,
          "durationTicks": 227,
          "midi": 78,
          "name": "F#5",
          "ticks": 186240,
          "time": 291.000776,
          "velocity": 0.6299212598425197
        },
        {
          "duration": 0.3546884458333466,
          "durationTicks": 227,
          "midi": 82,
          "name": "A#5",
          "ticks": 186240,
          "time": 291.000776,
          "velocity": 0.6299212598425197
        },
        {
          "duration": 0.3546884458333466,
          "durationTicks": 227,
          "midi": 80,
          "name": "G#5",
          "ticks": 186480,
          "time": 291.37577699999997,
          "velocity": 0.6299212598425197
        },
        {
          "duration": 0.3546884458333466,
          "durationTicks": 227,
          "midi": 78,
          "name": "F#5",
          "ticks": 186720,
          "time": 291.75077799999997,
          "velocity": 0.6299212598425197
        },
        {
          "duration": 0.3546884458333466,
          "durationTicks": 227,
          "midi": 75,
          "name": "D#5",
          "ticks": 186960,
          "time": 292.12577899999997,
          "velocity": 0.6299212598425197
        },
        {
          "duration": 0.7109393958333499,
          "durationTicks": 455,
          "midi": 68,
          "name": "G#4",
          "ticks": 187200,
          "time": 292.50077999999996,
          "velocity": 0.6299212598425197
        },
        {
          "duration": 0.7109393958333499,
          "durationTicks": 455,
          "midi": 73,
          "name": "C#5",
          "ticks": 187200,
          "time": 292.50077999999996,
          "velocity": 0.6299212598425197
        },
        {
          "duration": 0.7109393958333499,
          "durationTicks": 455,
          "midi": 77,
          "name": "F5",
          "ticks": 187200,
          "time": 292.50077999999996,
          "velocity": 0.6299212598425197
        },
        {
          "duration": 0.7109393958333499,
          "durationTicks": 455,
          "midi": 68,
          "name": "G#4",
          "ticks": 187680,
          "time": 293.25078199999996,
          "velocity": 0.6299212598425197
        },
        {
          "duration": 0.7109393958333499,
          "durationTicks": 455,
          "midi": 72,
          "name": "C5",
          "ticks": 187680,
          "time": 293.25078199999996,
          "velocity": 0.6299212598425197
        },
        {
          "duration": 0.7109393958333499,
          "durationTicks": 455,
          "midi": 75,
          "name": "D#5",
          "ticks": 187680,
          "time": 293.25078199999996,
          "velocity": 0.6299212598425197
        },
        {
          "duration": 0.3546884458333466,
          "durationTicks": 227,
          "midi": 65,
          "name": "F4",
          "ticks": 188160,
          "time": 294.00078399999995,
          "velocity": 0.6299212598425197
        },
        {
          "duration": 0.3546884458333466,
          "durationTicks": 227,
          "midi": 70,
          "name": "A#4",
          "ticks": 188160,
          "time": 294.00078399999995,
          "velocity": 0.6299212598425197
        },
        {
          "duration": 0.3546884458333466,
          "durationTicks": 227,
          "midi": 73,
          "name": "C#5",
          "ticks": 188160,
          "time": 294.00078399999995,
          "velocity": 0.6299212598425197
        },
        {
          "duration": 0.3546884458333466,
          "durationTicks": 227,
          "midi": 72,
          "name": "C5",
          "ticks": 188400,
          "time": 294.37578499999995,
          "velocity": 0.6299212598425197
        },
        {
          "duration": 0.35468844583328973,
          "durationTicks": 227,
          "midi": 73,
          "name": "C#5",
          "ticks": 188640,
          "time": 294.750786,
          "velocity": 0.6299212598425197
        },
        {
          "duration": 0.35468844583328973,
          "durationTicks": 227,
          "midi": 77,
          "name": "F5",
          "ticks": 188880,
          "time": 295.125787,
          "velocity": 0.6299212598425197
        },
        {
          "duration": 0.7109393958333499,
          "durationTicks": 455,
          "midi": 68,
          "name": "G#4",
          "ticks": 189120,
          "time": 295.500788,
          "velocity": 0.6299212598425197
        },
        {
          "duration": 0.7109393958333499,
          "durationTicks": 455,
          "midi": 72,
          "name": "C5",
          "ticks": 189120,
          "time": 295.500788,
          "velocity": 0.6299212598425197
        },
        {
          "duration": 0.7109393958333499,
          "durationTicks": 455,
          "midi": 75,
          "name": "D#5",
          "ticks": 189120,
          "time": 295.500788,
          "velocity": 0.6299212598425197
        },
        {
          "duration": 0.35468844583328973,
          "durationTicks": 227,
          "midi": 72,
          "name": "C5",
          "ticks": 189600,
          "time": 296.25079,
          "velocity": 0.6299212598425197
        },
        {
          "duration": 0.35468844583328973,
          "durationTicks": 227,
          "midi": 68,
          "name": "G#4",
          "ticks": 189840,
          "time": 296.625791,
          "velocity": 0.6299212598425197
        },
        {
          "duration": 1.4234412958332996,
          "durationTicks": 911,
          "midi": 63,
          "name": "D#4",
          "ticks": 190080,
          "time": 297.000792,
          "velocity": 0.6299212598425197
        },
        {
          "duration": 1.4234412958332996,
          "durationTicks": 911,
          "midi": 68,
          "name": "G#4",
          "ticks": 190080,
          "time": 297.000792,
          "velocity": 0.6299212598425197
        },
        {
          "duration": 1.4234412958332996,
          "durationTicks": 911,
          "midi": 70,
          "name": "A#4",
          "ticks": 190080,
          "time": 297.000792,
          "velocity": 0.6299212598425197
        },
        {
          "duration": 0.7109393958333499,
          "durationTicks": 455,
          "midi": 63,
          "name": "D#4",
          "ticks": 191040,
          "time": 298.500796,
          "velocity": 0.6299212598425197
        },
        {
          "duration": 0.7109393958333499,
          "durationTicks": 455,
          "midi": 68,
          "name": "G#4",
          "ticks": 191040,
          "time": 298.500796,
          "velocity": 0.6299212598425197
        },
        {
          "duration": 0.7109393958333499,
          "durationTicks": 455,
          "midi": 70,
          "name": "A#4",
          "ticks": 191040,
          "time": 298.500796,
          "velocity": 0.6299212598425197
        },
        {
          "duration": 0.7109393958333499,
          "durationTicks": 455,
          "midi": 65,
          "name": "F4",
          "ticks": 191520,
          "time": 299.250798,
          "velocity": 0.6299212598425197
        },
        {
          "duration": 0.7109393958333499,
          "durationTicks": 455,
          "midi": 69,
          "name": "A4",
          "ticks": 191520,
          "time": 299.250798,
          "velocity": 0.6299212598425197
        },
        {
          "duration": 0.7109393958333499,
          "durationTicks": 455,
          "midi": 72,
          "name": "C5",
          "ticks": 191520,
          "time": 299.250798,
          "velocity": 0.6299212598425197
        },
        {
          "duration": 0.37343849583334077,
          "durationTicks": 239,
          "midi": 73,
          "name": "C#5",
          "ticks": 192000,
          "time": 300.00079999999997,
          "velocity": 0.6299212598425197
        },
        {
          "duration": 0.3296883791666687,
          "durationTicks": 211,
          "midi": 77,
          "name": "F5",
          "ticks": 192027,
          "time": 300.0429876125,
          "velocity": 0.6299212598425197
        },
        {
          "duration": 0.28593826249999665,
          "durationTicks": 183,
          "midi": 82,
          "name": "A#5",
          "ticks": 192055,
          "time": 300.08673772916666,
          "velocity": 0.6299212598425197
        },
        {
          "duration": 0.24218814583338144,
          "durationTicks": 155,
          "midi": 85,
          "name": "C#6",
          "ticks": 192083,
          "time": 300.1304878458333,
          "velocity": 0.6299212598425197
        },
        {
          "duration": 0.3546884458333466,
          "durationTicks": 227,
          "midi": 72,
          "name": "C5",
          "ticks": 192240,
          "time": 300.37580099999997,
          "velocity": 0.6299212598425197
        },
        {
          "duration": 0.3546884458333466,
          "durationTicks": 227,
          "midi": 84,
          "name": "C6",
          "ticks": 192240,
          "time": 300.37580099999997,
          "velocity": 0.6299212598425197
        },
        {
          "duration": 0.3546884458333466,
          "durationTicks": 227,
          "midi": 70,
          "name": "A#4",
          "ticks": 192480,
          "time": 300.75080199999996,
          "velocity": 0.6299212598425197
        },
        {
          "duration": 0.3546884458333466,
          "durationTicks": 227,
          "midi": 82,
          "name": "A#5",
          "ticks": 192480,
          "time": 300.75080199999996,
          "velocity": 0.6299212598425197
        },
        {
          "duration": 0.3546884458333466,
          "durationTicks": 227,
          "midi": 68,
          "name": "G#4",
          "ticks": 192720,
          "time": 301.12580299999996,
          "velocity": 0.6299212598425197
        },
        {
          "duration": 0.3546884458333466,
          "durationTicks": 227,
          "midi": 80,
          "name": "G#5",
          "ticks": 192720,
          "time": 301.12580299999996,
          "velocity": 0.6299212598425197
        },
        {
          "duration": 1.4234412958333564,
          "durationTicks": 911,
          "midi": 70,
          "name": "A#4",
          "ticks": 192960,
          "time": 301.50080399999996,
          "velocity": 0.6299212598425197
        },
        {
          "duration": 1.4234412958333564,
          "durationTicks": 911,
          "midi": 82,
          "name": "A#5",
          "ticks": 192960,
          "time": 301.50080399999996,
          "velocity": 0.6299212598425197
        },
        {
          "duration": 0.3734384958332839,
          "durationTicks": 239,
          "midi": 66,
          "name": "F#4",
          "ticks": 193920,
          "time": 303.000808,
          "velocity": 0.6299212598425197
        },
        {
          "duration": 0.3296883791666687,
          "durationTicks": 211,
          "midi": 75,
          "name": "D#5",
          "ticks": 193947,
          "time": 303.04299561249996,
          "velocity": 0.6299212598425197
        },
        {
          "duration": 0.28593826249999665,
          "durationTicks": 183,
          "midi": 78,
          "name": "F#5",
          "ticks": 193975,
          "time": 303.08674572916664,
          "velocity": 0.6299212598425197
        },
        {
          "duration": 0.2421881458333246,
          "durationTicks": 155,
          "midi": 82,
          "name": "A#5",
          "ticks": 194003,
          "time": 303.1304958458333,
          "velocity": 0.6299212598425197
        },
        {
          "duration": 0.35468844583328973,
          "durationTicks": 227,
          "midi": 68,
          "name": "G#4",
          "ticks": 194160,
          "time": 303.375809,
          "velocity": 0.6299212598425197
        },
        {
          "duration": 0.35468844583328973,
          "durationTicks": 227,
          "midi": 80,
          "name": "G#5",
          "ticks": 194160,
          "time": 303.375809,
          "velocity": 0.6299212598425197
        },
        {
          "duration": 0.35468844583328973,
          "durationTicks": 227,
          "midi": 66,
          "name": "F#4",
          "ticks": 194400,
          "time": 303.75081,
          "velocity": 0.6299212598425197
        },
        {
          "duration": 0.35468844583328973,
          "durationTicks": 227,
          "midi": 78,
          "name": "F#5",
          "ticks": 194400,
          "time": 303.75081,
          "velocity": 0.6299212598425197
        },
        {
          "duration": 0.35468844583328973,
          "durationTicks": 227,
          "midi": 63,
          "name": "D#4",
          "ticks": 194640,
          "time": 304.125811,
          "velocity": 0.6299212598425197
        },
        {
          "duration": 0.35468844583328973,
          "durationTicks": 227,
          "midi": 75,
          "name": "D#5",
          "ticks": 194640,
          "time": 304.125811,
          "velocity": 0.6299212598425197
        },
        {
          "duration": 0.7109393958333499,
          "durationTicks": 455,
          "midi": 65,
          "name": "F4",
          "ticks": 194880,
          "time": 304.500812,
          "velocity": 0.6299212598425197
        },
        {
          "duration": 0.7109393958333499,
          "durationTicks": 455,
          "midi": 77,
          "name": "F5",
          "ticks": 194880,
          "time": 304.500812,
          "velocity": 0.6299212598425197
        },
        {
          "duration": 0.7109393958333499,
          "durationTicks": 455,
          "midi": 53,
          "name": "F3",
          "ticks": 195360,
          "time": 305.250814,
          "velocity": 0.6299212598425197
        },
        {
          "duration": 0.7109393958333499,
          "durationTicks": 455,
          "midi": 56,
          "name": "G#3",
          "ticks": 195360,
          "time": 305.250814,
          "velocity": 0.6299212598425197
        },
        {
          "duration": 0.7109393958333499,
          "durationTicks": 455,
          "midi": 63,
          "name": "D#4",
          "ticks": 195360,
          "time": 305.250814,
          "velocity": 0.6299212598425197
        },
        {
          "duration": 0.3734384958332839,
          "durationTicks": 239,
          "midi": 61,
          "name": "C#4",
          "ticks": 195840,
          "time": 306.000816,
          "velocity": 0.6299212598425197
        },
        {
          "duration": 0.32968837916672555,
          "durationTicks": 211,
          "midi": 66,
          "name": "F#4",
          "ticks": 195867,
          "time": 306.04300361249994,
          "velocity": 0.6299212598425197
        },
        {
          "duration": 0.2859382625000535,
          "durationTicks": 183,
          "midi": 70,
          "name": "A#4",
          "ticks": 195895,
          "time": 306.0867537291666,
          "velocity": 0.6299212598425197
        },
        {
          "duration": 0.24218814583338144,
          "durationTicks": 155,
          "midi": 73,
          "name": "C#5",
          "ticks": 195923,
          "time": 306.1305038458333,
          "velocity": 0.6299212598425197
        },
        {
          "duration": 0.3546884458333466,
          "durationTicks": 227,
          "midi": 60,
          "name": "C4",
          "ticks": 196080,
          "time": 306.375817,
          "velocity": 0.6299212598425197
        },
        {
          "duration": 0.3546884458333466,
          "durationTicks": 227,
          "midi": 72,
          "name": "C5",
          "ticks": 196080,
          "time": 306.375817,
          "velocity": 0.6299212598425197
        },
        {
          "duration": 0.3546884458333466,
          "durationTicks": 227,
          "midi": 61,
          "name": "C#4",
          "ticks": 196320,
          "time": 306.750818,
          "velocity": 0.6299212598425197
        },
        {
          "duration": 0.3546884458333466,
          "durationTicks": 227,
          "midi": 73,
          "name": "C#5",
          "ticks": 196320,
          "time": 306.750818,
          "velocity": 0.6299212598425197
        },
        {
          "duration": 0.3546884458333466,
          "durationTicks": 227,
          "midi": 65,
          "name": "F4",
          "ticks": 196560,
          "time": 307.125819,
          "velocity": 0.6299212598425197
        },
        {
          "duration": 0.3546884458333466,
          "durationTicks": 227,
          "midi": 77,
          "name": "F5",
          "ticks": 196560,
          "time": 307.125819,
          "velocity": 0.6299212598425197
        },
        {
          "duration": 0.7109393958333499,
          "durationTicks": 455,
          "midi": 63,
          "name": "D#4",
          "ticks": 196800,
          "time": 307.50082,
          "velocity": 0.6299212598425197
        },
        {
          "duration": 0.7109393958333499,
          "durationTicks": 455,
          "midi": 68,
          "name": "G#4",
          "ticks": 196800,
          "time": 307.50082,
          "velocity": 0.6299212598425197
        },
        {
          "duration": 0.7109393958333499,
          "durationTicks": 455,
          "midi": 72,
          "name": "C5",
          "ticks": 196800,
          "time": 307.50082,
          "velocity": 0.6299212598425197
        },
        {
          "duration": 0.7109393958333499,
          "durationTicks": 455,
          "midi": 75,
          "name": "D#5",
          "ticks": 196800,
          "time": 307.50082,
          "velocity": 0.6299212598425197
        },
        {
          "duration": 0.7109393958333499,
          "durationTicks": 455,
          "midi": 68,
          "name": "G#4",
          "ticks": 197280,
          "time": 308.25082199999997,
          "velocity": 0.6299212598425197
        },
        {
          "duration": 0.7109393958333499,
          "durationTicks": 455,
          "midi": 72,
          "name": "C5",
          "ticks": 197280,
          "time": 308.25082199999997,
          "velocity": 0.6299212598425197
        },
        {
          "duration": 0.7109393958333499,
          "durationTicks": 455,
          "midi": 75,
          "name": "D#5",
          "ticks": 197280,
          "time": 308.25082199999997,
          "velocity": 0.6299212598425197
        },
        {
          "duration": 0.7109393958333499,
          "durationTicks": 455,
          "midi": 80,
          "name": "G#5",
          "ticks": 197280,
          "time": 308.25082199999997,
          "velocity": 0.6299212598425197
        },
        {
          "duration": 1.4234412958333564,
          "durationTicks": 911,
          "midi": 70,
          "name": "A#4",
          "ticks": 197760,
          "time": 309.00082399999997,
          "velocity": 0.6299212598425197
        },
        {
          "duration": 1.4234412958333564,
          "durationTicks": 911,
          "midi": 75,
          "name": "D#5",
          "ticks": 197760,
          "time": 309.00082399999997,
          "velocity": 0.6299212598425197
        },
        {
          "duration": 1.4234412958333564,
          "durationTicks": 911,
          "midi": 82,
          "name": "A#5",
          "ticks": 197760,
          "time": 309.00082399999997,
          "velocity": 0.6299212598425197
        },
        {
          "duration": 0.3546884458333466,
          "durationTicks": 227,
          "midi": 53,
          "name": "F3",
          "ticks": 198720,
          "time": 310.50082799999996,
          "velocity": 0.6299212598425197
        },
        {
          "duration": 0.3546884458333466,
          "durationTicks": 227,
          "midi": 58,
          "name": "A#3",
          "ticks": 198960,
          "time": 310.87582899999995,
          "velocity": 0.6299212598425197
        },
        {
          "duration": 0.3546884458333466,
          "durationTicks": 227,
          "midi": 63,
          "name": "D#4",
          "ticks": 199200,
          "time": 311.25082999999995,
          "velocity": 0.6299212598425197
        },
        {
          "duration": 0.35468844583328973,
          "durationTicks": 227,
          "midi": 65,
          "name": "F4",
          "ticks": 199440,
          "time": 311.625831,
          "velocity": 0.6299212598425197
        },
        {
          "duration": 5.698452695833282,
          "durationTicks": 3647,
          "midi": 53,
          "name": "F3",
          "ticks": 199680,
          "time": 312.000832,
          "velocity": 0.6299212598425197
        },
        {
          "duration": 5.698452695833282,
          "durationTicks": 3647,
          "midi": 58,
          "name": "A#3",
          "ticks": 199680,
          "time": 312.000832,
          "velocity": 0.6299212598425197
        },
        {
          "duration": 5.698452695833282,
          "durationTicks": 3647,
          "midi": 60,
          "name": "C4",
          "ticks": 199680,
          "time": 312.000832,
          "velocity": 0.6299212598425197
        },
        {
          "duration": 5.698452695833282,
          "durationTicks": 3647,
          "midi": 62,
          "name": "D4",
          "ticks": 199680,
          "time": 312.000832,
          "velocity": 0.6299212598425197
        }
      ],
      "endOfTrackTicks": 203328
    },
    {
      "channel": 0,
      "controlChanges": {},
      "pitchBends": [],
      "instrument": {
        "family": "piano",
        "number": 0,
        "name": "acoustic grand piano"
      },
      "name": "",
      "notes": [
        {
          "duration": 0.3546884458333333,
          "durationTicks": 227,
          "midi": 56,
          "name": "G#3",
          "ticks": 0,
          "time": 0,
          "velocity": 0.6299212598425197
        },
        {
          "duration": 0.3546884458333333,
          "durationTicks": 227,
          "midi": 63,
          "name": "D#4",
          "ticks": 240,
          "time": 0.375001,
          "velocity": 0.6299212598425197
        },
        {
          "duration": 0.35468844583333337,
          "durationTicks": 227,
          "midi": 68,
          "name": "G#4",
          "ticks": 480,
          "time": 0.750002,
          "velocity": 0.6299212598425197
        },
        {
          "duration": 0.35468844583333325,
          "durationTicks": 227,
          "midi": 70,
          "name": "A#4",
          "ticks": 720,
          "time": 1.125003,
          "velocity": 0.6299212598425197
        },
        {
          "duration": 1.4234412958333331,
          "durationTicks": 911,
          "midi": 64,
          "name": "E4",
          "ticks": 960,
          "time": 1.500004,
          "velocity": 0.6299212598425197
        },
        {
          "duration": 1.4234412958333331,
          "durationTicks": 911,
          "midi": 71,
          "name": "B4",
          "ticks": 960,
          "time": 1.500004,
          "velocity": 0.6299212598425197
        },
        {
          "duration": 0.35468844583333325,
          "durationTicks": 227,
          "midi": 49,
          "name": "C#3",
          "ticks": 1920,
          "time": 3.000008,
          "velocity": 0.6299212598425197
        },
        {
          "duration": 0.3546884458333328,
          "durationTicks": 227,
          "midi": 56,
          "name": "G#3",
          "ticks": 2160,
          "time": 3.375009,
          "velocity": 0.6299212598425197
        },
        {
          "duration": 0.35468844583333325,
          "durationTicks": 227,
          "midi": 64,
          "name": "E4",
          "ticks": 2400,
          "time": 3.7500099999999996,
          "velocity": 0.6299212598425197
        },
        {
          "duration": 0.35468844583333325,
          "durationTicks": 227,
          "midi": 56,
          "name": "G#3",
          "ticks": 2640,
          "time": 4.125011,
          "velocity": 0.6299212598425197
        },
        {
          "duration": 0.710939395833333,
          "durationTicks": 455,
          "midi": 47,
          "name": "B2",
          "ticks": 2880,
          "time": 4.500012,
          "velocity": 0.6299212598425197
        },
        {
          "duration": 0.710939395833333,
          "durationTicks": 455,
          "midi": 59,
          "name": "B3",
          "ticks": 2880,
          "time": 4.500012,
          "velocity": 0.6299212598425197
        },
        {
          "duration": 0.7109393958333339,
          "durationTicks": 455,
          "midi": 42,
          "name": "F#2",
          "ticks": 3360,
          "time": 5.250013999999999,
          "velocity": 0.6299212598425197
        },
        {
          "duration": 0.7109393958333339,
          "durationTicks": 455,
          "midi": 54,
          "name": "F#3",
          "ticks": 3360,
          "time": 5.250013999999999,
          "velocity": 0.6299212598425197
        },
        {
          "duration": 0.35468844583333325,
          "durationTicks": 227,
          "midi": 40,
          "name": "E2",
          "ticks": 3840,
          "time": 6.000016,
          "velocity": 0.6299212598425197
        },
        {
          "duration": 0.35468844583333325,
          "durationTicks": 227,
          "midi": 47,
          "name": "B2",
          "ticks": 4080,
          "time": 6.375017,
          "velocity": 0.6299212598425197
        },
        {
          "duration": 0.7109393958333321,
          "durationTicks": 455,
          "midi": 52,
          "name": "E3",
          "ticks": 4320,
          "time": 6.750018,
          "velocity": 0.6299212598425197
        },
        {
          "duration": 0.35468844583333325,
          "durationTicks": 227,
          "midi": 42,
          "name": "F#2",
          "ticks": 4800,
          "time": 7.500019999999999,
          "velocity": 0.6299212598425197
        },
        {
          "duration": 1.0671903458333345,
          "durationTicks": 683,
          "midi": 49,
          "name": "C#3",
          "ticks": 5040,
          "time": 7.875020999999999,
          "velocity": 0.6299212598425197
        },
        {
          "duration": 0.35468844583333237,
          "durationTicks": 227,
          "midi": 37,
          "name": "C#2",
          "ticks": 5760,
          "time": 9.000024,
          "velocity": 0.6299212598425197
        },
        {
          "duration": 0.35468844583333414,
          "durationTicks": 227,
          "midi": 44,
          "name": "G#2",
          "ticks": 6000,
          "time": 9.375024999999999,
          "velocity": 0.6299212598425197
        },
        {
          "duration": 0.35468844583333237,
          "durationTicks": 227,
          "midi": 49,
          "name": "C#3",
          "ticks": 6240,
          "time": 9.750026,
          "velocity": 0.6299212598425197
        },
        {
          "duration": 0.35468844583333237,
          "durationTicks": 227,
          "midi": 44,
          "name": "G#2",
          "ticks": 6480,
          "time": 10.125027,
          "velocity": 0.6299212598425197
        },
        {
          "duration": 0.7109393958333339,
          "durationTicks": 455,
          "midi": 49,
          "name": "C#3",
          "ticks": 6720,
          "time": 10.500027999999999,
          "velocity": 0.6299212598425197
        },
        {
          "duration": 0.7109393958333339,
          "durationTicks": 455,
          "midi": 43,
          "name": "G2",
          "ticks": 7200,
          "time": 11.250029999999999,
          "velocity": 0.6299212598425197
        },
        {
          "duration": 0.7109393958333339,
          "durationTicks": 455,
          "midi": 55,
          "name": "G3",
          "ticks": 7200,
          "time": 11.250029999999999,
          "velocity": 0.6299212598425197
        },
        {
          "duration": 0.35468844583333237,
          "durationTicks": 227,
          "midi": 44,
          "name": "G#2",
          "ticks": 7680,
          "time": 12.000032,
          "velocity": 0.6299212598425197
        },
        {
          "duration": 0.35468844583333414,
          "durationTicks": 227,
          "midi": 51,
          "name": "D#3",
          "ticks": 7920,
          "time": 12.375032999999998,
          "velocity": 0.6299212598425197
        },
        {
          "duration": 0.35468844583333237,
          "durationTicks": 227,
          "midi": 56,
          "name": "G#3",
          "ticks": 8160,
          "time": 12.750034,
          "velocity": 0.6299212598425197
        },
        {
          "duration": 0.35468844583333414,
          "durationTicks": 227,
          "midi": 58,
          "name": "A#3",
          "ticks": 8400,
          "time": 13.125034999999999,
          "velocity": 0.6299212598425197
        },
        {
          "duration": 1.4234412958333333,
          "durationTicks": 911,
          "midi": 52,
          "name": "E3",
          "ticks": 8640,
          "time": 13.500036,
          "velocity": 0.6299212598425197
        },
        {
          "duration": 1.4234412958333333,
          "durationTicks": 911,
          "midi": 59,
          "name": "B3",
          "ticks": 8640,
          "time": 13.500036,
          "velocity": 0.6299212598425197
        },
        {
          "duration": 0.35468844583333414,
          "durationTicks": 227,
          "midi": 37,
          "name": "C#2",
          "ticks": 9600,
          "time": 15.000039999999998,
          "velocity": 0.6299212598425197
        },
        {
          "duration": 0.35468844583333237,
          "durationTicks": 227,
          "midi": 44,
          "name": "G#2",
          "ticks": 9840,
          "time": 15.375041,
          "velocity": 0.6299212598425197
        },
        {
          "duration": 0.35468844583333414,
          "durationTicks": 227,
          "midi": 49,
          "name": "C#3",
          "ticks": 10080,
          "time": 15.750041999999999,
          "velocity": 0.6299212598425197
        },
        {
          "duration": 0.35468844583333237,
          "durationTicks": 227,
          "midi": 44,
          "name": "G#2",
          "ticks": 10320,
          "time": 16.125042999999998,
          "velocity": 0.6299212598425197
        },
        {
          "duration": 0.7109393958333357,
          "durationTicks": 455,
          "midi": 47,
          "name": "B2",
          "ticks": 10560,
          "time": 16.500044,
          "velocity": 0.6299212598425197
        },
        {
          "duration": 0.7109393958333357,
          "durationTicks": 455,
          "midi": 42,
          "name": "F#2",
          "ticks": 11040,
          "time": 17.250045999999998,
          "velocity": 0.6299212598425197
        },
        {
          "duration": 0.35468844583333237,
          "durationTicks": 227,
          "midi": 37,
          "name": "C#2",
          "ticks": 11520,
          "time": 18.000048,
          "velocity": 0.6299212598425197
        },
        {
          "duration": 0.3546884458333359,
          "durationTicks": 227,
          "midi": 44,
          "name": "G#2",
          "ticks": 11760,
          "time": 18.375048999999997,
          "velocity": 0.6299212598425197
        },
        {
          "duration": 0.35468844583333237,
          "durationTicks": 227,
          "midi": 49,
          "name": "C#3",
          "ticks": 12000,
          "time": 18.750049999999998,
          "velocity": 0.6299212598425197
        },
        {
          "duration": 0.35468844583333237,
          "durationTicks": 227,
          "midi": 56,
          "name": "G#3",
          "ticks": 12240,
          "time": 19.125051,
          "velocity": 0.6299212598425197
        },
        {
          "duration": 0.35468844583333237,
          "durationTicks": 227,
          "midi": 39,
          "name": "D#2",
          "ticks": 12480,
          "time": 19.500052,
          "velocity": 0.6299212598425197
        },
        {
          "duration": 0.35468844583333237,
          "durationTicks": 227,
          "midi": 46,
          "name": "A#2",
          "ticks": 12720,
          "time": 19.875052999999998,
          "velocity": 0.6299212598425197
        },
        {
          "duration": 0.7109393958333357,
          "durationTicks": 455,
          "midi": 51,
          "name": "D#3",
          "ticks": 12960,
          "time": 20.250054,
          "velocity": 0.6299212598425197
        },
        {
          "duration": 0.3546884458333359,
          "durationTicks": 227,
          "midi": 40,
          "name": "E2",
          "ticks": 13440,
          "time": 21.000055999999997,
          "velocity": 0.6299212598425197
        },
        {
          "duration": 0.35468844583333237,
          "durationTicks": 227,
          "midi": 47,
          "name": "B2",
          "ticks": 13680,
          "time": 21.375056999999998,
          "velocity": 0.6299212598425197
        },
        {
          "duration": 0.35468844583333237,
          "durationTicks": 227,
          "midi": 54,
          "name": "F#3",
          "ticks": 13920,
          "time": 21.750058,
          "velocity": 0.6299212598425197
        },
        {
          "duration": 0.3546884458333359,
          "durationTicks": 227,
          "midi": 56,
          "name": "G#3",
          "ticks": 14160,
          "time": 22.125058999999997,
          "velocity": 0.6299212598425197
        },
        {
          "duration": 1.4234412958333316,
          "durationTicks": 911,
          "midi": 56,
          "name": "G#3",
          "ticks": 17280,
          "time": 27.000072,
          "velocity": 0.6299212598425197
        },
        {
          "duration": 1.4234412958333316,
          "durationTicks": 911,
          "midi": 59,
          "name": "B3",
          "ticks": 17280,
          "time": 27.000072,
          "velocity": 0.6299212598425197
        },
        {
          "duration": 1.4234412958333316,
          "durationTicks": 911,
          "midi": 63,
          "name": "D#4",
          "ticks": 17280,
          "time": 27.000072,
          "velocity": 0.6299212598425197
        },
        {
          "duration": 0.7109393958333321,
          "durationTicks": 455,
          "midi": 56,
          "name": "G#3",
          "ticks": 18240,
          "time": 28.500075999999996,
          "velocity": 0.6299212598425197
        },
        {
          "duration": 0.7109393958333321,
          "durationTicks": 455,
          "midi": 61,
          "name": "C#4",
          "ticks": 18240,
          "time": 28.500075999999996,
          "velocity": 0.6299212598425197
        },
        {
          "duration": 0.7109393958333321,
          "durationTicks": 455,
          "midi": 64,
          "name": "E4",
          "ticks": 18240,
          "time": 28.500075999999996,
          "velocity": 0.6299212598425197
        },
        {
          "duration": 0.7109393958333321,
          "durationTicks": 455,
          "midi": 54,
          "name": "F#3",
          "ticks": 18720,
          "time": 29.250078,
          "velocity": 0.6299212598425197
        },
        {
          "duration": 0.7109393958333321,
          "durationTicks": 455,
          "midi": 58,
          "name": "A#3",
          "ticks": 18720,
          "time": 29.250078,
          "velocity": 0.6299212598425197
        },
        {
          "duration": 0.7109393958333321,
          "durationTicks": 455,
          "midi": 61,
          "name": "C#4",
          "ticks": 18720,
          "time": 29.250078,
          "velocity": 0.6299212598425197
        },
        {
          "duration": 2.848445095833334,
          "durationTicks": 1823,
          "midi": 56,
          "name": "G#3",
          "ticks": 19200,
          "time": 30.000079999999997,
          "velocity": 0.6299212598425197
        },
        {
          "duration": 2.848445095833334,
          "durationTicks": 1823,
          "midi": 59,
          "name": "B3",
          "ticks": 19200,
          "time": 30.000079999999997,
          "velocity": 0.6299212598425197
        },
        {
          "duration": 2.848445095833334,
          "durationTicks": 1823,
          "midi": 63,
          "name": "D#4",
          "ticks": 19200,
          "time": 30.000079999999997,
          "velocity": 0.6299212598425197
        },
        {
          "duration": 1.4234412958333351,
          "durationTicks": 911,
          "midi": 56,
          "name": "G#3",
          "ticks": 21120,
          "time": 33.000088,
          "velocity": 0.6299212598425197
        },
        {
          "duration": 1.4234412958333351,
          "durationTicks": 911,
          "midi": 59,
          "name": "B3",
          "ticks": 21120,
          "time": 33.000088,
          "velocity": 0.6299212598425197
        },
        {
          "duration": 1.4234412958333351,
          "durationTicks": 911,
          "midi": 63,
          "name": "D#4",
          "ticks": 21120,
          "time": 33.000088,
          "velocity": 0.6299212598425197
        },
        {
          "duration": 1.4234412958333351,
          "durationTicks": 911,
          "midi": 56,
          "name": "G#3",
          "ticks": 22080,
          "time": 34.500091999999995,
          "velocity": 0.6299212598425197
        },
        {
          "duration": 1.4234412958333351,
          "durationTicks": 911,
          "midi": 61,
          "name": "C#4",
          "ticks": 22080,
          "time": 34.500091999999995,
          "velocity": 0.6299212598425197
        },
        {
          "duration": 1.4234412958333351,
          "durationTicks": 911,
          "midi": 65,
          "name": "F4",
          "ticks": 22080,
          "time": 34.500091999999995,
          "velocity": 0.6299212598425197
        },
        {
          "duration": 0.35468844583333237,
          "durationTicks": 227,
          "midi": 39,
          "name": "D#2",
          "ticks": 23040,
          "time": 36.000096,
          "velocity": 0.6299212598425197
        },
        {
          "duration": 0.35468844583333947,
          "durationTicks": 227,
          "midi": 46,
          "name": "A#2",
          "ticks": 23280,
          "time": 36.375097,
          "velocity": 0.6299212598425197
        },
        {
          "duration": 0.35468844583333947,
          "durationTicks": 227,
          "midi": 51,
          "name": "D#3",
          "ticks": 23520,
          "time": 36.750097999999994,
          "velocity": 0.6299212598425197
        },
        {
          "duration": 0.35468844583333237,
          "durationTicks": 227,
          "midi": 56,
          "name": "G#3",
          "ticks": 23760,
          "time": 37.125099,
          "velocity": 0.6299212598425197
        },
        {
          "duration": 1.4234412958333351,
          "durationTicks": 911,
          "midi": 54,
          "name": "F#3",
          "ticks": 24000,
          "time": 37.500099999999996,
          "velocity": 0.6299212598425197
        },
        {
          "duration": 0.35468844583333237,
          "durationTicks": 227,
          "midi": 52,
          "name": "E3",
          "ticks": 24960,
          "time": 39.000104,
          "velocity": 0.6299212598425197
        },
        {
          "duration": 0.35468844583333237,
          "durationTicks": 227,
          "midi": 59,
          "name": "B3",
          "ticks": 25200,
          "time": 39.375105,
          "velocity": 0.6299212598425197
        },
        {
          "duration": 0.7109393958333357,
          "durationTicks": 455,
          "midi": 68,
          "name": "G#4",
          "ticks": 25440,
          "time": 39.750105999999995,
          "velocity": 0.6299212598425197
        },
        {
          "duration": 0.35468844583333237,
          "durationTicks": 227,
          "midi": 51,
          "name": "D#3",
          "ticks": 25920,
          "time": 40.500108,
          "velocity": 0.6299212598425197
        },
        {
          "duration": 0.35468844583333947,
          "durationTicks": 227,
          "midi": 59,
          "name": "B3",
          "ticks": 26160,
          "time": 40.875108999999995,
          "velocity": 0.6299212598425197
        },
        {
          "duration": 0.7109393958333285,
          "durationTicks": 455,
          "midi": 66,
          "name": "F#4",
          "ticks": 26400,
          "time": 41.25011,
          "velocity": 0.6299212598425197
        },
        {
          "duration": 0.35468844583333947,
          "durationTicks": 227,
          "midi": 49,
          "name": "C#3",
          "ticks": 26880,
          "time": 42.000111999999994,
          "velocity": 0.6299212598425197
        },
        {
          "duration": 0.35468844583333237,
          "durationTicks": 227,
          "midi": 56,
          "name": "G#3",
          "ticks": 27120,
          "time": 42.375113,
          "velocity": 0.6299212598425197
        },
        {
          "duration": 0.35468844583333947,
          "durationTicks": 227,
          "midi": 64,
          "name": "E4",
          "ticks": 27360,
          "time": 42.750113999999996,
          "velocity": 0.6299212598425197
        },
        {
          "duration": 0.35468844583333947,
          "durationTicks": 227,
          "midi": 56,
          "name": "G#3",
          "ticks": 27600,
          "time": 43.125114999999994,
          "velocity": 0.6299212598425197
        },
        {
          "duration": 0.35468844583333237,
          "durationTicks": 227,
          "midi": 44,
          "name": "G#2",
          "ticks": 27840,
          "time": 43.500116,
          "velocity": 0.6299212598425197
        },
        {
          "duration": 0.35468844583333947,
          "durationTicks": 227,
          "midi": 51,
          "name": "D#3",
          "ticks": 28080,
          "time": 43.875116999999996,
          "velocity": 0.6299212598425197
        },
        {
          "duration": 0.7109393958333357,
          "durationTicks": 455,
          "midi": 59,
          "name": "B3",
          "ticks": 28320,
          "time": 44.25011799999999,
          "velocity": 0.6299212598425197
        },
        {
          "duration": 0.35468844583333947,
          "durationTicks": 227,
          "midi": 49,
          "name": "C#3",
          "ticks": 28800,
          "time": 45.000119999999995,
          "velocity": 0.6299212598425197
        },
        {
          "duration": 0.35468844583333237,
          "durationTicks": 227,
          "midi": 56,
          "name": "G#3",
          "ticks": 29040,
          "time": 45.375121,
          "velocity": 0.6299212598425197
        },
        {
          "duration": 0.35468844583333237,
          "durationTicks": 227,
          "midi": 61,
          "name": "C#4",
          "ticks": 29280,
          "time": 45.750122,
          "velocity": 0.6299212598425197
        },
        {
          "duration": 1.7796922458333384,
          "durationTicks": 1139,
          "midi": 65,
          "name": "F4",
          "ticks": 29520,
          "time": 46.125122999999995,
          "velocity": 0.6299212598425197
        },
        {
          "duration": 0.35468844583333237,
          "durationTicks": 227,
          "midi": 45,
          "name": "A2",
          "ticks": 30720,
          "time": 48.000128,
          "velocity": 0.6299212598425197
        },
        {
          "duration": 0.35468844583333237,
          "durationTicks": 227,
          "midi": 52,
          "name": "E3",
          "ticks": 30960,
          "time": 48.375128999999994,
          "velocity": 0.6299212598425197
        },
        {
          "duration": 0.35468844583332526,
          "durationTicks": 227,
          "midi": 57,
          "name": "A3",
          "ticks": 31200,
          "time": 48.75013,
          "velocity": 0.6299212598425197
        },
        {
          "duration": 0.35468844583333237,
          "durationTicks": 227,
          "midi": 52,
          "name": "E3",
          "ticks": 31440,
          "time": 49.125130999999996,
          "velocity": 0.6299212598425197
        },
        {
          "duration": 0.7109393958333428,
          "durationTicks": 455,
          "midi": 51,
          "name": "D#3",
          "ticks": 31680,
          "time": 49.500131999999994,
          "velocity": 0.6299212598425197
        },
        {
          "duration": 0.7109393958333357,
          "durationTicks": 455,
          "midi": 39,
          "name": "D#2",
          "ticks": 32160,
          "time": 50.250133999999996,
          "velocity": 0.6299212598425197
        },
        {
          "duration": 0.35468844583333237,
          "durationTicks": 227,
          "midi": 44,
          "name": "G#2",
          "ticks": 32640,
          "time": 51.000136,
          "velocity": 0.6299212598425197
        },
        {
          "duration": 0.35468844583333237,
          "durationTicks": 227,
          "midi": 51,
          "name": "D#3",
          "ticks": 32880,
          "time": 51.375136999999995,
          "velocity": 0.6299212598425197
        },
        {
          "duration": 0.35468844583332526,
          "durationTicks": 227,
          "midi": 59,
          "name": "B3",
          "ticks": 33120,
          "time": 51.750138,
          "velocity": 0.6299212598425197
        },
        {
          "duration": 0.35468844583333237,
          "durationTicks": 227,
          "midi": 51,
          "name": "D#3",
          "ticks": 33360,
          "time": 52.125139,
          "velocity": 0.6299212598425197
        },
        {
          "duration": 0.35468844583333237,
          "durationTicks": 227,
          "midi": 49,
          "name": "C#3",
          "ticks": 33600,
          "time": 52.500139999999995,
          "velocity": 0.6299212598425197
        },
        {
          "duration": 0.35468844583332526,
          "durationTicks": 227,
          "midi": 56,
          "name": "G#3",
          "ticks": 33840,
          "time": 52.875141,
          "velocity": 0.6299212598425197
        },
        {
          "duration": 0.7109393958333357,
          "durationTicks": 455,
          "midi": 61,
          "name": "C#4",
          "ticks": 34080,
          "time": 53.250142,
          "velocity": 0.6299212598425197
        },
        {
          "duration": 0.35468844583332526,
          "durationTicks": 227,
          "midi": 44,
          "name": "G#2",
          "ticks": 34560,
          "time": 54.000144,
          "velocity": 0.6299212598425197
        },
        {
          "duration": 0.35468844583333237,
          "durationTicks": 227,
          "midi": 51,
          "name": "D#3",
          "ticks": 34800,
          "time": 54.375144999999996,
          "velocity": 0.6299212598425197
        },
        {
          "duration": 0.35468844583333237,
          "durationTicks": 227,
          "midi": 56,
          "name": "G#3",
          "ticks": 35040,
          "time": 54.750145999999994,
          "velocity": 0.6299212598425197
        },
        {
          "duration": 0.35468844583332526,
          "durationTicks": 227,
          "midi": 58,
          "name": "A#3",
          "ticks": 35280,
          "time": 55.125147,
          "velocity": 0.6299212598425197
        },
        {
          "duration": 0.35468844583333237,
          "durationTicks": 227,
          "midi": 44,
          "name": "G#2",
          "ticks": 36480,
          "time": 57.00015199999999,
          "velocity": 0.6299212598425197
        },
        {
          "duration": 0.35468844583333237,
          "durationTicks": 227,
          "midi": 51,
          "name": "D#3",
          "ticks": 36720,
          "time": 57.375153,
          "velocity": 0.6299212598425197
        },
        {
          "duration": 0.35468844583333237,
          "durationTicks": 227,
          "midi": 59,
          "name": "B3",
          "ticks": 36960,
          "time": 57.750153999999995,
          "velocity": 0.6299212598425197
        },
        {
          "duration": 0.35468844583333237,
          "durationTicks": 227,
          "midi": 51,
          "name": "D#3",
          "ticks": 37200,
          "time": 58.12515499999999,
          "velocity": 0.6299212598425197
        },
        {
          "duration": 0.35468844583333237,
          "durationTicks": 227,
          "midi": 49,
          "name": "C#3",
          "ticks": 37440,
          "time": 58.500156,
          "velocity": 0.6299212598425197
        },
        {
          "duration": 0.35468844583333237,
          "durationTicks": 227,
          "midi": 56,
          "name": "G#3",
          "ticks": 37680,
          "time": 58.875156999999994,
          "velocity": 0.6299212598425197
        },
        {
          "duration": 0.7109393958333357,
          "durationTicks": 455,
          "midi": 65,
          "name": "F4",
          "ticks": 37920,
          "time": 59.250158,
          "velocity": 0.6299212598425197
        },
        {
          "duration": 0.7109393958333357,
          "durationTicks": 455,
          "midi": 39,
          "name": "D#2",
          "ticks": 38400,
          "time": 60.000159999999994,
          "velocity": 0.6299212598425197
        },
        {
          "duration": 0.35468844583333237,
          "durationTicks": 227,
          "midi": 51,
          "name": "D#3",
          "ticks": 38880,
          "time": 60.750161999999996,
          "velocity": 0.6299212598425197
        },
        {
          "duration": 0.35468844583333237,
          "durationTicks": 227,
          "midi": 56,
          "name": "G#3",
          "ticks": 39120,
          "time": 61.12516299999999,
          "velocity": 0.6299212598425197
        },
        {
          "duration": 1.423441295833328,
          "durationTicks": 911,
          "midi": 54,
          "name": "F#3",
          "ticks": 39360,
          "time": 61.500164,
          "velocity": 0.6299212598425197
        },
        {
          "duration": 0.35468844583333237,
          "durationTicks": 227,
          "midi": 52,
          "name": "E3",
          "ticks": 40320,
          "time": 63.000167999999995,
          "velocity": 0.6299212598425197
        },
        {
          "duration": 0.35468844583333237,
          "durationTicks": 227,
          "midi": 59,
          "name": "B3",
          "ticks": 40560,
          "time": 63.37516899999999,
          "velocity": 0.6299212598425197
        },
        {
          "duration": 0.7109393958333357,
          "durationTicks": 455,
          "midi": 68,
          "name": "G#4",
          "ticks": 40800,
          "time": 63.75017,
          "velocity": 0.6299212598425197
        },
        {
          "duration": 0.35468844583333237,
          "durationTicks": 227,
          "midi": 51,
          "name": "D#3",
          "ticks": 41280,
          "time": 64.50017199999999,
          "velocity": 0.6299212598425197
        },
        {
          "duration": 0.35468844583333237,
          "durationTicks": 227,
          "midi": 59,
          "name": "B3",
          "ticks": 41520,
          "time": 64.87517299999999,
          "velocity": 0.6299212598425197
        },
        {
          "duration": 0.7109393958333357,
          "durationTicks": 455,
          "midi": 66,
          "name": "F#4",
          "ticks": 41760,
          "time": 65.250174,
          "velocity": 0.6299212598425197
        },
        {
          "duration": 0.35468844583333237,
          "durationTicks": 227,
          "midi": 49,
          "name": "C#3",
          "ticks": 42240,
          "time": 66.000176,
          "velocity": 0.6299212598425197
        },
        {
          "duration": 0.35468844583333237,
          "durationTicks": 227,
          "midi": 56,
          "name": "G#3",
          "ticks": 42480,
          "time": 66.375177,
          "velocity": 0.6299212598425197
        },
        {
          "duration": 0.7109393958333357,
          "durationTicks": 455,
          "midi": 64,
          "name": "E4",
          "ticks": 42720,
          "time": 66.75017799999999,
          "velocity": 0.6299212598425197
        },
        {
          "duration": 0.35468844583333237,
          "durationTicks": 227,
          "midi": 44,
          "name": "G#2",
          "ticks": 43200,
          "time": 67.50018,
          "velocity": 0.6299212598425197
        },
        {
          "duration": 0.35468844583333237,
          "durationTicks": 227,
          "midi": 51,
          "name": "D#3",
          "ticks": 43440,
          "time": 67.875181,
          "velocity": 0.6299212598425197
        },
        {
          "duration": 0.7109393958333357,
          "durationTicks": 455,
          "midi": 59,
          "name": "B3",
          "ticks": 43680,
          "time": 68.250182,
          "velocity": 0.6299212598425197
        },
        {
          "duration": 0.35468844583333237,
          "durationTicks": 227,
          "midi": 40,
          "name": "E2",
          "ticks": 44160,
          "time": 69.00018399999999,
          "velocity": 0.6299212598425197
        },
        {
          "duration": 0.35468844583331816,
          "durationTicks": 227,
          "midi": 47,
          "name": "B2",
          "ticks": 44400,
          "time": 69.375185,
          "velocity": 0.6299212598425197
        },
        {
          "duration": 0.35468844583333237,
          "durationTicks": 227,
          "midi": 56,
          "name": "G#3",
          "ticks": 44640,
          "time": 69.750186,
          "velocity": 0.6299212598425197
        },
        {
          "duration": 0.35468844583333237,
          "durationTicks": 227,
          "midi": 63,
          "name": "D#4",
          "ticks": 44880,
          "time": 70.125187,
          "velocity": 0.6299212598425197
        },
        {
          "duration": 0.35468844583333237,
          "durationTicks": 227,
          "midi": 42,
          "name": "F#2",
          "ticks": 45120,
          "time": 70.500188,
          "velocity": 0.6299212598425197
        },
        {
          "duration": 0.35468844583333237,
          "durationTicks": 227,
          "midi": 49,
          "name": "C#3",
          "ticks": 45360,
          "time": 70.87518899999999,
          "velocity": 0.6299212598425197
        },
        {
          "duration": 0.7109393958333357,
          "durationTicks": 455,
          "midi": 58,
          "name": "A#3",
          "ticks": 45600,
          "time": 71.25018999999999,
          "velocity": 0.6299212598425197
        },
        {
          "duration": 0.35468844583333237,
          "durationTicks": 227,
          "midi": 44,
          "name": "G#2",
          "ticks": 46080,
          "time": 72.000192,
          "velocity": 0.6299212598425197
        },
        {
          "duration": 0.35468844583333237,
          "durationTicks": 227,
          "midi": 51,
          "name": "D#3",
          "ticks": 46320,
          "time": 72.375193,
          "velocity": 0.6299212598425197
        },
        {
          "duration": 0.35468844583333237,
          "durationTicks": 227,
          "midi": 56,
          "name": "G#3",
          "ticks": 46560,
          "time": 72.750194,
          "velocity": 0.6299212598425197
        },
        {
          "duration": 0.35468844583333237,
          "durationTicks": 227,
          "midi": 59,
          "name": "B3",
          "ticks": 46800,
          "time": 73.12519499999999,
          "velocity": 0.6299212598425197
        },
        {
          "duration": 0.35468844583331816,
          "durationTicks": 227,
          "midi": 47,
          "name": "B2",
          "ticks": 49920,
          "time": 78.000208,
          "velocity": 0.6299212598425197
        },
        {
          "duration": 0.35468844583333237,
          "durationTicks": 227,
          "midi": 54,
          "name": "F#3",
          "ticks": 50160,
          "time": 78.375209,
          "velocity": 0.6299212598425197
        },
        {
          "duration": 0.35468844583333237,
          "durationTicks": 227,
          "midi": 63,
          "name": "D#4",
          "ticks": 50400,
          "time": 78.75021,
          "velocity": 0.6299212598425197
        },
        {
          "duration": 0.35468844583333237,
          "durationTicks": 227,
          "midi": 54,
          "name": "F#3",
          "ticks": 50640,
          "time": 79.125211,
          "velocity": 0.6299212598425197
        },
        {
          "duration": 0.35468844583333237,
          "durationTicks": 227,
          "midi": 49,
          "name": "C#3",
          "ticks": 50880,
          "time": 79.50021199999999,
          "velocity": 0.6299212598425197
        },
        {
          "duration": 0.35468844583333237,
          "durationTicks": 227,
          "midi": 56,
          "name": "G#3",
          "ticks": 51120,
          "time": 79.87521299999999,
          "velocity": 0.6299212598425197
        },
        {
          "duration": 0.7109393958333357,
          "durationTicks": 455,
          "midi": 65,
          "name": "F4",
          "ticks": 51360,
          "time": 80.250214,
          "velocity": 0.6299212598425197
        },
        {
          "duration": 0.35468844583333237,
          "durationTicks": 227,
          "midi": 47,
          "name": "B2",
          "ticks": 51840,
          "time": 81.000216,
          "velocity": 0.6299212598425197
        },
        {
          "duration": 0.35468844583333237,
          "durationTicks": 227,
          "midi": 54,
          "name": "F#3",
          "ticks": 52080,
          "time": 81.37521699999999,
          "velocity": 0.6299212598425197
        },
        {
          "duration": 0.35468844583333237,
          "durationTicks": 227,
          "midi": 63,
          "name": "D#4",
          "ticks": 52320,
          "time": 81.75021799999999,
          "velocity": 0.6299212598425197
        },
        {
          "duration": 0.35468844583333237,
          "durationTicks": 227,
          "midi": 54,
          "name": "F#3",
          "ticks": 52560,
          "time": 82.12521899999999,
          "velocity": 0.6299212598425197
        },
        {
          "duration": 0.35468844583333237,
          "durationTicks": 227,
          "midi": 49,
          "name": "C#3",
          "ticks": 52800,
          "time": 82.50022,
          "velocity": 0.6299212598425197
        },
        {
          "duration": 0.35468844583333237,
          "durationTicks": 227,
          "midi": 56,
          "name": "G#3",
          "ticks": 53040,
          "time": 82.875221,
          "velocity": 0.6299212598425197
        },
        {
          "duration": 0.7109393958333357,
          "durationTicks": 455,
          "midi": 65,
          "name": "F4",
          "ticks": 53280,
          "time": 83.250222,
          "velocity": 0.6299212598425197
        },
        {
          "duration": 0.35468844583333237,
          "durationTicks": 227,
          "midi": 44,
          "name": "G#2",
          "ticks": 53760,
          "time": 84.00022399999999,
          "velocity": 0.6299212598425197
        },
        {
          "duration": 0.35468844583331816,
          "durationTicks": 227,
          "midi": 51,
          "name": "D#3",
          "ticks": 54000,
          "time": 84.375225,
          "velocity": 0.6299212598425197
        },
        {
          "duration": 0.35468844583333237,
          "durationTicks": 227,
          "midi": 56,
          "name": "G#3",
          "ticks": 54240,
          "time": 84.750226,
          "velocity": 0.6299212598425197
        },
        {
          "duration": 0.7109393958333357,
          "durationTicks": 455,
          "midi": 61,
          "name": "C#4",
          "ticks": 54480,
          "time": 85.125227,
          "velocity": 0.6299212598425197
        },
        {
          "duration": 0.35468844583333237,
          "durationTicks": 227,
          "midi": 51,
          "name": "D#3",
          "ticks": 54960,
          "time": 85.87522899999999,
          "velocity": 0.6299212598425197
        },
        {
          "duration": 0.35468844583333237,
          "durationTicks": 227,
          "midi": 56,
          "name": "G#3",
          "ticks": 55200,
          "time": 86.25022999999999,
          "velocity": 0.6299212598425197
        },
        {
          "duration": 0.35468844583331816,
          "durationTicks": 227,
          "midi": 61,
          "name": "C#4",
          "ticks": 55440,
          "time": 86.625231,
          "velocity": 0.6299212598425197
        },
        {
          "duration": 0.35468844583333237,
          "durationTicks": 227,
          "midi": 44,
          "name": "G#2",
          "ticks": 55680,
          "time": 87.000232,
          "velocity": 0.6299212598425197
        },
        {
          "duration": 0.35468844583333237,
          "durationTicks": 227,
          "midi": 51,
          "name": "D#3",
          "ticks": 55920,
          "time": 87.375233,
          "velocity": 0.6299212598425197
        },
        {
          "duration": 0.35468844583333237,
          "durationTicks": 227,
          "midi": 56,
          "name": "G#3",
          "ticks": 56160,
          "time": 87.75023399999999,
          "velocity": 0.6299212598425197
        },
        {
          "duration": 1.067190345833339,
          "durationTicks": 683,
          "midi": 60,
          "name": "C4",
          "ticks": 56400,
          "time": 88.12523499999999,
          "velocity": 0.6299212598425197
        },
        {
          "duration": 0.35468844583333237,
          "durationTicks": 227,
          "midi": 44,
          "name": "G#2",
          "ticks": 57120,
          "time": 89.250238,
          "velocity": 0.6299212598425197
        },
        {
          "duration": 0.35468844583333237,
          "durationTicks": 227,
          "midi": 46,
          "name": "A#2",
          "ticks": 57360,
          "time": 89.625239,
          "velocity": 0.6299212598425197
        },
        {
          "duration": 0.35468844583333237,
          "durationTicks": 227,
          "midi": 47,
          "name": "B2",
          "ticks": 57600,
          "time": 90.00023999999999,
          "velocity": 0.6299212598425197
        },
        {
          "duration": 0.35468844583333237,
          "durationTicks": 227,
          "midi": 54,
          "name": "F#3",
          "ticks": 57840,
          "time": 90.37524099999999,
          "velocity": 0.6299212598425197
        },
        {
          "duration": 0.35468844583331816,
          "durationTicks": 227,
          "midi": 63,
          "name": "D#4",
          "ticks": 58080,
          "time": 90.750242,
          "velocity": 0.6299212598425197
        },
        {
          "duration": 0.35468844583333237,
          "durationTicks": 227,
          "midi": 54,
          "name": "F#3",
          "ticks": 58320,
          "time": 91.125243,
          "velocity": 0.6299212598425197
        },
        {
          "duration": 0.35468844583333237,
          "durationTicks": 227,
          "midi": 49,
          "name": "C#3",
          "ticks": 58560,
          "time": 91.500244,
          "velocity": 0.6299212598425197
        },
        {
          "duration": 0.35468844583333237,
          "durationTicks": 227,
          "midi": 56,
          "name": "G#3",
          "ticks": 58800,
          "time": 91.87524499999999,
          "velocity": 0.6299212598425197
        },
        {
          "duration": 0.7109393958333357,
          "durationTicks": 455,
          "midi": 65,
          "name": "F4",
          "ticks": 59040,
          "time": 92.25024599999999,
          "velocity": 0.6299212598425197
        },
        {
          "duration": 0.35468844583331816,
          "durationTicks": 227,
          "midi": 47,
          "name": "B2",
          "ticks": 59520,
          "time": 93.000248,
          "velocity": 0.6299212598425197
        },
        {
          "duration": 0.35468844583333237,
          "durationTicks": 227,
          "midi": 54,
          "name": "F#3",
          "ticks": 59760,
          "time": 93.375249,
          "velocity": 0.6299212598425197
        },
        {
          "duration": 0.35468844583333237,
          "durationTicks": 227,
          "midi": 63,
          "name": "D#4",
          "ticks": 60000,
          "time": 93.75025,
          "velocity": 0.6299212598425197
        },
        {
          "duration": 0.35468844583333237,
          "durationTicks": 227,
          "midi": 54,
          "name": "F#3",
          "ticks": 60240,
          "time": 94.12525099999999,
          "velocity": 0.6299212598425197
        },
        {
          "duration": 0.35468844583333237,
          "durationTicks": 227,
          "midi": 49,
          "name": "C#3",
          "ticks": 60480,
          "time": 94.50025199999999,
          "velocity": 0.6299212598425197
        },
        {
          "duration": 0.35468844583333237,
          "durationTicks": 227,
          "midi": 56,
          "name": "G#3",
          "ticks": 60720,
          "time": 94.87525299999999,
          "velocity": 0.6299212598425197
        },
        {
          "duration": 0.7109393958333357,
          "durationTicks": 455,
          "midi": 65,
          "name": "F4",
          "ticks": 60960,
          "time": 95.250254,
          "velocity": 0.6299212598425197
        },
        {
          "duration": 0.35468844583333237,
          "durationTicks": 227,
          "midi": 39,
          "name": "D#2",
          "ticks": 61440,
          "time": 96.000256,
          "velocity": 0.6299212598425197
        },
        {
          "duration": 0.35468844583333237,
          "durationTicks": 227,
          "midi": 46,
          "name": "A#2",
          "ticks": 61680,
          "time": 96.37525699999999,
          "velocity": 0.6299212598425197
        },
        {
          "duration": 0.35468844583333237,
          "durationTicks": 227,
          "midi": 51,
          "name": "D#3",
          "ticks": 61920,
          "time": 96.75025799999999,
          "velocity": 0.6299212598425197
        },
        {
          "duration": 0.35468844583331816,
          "durationTicks": 227,
          "midi": 56,
          "name": "G#3",
          "ticks": 62160,
          "time": 97.125259,
          "velocity": 0.6299212598425197
        },
        {
          "duration": 2.1359431958333346,
          "durationTicks": 1367,
          "midi": 51,
          "name": "D#3",
          "ticks": 63360,
          "time": 99.00026399999999,
          "velocity": 0.6299212598425197
        },
        {
          "duration": 2.1359431958333346,
          "durationTicks": 1367,
          "midi": 58,
          "name": "A#3",
          "ticks": 63360,
          "time": 99.00026399999999,
          "velocity": 0.6299212598425197
        },
        {
          "duration": 2.1359431958333346,
          "durationTicks": 1367,
          "midi": 63,
          "name": "D#4",
          "ticks": 63360,
          "time": 99.00026399999999,
          "velocity": 0.6299212598425197
        },
        {
          "duration": 0.7109393958333357,
          "durationTicks": 455,
          "midi": 39,
          "name": "D#2",
          "ticks": 64800,
          "time": 101.25026999999999,
          "velocity": 0.6299212598425197
        },
        {
          "duration": 0.7109393958333357,
          "durationTicks": 455,
          "midi": 51,
          "name": "D#3",
          "ticks": 64800,
          "time": 101.25026999999999,
          "velocity": 0.6299212598425197
        },
        {
          "duration": 0.35468844583333237,
          "durationTicks": 227,
          "midi": 52,
          "name": "E3",
          "ticks": 65280,
          "time": 102.000272,
          "velocity": 0.6299212598425197
        },
        {
          "duration": 0.35468844583333237,
          "durationTicks": 227,
          "midi": 59,
          "name": "B3",
          "ticks": 65520,
          "time": 102.37527299999999,
          "velocity": 0.6299212598425197
        },
        {
          "duration": 0.7109393958333214,
          "durationTicks": 455,
          "midi": 68,
          "name": "G#4",
          "ticks": 65760,
          "time": 102.75027399999999,
          "velocity": 0.6299212598425197
        },
        {
          "duration": 0.35468844583331816,
          "durationTicks": 227,
          "midi": 52,
          "name": "E3",
          "ticks": 66240,
          "time": 103.500276,
          "velocity": 0.6299212598425197
        },
        {
          "duration": 0.35468844583333237,
          "durationTicks": 227,
          "midi": 59,
          "name": "B3",
          "ticks": 66480,
          "time": 103.875277,
          "velocity": 0.6299212598425197
        },
        {
          "duration": 0.7109393958333214,
          "durationTicks": 455,
          "midi": 66,
          "name": "F#4",
          "ticks": 66720,
          "time": 104.250278,
          "velocity": 0.6299212598425197
        },
        {
          "duration": 0.35468844583333237,
          "durationTicks": 227,
          "midi": 49,
          "name": "C#3",
          "ticks": 67200,
          "time": 105.00027999999999,
          "velocity": 0.6299212598425197
        },
        {
          "duration": 0.35468844583333237,
          "durationTicks": 227,
          "midi": 56,
          "name": "G#3",
          "ticks": 67440,
          "time": 105.37528099999999,
          "velocity": 0.6299212598425197
        },
        {
          "duration": 0.35468844583331816,
          "durationTicks": 227,
          "midi": 64,
          "name": "E4",
          "ticks": 67680,
          "time": 105.750282,
          "velocity": 0.6299212598425197
        },
        {
          "duration": 0.35468844583333237,
          "durationTicks": 227,
          "midi": 44,
          "name": "G#2",
          "ticks": 68160,
          "time": 106.500284,
          "velocity": 0.6299212598425197
        },
        {
          "duration": 0.35468844583333237,
          "durationTicks": 227,
          "midi": 51,
          "name": "D#3",
          "ticks": 68400,
          "time": 106.87528499999999,
          "velocity": 0.6299212598425197
        },
        {
          "duration": 0.7109393958333357,
          "durationTicks": 455,
          "midi": 59,
          "name": "B3",
          "ticks": 68640,
          "time": 107.25028599999999,
          "velocity": 0.6299212598425197
        },
        {
          "duration": 0.35468844583331816,
          "durationTicks": 227,
          "midi": 40,
          "name": "E2",
          "ticks": 69120,
          "time": 108.000288,
          "velocity": 0.6299212598425197
        },
        {
          "duration": 0.35468844583333237,
          "durationTicks": 227,
          "midi": 47,
          "name": "B2",
          "ticks": 69360,
          "time": 108.375289,
          "velocity": 0.6299212598425197
        },
        {
          "duration": 0.35468844583333237,
          "durationTicks": 227,
          "midi": 56,
          "name": "G#3",
          "ticks": 69600,
          "time": 108.75028999999999,
          "velocity": 0.6299212598425197
        },
        {
          "duration": 0.35468844583333237,
          "durationTicks": 227,
          "midi": 63,
          "name": "D#4",
          "ticks": 69840,
          "time": 109.12529099999999,
          "velocity": 0.6299212598425197
        },
        {
          "duration": 0.35468844583333237,
          "durationTicks": 227,
          "midi": 42,
          "name": "F#2",
          "ticks": 70080,
          "time": 109.50029199999999,
          "velocity": 0.6299212598425197
        },
        {
          "duration": 0.35468844583331816,
          "durationTicks": 227,
          "midi": 49,
          "name": "C#3",
          "ticks": 70320,
          "time": 109.875293,
          "velocity": 0.6299212598425197
        },
        {
          "duration": 0.7109393958333214,
          "durationTicks": 455,
          "midi": 58,
          "name": "A#3",
          "ticks": 70560,
          "time": 110.250294,
          "velocity": 0.6299212598425197
        },
        {
          "duration": 0.35468844583333237,
          "durationTicks": 227,
          "midi": 44,
          "name": "G#2",
          "ticks": 71040,
          "time": 111.00029599999999,
          "velocity": 0.6299212598425197
        },
        {
          "duration": 0.35468844583333237,
          "durationTicks": 227,
          "midi": 51,
          "name": "D#3",
          "ticks": 71280,
          "time": 111.37529699999999,
          "velocity": 0.6299212598425197
        },
        {
          "duration": 0.35468844583333237,
          "durationTicks": 227,
          "midi": 56,
          "name": "G#3",
          "ticks": 71520,
          "time": 111.75029799999999,
          "velocity": 0.6299212598425197
        },
        {
          "duration": 0.35468844583331816,
          "durationTicks": 227,
          "midi": 59,
          "name": "B3",
          "ticks": 71760,
          "time": 112.125299,
          "velocity": 0.6299212598425197
        },
        {
          "duration": 0.35468844583333237,
          "durationTicks": 227,
          "midi": 56,
          "name": "G#3",
          "ticks": 72960,
          "time": 114.00030399999999,
          "velocity": 0.6299212598425197
        },
        {
          "duration": 0.35468844583331816,
          "durationTicks": 227,
          "midi": 63,
          "name": "D#4",
          "ticks": 73200,
          "time": 114.375305,
          "velocity": 0.6299212598425197
        },
        {
          "duration": 0.35468844583333237,
          "durationTicks": 227,
          "midi": 68,
          "name": "G#4",
          "ticks": 73440,
          "time": 114.750306,
          "velocity": 0.6299212598425197
        },
        {
          "duration": 0.35468844583333237,
          "durationTicks": 227,
          "midi": 70,
          "name": "A#4",
          "ticks": 73680,
          "time": 115.12530699999999,
          "velocity": 0.6299212598425197
        },
        {
          "duration": 1.4234412958333422,
          "durationTicks": 911,
          "midi": 64,
          "name": "E4",
          "ticks": 73920,
          "time": 115.50030799999999,
          "velocity": 0.6299212598425197
        },
        {
          "duration": 1.4234412958333422,
          "durationTicks": 911,
          "midi": 71,
          "name": "B4",
          "ticks": 73920,
          "time": 115.50030799999999,
          "velocity": 0.6299212598425197
        },
        {
          "duration": 0.35468844583333237,
          "durationTicks": 227,
          "midi": 49,
          "name": "C#3",
          "ticks": 74880,
          "time": 117.000312,
          "velocity": 0.6299212598425197
        },
        {
          "duration": 0.35468844583333237,
          "durationTicks": 227,
          "midi": 56,
          "name": "G#3",
          "ticks": 75120,
          "time": 117.37531299999999,
          "velocity": 0.6299212598425197
        },
        {
          "duration": 0.35468844583333237,
          "durationTicks": 227,
          "midi": 64,
          "name": "E4",
          "ticks": 75360,
          "time": 117.75031399999999,
          "velocity": 0.6299212598425197
        },
        {
          "duration": 0.35468844583333237,
          "durationTicks": 227,
          "midi": 56,
          "name": "G#3",
          "ticks": 75600,
          "time": 118.12531499999999,
          "velocity": 0.6299212598425197
        },
        {
          "duration": 0.7109393958333214,
          "durationTicks": 455,
          "midi": 47,
          "name": "B2",
          "ticks": 75840,
          "time": 118.500316,
          "velocity": 0.6299212598425197
        },
        {
          "duration": 0.7109393958333214,
          "durationTicks": 455,
          "midi": 59,
          "name": "B3",
          "ticks": 75840,
          "time": 118.500316,
          "velocity": 0.6299212598425197
        },
        {
          "duration": 0.7109393958333214,
          "durationTicks": 455,
          "midi": 42,
          "name": "F#2",
          "ticks": 76320,
          "time": 119.250318,
          "velocity": 0.6299212598425197
        },
        {
          "duration": 0.7109393958333214,
          "durationTicks": 455,
          "midi": 54,
          "name": "F#3",
          "ticks": 76320,
          "time": 119.250318,
          "velocity": 0.6299212598425197
        },
        {
          "duration": 0.35468844583333237,
          "durationTicks": 227,
          "midi": 40,
          "name": "E2",
          "ticks": 76800,
          "time": 120.00031999999999,
          "velocity": 0.6299212598425197
        },
        {
          "duration": 0.35468844583333237,
          "durationTicks": 227,
          "midi": 47,
          "name": "B2",
          "ticks": 77040,
          "time": 120.37532099999999,
          "velocity": 0.6299212598425197
        },
        {
          "duration": 0.7109393958333214,
          "durationTicks": 455,
          "midi": 52,
          "name": "E3",
          "ticks": 77280,
          "time": 120.750322,
          "velocity": 0.6299212598425197
        },
        {
          "duration": 0.35468844583333237,
          "durationTicks": 227,
          "midi": 42,
          "name": "F#2",
          "ticks": 77760,
          "time": 121.50032399999999,
          "velocity": 0.6299212598425197
        },
        {
          "duration": 1.067190345833339,
          "durationTicks": 683,
          "midi": 49,
          "name": "C#3",
          "ticks": 78000,
          "time": 121.87532499999999,
          "velocity": 0.6299212598425197
        },
        {
          "duration": 0.35468844583333237,
          "durationTicks": 227,
          "midi": 37,
          "name": "C#2",
          "ticks": 78720,
          "time": 123.000328,
          "velocity": 0.6299212598425197
        },
        {
          "duration": 0.35468844583333237,
          "durationTicks": 227,
          "midi": 44,
          "name": "G#2",
          "ticks": 78960,
          "time": 123.375329,
          "velocity": 0.6299212598425197
        },
        {
          "duration": 0.35468844583333237,
          "durationTicks": 227,
          "midi": 49,
          "name": "C#3",
          "ticks": 79200,
          "time": 123.75032999999999,
          "velocity": 0.6299212598425197
        },
        {
          "duration": 0.35468844583333237,
          "durationTicks": 227,
          "midi": 44,
          "name": "G#2",
          "ticks": 79440,
          "time": 124.12533099999999,
          "velocity": 0.6299212598425197
        },
        {
          "duration": 0.7109393958333357,
          "durationTicks": 455,
          "midi": 49,
          "name": "C#3",
          "ticks": 79680,
          "time": 124.50033199999999,
          "velocity": 0.6299212598425197
        },
        {
          "duration": 0.7109393958333214,
          "durationTicks": 455,
          "midi": 43,
          "name": "G2",
          "ticks": 80160,
          "time": 125.250334,
          "velocity": 0.6299212598425197
        },
        {
          "duration": 0.7109393958333214,
          "durationTicks": 455,
          "midi": 55,
          "name": "G3",
          "ticks": 80160,
          "time": 125.250334,
          "velocity": 0.6299212598425197
        },
        {
          "duration": 0.35468844583333237,
          "durationTicks": 227,
          "midi": 44,
          "name": "G#2",
          "ticks": 80640,
          "time": 126.00033599999999,
          "velocity": 0.6299212598425197
        },
        {
          "duration": 0.35468844583333237,
          "durationTicks": 227,
          "midi": 51,
          "name": "D#3",
          "ticks": 80880,
          "time": 126.37533699999999,
          "velocity": 0.6299212598425197
        },
        {
          "duration": 0.35468844583333237,
          "durationTicks": 227,
          "midi": 56,
          "name": "G#3",
          "ticks": 81120,
          "time": 126.75033799999999,
          "velocity": 0.6299212598425197
        },
        {
          "duration": 0.35468844583331816,
          "durationTicks": 227,
          "midi": 58,
          "name": "A#3",
          "ticks": 81360,
          "time": 127.125339,
          "velocity": 0.6299212598425197
        },
        {
          "duration": 1.423441295833328,
          "durationTicks": 911,
          "midi": 52,
          "name": "E3",
          "ticks": 81600,
          "time": 127.50034,
          "velocity": 0.6299212598425197
        },
        {
          "duration": 1.423441295833328,
          "durationTicks": 911,
          "midi": 59,
          "name": "B3",
          "ticks": 81600,
          "time": 127.50034,
          "velocity": 0.6299212598425197
        },
        {
          "duration": 0.3546884458333466,
          "durationTicks": 227,
          "midi": 37,
          "name": "C#2",
          "ticks": 82560,
          "time": 129.00034399999998,
          "velocity": 0.6299212598425197
        },
        {
          "duration": 0.3546884458333466,
          "durationTicks": 227,
          "midi": 44,
          "name": "G#2",
          "ticks": 82800,
          "time": 129.37534499999998,
          "velocity": 0.6299212598425197
        },
        {
          "duration": 0.3546884458333466,
          "durationTicks": 227,
          "midi": 49,
          "name": "C#3",
          "ticks": 83040,
          "time": 129.75034599999998,
          "velocity": 0.6299212598425197
        },
        {
          "duration": 0.3546884458333466,
          "durationTicks": 227,
          "midi": 44,
          "name": "G#2",
          "ticks": 83280,
          "time": 130.12534699999998,
          "velocity": 0.6299212598425197
        },
        {
          "duration": 0.7109393958333214,
          "durationTicks": 455,
          "midi": 47,
          "name": "B2",
          "ticks": 83520,
          "time": 130.500348,
          "velocity": 0.6299212598425197
        },
        {
          "duration": 0.7109393958333214,
          "durationTicks": 455,
          "midi": 42,
          "name": "F#2",
          "ticks": 84000,
          "time": 131.25035,
          "velocity": 0.6299212598425197
        },
        {
          "duration": 0.35468844583331816,
          "durationTicks": 227,
          "midi": 37,
          "name": "C#2",
          "ticks": 84480,
          "time": 132.000352,
          "velocity": 0.6299212598425197
        },
        {
          "duration": 0.35468844583331816,
          "durationTicks": 227,
          "midi": 44,
          "name": "G#2",
          "ticks": 84720,
          "time": 132.375353,
          "velocity": 0.6299212598425197
        },
        {
          "duration": 0.3546884458333466,
          "durationTicks": 227,
          "midi": 49,
          "name": "C#3",
          "ticks": 84960,
          "time": 132.750354,
          "velocity": 0.6299212598425197
        },
        {
          "duration": 0.3546884458333466,
          "durationTicks": 227,
          "midi": 56,
          "name": "G#3",
          "ticks": 85200,
          "time": 133.12535499999998,
          "velocity": 0.6299212598425197
        },
        {
          "duration": 0.3546884458333466,
          "durationTicks": 227,
          "midi": 39,
          "name": "D#2",
          "ticks": 85440,
          "time": 133.50035599999998,
          "velocity": 0.6299212598425197
        },
        {
          "duration": 0.3546884458333466,
          "durationTicks": 227,
          "midi": 46,
          "name": "A#2",
          "ticks": 85680,
          "time": 133.87535699999998,
          "velocity": 0.6299212598425197
        },
        {
          "duration": 0.7109393958333499,
          "durationTicks": 455,
          "midi": 51,
          "name": "D#3",
          "ticks": 85920,
          "time": 134.25035799999998,
          "velocity": 0.6299212598425197
        },
        {
          "duration": 0.35468844583331816,
          "durationTicks": 227,
          "midi": 40,
          "name": "E2",
          "ticks": 86400,
          "time": 135.00036,
          "velocity": 0.6299212598425197
        },
        {
          "duration": 0.35468844583331816,
          "durationTicks": 227,
          "midi": 47,
          "name": "B2",
          "ticks": 86640,
          "time": 135.375361,
          "velocity": 0.6299212598425197
        },
        {
          "duration": 0.35468844583331816,
          "durationTicks": 227,
          "midi": 54,
          "name": "F#3",
          "ticks": 86880,
          "time": 135.750362,
          "velocity": 0.6299212598425197
        },
        {
          "duration": 0.35468844583331816,
          "durationTicks": 227,
          "midi": 56,
          "name": "G#3",
          "ticks": 87120,
          "time": 136.125363,
          "velocity": 0.6299212598425197
        },
        {
          "duration": 0.35468844583331816,
          "durationTicks": 227,
          "midi": 47,
          "name": "B2",
          "ticks": 90240,
          "time": 141.000376,
          "velocity": 0.6299212598425197
        },
        {
          "duration": 0.3546884458333466,
          "durationTicks": 227,
          "midi": 54,
          "name": "F#3",
          "ticks": 90480,
          "time": 141.375377,
          "velocity": 0.6299212598425197
        },
        {
          "duration": 0.3546884458333466,
          "durationTicks": 227,
          "midi": 59,
          "name": "B3",
          "ticks": 90720,
          "time": 141.75037799999998,
          "velocity": 0.6299212598425197
        },
        {
          "duration": 0.3546884458333466,
          "durationTicks": 227,
          "midi": 63,
          "name": "D#4",
          "ticks": 90960,
          "time": 142.12537899999998,
          "velocity": 0.6299212598425197
        },
        {
          "duration": 0.3546884458333466,
          "durationTicks": 227,
          "midi": 66,
          "name": "F#4",
          "ticks": 91200,
          "time": 142.50037999999998,
          "velocity": 0.6299212598425197
        },
        {
          "duration": 0.3546884458333466,
          "durationTicks": 227,
          "midi": 63,
          "name": "D#4",
          "ticks": 91440,
          "time": 142.87538099999998,
          "velocity": 0.6299212598425197
        },
        {
          "duration": 0.35468844583331816,
          "durationTicks": 227,
          "midi": 59,
          "name": "B3",
          "ticks": 91680,
          "time": 143.250382,
          "velocity": 0.6299212598425197
        },
        {
          "duration": 0.35468844583331816,
          "durationTicks": 227,
          "midi": 54,
          "name": "F#3",
          "ticks": 91920,
          "time": 143.625383,
          "velocity": 0.6299212598425197
        },
        {
          "duration": 0.35468844583331816,
          "durationTicks": 227,
          "midi": 46,
          "name": "A#2",
          "ticks": 92160,
          "time": 144.000384,
          "velocity": 0.6299212598425197
        },
        {
          "duration": 0.35468844583331816,
          "durationTicks": 227,
          "midi": 54,
          "name": "F#3",
          "ticks": 92400,
          "time": 144.375385,
          "velocity": 0.6299212598425197
        },
        {
          "duration": 0.35468844583331816,
          "durationTicks": 227,
          "midi": 58,
          "name": "A#3",
          "ticks": 92640,
          "time": 144.750386,
          "velocity": 0.6299212598425197
        },
        {
          "duration": 0.35468844583331816,
          "durationTicks": 227,
          "midi": 61,
          "name": "C#4",
          "ticks": 92880,
          "time": 145.125387,
          "velocity": 0.6299212598425197
        },
        {
          "duration": 1.423441295833328,
          "durationTicks": 911,
          "midi": 66,
          "name": "F#4",
          "ticks": 93120,
          "time": 145.500388,
          "velocity": 0.6299212598425197
        },
        {
          "duration": 0.3546884458333466,
          "durationTicks": 227,
          "midi": 40,
          "name": "E2",
          "ticks": 94080,
          "time": 147.00039199999998,
          "velocity": 0.6299212598425197
        },
        {
          "duration": 0.35468844583331816,
          "durationTicks": 227,
          "midi": 47,
          "name": "B2",
          "ticks": 94320,
          "time": 147.375393,
          "velocity": 0.6299212598425197
        },
        {
          "duration": 0.7109393958333214,
          "durationTicks": 455,
          "midi": 56,
          "name": "G#3",
          "ticks": 94560,
          "time": 147.750394,
          "velocity": 0.6299212598425197
        },
        {
          "duration": 1.423441295833328,
          "durationTicks": 911,
          "midi": 42,
          "name": "F#2",
          "ticks": 95040,
          "time": 148.500396,
          "velocity": 0.6299212598425197
        },
        {
          "duration": 0.3546884458333466,
          "durationTicks": 227,
          "midi": 37,
          "name": "C#2",
          "ticks": 96000,
          "time": 150.00039999999998,
          "velocity": 0.6299212598425197
        },
        {
          "duration": 0.3546884458333466,
          "durationTicks": 227,
          "midi": 44,
          "name": "G#2",
          "ticks": 96240,
          "time": 150.37540099999998,
          "velocity": 0.6299212598425197
        },
        {
          "duration": 0.3546884458333466,
          "durationTicks": 227,
          "midi": 49,
          "name": "C#3",
          "ticks": 96480,
          "time": 150.75040199999998,
          "velocity": 0.6299212598425197
        },
        {
          "duration": 0.3546884458333466,
          "durationTicks": 227,
          "midi": 53,
          "name": "F3",
          "ticks": 96720,
          "time": 151.12540299999998,
          "velocity": 0.6299212598425197
        },
        {
          "duration": 0.7109393958333214,
          "durationTicks": 455,
          "midi": 56,
          "name": "G#3",
          "ticks": 96960,
          "time": 151.500404,
          "velocity": 0.6299212598425197
        },
        {
          "duration": 0.7109393958333214,
          "durationTicks": 455,
          "midi": 61,
          "name": "C#4",
          "ticks": 97440,
          "time": 152.250406,
          "velocity": 0.6299212598425197
        },
        {
          "duration": 0.35468844583331816,
          "durationTicks": 227,
          "midi": 47,
          "name": "B2",
          "ticks": 97920,
          "time": 153.000408,
          "velocity": 0.6299212598425197
        },
        {
          "duration": 0.35468844583331816,
          "durationTicks": 227,
          "midi": 54,
          "name": "F#3",
          "ticks": 98160,
          "time": 153.375409,
          "velocity": 0.6299212598425197
        },
        {
          "duration": 0.35468844583331816,
          "durationTicks": 227,
          "midi": 59,
          "name": "B3",
          "ticks": 98400,
          "time": 153.75041,
          "velocity": 0.6299212598425197
        },
        {
          "duration": 0.3546884458333466,
          "durationTicks": 227,
          "midi": 63,
          "name": "D#4",
          "ticks": 98640,
          "time": 154.12541099999999,
          "velocity": 0.6299212598425197
        },
        {
          "duration": 0.3546884458333466,
          "durationTicks": 227,
          "midi": 66,
          "name": "F#4",
          "ticks": 98880,
          "time": 154.50041199999998,
          "velocity": 0.6299212598425197
        },
        {
          "duration": 0.3546884458333466,
          "durationTicks": 227,
          "midi": 63,
          "name": "D#4",
          "ticks": 99120,
          "time": 154.87541299999998,
          "velocity": 0.6299212598425197
        },
        {
          "duration": 0.3546884458333466,
          "durationTicks": 227,
          "midi": 59,
          "name": "B3",
          "ticks": 99360,
          "time": 155.25041399999998,
          "velocity": 0.6299212598425197
        },
        {
          "duration": 0.3546884458333466,
          "durationTicks": 227,
          "midi": 54,
          "name": "F#3",
          "ticks": 99600,
          "time": 155.62541499999998,
          "velocity": 0.6299212598425197
        },
        {
          "duration": 0.35468844583331816,
          "durationTicks": 227,
          "midi": 46,
          "name": "A#2",
          "ticks": 99840,
          "time": 156.000416,
          "velocity": 0.6299212598425197
        },
        {
          "duration": 0.35468844583331816,
          "durationTicks": 227,
          "midi": 54,
          "name": "F#3",
          "ticks": 100080,
          "time": 156.375417,
          "velocity": 0.6299212598425197
        },
        {
          "duration": 0.35468844583331816,
          "durationTicks": 227,
          "midi": 58,
          "name": "A#3",
          "ticks": 100320,
          "time": 156.750418,
          "velocity": 0.6299212598425197
        },
        {
          "duration": 0.35468844583331816,
          "durationTicks": 227,
          "midi": 61,
          "name": "C#4",
          "ticks": 100560,
          "time": 157.125419,
          "velocity": 0.6299212598425197
        },
        {
          "duration": 1.423441295833328,
          "durationTicks": 911,
          "midi": 66,
          "name": "F#4",
          "ticks": 100800,
          "time": 157.50042,
          "velocity": 0.6299212598425197
        },
        {
          "duration": 0.3546884458333466,
          "durationTicks": 227,
          "midi": 45,
          "name": "A2",
          "ticks": 101760,
          "time": 159.00042399999998,
          "velocity": 0.6299212598425197
        },
        {
          "duration": 0.3546884458333466,
          "durationTicks": 227,
          "midi": 52,
          "name": "E3",
          "ticks": 102000,
          "time": 159.37542499999998,
          "velocity": 0.6299212598425197
        },
        {
          "duration": 0.3546884458333466,
          "durationTicks": 227,
          "midi": 57,
          "name": "A3",
          "ticks": 102240,
          "time": 159.75042599999998,
          "velocity": 0.6299212598425197
        },
        {
          "duration": 0.35468844583331816,
          "durationTicks": 227,
          "midi": 61,
          "name": "C#4",
          "ticks": 102480,
          "time": 160.125427,
          "velocity": 0.6299212598425197
        },
        {
          "duration": 0.35468844583331816,
          "durationTicks": 227,
          "midi": 64,
          "name": "E4",
          "ticks": 102720,
          "time": 160.500428,
          "velocity": 0.6299212598425197
        },
        {
          "duration": 0.35468844583331816,
          "durationTicks": 227,
          "midi": 61,
          "name": "C#4",
          "ticks": 102960,
          "time": 160.875429,
          "velocity": 0.6299212598425197
        },
        {
          "duration": 0.35468844583331816,
          "durationTicks": 227,
          "midi": 57,
          "name": "A3",
          "ticks": 103200,
          "time": 161.25043,
          "velocity": 0.6299212598425197
        },
        {
          "duration": 0.35468844583331816,
          "durationTicks": 227,
          "midi": 52,
          "name": "E3",
          "ticks": 103440,
          "time": 161.625431,
          "velocity": 0.6299212598425197
        },
        {
          "duration": 0.35468844583331816,
          "durationTicks": 227,
          "midi": 39,
          "name": "D#2",
          "ticks": 103680,
          "time": 162.000432,
          "velocity": 0.6299212598425197
        },
        {
          "duration": 0.35468844583331816,
          "durationTicks": 227,
          "midi": 46,
          "name": "A#2",
          "ticks": 103920,
          "time": 162.375433,
          "velocity": 0.6299212598425197
        },
        {
          "duration": 0.7109393958333214,
          "durationTicks": 455,
          "midi": 54,
          "name": "F#3",
          "ticks": 104160,
          "time": 162.75043399999998,
          "velocity": 0.6299212598425197
        },
        {
          "duration": 0.3546884458333466,
          "durationTicks": 227,
          "midi": 44,
          "name": "G#2",
          "ticks": 104640,
          "time": 163.50043599999998,
          "velocity": 0.6299212598425197
        },
        {
          "duration": 0.3546884458333466,
          "durationTicks": 227,
          "midi": 56,
          "name": "G#3",
          "ticks": 104640,
          "time": 163.50043599999998,
          "velocity": 0.6299212598425197
        },
        {
          "duration": 0.3546884458333466,
          "durationTicks": 227,
          "midi": 51,
          "name": "D#3",
          "ticks": 104880,
          "time": 163.87543699999998,
          "velocity": 0.6299212598425197
        },
        {
          "duration": 0.7109393958333499,
          "durationTicks": 455,
          "midi": 32,
          "name": "G#1",
          "ticks": 105120,
          "time": 164.25043799999997,
          "velocity": 0.6299212598425197
        },
        {
          "duration": 0.7109393958333499,
          "durationTicks": 455,
          "midi": 44,
          "name": "G#2",
          "ticks": 105120,
          "time": 164.25043799999997,
          "velocity": 0.6299212598425197
        },
        {
          "duration": 0.35468844583331816,
          "durationTicks": 227,
          "midi": 40,
          "name": "E2",
          "ticks": 105600,
          "time": 165.00044,
          "velocity": 0.6299212598425197
        },
        {
          "duration": 0.35468844583331816,
          "durationTicks": 227,
          "midi": 47,
          "name": "B2",
          "ticks": 105840,
          "time": 165.375441,
          "velocity": 0.6299212598425197
        },
        {
          "duration": 0.35468844583331816,
          "durationTicks": 227,
          "midi": 52,
          "name": "E3",
          "ticks": 106080,
          "time": 165.750442,
          "velocity": 0.6299212598425197
        },
        {
          "duration": 0.35468844583331816,
          "durationTicks": 227,
          "midi": 56,
          "name": "G#3",
          "ticks": 106320,
          "time": 166.125443,
          "velocity": 0.6299212598425197
        },
        {
          "duration": 0.3546884458333466,
          "durationTicks": 227,
          "midi": 49,
          "name": "C#3",
          "ticks": 107520,
          "time": 168.00044799999998,
          "velocity": 0.6299212598425197
        },
        {
          "duration": 0.3546884458333466,
          "durationTicks": 227,
          "midi": 59,
          "name": "B3",
          "ticks": 107760,
          "time": 168.37544899999997,
          "velocity": 0.6299212598425197
        },
        {
          "duration": 0.7109393958333214,
          "durationTicks": 455,
          "midi": 61,
          "name": "C#4",
          "ticks": 108000,
          "time": 168.75045,
          "velocity": 0.6299212598425197
        },
        {
          "duration": 0.7109393958333214,
          "durationTicks": 455,
          "midi": 42,
          "name": "F#2",
          "ticks": 108480,
          "time": 169.500452,
          "velocity": 0.6299212598425197
        },
        {
          "duration": 0.7109393958333214,
          "durationTicks": 455,
          "midi": 54,
          "name": "F#3",
          "ticks": 108480,
          "time": 169.500452,
          "velocity": 0.6299212598425197
        },
        {
          "duration": 0.7109393958333214,
          "durationTicks": 455,
          "midi": 58,
          "name": "A#3",
          "ticks": 108960,
          "time": 170.250454,
          "velocity": 0.6299212598425197
        },
        {
          "duration": 0.7109393958333214,
          "durationTicks": 455,
          "midi": 61,
          "name": "C#4",
          "ticks": 108960,
          "time": 170.250454,
          "velocity": 0.6299212598425197
        },
        {
          "duration": 0.7109393958333214,
          "durationTicks": 455,
          "midi": 66,
          "name": "F#4",
          "ticks": 108960,
          "time": 170.250454,
          "velocity": 0.6299212598425197
        },
        {
          "duration": 0.3546884458333466,
          "durationTicks": 227,
          "midi": 39,
          "name": "D#2",
          "ticks": 109440,
          "time": 171.00045599999999,
          "velocity": 0.6299212598425197
        },
        {
          "duration": 0.3546884458333466,
          "durationTicks": 227,
          "midi": 46,
          "name": "A#2",
          "ticks": 109680,
          "time": 171.37545699999998,
          "velocity": 0.6299212598425197
        },
        {
          "duration": 0.3546884458333466,
          "durationTicks": 227,
          "midi": 51,
          "name": "D#3",
          "ticks": 109920,
          "time": 171.75045799999998,
          "velocity": 0.6299212598425197
        },
        {
          "duration": 0.3546884458333466,
          "durationTicks": 227,
          "midi": 54,
          "name": "F#3",
          "ticks": 110160,
          "time": 172.12545899999998,
          "velocity": 0.6299212598425197
        },
        {
          "duration": 0.3546884458333466,
          "durationTicks": 227,
          "midi": 58,
          "name": "A#3",
          "ticks": 110400,
          "time": 172.50045999999998,
          "velocity": 0.6299212598425197
        },
        {
          "duration": 0.35468844583331816,
          "durationTicks": 227,
          "midi": 61,
          "name": "C#4",
          "ticks": 110640,
          "time": 172.875461,
          "velocity": 0.6299212598425197
        },
        {
          "duration": 0.7109393958333214,
          "durationTicks": 455,
          "midi": 66,
          "name": "F#4",
          "ticks": 110880,
          "time": 173.250462,
          "velocity": 0.6299212598425197
        },
        {
          "duration": 0.35468844583331816,
          "durationTicks": 227,
          "midi": 44,
          "name": "G#2",
          "ticks": 111360,
          "time": 174.000464,
          "velocity": 0.6299212598425197
        },
        {
          "duration": 0.35468844583331816,
          "durationTicks": 227,
          "midi": 51,
          "name": "D#3",
          "ticks": 111600,
          "time": 174.375465,
          "velocity": 0.6299212598425197
        },
        {
          "duration": 0.35468844583331816,
          "durationTicks": 227,
          "midi": 56,
          "name": "G#3",
          "ticks": 111840,
          "time": 174.750466,
          "velocity": 0.6299212598425197
        },
        {
          "duration": 0.35468844583331816,
          "durationTicks": 227,
          "midi": 58,
          "name": "A#3",
          "ticks": 112080,
          "time": 175.125467,
          "velocity": 0.6299212598425197
        },
        {
          "duration": 0.7109393958333214,
          "durationTicks": 455,
          "midi": 59,
          "name": "B3",
          "ticks": 112320,
          "time": 175.50046799999998,
          "velocity": 0.6299212598425197
        },
        {
          "duration": 0.7109393958333214,
          "durationTicks": 455,
          "midi": 42,
          "name": "F#2",
          "ticks": 112800,
          "time": 176.25046999999998,
          "velocity": 0.6299212598425197
        },
        {
          "duration": 0.7109393958333214,
          "durationTicks": 455,
          "midi": 54,
          "name": "F#3",
          "ticks": 112800,
          "time": 176.25046999999998,
          "velocity": 0.6299212598425197
        },
        {
          "duration": 0.3546884458333466,
          "durationTicks": 227,
          "midi": 40,
          "name": "E2",
          "ticks": 113280,
          "time": 177.00047199999997,
          "velocity": 0.6299212598425197
        },
        {
          "duration": 0.35468844583331816,
          "durationTicks": 227,
          "midi": 47,
          "name": "B2",
          "ticks": 113520,
          "time": 177.375473,
          "velocity": 0.6299212598425197
        },
        {
          "duration": 0.35468844583331816,
          "durationTicks": 227,
          "midi": 52,
          "name": "E3",
          "ticks": 113760,
          "time": 177.750474,
          "velocity": 0.6299212598425197
        },
        {
          "duration": 0.35468844583331816,
          "durationTicks": 227,
          "midi": 56,
          "name": "G#3",
          "ticks": 114000,
          "time": 178.125475,
          "velocity": 0.6299212598425197
        },
        {
          "duration": 0.3546884458333466,
          "durationTicks": 227,
          "midi": 49,
          "name": "C#3",
          "ticks": 115200,
          "time": 180.00047999999998,
          "velocity": 0.6299212598425197
        },
        {
          "duration": 0.3546884458333466,
          "durationTicks": 227,
          "midi": 56,
          "name": "G#3",
          "ticks": 115440,
          "time": 180.37548099999998,
          "velocity": 0.6299212598425197
        },
        {
          "duration": 0.7109393958333499,
          "durationTicks": 455,
          "midi": 61,
          "name": "C#4",
          "ticks": 115680,
          "time": 180.75048199999998,
          "velocity": 0.6299212598425197
        },
        {
          "duration": 0.7109393958333214,
          "durationTicks": 455,
          "midi": 42,
          "name": "F#2",
          "ticks": 116160,
          "time": 181.500484,
          "velocity": 0.6299212598425197
        },
        {
          "duration": 0.7109393958333214,
          "durationTicks": 455,
          "midi": 54,
          "name": "F#3",
          "ticks": 116160,
          "time": 181.500484,
          "velocity": 0.6299212598425197
        },
        {
          "duration": 0.7109393958333214,
          "durationTicks": 455,
          "midi": 58,
          "name": "A#3",
          "ticks": 116640,
          "time": 182.250486,
          "velocity": 0.6299212598425197
        },
        {
          "duration": 0.7109393958333214,
          "durationTicks": 455,
          "midi": 61,
          "name": "C#4",
          "ticks": 116640,
          "time": 182.250486,
          "velocity": 0.6299212598425197
        },
        {
          "duration": 0.7109393958333214,
          "durationTicks": 455,
          "midi": 66,
          "name": "F#4",
          "ticks": 116640,
          "time": 182.250486,
          "velocity": 0.6299212598425197
        },
        {
          "duration": 0.35468844583331816,
          "durationTicks": 227,
          "midi": 39,
          "name": "D#2",
          "ticks": 117120,
          "time": 183.000488,
          "velocity": 0.6299212598425197
        },
        {
          "duration": 0.35468844583331816,
          "durationTicks": 227,
          "midi": 46,
          "name": "A#2",
          "ticks": 117360,
          "time": 183.375489,
          "velocity": 0.6299212598425197
        },
        {
          "duration": 0.35468844583331816,
          "durationTicks": 227,
          "midi": 51,
          "name": "D#3",
          "ticks": 117600,
          "time": 183.75048999999999,
          "velocity": 0.6299212598425197
        },
        {
          "duration": 0.3546884458333466,
          "durationTicks": 227,
          "midi": 56,
          "name": "G#3",
          "ticks": 117840,
          "time": 184.12549099999998,
          "velocity": 0.6299212598425197
        },
        {
          "duration": 0.35468844583331816,
          "durationTicks": 227,
          "midi": 44,
          "name": "G#2",
          "ticks": 119040,
          "time": 186.000496,
          "velocity": 0.6299212598425197
        },
        {
          "duration": 0.35468844583331816,
          "durationTicks": 227,
          "midi": 56,
          "name": "G#3",
          "ticks": 119040,
          "time": 186.000496,
          "velocity": 0.6299212598425197
        },
        {
          "duration": 0.35468844583331816,
          "durationTicks": 227,
          "midi": 51,
          "name": "D#3",
          "ticks": 119280,
          "time": 186.375497,
          "velocity": 0.6299212598425197
        },
        {
          "duration": 0.35468844583331816,
          "durationTicks": 227,
          "midi": 46,
          "name": "A#2",
          "ticks": 119520,
          "time": 186.750498,
          "velocity": 0.6299212598425197
        },
        {
          "duration": 0.35468844583331816,
          "durationTicks": 227,
          "midi": 58,
          "name": "A#3",
          "ticks": 119520,
          "time": 186.750498,
          "velocity": 0.6299212598425197
        },
        {
          "duration": 0.35468844583331816,
          "durationTicks": 227,
          "midi": 53,
          "name": "F3",
          "ticks": 119760,
          "time": 187.125499,
          "velocity": 0.6299212598425197
        },
        {
          "duration": 0.7109393958333214,
          "durationTicks": 455,
          "midi": 48,
          "name": "C3",
          "ticks": 120000,
          "time": 187.5005,
          "velocity": 0.6299212598425197
        },
        {
          "duration": 0.7109393958333214,
          "durationTicks": 455,
          "midi": 60,
          "name": "C4",
          "ticks": 120000,
          "time": 187.5005,
          "velocity": 0.6299212598425197
        },
        {
          "duration": 0.7109393958333214,
          "durationTicks": 455,
          "midi": 44,
          "name": "G#2",
          "ticks": 120480,
          "time": 188.25050199999998,
          "velocity": 0.6299212598425197
        },
        {
          "duration": 0.7109393958333214,
          "durationTicks": 455,
          "midi": 56,
          "name": "G#3",
          "ticks": 120480,
          "time": 188.25050199999998,
          "velocity": 0.6299212598425197
        },
        {
          "duration": 0.3546884458333466,
          "durationTicks": 227,
          "midi": 40,
          "name": "E2",
          "ticks": 120960,
          "time": 189.00050399999998,
          "velocity": 0.6299212598425197
        },
        {
          "duration": 0.3546884458333466,
          "durationTicks": 227,
          "midi": 47,
          "name": "B2",
          "ticks": 121200,
          "time": 189.37550499999998,
          "velocity": 0.6299212598425197
        },
        {
          "duration": 0.3546884458333466,
          "durationTicks": 227,
          "midi": 52,
          "name": "E3",
          "ticks": 121440,
          "time": 189.75050599999997,
          "velocity": 0.6299212598425197
        },
        {
          "duration": 0.35468844583331816,
          "durationTicks": 227,
          "midi": 56,
          "name": "G#3",
          "ticks": 121680,
          "time": 190.125507,
          "velocity": 0.6299212598425197
        },
        {
          "duration": 0.35468844583331816,
          "durationTicks": 227,
          "midi": 49,
          "name": "C#3",
          "ticks": 122880,
          "time": 192.000512,
          "velocity": 0.6299212598425197
        },
        {
          "duration": 0.3546884458333466,
          "durationTicks": 227,
          "midi": 56,
          "name": "G#3",
          "ticks": 123120,
          "time": 192.37551299999998,
          "velocity": 0.6299212598425197
        },
        {
          "duration": 0.7109393958333499,
          "durationTicks": 455,
          "midi": 61,
          "name": "C#4",
          "ticks": 123360,
          "time": 192.75051399999998,
          "velocity": 0.6299212598425197
        },
        {
          "duration": 0.7109393958333499,
          "durationTicks": 455,
          "midi": 42,
          "name": "F#2",
          "ticks": 123840,
          "time": 193.50051599999998,
          "velocity": 0.6299212598425197
        },
        {
          "duration": 0.7109393958333499,
          "durationTicks": 455,
          "midi": 54,
          "name": "F#3",
          "ticks": 123840,
          "time": 193.50051599999998,
          "velocity": 0.6299212598425197
        },
        {
          "duration": 0.7109393958333214,
          "durationTicks": 455,
          "midi": 58,
          "name": "A#3",
          "ticks": 124320,
          "time": 194.250518,
          "velocity": 0.6299212598425197
        },
        {
          "duration": 0.7109393958333214,
          "durationTicks": 455,
          "midi": 61,
          "name": "C#4",
          "ticks": 124320,
          "time": 194.250518,
          "velocity": 0.6299212598425197
        },
        {
          "duration": 0.7109393958333214,
          "durationTicks": 455,
          "midi": 66,
          "name": "F#4",
          "ticks": 124320,
          "time": 194.250518,
          "velocity": 0.6299212598425197
        },
        {
          "duration": 0.35468844583331816,
          "durationTicks": 227,
          "midi": 39,
          "name": "D#2",
          "ticks": 124800,
          "time": 195.00052,
          "velocity": 0.6299212598425197
        },
        {
          "duration": 0.35468844583331816,
          "durationTicks": 227,
          "midi": 46,
          "name": "A#2",
          "ticks": 125040,
          "time": 195.375521,
          "velocity": 0.6299212598425197
        },
        {
          "duration": 0.35468844583331816,
          "durationTicks": 227,
          "midi": 51,
          "name": "D#3",
          "ticks": 125280,
          "time": 195.750522,
          "velocity": 0.6299212598425197
        },
        {
          "duration": 0.35468844583331816,
          "durationTicks": 227,
          "midi": 54,
          "name": "F#3",
          "ticks": 125520,
          "time": 196.125523,
          "velocity": 0.6299212598425197
        },
        {
          "duration": 0.35468844583331816,
          "durationTicks": 227,
          "midi": 58,
          "name": "A#3",
          "ticks": 125760,
          "time": 196.50052399999998,
          "velocity": 0.6299212598425197
        },
        {
          "duration": 0.3546884458333466,
          "durationTicks": 227,
          "midi": 61,
          "name": "C#4",
          "ticks": 126000,
          "time": 196.87552499999998,
          "velocity": 0.6299212598425197
        },
        {
          "duration": 0.7109393958333499,
          "durationTicks": 455,
          "midi": 66,
          "name": "F#4",
          "ticks": 126240,
          "time": 197.25052599999998,
          "velocity": 0.6299212598425197
        },
        {
          "duration": 0.3546884458333466,
          "durationTicks": 227,
          "midi": 44,
          "name": "G#2",
          "ticks": 126720,
          "time": 198.00052799999997,
          "velocity": 0.6299212598425197
        },
        {
          "duration": 0.3546884458333466,
          "durationTicks": 227,
          "midi": 51,
          "name": "D#3",
          "ticks": 126960,
          "time": 198.37552899999997,
          "velocity": 0.6299212598425197
        },
        {
          "duration": 0.35468844583331816,
          "durationTicks": 227,
          "midi": 56,
          "name": "G#3",
          "ticks": 127200,
          "time": 198.75053,
          "velocity": 0.6299212598425197
        },
        {
          "duration": 0.35468844583331816,
          "durationTicks": 227,
          "midi": 58,
          "name": "A#3",
          "ticks": 127440,
          "time": 199.125531,
          "velocity": 0.6299212598425197
        },
        {
          "duration": 0.7109393958333499,
          "durationTicks": 455,
          "midi": 59,
          "name": "B3",
          "ticks": 127680,
          "time": 199.500532,
          "velocity": 0.6299212598425197
        },
        {
          "duration": 0.7109393958333499,
          "durationTicks": 455,
          "midi": 42,
          "name": "F#2",
          "ticks": 128160,
          "time": 200.250534,
          "velocity": 0.6299212598425197
        },
        {
          "duration": 0.7109393958333499,
          "durationTicks": 455,
          "midi": 54,
          "name": "F#3",
          "ticks": 128160,
          "time": 200.250534,
          "velocity": 0.6299212598425197
        },
        {
          "duration": 0.3546884458333466,
          "durationTicks": 227,
          "midi": 40,
          "name": "E2",
          "ticks": 128640,
          "time": 201.00053599999998,
          "velocity": 0.6299212598425197
        },
        {
          "duration": 0.3546884458333466,
          "durationTicks": 227,
          "midi": 47,
          "name": "B2",
          "ticks": 128880,
          "time": 201.37553699999998,
          "velocity": 0.6299212598425197
        },
        {
          "duration": 0.3546884458333466,
          "durationTicks": 227,
          "midi": 52,
          "name": "E3",
          "ticks": 129120,
          "time": 201.75053799999998,
          "velocity": 0.6299212598425197
        },
        {
          "duration": 0.3546884458333466,
          "durationTicks": 227,
          "midi": 56,
          "name": "G#3",
          "ticks": 129360,
          "time": 202.12553899999997,
          "velocity": 0.6299212598425197
        },
        {
          "duration": 1.423441295833328,
          "durationTicks": 911,
          "midi": 49,
          "name": "C#3",
          "ticks": 130560,
          "time": 204.000544,
          "velocity": 0.6299212598425197
        },
        {
          "duration": 1.423441295833328,
          "durationTicks": 911,
          "midi": 56,
          "name": "G#3",
          "ticks": 130560,
          "time": 204.000544,
          "velocity": 0.6299212598425197
        },
        {
          "duration": 1.423441295833328,
          "durationTicks": 911,
          "midi": 61,
          "name": "C#4",
          "ticks": 130560,
          "time": 204.000544,
          "velocity": 0.6299212598425197
        },
        {
          "duration": 0.7109393958333499,
          "durationTicks": 455,
          "midi": 58,
          "name": "A#3",
          "ticks": 131520,
          "time": 205.50054799999998,
          "velocity": 0.6299212598425197
        },
        {
          "duration": 0.7109393958333499,
          "durationTicks": 455,
          "midi": 61,
          "name": "C#4",
          "ticks": 131520,
          "time": 205.50054799999998,
          "velocity": 0.6299212598425197
        },
        {
          "duration": 0.7109393958333499,
          "durationTicks": 455,
          "midi": 66,
          "name": "F#4",
          "ticks": 131520,
          "time": 205.50054799999998,
          "velocity": 0.6299212598425197
        },
        {
          "duration": 0.7109393958333499,
          "durationTicks": 455,
          "midi": 42,
          "name": "F#2",
          "ticks": 132000,
          "time": 206.25054999999998,
          "velocity": 0.6299212598425197
        },
        {
          "duration": 0.7109393958333499,
          "durationTicks": 455,
          "midi": 54,
          "name": "F#3",
          "ticks": 132000,
          "time": 206.25054999999998,
          "velocity": 0.6299212598425197
        },
        {
          "duration": 2.8484450958333127,
          "durationTicks": 1823,
          "midi": 32,
          "name": "G#1",
          "ticks": 132480,
          "time": 207.000552,
          "velocity": 0.6299212598425197
        },
        {
          "duration": 2.8484450958333127,
          "durationTicks": 1823,
          "midi": 44,
          "name": "G#2",
          "ticks": 132480,
          "time": 207.000552,
          "velocity": 0.6299212598425197
        },
        {
          "duration": 2.848445095833341,
          "durationTicks": 1823,
          "midi": 44,
          "name": "G#2",
          "ticks": 134400,
          "time": 210.00055999999998,
          "velocity": 0.6299212598425197
        },
        {
          "duration": 2.848445095833341,
          "durationTicks": 1823,
          "midi": 51,
          "name": "D#3",
          "ticks": 134400,
          "time": 210.00055999999998,
          "velocity": 0.6299212598425197
        },
        {
          "duration": 0.7109393958333499,
          "durationTicks": 455,
          "midi": 44,
          "name": "G#2",
          "ticks": 136320,
          "time": 213.000568,
          "velocity": 0.6299212598425197
        },
        {
          "duration": 0.7109393958333499,
          "durationTicks": 455,
          "midi": 51,
          "name": "D#3",
          "ticks": 136320,
          "time": 213.000568,
          "velocity": 0.6299212598425197
        },
        {
          "duration": 0.7109393958333499,
          "durationTicks": 455,
          "midi": 44,
          "name": "G#2",
          "ticks": 136800,
          "time": 213.75056999999998,
          "velocity": 0.6299212598425197
        },
        {
          "duration": 0.7109393958333499,
          "durationTicks": 455,
          "midi": 51,
          "name": "D#3",
          "ticks": 136800,
          "time": 213.75056999999998,
          "velocity": 0.6299212598425197
        },
        {
          "duration": 0.7109393958333499,
          "durationTicks": 455,
          "midi": 44,
          "name": "G#2",
          "ticks": 137280,
          "time": 214.50057199999998,
          "velocity": 0.6299212598425197
        },
        {
          "duration": 0.7109393958333499,
          "durationTicks": 455,
          "midi": 53,
          "name": "F3",
          "ticks": 137280,
          "time": 214.50057199999998,
          "velocity": 0.6299212598425197
        },
        {
          "duration": 0.7109393958333499,
          "durationTicks": 455,
          "midi": 44,
          "name": "G#2",
          "ticks": 137760,
          "time": 215.25057399999997,
          "velocity": 0.6299212598425197
        },
        {
          "duration": 0.7109393958333499,
          "durationTicks": 455,
          "midi": 53,
          "name": "F3",
          "ticks": 137760,
          "time": 215.25057399999997,
          "velocity": 0.6299212598425197
        },
        {
          "duration": 0.7109393958333499,
          "durationTicks": 455,
          "midi": 44,
          "name": "G#2",
          "ticks": 138240,
          "time": 216.000576,
          "velocity": 0.6299212598425197
        },
        {
          "duration": 0.7109393958333499,
          "durationTicks": 455,
          "midi": 54,
          "name": "F#3",
          "ticks": 138240,
          "time": 216.000576,
          "velocity": 0.6299212598425197
        },
        {
          "duration": 0.7109393958333499,
          "durationTicks": 455,
          "midi": 44,
          "name": "G#2",
          "ticks": 138720,
          "time": 216.750578,
          "velocity": 0.6299212598425197
        },
        {
          "duration": 0.7109393958333499,
          "durationTicks": 455,
          "midi": 54,
          "name": "F#3",
          "ticks": 138720,
          "time": 216.750578,
          "velocity": 0.6299212598425197
        },
        {
          "duration": 0.7109393958333499,
          "durationTicks": 455,
          "midi": 44,
          "name": "G#2",
          "ticks": 139200,
          "time": 217.50057999999999,
          "velocity": 0.6299212598425197
        },
        {
          "duration": 0.7109393958333499,
          "durationTicks": 455,
          "midi": 53,
          "name": "F3",
          "ticks": 139200,
          "time": 217.50057999999999,
          "velocity": 0.6299212598425197
        },
        {
          "duration": 0.7109393958333499,
          "durationTicks": 455,
          "midi": 44,
          "name": "G#2",
          "ticks": 139680,
          "time": 218.25058199999998,
          "velocity": 0.6299212598425197
        },
        {
          "duration": 0.7109393958333499,
          "durationTicks": 455,
          "midi": 53,
          "name": "F3",
          "ticks": 139680,
          "time": 218.25058199999998,
          "velocity": 0.6299212598425197
        },
        {
          "duration": 2.848445095833341,
          "durationTicks": 1823,
          "midi": 32,
          "name": "G#1",
          "ticks": 140160,
          "time": 219.00058399999998,
          "velocity": 0.6299212598425197
        },
        {
          "duration": 2.848445095833341,
          "durationTicks": 1823,
          "midi": 44,
          "name": "G#2",
          "ticks": 140160,
          "time": 219.00058399999998,
          "velocity": 0.6299212598425197
        },
        {
          "duration": 0.7109393958333499,
          "durationTicks": 455,
          "midi": 44,
          "name": "G#2",
          "ticks": 142080,
          "time": 222.00059199999998,
          "velocity": 0.6299212598425197
        },
        {
          "duration": 0.7109393958333499,
          "durationTicks": 455,
          "midi": 54,
          "name": "F#3",
          "ticks": 142080,
          "time": 222.00059199999998,
          "velocity": 0.6299212598425197
        },
        {
          "duration": 0.7109393958333499,
          "durationTicks": 455,
          "midi": 44,
          "name": "G#2",
          "ticks": 142560,
          "time": 222.75059399999998,
          "velocity": 0.6299212598425197
        },
        {
          "duration": 0.7109393958333499,
          "durationTicks": 455,
          "midi": 54,
          "name": "F#3",
          "ticks": 142560,
          "time": 222.75059399999998,
          "velocity": 0.6299212598425197
        },
        {
          "duration": 0.7109393958333499,
          "durationTicks": 455,
          "midi": 44,
          "name": "G#2",
          "ticks": 143040,
          "time": 223.50059599999997,
          "velocity": 0.6299212598425197
        },
        {
          "duration": 0.7109393958333499,
          "durationTicks": 455,
          "midi": 53,
          "name": "F3",
          "ticks": 143040,
          "time": 223.50059599999997,
          "velocity": 0.6299212598425197
        },
        {
          "duration": 0.7109393958333214,
          "durationTicks": 455,
          "midi": 44,
          "name": "G#2",
          "ticks": 143520,
          "time": 224.250598,
          "velocity": 0.6299212598425197
        },
        {
          "duration": 0.7109393958333214,
          "durationTicks": 455,
          "midi": 53,
          "name": "F3",
          "ticks": 143520,
          "time": 224.250598,
          "velocity": 0.6299212598425197
        },
        {
          "duration": 1.423441295833328,
          "durationTicks": 911,
          "midi": 40,
          "name": "E2",
          "ticks": 144000,
          "time": 225.0006,
          "velocity": 0.6299212598425197
        },
        {
          "duration": 1.423441295833328,
          "durationTicks": 911,
          "midi": 52,
          "name": "E3",
          "ticks": 144000,
          "time": 225.0006,
          "velocity": 0.6299212598425197
        },
        {
          "duration": 1.423441295833328,
          "durationTicks": 911,
          "midi": 39,
          "name": "D#2",
          "ticks": 144960,
          "time": 226.50060399999998,
          "velocity": 0.6299212598425197
        },
        {
          "duration": 1.423441295833328,
          "durationTicks": 911,
          "midi": 51,
          "name": "D#3",
          "ticks": 144960,
          "time": 226.50060399999998,
          "velocity": 0.6299212598425197
        },
        {
          "duration": 1.4234412958333564,
          "durationTicks": 911,
          "midi": 37,
          "name": "C#2",
          "ticks": 145920,
          "time": 228.00060799999997,
          "velocity": 0.6299212598425197
        },
        {
          "duration": 1.4234412958333564,
          "durationTicks": 911,
          "midi": 49,
          "name": "C#3",
          "ticks": 145920,
          "time": 228.00060799999997,
          "velocity": 0.6299212598425197
        },
        {
          "duration": 1.423441295833328,
          "durationTicks": 911,
          "midi": 35,
          "name": "B1",
          "ticks": 146880,
          "time": 229.500612,
          "velocity": 0.6299212598425197
        },
        {
          "duration": 1.423441295833328,
          "durationTicks": 911,
          "midi": 47,
          "name": "B2",
          "ticks": 146880,
          "time": 229.500612,
          "velocity": 0.6299212598425197
        },
        {
          "duration": 0.3546884458333466,
          "durationTicks": 227,
          "midi": 34,
          "name": "A#1",
          "ticks": 147840,
          "time": 231.00061599999998,
          "velocity": 0.6299212598425197
        },
        {
          "duration": 0.3546884458333466,
          "durationTicks": 227,
          "midi": 41,
          "name": "F2",
          "ticks": 148080,
          "time": 231.37561699999998,
          "velocity": 0.6299212598425197
        },
        {
          "duration": 0.3546884458333466,
          "durationTicks": 227,
          "midi": 46,
          "name": "A#2",
          "ticks": 148320,
          "time": 231.75061799999997,
          "velocity": 0.6299212598425197
        },
        {
          "duration": 0.3546884458333466,
          "durationTicks": 227,
          "midi": 50,
          "name": "D3",
          "ticks": 148560,
          "time": 232.12561899999997,
          "velocity": 0.6299212598425197
        },
        {
          "duration": 0.3546884458333466,
          "durationTicks": 227,
          "midi": 53,
          "name": "F3",
          "ticks": 148800,
          "time": 232.50061999999997,
          "velocity": 0.6299212598425197
        },
        {
          "duration": 0.35468844583331816,
          "durationTicks": 227,
          "midi": 58,
          "name": "A#3",
          "ticks": 149040,
          "time": 232.875621,
          "velocity": 0.6299212598425197
        },
        {
          "duration": 0.35468844583331816,
          "durationTicks": 227,
          "midi": 39,
          "name": "D#2",
          "ticks": 149760,
          "time": 234.000624,
          "velocity": 0.6299212598425197
        },
        {
          "duration": 0.35468844583331816,
          "durationTicks": 227,
          "midi": 51,
          "name": "D#3",
          "ticks": 149760,
          "time": 234.000624,
          "velocity": 0.6299212598425197
        },
        {
          "duration": 0.35468844583331816,
          "durationTicks": 227,
          "midi": 46,
          "name": "A#2",
          "ticks": 150000,
          "time": 234.37562499999999,
          "velocity": 0.6299212598425197
        },
        {
          "duration": 0.35468844583331816,
          "durationTicks": 227,
          "midi": 39,
          "name": "D#2",
          "ticks": 150240,
          "time": 234.75062599999998,
          "velocity": 0.6299212598425197
        },
        {
          "duration": 0.35468844583331816,
          "durationTicks": 227,
          "midi": 51,
          "name": "D#3",
          "ticks": 150240,
          "time": 234.75062599999998,
          "velocity": 0.6299212598425197
        },
        {
          "duration": 0.3546884458333466,
          "durationTicks": 227,
          "midi": 46,
          "name": "A#2",
          "ticks": 150480,
          "time": 235.12562699999998,
          "velocity": 0.6299212598425197
        },
        {
          "duration": 0.3546884458333466,
          "durationTicks": 227,
          "midi": 39,
          "name": "D#2",
          "ticks": 150720,
          "time": 235.50062799999998,
          "velocity": 0.6299212598425197
        },
        {
          "duration": 0.3546884458333466,
          "durationTicks": 227,
          "midi": 51,
          "name": "D#3",
          "ticks": 150720,
          "time": 235.50062799999998,
          "velocity": 0.6299212598425197
        },
        {
          "duration": 0.3546884458333466,
          "durationTicks": 227,
          "midi": 46,
          "name": "A#2",
          "ticks": 150960,
          "time": 235.87562899999998,
          "velocity": 0.6299212598425197
        },
        {
          "duration": 0.3546884458333466,
          "durationTicks": 227,
          "midi": 39,
          "name": "D#2",
          "ticks": 151200,
          "time": 236.25062999999997,
          "velocity": 0.6299212598425197
        },
        {
          "duration": 0.3546884458333466,
          "durationTicks": 227,
          "midi": 51,
          "name": "D#3",
          "ticks": 151200,
          "time": 236.25062999999997,
          "velocity": 0.6299212598425197
        },
        {
          "duration": 0.3546884458333466,
          "durationTicks": 227,
          "midi": 46,
          "name": "A#2",
          "ticks": 151440,
          "time": 236.62563099999997,
          "velocity": 0.6299212598425197
        },
        {
          "duration": 0.35468844583331816,
          "durationTicks": 227,
          "midi": 36,
          "name": "C2",
          "ticks": 151680,
          "time": 237.000632,
          "velocity": 0.6299212598425197
        },
        {
          "duration": 0.35468844583331816,
          "durationTicks": 227,
          "midi": 43,
          "name": "G2",
          "ticks": 151920,
          "time": 237.375633,
          "velocity": 0.6299212598425197
        },
        {
          "duration": 0.35468844583331816,
          "durationTicks": 227,
          "midi": 48,
          "name": "C3",
          "ticks": 152160,
          "time": 237.750634,
          "velocity": 0.6299212598425197
        },
        {
          "duration": 0.35468844583331816,
          "durationTicks": 227,
          "midi": 51,
          "name": "D#3",
          "ticks": 152400,
          "time": 238.125635,
          "velocity": 0.6299212598425197
        },
        {
          "duration": 0.35468844583331816,
          "durationTicks": 227,
          "midi": 55,
          "name": "G3",
          "ticks": 152640,
          "time": 238.500636,
          "velocity": 0.6299212598425197
        },
        {
          "duration": 0.35468844583331816,
          "durationTicks": 227,
          "midi": 60,
          "name": "C4",
          "ticks": 152880,
          "time": 238.87563699999998,
          "velocity": 0.6299212598425197
        },
        {
          "duration": 2.848445095833341,
          "durationTicks": 1823,
          "midi": 41,
          "name": "F2",
          "ticks": 153600,
          "time": 240.00063999999998,
          "velocity": 0.6299212598425197
        },
        {
          "duration": 0.3546884458333466,
          "durationTicks": 227,
          "midi": 53,
          "name": "F3",
          "ticks": 153840,
          "time": 240.37564099999997,
          "velocity": 0.6299212598425197
        },
        {
          "duration": 0.3546884458333466,
          "durationTicks": 227,
          "midi": 58,
          "name": "A#3",
          "ticks": 154080,
          "time": 240.75064199999997,
          "velocity": 0.6299212598425197
        },
        {
          "duration": 0.35468844583331816,
          "durationTicks": 227,
          "midi": 60,
          "name": "C4",
          "ticks": 154320,
          "time": 241.125643,
          "velocity": 0.6299212598425197
        },
        {
          "duration": 1.423441295833328,
          "durationTicks": 911,
          "midi": 53,
          "name": "F3",
          "ticks": 154560,
          "time": 241.500644,
          "velocity": 0.6299212598425197
        },
        {
          "duration": 1.423441295833328,
          "durationTicks": 911,
          "midi": 57,
          "name": "A3",
          "ticks": 154560,
          "time": 241.500644,
          "velocity": 0.6299212598425197
        },
        {
          "duration": 0.1765629708333165,
          "durationTicks": 113,
          "midi": 46,
          "name": "A#2",
          "ticks": 155520,
          "time": 243.00064799999998,
          "velocity": 0.6299212598425197
        },
        {
          "duration": 0.1765629708333165,
          "durationTicks": 113,
          "midi": 53,
          "name": "F3",
          "ticks": 155640,
          "time": 243.18814849999998,
          "velocity": 0.6299212598425197
        },
        {
          "duration": 0.1765629708333165,
          "durationTicks": 113,
          "midi": 58,
          "name": "A#3",
          "ticks": 155760,
          "time": 243.37564899999998,
          "velocity": 0.6299212598425197
        },
        {
          "duration": 0.1765629708333165,
          "durationTicks": 113,
          "midi": 61,
          "name": "C#4",
          "ticks": 155880,
          "time": 243.56314949999998,
          "velocity": 0.6299212598425197
        },
        {
          "duration": 0.1765629708333165,
          "durationTicks": 113,
          "midi": 65,
          "name": "F4",
          "ticks": 156000,
          "time": 243.75064999999998,
          "velocity": 0.6299212598425197
        },
        {
          "duration": 0.1765629708333165,
          "durationTicks": 113,
          "midi": 61,
          "name": "C#4",
          "ticks": 156120,
          "time": 243.93815049999998,
          "velocity": 0.6299212598425197
        },
        {
          "duration": 0.1765629708333165,
          "durationTicks": 113,
          "midi": 58,
          "name": "A#3",
          "ticks": 156240,
          "time": 244.12565099999998,
          "velocity": 0.6299212598425197
        },
        {
          "duration": 0.1765629708333165,
          "durationTicks": 113,
          "midi": 53,
          "name": "F3",
          "ticks": 156360,
          "time": 244.31315149999998,
          "velocity": 0.6299212598425197
        },
        {
          "duration": 0.1765629708333165,
          "durationTicks": 113,
          "midi": 51,
          "name": "D#3",
          "ticks": 156480,
          "time": 244.50065199999997,
          "velocity": 0.6299212598425197
        },
        {
          "duration": 0.17656297083334493,
          "durationTicks": 113,
          "midi": 54,
          "name": "F#3",
          "ticks": 156600,
          "time": 244.68815249999997,
          "velocity": 0.6299212598425197
        },
        {
          "duration": 0.17656297083334493,
          "durationTicks": 113,
          "midi": 58,
          "name": "A#3",
          "ticks": 156720,
          "time": 244.87565299999997,
          "velocity": 0.6299212598425197
        },
        {
          "duration": 0.17656297083334493,
          "durationTicks": 113,
          "midi": 63,
          "name": "D#4",
          "ticks": 156840,
          "time": 245.06315349999997,
          "velocity": 0.6299212598425197
        },
        {
          "duration": 0.17656297083334493,
          "durationTicks": 113,
          "midi": 44,
          "name": "G#2",
          "ticks": 156960,
          "time": 245.25065399999997,
          "velocity": 0.6299212598425197
        },
        {
          "duration": 0.1765629708333165,
          "durationTicks": 113,
          "midi": 51,
          "name": "D#3",
          "ticks": 157080,
          "time": 245.4381545,
          "velocity": 0.6299212598425197
        },
        {
          "duration": 0.1765629708333165,
          "durationTicks": 113,
          "midi": 56,
          "name": "G#3",
          "ticks": 157200,
          "time": 245.625655,
          "velocity": 0.6299212598425197
        },
        {
          "duration": 0.1765629708333165,
          "durationTicks": 113,
          "midi": 60,
          "name": "C4",
          "ticks": 157320,
          "time": 245.8131555,
          "velocity": 0.6299212598425197
        },
        {
          "duration": 0.1765629708333165,
          "durationTicks": 113,
          "midi": 46,
          "name": "A#2",
          "ticks": 157440,
          "time": 246.000656,
          "velocity": 0.6299212598425197
        },
        {
          "duration": 0.1765629708333165,
          "durationTicks": 113,
          "midi": 53,
          "name": "F3",
          "ticks": 157560,
          "time": 246.1881565,
          "velocity": 0.6299212598425197
        },
        {
          "duration": 0.1765629708333165,
          "durationTicks": 113,
          "midi": 58,
          "name": "A#3",
          "ticks": 157680,
          "time": 246.375657,
          "velocity": 0.6299212598425197
        },
        {
          "duration": 0.1765629708333165,
          "durationTicks": 113,
          "midi": 63,
          "name": "D#4",
          "ticks": 157800,
          "time": 246.5631575,
          "velocity": 0.6299212598425197
        },
        {
          "duration": 0.1765629708333165,
          "durationTicks": 113,
          "midi": 61,
          "name": "C#4",
          "ticks": 158880,
          "time": 248.25066199999998,
          "velocity": 0.6299212598425197
        },
        {
          "duration": 0.1765629708333165,
          "durationTicks": 113,
          "midi": 60,
          "name": "C4",
          "ticks": 159000,
          "time": 248.43816249999998,
          "velocity": 0.6299212598425197
        },
        {
          "duration": 0.1765629708333165,
          "durationTicks": 113,
          "midi": 58,
          "name": "A#3",
          "ticks": 159120,
          "time": 248.62566299999997,
          "velocity": 0.6299212598425197
        },
        {
          "duration": 0.17656297083334493,
          "durationTicks": 113,
          "midi": 53,
          "name": "F3",
          "ticks": 159240,
          "time": 248.81316349999997,
          "velocity": 0.6299212598425197
        },
        {
          "duration": 0.17656297083334493,
          "durationTicks": 113,
          "midi": 46,
          "name": "A#2",
          "ticks": 159360,
          "time": 249.00066399999997,
          "velocity": 0.6299212598425197
        },
        {
          "duration": 0.17656297083334493,
          "durationTicks": 113,
          "midi": 53,
          "name": "F3",
          "ticks": 159480,
          "time": 249.18816449999997,
          "velocity": 0.6299212598425197
        },
        {
          "duration": 0.17656297083334493,
          "durationTicks": 113,
          "midi": 58,
          "name": "A#3",
          "ticks": 159600,
          "time": 249.37566499999997,
          "velocity": 0.6299212598425197
        },
        {
          "duration": 0.17656297083334493,
          "durationTicks": 113,
          "midi": 61,
          "name": "C#4",
          "ticks": 159720,
          "time": 249.56316549999997,
          "velocity": 0.6299212598425197
        },
        {
          "duration": 0.1765629708333165,
          "durationTicks": 113,
          "midi": 65,
          "name": "F4",
          "ticks": 159840,
          "time": 249.750666,
          "velocity": 0.6299212598425197
        },
        {
          "duration": 0.1765629708333165,
          "durationTicks": 113,
          "midi": 61,
          "name": "C#4",
          "ticks": 159960,
          "time": 249.9381665,
          "velocity": 0.6299212598425197
        },
        {
          "duration": 0.1765629708333165,
          "durationTicks": 113,
          "midi": 58,
          "name": "A#3",
          "ticks": 160080,
          "time": 250.125667,
          "velocity": 0.6299212598425197
        },
        {
          "duration": 0.1765629708333165,
          "durationTicks": 113,
          "midi": 53,
          "name": "F3",
          "ticks": 160200,
          "time": 250.3131675,
          "velocity": 0.6299212598425197
        },
        {
          "duration": 0.1765629708333165,
          "durationTicks": 113,
          "midi": 51,
          "name": "D#3",
          "ticks": 160320,
          "time": 250.500668,
          "velocity": 0.6299212598425197
        },
        {
          "duration": 0.1765629708333165,
          "durationTicks": 113,
          "midi": 55,
          "name": "G3",
          "ticks": 160440,
          "time": 250.6881685,
          "velocity": 0.6299212598425197
        },
        {
          "duration": 0.1765629708333165,
          "durationTicks": 113,
          "midi": 58,
          "name": "A#3",
          "ticks": 160560,
          "time": 250.875669,
          "velocity": 0.6299212598425197
        },
        {
          "duration": 0.1765629708333165,
          "durationTicks": 113,
          "midi": 63,
          "name": "D#4",
          "ticks": 160680,
          "time": 251.0631695,
          "velocity": 0.6299212598425197
        },
        {
          "duration": 0.1765629708333165,
          "durationTicks": 113,
          "midi": 67,
          "name": "G4",
          "ticks": 160800,
          "time": 251.25066999999999,
          "velocity": 0.6299212598425197
        },
        {
          "duration": 0.1765629708333165,
          "durationTicks": 113,
          "midi": 63,
          "name": "D#4",
          "ticks": 160920,
          "time": 251.43817049999998,
          "velocity": 0.6299212598425197
        },
        {
          "duration": 0.1765629708333165,
          "durationTicks": 113,
          "midi": 58,
          "name": "A#3",
          "ticks": 161040,
          "time": 251.62567099999998,
          "velocity": 0.6299212598425197
        },
        {
          "duration": 0.1765629708333165,
          "durationTicks": 113,
          "midi": 54,
          "name": "F#3",
          "ticks": 161160,
          "time": 251.81317149999998,
          "velocity": 0.6299212598425197
        },
        {
          "duration": 2.8484450958333127,
          "durationTicks": 1823,
          "midi": 41,
          "name": "F2",
          "ticks": 161280,
          "time": 252.00067199999998,
          "velocity": 0.6299212598425197
        },
        {
          "duration": 0.3546884458333466,
          "durationTicks": 227,
          "midi": 58,
          "name": "A#3",
          "ticks": 161760,
          "time": 252.75067399999998,
          "velocity": 0.6299212598425197
        },
        {
          "duration": 0.3546884458333466,
          "durationTicks": 227,
          "midi": 60,
          "name": "C4",
          "ticks": 162000,
          "time": 253.12567499999997,
          "velocity": 0.6299212598425197
        },
        {
          "duration": 1.4234412958333564,
          "durationTicks": 911,
          "midi": 56,
          "name": "G#3",
          "ticks": 162240,
          "time": 253.50067599999997,
          "velocity": 0.6299212598425197
        },
        {
          "duration": 1.4234412958333564,
          "durationTicks": 911,
          "midi": 60,
          "name": "C4",
          "ticks": 162240,
          "time": 253.50067599999997,
          "velocity": 0.6299212598425197
        },
        {
          "duration": 1.4234412958333564,
          "durationTicks": 911,
          "midi": 65,
          "name": "F4",
          "ticks": 162240,
          "time": 253.50067599999997,
          "velocity": 0.6299212598425197
        },
        {
          "duration": 0.1765629708333165,
          "durationTicks": 113,
          "midi": 54,
          "name": "F#3",
          "ticks": 163200,
          "time": 255.00068,
          "velocity": 0.6299212598425197
        },
        {
          "duration": 0.1765629708333165,
          "durationTicks": 113,
          "midi": 58,
          "name": "A#3",
          "ticks": 163320,
          "time": 255.1881805,
          "velocity": 0.6299212598425197
        },
        {
          "duration": 0.1765629708333165,
          "durationTicks": 113,
          "midi": 61,
          "name": "C#4",
          "ticks": 163440,
          "time": 255.375681,
          "velocity": 0.6299212598425197
        },
        {
          "duration": 0.1765629708333165,
          "durationTicks": 113,
          "midi": 66,
          "name": "F#4",
          "ticks": 163560,
          "time": 255.56318149999998,
          "velocity": 0.6299212598425197
        },
        {
          "duration": 0.1765629708333165,
          "durationTicks": 113,
          "midi": 70,
          "name": "A#4",
          "ticks": 163680,
          "time": 255.75068199999998,
          "velocity": 0.6299212598425197
        },
        {
          "duration": 0.17656297083334493,
          "durationTicks": 113,
          "midi": 66,
          "name": "F#4",
          "ticks": 163800,
          "time": 255.93818249999998,
          "velocity": 0.6299212598425197
        },
        {
          "duration": 0.17656297083334493,
          "durationTicks": 113,
          "midi": 61,
          "name": "C#4",
          "ticks": 163920,
          "time": 256.125683,
          "velocity": 0.6299212598425197
        },
        {
          "duration": 0.17656297083334493,
          "durationTicks": 113,
          "midi": 58,
          "name": "A#3",
          "ticks": 164040,
          "time": 256.3131835,
          "velocity": 0.6299212598425197
        },
        {
          "duration": 0.17656297083334493,
          "durationTicks": 113,
          "midi": 53,
          "name": "F3",
          "ticks": 164160,
          "time": 256.500684,
          "velocity": 0.6299212598425197
        },
        {
          "duration": 0.17656297083334493,
          "durationTicks": 113,
          "midi": 56,
          "name": "G#3",
          "ticks": 164280,
          "time": 256.6881845,
          "velocity": 0.6299212598425197
        },
        {
          "duration": 0.17656297083334493,
          "durationTicks": 113,
          "midi": 61,
          "name": "C#4",
          "ticks": 164400,
          "time": 256.875685,
          "velocity": 0.6299212598425197
        },
        {
          "duration": 0.17656297083334493,
          "durationTicks": 113,
          "midi": 65,
          "name": "F4",
          "ticks": 164520,
          "time": 257.0631855,
          "velocity": 0.6299212598425197
        },
        {
          "duration": 0.17656297083334493,
          "durationTicks": 113,
          "midi": 68,
          "name": "G#4",
          "ticks": 164640,
          "time": 257.250686,
          "velocity": 0.6299212598425197
        },
        {
          "duration": 0.17656297083334493,
          "durationTicks": 113,
          "midi": 65,
          "name": "F4",
          "ticks": 164760,
          "time": 257.4381865,
          "velocity": 0.6299212598425197
        },
        {
          "duration": 0.17656297083334493,
          "durationTicks": 113,
          "midi": 61,
          "name": "C#4",
          "ticks": 164880,
          "time": 257.62568699999997,
          "velocity": 0.6299212598425197
        },
        {
          "duration": 0.17656297083334493,
          "durationTicks": 113,
          "midi": 56,
          "name": "G#3",
          "ticks": 165000,
          "time": 257.81318749999997,
          "velocity": 0.6299212598425197
        },
        {
          "duration": 0.17656297083334493,
          "durationTicks": 113,
          "midi": 51,
          "name": "D#3",
          "ticks": 165120,
          "time": 258.00068799999997,
          "velocity": 0.6299212598425197
        },
        {
          "duration": 0.17656297083334493,
          "durationTicks": 113,
          "midi": 54,
          "name": "F#3",
          "ticks": 165240,
          "time": 258.18818849999997,
          "velocity": 0.6299212598425197
        },
        {
          "duration": 0.17656297083334493,
          "durationTicks": 113,
          "midi": 58,
          "name": "A#3",
          "ticks": 165360,
          "time": 258.37568899999997,
          "velocity": 0.6299212598425197
        },
        {
          "duration": 0.17656297083334493,
          "durationTicks": 113,
          "midi": 63,
          "name": "D#4",
          "ticks": 165480,
          "time": 258.56318949999996,
          "velocity": 0.6299212598425197
        },
        {
          "duration": 0.17656297083334493,
          "durationTicks": 113,
          "midi": 66,
          "name": "F#4",
          "ticks": 165600,
          "time": 258.75068999999996,
          "velocity": 0.6299212598425197
        },
        {
          "duration": 0.17656297083334493,
          "durationTicks": 113,
          "midi": 63,
          "name": "D#4",
          "ticks": 165720,
          "time": 258.93819049999996,
          "velocity": 0.6299212598425197
        },
        {
          "duration": 0.17656297083334493,
          "durationTicks": 113,
          "midi": 58,
          "name": "A#3",
          "ticks": 165840,
          "time": 259.12569099999996,
          "velocity": 0.6299212598425197
        },
        {
          "duration": 0.17656297083334493,
          "durationTicks": 113,
          "midi": 54,
          "name": "F#3",
          "ticks": 165960,
          "time": 259.31319149999996,
          "velocity": 0.6299212598425197
        },
        {
          "duration": 0.17656297083334493,
          "durationTicks": 113,
          "midi": 51,
          "name": "D#3",
          "ticks": 166080,
          "time": 259.50069199999996,
          "velocity": 0.6299212598425197
        },
        {
          "duration": 0.17656297083334493,
          "durationTicks": 113,
          "midi": 56,
          "name": "G#3",
          "ticks": 166200,
          "time": 259.68819249999996,
          "velocity": 0.6299212598425197
        },
        {
          "duration": 0.17656297083334493,
          "durationTicks": 113,
          "midi": 61,
          "name": "C#4",
          "ticks": 166320,
          "time": 259.87569299999996,
          "velocity": 0.6299212598425197
        },
        {
          "duration": 0.17656297083334493,
          "durationTicks": 113,
          "midi": 65,
          "name": "F4",
          "ticks": 166440,
          "time": 260.06319349999995,
          "velocity": 0.6299212598425197
        },
        {
          "duration": 0.17656297083334493,
          "durationTicks": 113,
          "midi": 68,
          "name": "G#4",
          "ticks": 166560,
          "time": 260.25069399999995,
          "velocity": 0.6299212598425197
        },
        {
          "duration": 0.1765629708332881,
          "durationTicks": 113,
          "midi": 65,
          "name": "F4",
          "ticks": 166680,
          "time": 260.4381945,
          "velocity": 0.6299212598425197
        },
        {
          "duration": 0.1765629708332881,
          "durationTicks": 113,
          "midi": 61,
          "name": "C#4",
          "ticks": 166800,
          "time": 260.625695,
          "velocity": 0.6299212598425197
        },
        {
          "duration": 0.1765629708332881,
          "durationTicks": 113,
          "midi": 56,
          "name": "G#3",
          "ticks": 166920,
          "time": 260.8131955,
          "velocity": 0.6299212598425197
        },
        {
          "duration": 0.1765629708332881,
          "durationTicks": 113,
          "midi": 42,
          "name": "F#2",
          "ticks": 167040,
          "time": 261.000696,
          "velocity": 0.6299212598425197
        },
        {
          "duration": 0.1765629708332881,
          "durationTicks": 113,
          "midi": 49,
          "name": "C#3",
          "ticks": 167160,
          "time": 261.1881965,
          "velocity": 0.6299212598425197
        },
        {
          "duration": 0.1765629708332881,
          "durationTicks": 113,
          "midi": 54,
          "name": "F#3",
          "ticks": 167280,
          "time": 261.375697,
          "velocity": 0.6299212598425197
        },
        {
          "duration": 0.1765629708332881,
          "durationTicks": 113,
          "midi": 58,
          "name": "A#3",
          "ticks": 167400,
          "time": 261.5631975,
          "velocity": 0.6299212598425197
        },
        {
          "duration": 0.1765629708332881,
          "durationTicks": 113,
          "midi": 61,
          "name": "C#4",
          "ticks": 167520,
          "time": 261.750698,
          "velocity": 0.6299212598425197
        },
        {
          "duration": 0.1765629708332881,
          "durationTicks": 113,
          "midi": 58,
          "name": "A#3",
          "ticks": 167640,
          "time": 261.9381985,
          "velocity": 0.6299212598425197
        },
        {
          "duration": 0.1765629708332881,
          "durationTicks": 113,
          "midi": 54,
          "name": "F#3",
          "ticks": 167760,
          "time": 262.125699,
          "velocity": 0.6299212598425197
        },
        {
          "duration": 0.1765629708332881,
          "durationTicks": 113,
          "midi": 49,
          "name": "C#3",
          "ticks": 167880,
          "time": 262.3131995,
          "velocity": 0.6299212598425197
        },
        {
          "duration": 0.1765629708332881,
          "durationTicks": 113,
          "midi": 44,
          "name": "G#2",
          "ticks": 168000,
          "time": 262.5007,
          "velocity": 0.6299212598425197
        },
        {
          "duration": 0.1765629708332881,
          "durationTicks": 113,
          "midi": 51,
          "name": "D#3",
          "ticks": 168120,
          "time": 262.6882005,
          "velocity": 0.6299212598425197
        },
        {
          "duration": 0.1765629708332881,
          "durationTicks": 113,
          "midi": 56,
          "name": "G#3",
          "ticks": 168240,
          "time": 262.875701,
          "velocity": 0.6299212598425197
        },
        {
          "duration": 0.1765629708332881,
          "durationTicks": 113,
          "midi": 60,
          "name": "C4",
          "ticks": 168360,
          "time": 263.0632015,
          "velocity": 0.6299212598425197
        },
        {
          "duration": 0.1765629708332881,
          "durationTicks": 113,
          "midi": 63,
          "name": "D#4",
          "ticks": 168480,
          "time": 263.250702,
          "velocity": 0.6299212598425197
        },
        {
          "duration": 0.1765629708332881,
          "durationTicks": 113,
          "midi": 60,
          "name": "C4",
          "ticks": 168600,
          "time": 263.4382025,
          "velocity": 0.6299212598425197
        },
        {
          "duration": 0.1765629708332881,
          "durationTicks": 113,
          "midi": 56,
          "name": "G#3",
          "ticks": 168720,
          "time": 263.625703,
          "velocity": 0.6299212598425197
        },
        {
          "duration": 0.17656297083334493,
          "durationTicks": 113,
          "midi": 51,
          "name": "D#3",
          "ticks": 168840,
          "time": 263.8132035,
          "velocity": 0.6299212598425197
        },
        {
          "duration": 0.3546884458333466,
          "durationTicks": 227,
          "midi": 34,
          "name": "A#1",
          "ticks": 168960,
          "time": 264.000704,
          "velocity": 0.6299212598425197
        },
        {
          "duration": 0.3546884458333466,
          "durationTicks": 227,
          "midi": 41,
          "name": "F2",
          "ticks": 169200,
          "time": 264.375705,
          "velocity": 0.6299212598425197
        },
        {
          "duration": 0.3546884458333466,
          "durationTicks": 227,
          "midi": 46,
          "name": "A#2",
          "ticks": 169440,
          "time": 264.750706,
          "velocity": 0.6299212598425197
        },
        {
          "duration": 0.3546884458333466,
          "durationTicks": 227,
          "midi": 49,
          "name": "C#3",
          "ticks": 169680,
          "time": 265.125707,
          "velocity": 0.6299212598425197
        },
        {
          "duration": 0.17656297083334493,
          "durationTicks": 113,
          "midi": 53,
          "name": "F3",
          "ticks": 169920,
          "time": 265.500708,
          "velocity": 0.6299212598425197
        },
        {
          "duration": 0.17656297083334493,
          "durationTicks": 113,
          "midi": 58,
          "name": "A#3",
          "ticks": 170040,
          "time": 265.6882085,
          "velocity": 0.6299212598425197
        },
        {
          "duration": 0.17656297083334493,
          "durationTicks": 113,
          "midi": 61,
          "name": "C#4",
          "ticks": 170160,
          "time": 265.875709,
          "velocity": 0.6299212598425197
        },
        {
          "duration": 0.17656297083334493,
          "durationTicks": 113,
          "midi": 65,
          "name": "F4",
          "ticks": 170280,
          "time": 266.06320949999997,
          "velocity": 0.6299212598425197
        },
        {
          "duration": 0.17656297083334493,
          "durationTicks": 113,
          "midi": 70,
          "name": "A#4",
          "ticks": 170400,
          "time": 266.25070999999997,
          "velocity": 0.6299212598425197
        },
        {
          "duration": 0.17656297083334493,
          "durationTicks": 113,
          "midi": 65,
          "name": "F4",
          "ticks": 170520,
          "time": 266.43821049999997,
          "velocity": 0.6299212598425197
        },
        {
          "duration": 0.17656297083334493,
          "durationTicks": 113,
          "midi": 61,
          "name": "C#4",
          "ticks": 170640,
          "time": 266.62571099999997,
          "velocity": 0.6299212598425197
        },
        {
          "duration": 0.17656297083334493,
          "durationTicks": 113,
          "midi": 58,
          "name": "A#3",
          "ticks": 170760,
          "time": 266.81321149999997,
          "velocity": 0.6299212598425197
        },
        {
          "duration": 0.17656297083334493,
          "durationTicks": 113,
          "midi": 54,
          "name": "F#3",
          "ticks": 170880,
          "time": 267.00071199999996,
          "velocity": 0.6299212598425197
        },
        {
          "duration": 0.17656297083334493,
          "durationTicks": 113,
          "midi": 58,
          "name": "A#3",
          "ticks": 171000,
          "time": 267.18821249999996,
          "velocity": 0.6299212598425197
        },
        {
          "duration": 0.17656297083334493,
          "durationTicks": 113,
          "midi": 61,
          "name": "C#4",
          "ticks": 171120,
          "time": 267.37571299999996,
          "velocity": 0.6299212598425197
        },
        {
          "duration": 0.17656297083334493,
          "durationTicks": 113,
          "midi": 66,
          "name": "F#4",
          "ticks": 171240,
          "time": 267.56321349999996,
          "velocity": 0.6299212598425197
        },
        {
          "duration": 0.17656297083334493,
          "durationTicks": 113,
          "midi": 70,
          "name": "A#4",
          "ticks": 171360,
          "time": 267.75071399999996,
          "velocity": 0.6299212598425197
        },
        {
          "duration": 0.17656297083334493,
          "durationTicks": 113,
          "midi": 66,
          "name": "F#4",
          "ticks": 171480,
          "time": 267.93821449999996,
          "velocity": 0.6299212598425197
        },
        {
          "duration": 0.17656297083334493,
          "durationTicks": 113,
          "midi": 61,
          "name": "C#4",
          "ticks": 171600,
          "time": 268.12571499999996,
          "velocity": 0.6299212598425197
        },
        {
          "duration": 0.17656297083334493,
          "durationTicks": 113,
          "midi": 58,
          "name": "A#3",
          "ticks": 171720,
          "time": 268.31321549999996,
          "velocity": 0.6299212598425197
        },
        {
          "duration": 0.17656297083334493,
          "durationTicks": 113,
          "midi": 53,
          "name": "F3",
          "ticks": 171840,
          "time": 268.50071599999995,
          "velocity": 0.6299212598425197
        },
        {
          "duration": 0.17656297083334493,
          "durationTicks": 113,
          "midi": 56,
          "name": "G#3",
          "ticks": 171960,
          "time": 268.68821649999995,
          "velocity": 0.6299212598425197
        },
        {
          "duration": 0.1765629708332881,
          "durationTicks": 113,
          "midi": 61,
          "name": "C#4",
          "ticks": 172080,
          "time": 268.875717,
          "velocity": 0.6299212598425197
        },
        {
          "duration": 0.1765629708332881,
          "durationTicks": 113,
          "midi": 65,
          "name": "F4",
          "ticks": 172200,
          "time": 269.0632175,
          "velocity": 0.6299212598425197
        },
        {
          "duration": 0.1765629708332881,
          "durationTicks": 113,
          "midi": 68,
          "name": "G#4",
          "ticks": 172320,
          "time": 269.250718,
          "velocity": 0.6299212598425197
        },
        {
          "duration": 0.1765629708332881,
          "durationTicks": 113,
          "midi": 65,
          "name": "F4",
          "ticks": 172440,
          "time": 269.4382185,
          "velocity": 0.6299212598425197
        },
        {
          "duration": 0.1765629708332881,
          "durationTicks": 113,
          "midi": 61,
          "name": "C#4",
          "ticks": 172560,
          "time": 269.625719,
          "velocity": 0.6299212598425197
        },
        {
          "duration": 0.1765629708332881,
          "durationTicks": 113,
          "midi": 56,
          "name": "G#3",
          "ticks": 172680,
          "time": 269.8132195,
          "velocity": 0.6299212598425197
        },
        {
          "duration": 0.1765629708332881,
          "durationTicks": 113,
          "midi": 51,
          "name": "D#3",
          "ticks": 172800,
          "time": 270.00072,
          "velocity": 0.6299212598425197
        },
        {
          "duration": 0.1765629708332881,
          "durationTicks": 113,
          "midi": 54,
          "name": "F#3",
          "ticks": 172920,
          "time": 270.1882205,
          "velocity": 0.6299212598425197
        },
        {
          "duration": 0.1765629708332881,
          "durationTicks": 113,
          "midi": 58,
          "name": "A#3",
          "ticks": 173040,
          "time": 270.375721,
          "velocity": 0.6299212598425197
        },
        {
          "duration": 0.1765629708332881,
          "durationTicks": 113,
          "midi": 63,
          "name": "D#4",
          "ticks": 173160,
          "time": 270.5632215,
          "velocity": 0.6299212598425197
        },
        {
          "duration": 0.1765629708332881,
          "durationTicks": 113,
          "midi": 66,
          "name": "F#4",
          "ticks": 173280,
          "time": 270.750722,
          "velocity": 0.6299212598425197
        },
        {
          "duration": 0.1765629708332881,
          "durationTicks": 113,
          "midi": 63,
          "name": "D#4",
          "ticks": 173400,
          "time": 270.9382225,
          "velocity": 0.6299212598425197
        },
        {
          "duration": 0.1765629708332881,
          "durationTicks": 113,
          "midi": 58,
          "name": "A#3",
          "ticks": 173520,
          "time": 271.125723,
          "velocity": 0.6299212598425197
        },
        {
          "duration": 0.1765629708332881,
          "durationTicks": 113,
          "midi": 54,
          "name": "F#3",
          "ticks": 173640,
          "time": 271.3132235,
          "velocity": 0.6299212598425197
        },
        {
          "duration": 0.1765629708332881,
          "durationTicks": 113,
          "midi": 49,
          "name": "C#3",
          "ticks": 173760,
          "time": 271.500724,
          "velocity": 0.6299212598425197
        },
        {
          "duration": 0.1765629708332881,
          "durationTicks": 113,
          "midi": 56,
          "name": "G#3",
          "ticks": 173880,
          "time": 271.6882245,
          "velocity": 0.6299212598425197
        },
        {
          "duration": 0.1765629708332881,
          "durationTicks": 113,
          "midi": 61,
          "name": "C#4",
          "ticks": 174000,
          "time": 271.875725,
          "velocity": 0.6299212598425197
        },
        {
          "duration": 0.1765629708332881,
          "durationTicks": 113,
          "midi": 65,
          "name": "F4",
          "ticks": 174120,
          "time": 272.0632255,
          "velocity": 0.6299212598425197
        },
        {
          "duration": 0.1765629708332881,
          "durationTicks": 113,
          "midi": 68,
          "name": "G#4",
          "ticks": 174240,
          "time": 272.250726,
          "velocity": 0.6299212598425197
        },
        {
          "duration": 0.17656297083334493,
          "durationTicks": 113,
          "midi": 65,
          "name": "F4",
          "ticks": 174360,
          "time": 272.4382265,
          "velocity": 0.6299212598425197
        },
        {
          "duration": 0.17656297083334493,
          "durationTicks": 113,
          "midi": 61,
          "name": "C#4",
          "ticks": 174480,
          "time": 272.625727,
          "velocity": 0.6299212598425197
        },
        {
          "duration": 0.17656297083334493,
          "durationTicks": 113,
          "midi": 56,
          "name": "G#3",
          "ticks": 174600,
          "time": 272.8132275,
          "velocity": 0.6299212598425197
        },
        {
          "duration": 0.17656297083334493,
          "durationTicks": 113,
          "midi": 42,
          "name": "F#2",
          "ticks": 174720,
          "time": 273.000728,
          "velocity": 0.6299212598425197
        },
        {
          "duration": 0.17656297083334493,
          "durationTicks": 113,
          "midi": 49,
          "name": "C#3",
          "ticks": 174840,
          "time": 273.1882285,
          "velocity": 0.6299212598425197
        },
        {
          "duration": 0.17656297083334493,
          "durationTicks": 113,
          "midi": 54,
          "name": "F#3",
          "ticks": 174960,
          "time": 273.375729,
          "velocity": 0.6299212598425197
        },
        {
          "duration": 0.17656297083334493,
          "durationTicks": 113,
          "midi": 58,
          "name": "A#3",
          "ticks": 175080,
          "time": 273.5632295,
          "velocity": 0.6299212598425197
        },
        {
          "duration": 0.17656297083334493,
          "durationTicks": 113,
          "midi": 61,
          "name": "C#4",
          "ticks": 175200,
          "time": 273.75073,
          "velocity": 0.6299212598425197
        },
        {
          "duration": 0.17656297083334493,
          "durationTicks": 113,
          "midi": 58,
          "name": "A#3",
          "ticks": 175320,
          "time": 273.9382305,
          "velocity": 0.6299212598425197
        },
        {
          "duration": 0.17656297083334493,
          "durationTicks": 113,
          "midi": 54,
          "name": "F#3",
          "ticks": 175440,
          "time": 274.125731,
          "velocity": 0.6299212598425197
        },
        {
          "duration": 0.17656297083334493,
          "durationTicks": 113,
          "midi": 49,
          "name": "C#3",
          "ticks": 175560,
          "time": 274.3132315,
          "velocity": 0.6299212598425197
        },
        {
          "duration": 0.17656297083334493,
          "durationTicks": 113,
          "midi": 44,
          "name": "G#2",
          "ticks": 175680,
          "time": 274.50073199999997,
          "velocity": 0.6299212598425197
        },
        {
          "duration": 0.17656297083334493,
          "durationTicks": 113,
          "midi": 51,
          "name": "D#3",
          "ticks": 175800,
          "time": 274.68823249999997,
          "velocity": 0.6299212598425197
        },
        {
          "duration": 0.17656297083334493,
          "durationTicks": 113,
          "midi": 56,
          "name": "G#3",
          "ticks": 175920,
          "time": 274.87573299999997,
          "velocity": 0.6299212598425197
        },
        {
          "duration": 0.17656297083334493,
          "durationTicks": 113,
          "midi": 60,
          "name": "C4",
          "ticks": 176040,
          "time": 275.06323349999997,
          "velocity": 0.6299212598425197
        },
        {
          "duration": 0.17656297083334493,
          "durationTicks": 113,
          "midi": 63,
          "name": "D#4",
          "ticks": 176160,
          "time": 275.25073399999997,
          "velocity": 0.6299212598425197
        },
        {
          "duration": 0.17656297083334493,
          "durationTicks": 113,
          "midi": 60,
          "name": "C4",
          "ticks": 176280,
          "time": 275.43823449999996,
          "velocity": 0.6299212598425197
        },
        {
          "duration": 0.17656297083334493,
          "durationTicks": 113,
          "midi": 56,
          "name": "G#3",
          "ticks": 176400,
          "time": 275.62573499999996,
          "velocity": 0.6299212598425197
        },
        {
          "duration": 0.17656297083334493,
          "durationTicks": 113,
          "midi": 51,
          "name": "D#3",
          "ticks": 176520,
          "time": 275.81323549999996,
          "velocity": 0.6299212598425197
        },
        {
          "duration": 0.17656297083334493,
          "durationTicks": 113,
          "midi": 41,
          "name": "F2",
          "ticks": 176640,
          "time": 276.00073599999996,
          "velocity": 0.6299212598425197
        },
        {
          "duration": 0.17656297083334493,
          "durationTicks": 113,
          "midi": 48,
          "name": "C3",
          "ticks": 176760,
          "time": 276.18823649999996,
          "velocity": 0.6299212598425197
        },
        {
          "duration": 0.17656297083334493,
          "durationTicks": 113,
          "midi": 53,
          "name": "F3",
          "ticks": 176880,
          "time": 276.37573699999996,
          "velocity": 0.6299212598425197
        },
        {
          "duration": 0.17656297083334493,
          "durationTicks": 113,
          "midi": 56,
          "name": "G#3",
          "ticks": 177000,
          "time": 276.56323749999996,
          "velocity": 0.6299212598425197
        },
        {
          "duration": 0.17656297083334493,
          "durationTicks": 113,
          "midi": 60,
          "name": "C4",
          "ticks": 177120,
          "time": 276.75073799999996,
          "velocity": 0.6299212598425197
        },
        {
          "duration": 0.17656297083334493,
          "durationTicks": 113,
          "midi": 56,
          "name": "G#3",
          "ticks": 177240,
          "time": 276.93823849999995,
          "velocity": 0.6299212598425197
        },
        {
          "duration": 0.17656297083334493,
          "durationTicks": 113,
          "midi": 53,
          "name": "F3",
          "ticks": 177360,
          "time": 277.12573899999995,
          "velocity": 0.6299212598425197
        },
        {
          "duration": 0.17656297083334493,
          "durationTicks": 113,
          "midi": 48,
          "name": "C3",
          "ticks": 177480,
          "time": 277.31323949999995,
          "velocity": 0.6299212598425197
        },
        {
          "duration": 0.1765629708332881,
          "durationTicks": 113,
          "midi": 46,
          "name": "A#2",
          "ticks": 177600,
          "time": 277.50074,
          "velocity": 0.6299212598425197
        },
        {
          "duration": 0.1765629708332881,
          "durationTicks": 113,
          "midi": 53,
          "name": "F3",
          "ticks": 177720,
          "time": 277.6882405,
          "velocity": 0.6299212598425197
        },
        {
          "duration": 0.1765629708332881,
          "durationTicks": 113,
          "midi": 58,
          "name": "A#3",
          "ticks": 177840,
          "time": 277.875741,
          "velocity": 0.6299212598425197
        },
        {
          "duration": 0.1765629708332881,
          "durationTicks": 113,
          "midi": 62,
          "name": "D4",
          "ticks": 177960,
          "time": 278.0632415,
          "velocity": 0.6299212598425197
        },
        {
          "duration": 0.1765629708332881,
          "durationTicks": 113,
          "midi": 51,
          "name": "D#3",
          "ticks": 178560,
          "time": 279.000744,
          "velocity": 0.6299212598425197
        },
        {
          "duration": 0.1765629708332881,
          "durationTicks": 113,
          "midi": 54,
          "name": "F#3",
          "ticks": 178680,
          "time": 279.1882445,
          "velocity": 0.6299212598425197
        },
        {
          "duration": 0.1765629708332881,
          "durationTicks": 113,
          "midi": 58,
          "name": "A#3",
          "ticks": 178800,
          "time": 279.375745,
          "velocity": 0.6299212598425197
        },
        {
          "duration": 0.1765629708332881,
          "durationTicks": 113,
          "midi": 63,
          "name": "D#4",
          "ticks": 178920,
          "time": 279.5632455,
          "velocity": 0.6299212598425197
        },
        {
          "duration": 0.1765629708332881,
          "durationTicks": 113,
          "midi": 66,
          "name": "F#4",
          "ticks": 179040,
          "time": 279.750746,
          "velocity": 0.6299212598425197
        },
        {
          "duration": 0.1765629708332881,
          "durationTicks": 113,
          "midi": 63,
          "name": "D#4",
          "ticks": 179160,
          "time": 279.9382465,
          "velocity": 0.6299212598425197
        },
        {
          "duration": 0.1765629708332881,
          "durationTicks": 113,
          "midi": 58,
          "name": "A#3",
          "ticks": 179280,
          "time": 280.125747,
          "velocity": 0.6299212598425197
        },
        {
          "duration": 0.1765629708332881,
          "durationTicks": 113,
          "midi": 54,
          "name": "F#3",
          "ticks": 179400,
          "time": 280.3132475,
          "velocity": 0.6299212598425197
        },
        {
          "duration": 0.1765629708332881,
          "durationTicks": 113,
          "midi": 53,
          "name": "F3",
          "ticks": 179520,
          "time": 280.500748,
          "velocity": 0.6299212598425197
        },
        {
          "duration": 0.1765629708332881,
          "durationTicks": 113,
          "midi": 56,
          "name": "G#3",
          "ticks": 179640,
          "time": 280.6882485,
          "velocity": 0.6299212598425197
        },
        {
          "duration": 0.17656297083334493,
          "durationTicks": 113,
          "midi": 60,
          "name": "C4",
          "ticks": 179760,
          "time": 280.875749,
          "velocity": 0.6299212598425197
        },
        {
          "duration": 0.17656297083334493,
          "durationTicks": 113,
          "midi": 65,
          "name": "F4",
          "ticks": 179880,
          "time": 281.0632495,
          "velocity": 0.6299212598425197
        },
        {
          "duration": 0.17656297083334493,
          "durationTicks": 113,
          "midi": 41,
          "name": "F2",
          "ticks": 180000,
          "time": 281.25075,
          "velocity": 0.6299212598425197
        },
        {
          "duration": 0.17656297083334493,
          "durationTicks": 113,
          "midi": 48,
          "name": "C3",
          "ticks": 180120,
          "time": 281.4382505,
          "velocity": 0.6299212598425197
        },
        {
          "duration": 0.17656297083334493,
          "durationTicks": 113,
          "midi": 53,
          "name": "F3",
          "ticks": 180240,
          "time": 281.625751,
          "velocity": 0.6299212598425197
        },
        {
          "duration": 0.17656297083334493,
          "durationTicks": 113,
          "midi": 56,
          "name": "G#3",
          "ticks": 180360,
          "time": 281.8132515,
          "velocity": 0.6299212598425197
        },
        {
          "duration": 3.5609469958333193,
          "durationTicks": 2279,
          "midi": 30,
          "name": "F#1",
          "ticks": 180480,
          "time": 282.000752,
          "velocity": 0.6299212598425197
        },
        {
          "duration": 3.5609469958333193,
          "durationTicks": 2279,
          "midi": 42,
          "name": "F#2",
          "ticks": 180480,
          "time": 282.000752,
          "velocity": 0.6299212598425197
        },
        {
          "duration": 0.35468844583328973,
          "durationTicks": 227,
          "midi": 58,
          "name": "A#3",
          "ticks": 184320,
          "time": 288.000768,
          "velocity": 0.6299212598425197
        },
        {
          "duration": 0.3546884458333466,
          "durationTicks": 227,
          "midi": 65,
          "name": "F4",
          "ticks": 184560,
          "time": 288.375769,
          "velocity": 0.6299212598425197
        },
        {
          "duration": 0.3546884458333466,
          "durationTicks": 227,
          "midi": 70,
          "name": "A#4",
          "ticks": 184800,
          "time": 288.75077,
          "velocity": 0.6299212598425197
        },
        {
          "duration": 0.3546884458333466,
          "durationTicks": 227,
          "midi": 72,
          "name": "C5",
          "ticks": 185040,
          "time": 289.125771,
          "velocity": 0.6299212598425197
        },
        {
          "duration": 1.4234412958333564,
          "durationTicks": 911,
          "midi": 66,
          "name": "F#4",
          "ticks": 185280,
          "time": 289.500772,
          "velocity": 0.6299212598425197
        },
        {
          "duration": 1.4234412958333564,
          "durationTicks": 911,
          "midi": 73,
          "name": "C#5",
          "ticks": 185280,
          "time": 289.500772,
          "velocity": 0.6299212598425197
        },
        {
          "duration": 0.3546884458333466,
          "durationTicks": 227,
          "midi": 51,
          "name": "D#3",
          "ticks": 186240,
          "time": 291.000776,
          "velocity": 0.6299212598425197
        },
        {
          "duration": 0.3546884458333466,
          "durationTicks": 227,
          "midi": 58,
          "name": "A#3",
          "ticks": 186480,
          "time": 291.37577699999997,
          "velocity": 0.6299212598425197
        },
        {
          "duration": 0.3546884458333466,
          "durationTicks": 227,
          "midi": 63,
          "name": "D#4",
          "ticks": 186720,
          "time": 291.75077799999997,
          "velocity": 0.6299212598425197
        },
        {
          "duration": 0.3546884458333466,
          "durationTicks": 227,
          "midi": 58,
          "name": "A#3",
          "ticks": 186960,
          "time": 292.12577899999997,
          "velocity": 0.6299212598425197
        },
        {
          "duration": 0.7109393958333499,
          "durationTicks": 455,
          "midi": 49,
          "name": "C#3",
          "ticks": 187200,
          "time": 292.50077999999996,
          "velocity": 0.6299212598425197
        },
        {
          "duration": 0.7109393958333499,
          "durationTicks": 455,
          "midi": 61,
          "name": "C#4",
          "ticks": 187200,
          "time": 292.50077999999996,
          "velocity": 0.6299212598425197
        },
        {
          "duration": 0.7109393958333499,
          "durationTicks": 455,
          "midi": 44,
          "name": "G#2",
          "ticks": 187680,
          "time": 293.25078199999996,
          "velocity": 0.6299212598425197
        },
        {
          "duration": 0.7109393958333499,
          "durationTicks": 455,
          "midi": 56,
          "name": "G#3",
          "ticks": 187680,
          "time": 293.25078199999996,
          "velocity": 0.6299212598425197
        },
        {
          "duration": 0.3546884458333466,
          "durationTicks": 227,
          "midi": 42,
          "name": "F#2",
          "ticks": 188160,
          "time": 294.00078399999995,
          "velocity": 0.6299212598425197
        },
        {
          "duration": 0.3546884458333466,
          "durationTicks": 227,
          "midi": 49,
          "name": "C#3",
          "ticks": 188400,
          "time": 294.37578499999995,
          "velocity": 0.6299212598425197
        },
        {
          "duration": 0.710939395833293,
          "durationTicks": 455,
          "midi": 54,
          "name": "F#3",
          "ticks": 188640,
          "time": 294.750786,
          "velocity": 0.6299212598425197
        },
        {
          "duration": 0.35468844583328973,
          "durationTicks": 227,
          "midi": 44,
          "name": "G#2",
          "ticks": 189120,
          "time": 295.500788,
          "velocity": 0.6299212598425197
        },
        {
          "duration": 1.0671903458332963,
          "durationTicks": 683,
          "midi": 51,
          "name": "D#3",
          "ticks": 189360,
          "time": 295.875789,
          "velocity": 0.6299212598425197
        },
        {
          "duration": 0.3546884458333466,
          "durationTicks": 227,
          "midi": 39,
          "name": "D#2",
          "ticks": 190080,
          "time": 297.000792,
          "velocity": 0.6299212598425197
        },
        {
          "duration": 0.3546884458333466,
          "durationTicks": 227,
          "midi": 46,
          "name": "A#2",
          "ticks": 190320,
          "time": 297.375793,
          "velocity": 0.6299212598425197
        },
        {
          "duration": 0.3546884458333466,
          "durationTicks": 227,
          "midi": 51,
          "name": "D#3",
          "ticks": 190560,
          "time": 297.750794,
          "velocity": 0.6299212598425197
        },
        {
          "duration": 0.3546884458333466,
          "durationTicks": 227,
          "midi": 46,
          "name": "A#2",
          "ticks": 190800,
          "time": 298.125795,
          "velocity": 0.6299212598425197
        },
        {
          "duration": 0.7109393958333499,
          "durationTicks": 455,
          "midi": 55,
          "name": "G3",
          "ticks": 191040,
          "time": 298.500796,
          "velocity": 0.6299212598425197
        },
        {
          "duration": 0.7109393958333499,
          "durationTicks": 455,
          "midi": 45,
          "name": "A2",
          "ticks": 191520,
          "time": 299.250798,
          "velocity": 0.6299212598425197
        },
        {
          "duration": 0.7109393958333499,
          "durationTicks": 455,
          "midi": 57,
          "name": "A3",
          "ticks": 191520,
          "time": 299.250798,
          "velocity": 0.6299212598425197
        },
        {
          "duration": 0.3546884458333466,
          "durationTicks": 227,
          "midi": 46,
          "name": "A#2",
          "ticks": 192000,
          "time": 300.00079999999997,
          "velocity": 0.6299212598425197
        },
        {
          "duration": 0.3546884458333466,
          "durationTicks": 227,
          "midi": 53,
          "name": "F3",
          "ticks": 192240,
          "time": 300.37580099999997,
          "velocity": 0.6299212598425197
        },
        {
          "duration": 0.3546884458333466,
          "durationTicks": 227,
          "midi": 58,
          "name": "A#3",
          "ticks": 192480,
          "time": 300.75080199999996,
          "velocity": 0.6299212598425197
        },
        {
          "duration": 0.3546884458333466,
          "durationTicks": 227,
          "midi": 60,
          "name": "C4",
          "ticks": 192720,
          "time": 301.12580299999996,
          "velocity": 0.6299212598425197
        },
        {
          "duration": 1.4234412958333564,
          "durationTicks": 911,
          "midi": 54,
          "name": "F#3",
          "ticks": 192960,
          "time": 301.50080399999996,
          "velocity": 0.6299212598425197
        },
        {
          "duration": 1.4234412958333564,
          "durationTicks": 911,
          "midi": 61,
          "name": "C#4",
          "ticks": 192960,
          "time": 301.50080399999996,
          "velocity": 0.6299212598425197
        },
        {
          "duration": 0.35468844583328973,
          "durationTicks": 227,
          "midi": 39,
          "name": "D#2",
          "ticks": 193920,
          "time": 303.000808,
          "velocity": 0.6299212598425197
        },
        {
          "duration": 0.35468844583328973,
          "durationTicks": 227,
          "midi": 46,
          "name": "A#2",
          "ticks": 194160,
          "time": 303.375809,
          "velocity": 0.6299212598425197
        },
        {
          "duration": 0.35468844583328973,
          "durationTicks": 227,
          "midi": 51,
          "name": "D#3",
          "ticks": 194400,
          "time": 303.75081,
          "velocity": 0.6299212598425197
        },
        {
          "duration": 0.35468844583328973,
          "durationTicks": 227,
          "midi": 46,
          "name": "A#2",
          "ticks": 194640,
          "time": 304.125811,
          "velocity": 0.6299212598425197
        },
        {
          "duration": 0.7109393958333499,
          "durationTicks": 455,
          "midi": 49,
          "name": "C#3",
          "ticks": 194880,
          "time": 304.500812,
          "velocity": 0.6299212598425197
        },
        {
          "duration": 0.7109393958333499,
          "durationTicks": 455,
          "midi": 61,
          "name": "C#4",
          "ticks": 194880,
          "time": 304.500812,
          "velocity": 0.6299212598425197
        },
        {
          "duration": 0.7109393958333499,
          "durationTicks": 455,
          "midi": 44,
          "name": "G#2",
          "ticks": 195360,
          "time": 305.250814,
          "velocity": 0.6299212598425197
        },
        {
          "duration": 0.7109393958333499,
          "durationTicks": 455,
          "midi": 51,
          "name": "D#3",
          "ticks": 195360,
          "time": 305.250814,
          "velocity": 0.6299212598425197
        },
        {
          "duration": 0.3546884458333466,
          "durationTicks": 227,
          "midi": 42,
          "name": "F#2",
          "ticks": 195840,
          "time": 306.000816,
          "velocity": 0.6299212598425197
        },
        {
          "duration": 0.3546884458333466,
          "durationTicks": 227,
          "midi": 49,
          "name": "C#3",
          "ticks": 196080,
          "time": 306.375817,
          "velocity": 0.6299212598425197
        },
        {
          "duration": 0.3546884458333466,
          "durationTicks": 227,
          "midi": 54,
          "name": "F#3",
          "ticks": 196320,
          "time": 306.750818,
          "velocity": 0.6299212598425197
        },
        {
          "duration": 0.3546884458333466,
          "durationTicks": 227,
          "midi": 49,
          "name": "C#3",
          "ticks": 196560,
          "time": 307.125819,
          "velocity": 0.6299212598425197
        },
        {
          "duration": 0.7109393958333499,
          "durationTicks": 455,
          "midi": 44,
          "name": "G#2",
          "ticks": 196800,
          "time": 307.50082,
          "velocity": 0.6299212598425197
        },
        {
          "duration": 0.7109393958333499,
          "durationTicks": 455,
          "midi": 56,
          "name": "G#3",
          "ticks": 196800,
          "time": 307.50082,
          "velocity": 0.6299212598425197
        },
        {
          "duration": 0.7109393958333499,
          "durationTicks": 455,
          "midi": 41,
          "name": "F2",
          "ticks": 197280,
          "time": 308.25082199999997,
          "velocity": 0.6299212598425197
        },
        {
          "duration": 0.7109393958333499,
          "durationTicks": 455,
          "midi": 53,
          "name": "F3",
          "ticks": 197280,
          "time": 308.25082199999997,
          "velocity": 0.6299212598425197
        },
        {
          "duration": 0.3546884458333466,
          "durationTicks": 227,
          "midi": 34,
          "name": "A#1",
          "ticks": 197760,
          "time": 309.00082399999997,
          "velocity": 0.6299212598425197
        },
        {
          "duration": 0.3546884458333466,
          "durationTicks": 227,
          "midi": 41,
          "name": "F2",
          "ticks": 198000,
          "time": 309.37582499999996,
          "velocity": 0.6299212598425197
        },
        {
          "duration": 0.3546884458333466,
          "durationTicks": 227,
          "midi": 46,
          "name": "A#2",
          "ticks": 198240,
          "time": 309.75082599999996,
          "velocity": 0.6299212598425197
        },
        {
          "duration": 0.3546884458333466,
          "durationTicks": 227,
          "midi": 51,
          "name": "D#3",
          "ticks": 198480,
          "time": 310.12582699999996,
          "velocity": 0.6299212598425197
        },
        {
          "duration": 5.698452695833282,
          "durationTicks": 3647,
          "midi": 34,
          "name": "A#1",
          "ticks": 199680,
          "time": 312.000832,
          "velocity": 0.6299212598425197
        },
        {
          "duration": 5.698452695833282,
          "durationTicks": 3647,
          "midi": 46,
          "name": "A#2",
          "ticks": 199680,
          "time": 312.000832,
          "velocity": 0.6299212598425197
        }
      ],
      "endOfTrackTicks": 203328
    }
  ]
}