{
  "header": {
    "keySignatures": [
      {
        "key": "Eb",
        "scale": "major",
        "ticks": 0
      },
      {
        "key": "Eb",
        "scale": "major",
        "ticks": 0
      }
    ],
    "meta": [],
    "name": "Piano\u0000",
    "ppq": 480,
    "tempos": [
      {
        "bpm": 120,
        "ticks": 0
      },
      {
        "bpm": 145.00003625000906,
        "ticks": 51840
      },
      {
        "bpm": 19.99998000002,
        "ticks": 63360
      },
      {
        "bpm": 31.999982933342437,
        "ticks": 63660
      },
      {
        "bpm": 19.99998000002,
        "ticks": 64560
      },
      {
        "bpm": 31.999982933342437,
        "ticks": 64620
      },
      {
        "bpm": 120,
        "ticks": 65280
      },
      {
        "bpm": 100.00016666694445,
        "ticks": 72000
      },
      {
        "bpm": 89.9999550000225,
        "ticks": 72120
      },
      {
        "bpm": 70.00023333411112,
        "ticks": 72240
      },
      {
        "bpm": 50,
        "ticks": 72360
      },
      {
        "bpm": 25.000020833350696,
        "ticks": 72480
      }
    ],
    "timeSignatures": [
      {
        "ticks": 0,
        "timeSignature": [
          4,
          4
        ],
        "measures": 0
      }
    ]
  },
  "tracks": [
    {
      "channel": 0,
      "controlChanges": {
        "7": [
          {
            "number": 7,
            "ticks": 0,
            "time": 0,
            "value": 0.7874015748031497
          }
        ],
        "10": [
          {
            "number": 10,
            "ticks": 0,
            "time": 0,
            "value": 0.5039370078740157
          }
        ],
        "64": [
          {
            "number": 64,
            "ticks": 63602,
            "time": 65.4435335125,
            "value": 1
          },
          {
            "number": 64,
            "ticks": 63661,
            "time": 65.80994012708334,
            "value": 0
          },
          {
            "number": 64,
            "ticks": 64562,
            "time": 69.33416076249999,
            "value": 1
          },
          {
            "number": 64,
            "ticks": 64621,
            "time": 69.70056737708333,
            "value": 0
          }
        ],
        "91": [
          {
            "number": 91,
            "ticks": 0,
            "time": 0,
            "value": 0.23622047244094488
          }
        ],
        "93": [
          {
            "number": 93,
            "ticks": 0,
            "time": 0,
            "value": 0.23622047244094488
          }
        ],
        "121": [
          {
            "number": 121,
            "ticks": 0,
            "time": 0,
            "value": 0
          }
        ]
      },
      "pitchBends": [],
      "instrument": {
        "family": "piano",
        "number": 0,
        "name": "acoustic grand piano"
      },
      "name": "Piano\u0000",
      "notes": [
        {
          "duration": 0.12395833333333334,
          "durationTicks": 119,
          "midi": 72,
          "name": "C5",
          "ticks": 0,
          "time": 0,
          "velocity": 0.6299212598425197
        },
        {
          "duration": 0.12395833333333334,
          "durationTicks": 119,
          "midi": 63,
          "name": "D#4",
          "ticks": 120,
          "time": 0.125,
          "velocity": 0.6299212598425197
        },
        {
          "duration": 0.12395833333333334,
          "durationTicks": 119,
          "midi": 62,
          "name": "D4",
          "ticks": 240,
          "time": 0.25,
          "velocity": 0.6299212598425197
        },
        {
          "duration": 0.12395833333333334,
          "durationTicks": 119,
          "midi": 63,
          "name": "D#4",
          "ticks": 360,
          "time": 0.375,
          "velocity": 0.6299212598425197
        },
        {
          "duration": 0.12395833333333328,
          "durationTicks": 119,
          "midi": 60,
          "name": "C4",
          "ticks": 480,
          "time": 0.5,
          "velocity": 0.6299212598425197
        },
        {
          "duration": 0.12395833333333328,
          "durationTicks": 119,
          "midi": 63,
          "name": "D#4",
          "ticks": 600,
          "time": 0.625,
          "velocity": 0.6299212598425197
        },
        {
          "duration": 0.12395833333333328,
          "durationTicks": 119,
          "midi": 62,
          "name": "D4",
          "ticks": 720,
          "time": 0.75,
          "velocity": 0.6299212598425197
        },
        {
          "duration": 0.12395833333333328,
          "durationTicks": 119,
          "midi": 63,
          "name": "D#4",
          "ticks": 840,
          "time": 0.875,
          "velocity": 0.6299212598425197
        },
        {
          "duration": 0.12395833333333339,
          "durationTicks": 119,
          "midi": 72,
          "name": "C5",
          "ticks": 960,
          "time": 1,
          "velocity": 0.6299212598425197
        },
        {
          "duration": 0.12395833333333339,
          "durationTicks": 119,
          "midi": 63,
          "name": "D#4",
          "ticks": 1080,
          "time": 1.125,
          "velocity": 0.6299212598425197
        },
        {
          "duration": 0.12395833333333339,
          "durationTicks": 119,
          "midi": 62,
          "name": "D4",
          "ticks": 1200,
          "time": 1.25,
          "velocity": 0.6299212598425197
        },
        {
          "duration": 0.12395833333333339,
          "durationTicks": 119,
          "midi": 63,
          "name": "D#4",
          "ticks": 1320,
          "time": 1.375,
          "velocity": 0.6299212598425197
        },
        {
          "duration": 0.12395833333333339,
          "durationTicks": 119,
          "midi": 60,
          "name": "C4",
          "ticks": 1440,
          "time": 1.5,
          "velocity": 0.6299212598425197
        },
        {
          "duration": 0.12395833333333339,
          "durationTicks": 119,
          "midi": 63,
          "name": "D#4",
          "ticks": 1560,
          "time": 1.625,
          "velocity": 0.6299212598425197
        },
        {
          "duration": 0.12395833333333339,
          "durationTicks": 119,
          "midi": 62,
          "name": "D4",
          "ticks": 1680,
          "time": 1.75,
          "velocity": 0.6299212598425197
        },
        {
          "duration": 0.12395833333333339,
          "durationTicks": 119,
          "midi": 63,
          "name": "D#4",
          "ticks": 1800,
          "time": 1.875,
          "velocity": 0.6299212598425197
        },
        {
          "duration": 0.12395833333333339,
          "durationTicks": 119,
          "midi": 68,
          "name": "G#4",
          "ticks": 1920,
          "time": 2,
          "velocity": 0.6299212598425197
        },
        {
          "duration": 0.12395833333333339,
          "durationTicks": 119,
          "midi": 65,
          "name": "F4",
          "ticks": 2040,
          "time": 2.125,
          "velocity": 0.6299212598425197
        },
        {
          "duration": 0.12395833333333339,
          "durationTicks": 119,
          "midi": 64,
          "name": "E4",
          "ticks": 2160,
          "time": 2.25,
          "velocity": 0.6299212598425197
        },
        {
          "duration": 0.12395833333333339,
          "durationTicks": 119,
          "midi": 65,
          "name": "F4",
          "ticks": 2280,
          "time": 2.375,
          "velocity": 0.6299212598425197
        },
        {
          "duration": 0.12395833333333339,
          "durationTicks": 119,
          "midi": 60,
          "name": "C4",
          "ticks": 2400,
          "time": 2.5,
          "velocity": 0.6299212598425197
        },
        {
          "duration": 0.12395833333333339,
          "durationTicks": 119,
          "midi": 65,
          "name": "F4",
          "ticks": 2520,
          "time": 2.625,
          "velocity": 0.6299212598425197
        },
        {
          "duration": 0.12395833333333339,
          "durationTicks": 119,
          "midi": 64,
          "name": "E4",
          "ticks": 2640,
          "time": 2.75,
          "velocity": 0.6299212598425197
        },
        {
          "duration": 0.12395833333333339,
          "durationTicks": 119,
          "midi": 65,
          "name": "F4",
          "ticks": 2760,
          "time": 2.875,
          "velocity": 0.6299212598425197
        },
        {
          "duration": 0.12395833333333339,
          "durationTicks": 119,
          "midi": 68,
          "name": "G#4",
          "ticks": 2880,
          "time": 3,
          "velocity": 0.6299212598425197
        },
        {
          "duration": 0.12395833333333339,
          "durationTicks": 119,
          "midi": 65,
          "name": "F4",
          "ticks": 3000,
          "time": 3.125,
          "velocity": 0.6299212598425197
        },
        {
          "duration": 0.12395833333333339,
          "durationTicks": 119,
          "midi": 64,
          "name": "E4",
          "ticks": 3120,
          "time": 3.25,
          "velocity": 0.6299212598425197
        },
        {
          "duration": 0.12395833333333339,
          "durationTicks": 119,
          "midi": 65,
          "name": "F4",
          "ticks": 3240,
          "time": 3.375,
          "velocity": 0.6299212598425197
        },
        {
          "duration": 0.12395833333333339,
          "durationTicks": 119,
          "midi": 60,
          "name": "C4",
          "ticks": 3360,
          "time": 3.5,
          "velocity": 0.6299212598425197
        },
        {
          "duration": 0.12395833333333339,
          "durationTicks": 119,
          "midi": 65,
          "name": "F4",
          "ticks": 3480,
          "time": 3.625,
          "velocity": 0.6299212598425197
        },
        {
          "duration": 0.12395833333333339,
          "durationTicks": 119,
          "midi": 64,
          "name": "E4",
          "ticks": 3600,
          "time": 3.75,
          "velocity": 0.6299212598425197
        },
        {
          "duration": 0.12395833333333339,
          "durationTicks": 119,
          "midi": 65,
          "name": "F4",
          "ticks": 3720,
          "time": 3.875,
          "velocity": 0.6299212598425197
        },
        {
          "duration": 0.12395833333333339,
          "durationTicks": 119,
          "midi": 71,
          "name": "B4",
          "ticks": 3840,
          "time": 4,
          "velocity": 0.6299212598425197
        },
        {
          "duration": 0.12395833333333339,
          "durationTicks": 119,
          "midi": 65,
          "name": "F4",
          "ticks": 3960,
          "time": 4.125,
          "velocity": 0.6299212598425197
        },
        {
          "duration": 0.12395833333333339,
          "durationTicks": 119,
          "midi": 63,
          "name": "D#4",
          "ticks": 4080,
          "time": 4.25,
          "velocity": 0.6299212598425197
        },
        {
          "duration": 0.12395833333333339,
          "durationTicks": 119,
          "midi": 65,
          "name": "F4",
          "ticks": 4200,
          "time": 4.375,
          "velocity": 0.6299212598425197
        },
        {
          "duration": 0.12395833333333339,
          "durationTicks": 119,
          "midi": 62,
          "name": "D4",
          "ticks": 4320,
          "time": 4.5,
          "velocity": 0.6299212598425197
        },
        {
          "duration": 0.12395833333333339,
          "durationTicks": 119,
          "midi": 65,
          "name": "F4",
          "ticks": 4440,
          "time": 4.625,
          "velocity": 0.6299212598425197
        },
        {
          "duration": 0.12395833333333339,
          "durationTicks": 119,
          "midi": 63,
          "name": "D#4",
          "ticks": 4560,
          "time": 4.75,
          "velocity": 0.6299212598425197
        },
        {
          "duration": 0.12395833333333339,
          "durationTicks": 119,
          "midi": 65,
          "name": "F4",
          "ticks": 4680,
          "time": 4.875,
          "velocity": 0.6299212598425197
        },
        {
          "duration": 0.12395833333333339,
          "durationTicks": 119,
          "midi": 71,
          "name": "B4",
          "ticks": 4800,
          "time": 5,
          "velocity": 0.6299212598425197
        },
        {
          "duration": 0.12395833333333339,
          "durationTicks": 119,
          "midi": 65,
          "name": "F4",
          "ticks": 4920,
          "time": 5.125,
          "velocity": 0.6299212598425197
        },
        {
          "duration": 0.12395833333333339,
          "durationTicks": 119,
          "midi": 63,
          "name": "D#4",
          "ticks": 5040,
          "time": 5.25,
          "velocity": 0.6299212598425197
        },
        {
          "duration": 0.12395833333333339,
          "durationTicks": 119,
          "midi": 65,
          "name": "F4",
          "ticks": 5160,
          "time": 5.375,
          "velocity": 0.6299212598425197
        },
        {
          "duration": 0.12395833333333339,
          "durationTicks": 119,
          "midi": 62,
          "name": "D4",
          "ticks": 5280,
          "time": 5.5,
          "velocity": 0.6299212598425197
        },
        {
          "duration": 0.12395833333333339,
          "durationTicks": 119,
          "midi": 65,
          "name": "F4",
          "ticks": 5400,
          "time": 5.625,
          "velocity": 0.6299212598425197
        },
        {
          "duration": 0.12395833333333339,
          "durationTicks": 119,
          "midi": 63,
          "name": "D#4",
          "ticks": 5520,
          "time": 5.75,
          "velocity": 0.6299212598425197
        },
        {
          "duration": 0.12395833333333339,
          "durationTicks": 119,
          "midi": 65,
          "name": "F4",
          "ticks": 5640,
          "time": 5.875,
          "velocity": 0.6299212598425197
        },
        {
          "duration": 0.12395833333333339,
          "durationTicks": 119,
          "midi": 72,
          "name": "C5",
          "ticks": 5760,
          "time": 6,
          "velocity": 0.6299212598425197
        },
        {
          "duration": 0.12395833333333339,
          "durationTicks": 119,
          "midi": 67,
          "name": "G4",
          "ticks": 5880,
          "time": 6.125,
          "velocity": 0.6299212598425197
        },
        {
          "duration": 0.12395833333333339,
          "durationTicks": 119,
          "midi": 65,
          "name": "F4",
          "ticks": 6000,
          "time": 6.25,
          "velocity": 0.6299212598425197
        },
        {
          "duration": 0.12395833333333339,
          "durationTicks": 119,
          "midi": 67,
          "name": "G4",
          "ticks": 6120,
          "time": 6.375,
          "velocity": 0.6299212598425197
        },
        {
          "duration": 0.12395833333333339,
          "durationTicks": 119,
          "midi": 63,
          "name": "D#4",
          "ticks": 6240,
          "time": 6.5,
          "velocity": 0.6299212598425197
        },
        {
          "duration": 0.12395833333333339,
          "durationTicks": 119,
          "midi": 67,
          "name": "G4",
          "ticks": 6360,
          "time": 6.625,
          "velocity": 0.6299212598425197
        },
        {
          "duration": 0.12395833333333339,
          "durationTicks": 119,
          "midi": 65,
          "name": "F4",
          "ticks": 6480,
          "time": 6.75,
          "velocity": 0.6299212598425197
        },
        {
          "duration": 0.12395833333333339,
          "durationTicks": 119,
          "midi": 67,
          "name": "G4",
          "ticks": 6600,
          "time": 6.875,
          "velocity": 0.6299212598425197
        },
        {
          "duration": 0.12395833333333339,
          "durationTicks": 119,
          "midi": 72,
          "name": "C5",
          "ticks": 6720,
          "time": 7,
          "velocity": 0.6299212598425197
        },
        {
          "duration": 0.12395833333333339,
          "durationTicks": 119,
          "midi": 67,
          "name": "G4",
          "ticks": 6840,
          "time": 7.125,
          "velocity": 0.6299212598425197
        },
        {
          "duration": 0.12395833333333339,
          "durationTicks": 119,
          "midi": 65,
          "name": "F4",
          "ticks": 6960,
          "time": 7.25,
          "velocity": 0.6299212598425197
        },
        {
          "duration": 0.12395833333333339,
          "durationTicks": 119,
          "midi": 67,
          "name": "G4",
          "ticks": 7080,
          "time": 7.375,
          "velocity": 0.6299212598425197
        },
        {
          "duration": 0.12395833333333339,
          "durationTicks": 119,
          "midi": 63,
          "name": "D#4",
          "ticks": 7200,
          "time": 7.5,
          "velocity": 0.6299212598425197
        },
        {
          "duration": 0.12395833333333339,
          "durationTicks": 119,
          "midi": 67,
          "name": "G4",
          "ticks": 7320,
          "time": 7.625,
          "velocity": 0.6299212598425197
        },
        {
          "duration": 0.12395833333333339,
          "durationTicks": 119,
          "midi": 65,
          "name": "F4",
          "ticks": 7440,
          "time": 7.75,
          "velocity": 0.6299212598425197
        },
        {
          "duration": 0.12395833333333339,
          "durationTicks": 119,
          "midi": 67,
          "name": "G4",
          "ticks": 7560,
          "time": 7.875,
          "velocity": 0.6299212598425197
        },
        {
          "duration": 0.1239583333333325,
          "durationTicks": 119,
          "midi": 75,
          "name": "D#5",
          "ticks": 7680,
          "time": 8,
          "velocity": 0.6299212598425197
        },
        {
          "duration": 0.1239583333333325,
          "durationTicks": 119,
          "midi": 68,
          "name": "G#4",
          "ticks": 7800,
          "time": 8.125,
          "velocity": 0.6299212598425197
        },
        {
          "duration": 0.1239583333333325,
          "durationTicks": 119,
          "midi": 67,
          "name": "G4",
          "ticks": 7920,
          "time": 8.25,
          "velocity": 0.6299212598425197
        },
        {
          "duration": 0.1239583333333325,
          "durationTicks": 119,
          "midi": 68,
          "name": "G#4",
          "ticks": 8040,
          "time": 8.375,
          "velocity": 0.6299212598425197
        },
        {
          "duration": 0.1239583333333325,
          "durationTicks": 119,
          "midi": 63,
          "name": "D#4",
          "ticks": 8160,
          "time": 8.5,
          "velocity": 0.6299212598425197
        },
        {
          "duration": 0.1239583333333325,
          "durationTicks": 119,
          "midi": 68,
          "name": "G#4",
          "ticks": 8280,
          "time": 8.625,
          "velocity": 0.6299212598425197
        },
        {
          "duration": 0.1239583333333325,
          "durationTicks": 119,
          "midi": 67,
          "name": "G4",
          "ticks": 8400,
          "time": 8.75,
          "velocity": 0.6299212598425197
        },
        {
          "duration": 0.1239583333333325,
          "durationTicks": 119,
          "midi": 68,
          "name": "G#4",
          "ticks": 8520,
          "time": 8.875,
          "velocity": 0.6299212598425197
        },
        {
          "duration": 0.1239583333333325,
          "durationTicks": 119,
          "midi": 75,
          "name": "D#5",
          "ticks": 8640,
          "time": 9,
          "velocity": 0.6299212598425197
        },
        {
          "duration": 0.1239583333333325,
          "durationTicks": 119,
          "midi": 68,
          "name": "G#4",
          "ticks": 8760,
          "time": 9.125,
          "velocity": 0.6299212598425197
        },
        {
          "duration": 0.1239583333333325,
          "durationTicks": 119,
          "midi": 67,
          "name": "G4",
          "ticks": 8880,
          "time": 9.25,
          "velocity": 0.6299212598425197
        },
        {
          "duration": 0.1239583333333325,
          "durationTicks": 119,
          "midi": 68,
          "name": "G#4",
          "ticks": 9000,
          "time": 9.375,
          "velocity": 0.6299212598425197
        },
        {
          "duration": 0.1239583333333325,
          "durationTicks": 119,
          "midi": 63,
          "name": "D#4",
          "ticks": 9120,
          "time": 9.5,
          "velocity": 0.6299212598425197
        },
        {
          "duration": 0.1239583333333325,
          "durationTicks": 119,
          "midi": 68,
          "name": "G#4",
          "ticks": 9240,
          "time": 9.625,
          "velocity": 0.6299212598425197
        },
        {
          "duration": 0.1239583333333325,
          "durationTicks": 119,
          "midi": 67,
          "name": "G4",
          "ticks": 9360,
          "time": 9.75,
          "velocity": 0.6299212598425197
        },
        {
          "duration": 0.1239583333333325,
          "durationTicks": 119,
          "midi": 68,
          "name": "G#4",
          "ticks": 9480,
          "time": 9.875,
          "velocity": 0.6299212598425197
        },
        {
          "duration": 0.1239583333333325,
          "durationTicks": 119,
          "midi": 74,
          "name": "D5",
          "ticks": 9600,
          "time": 10,
          "velocity": 0.6299212598425197
        },
        {
          "duration": 0.1239583333333325,
          "durationTicks": 119,
          "midi": 66,
          "name": "F#4",
          "ticks": 9720,
          "time": 10.125,
          "velocity": 0.6299212598425197
        },
        {
          "duration": 0.1239583333333325,
          "durationTicks": 119,
          "midi": 64,
          "name": "E4",
          "ticks": 9840,
          "time": 10.25,
          "velocity": 0.6299212598425197
        },
        {
          "duration": 0.1239583333333325,
          "durationTicks": 119,
          "midi": 66,
          "name": "F#4",
          "ticks": 9960,
          "time": 10.375,
          "velocity": 0.6299212598425197
        },
        {
          "duration": 0.1239583333333325,
          "durationTicks": 119,
          "midi": 62,
          "name": "D4",
          "ticks": 10080,
          "time": 10.5,
          "velocity": 0.6299212598425197
        },
        {
          "duration": 0.1239583333333325,
          "durationTicks": 119,
          "midi": 66,
          "name": "F#4",
          "ticks": 10200,
          "time": 10.625,
          "velocity": 0.6299212598425197
        },
        {
          "duration": 0.1239583333333325,
          "durationTicks": 119,
          "midi": 64,
          "name": "E4",
          "ticks": 10320,
          "time": 10.75,
          "velocity": 0.6299212598425197
        },
        {
          "duration": 0.1239583333333325,
          "durationTicks": 119,
          "midi": 66,
          "name": "F#4",
          "ticks": 10440,
          "time": 10.875,
          "velocity": 0.6299212598425197
        },
        {
          "duration": 0.1239583333333325,
          "durationTicks": 119,
          "midi": 74,
          "name": "D5",
          "ticks": 10560,
          "time": 11,
          "velocity": 0.6299212598425197
        },
        {
          "duration": 0.1239583333333325,
          "durationTicks": 119,
          "midi": 66,
          "name": "F#4",
          "ticks": 10680,
          "time": 11.125,
          "velocity": 0.6299212598425197
        },
        {
          "duration": 0.1239583333333325,
          "durationTicks": 119,
          "midi": 64,
          "name": "E4",
          "ticks": 10800,
          "time": 11.25,
          "velocity": 0.6299212598425197
        },
        {
          "duration": 0.1239583333333325,
          "durationTicks": 119,
          "midi": 66,
          "name": "F#4",
          "ticks": 10920,
          "time": 11.375,
          "velocity": 0.6299212598425197
        },
        {
          "duration": 0.1239583333333325,
          "durationTicks": 119,
          "midi": 62,
          "name": "D4",
          "ticks": 11040,
          "time": 11.5,
          "velocity": 0.6299212598425197
        },
        {
          "duration": 0.1239583333333325,
          "durationTicks": 119,
          "midi": 66,
          "name": "F#4",
          "ticks": 11160,
          "time": 11.625,
          "velocity": 0.6299212598425197
        },
        {
          "duration": 0.1239583333333325,
          "durationTicks": 119,
          "midi": 64,
          "name": "E4",
          "ticks": 11280,
          "time": 11.75,
          "velocity": 0.6299212598425197
        },
        {
          "duration": 0.1239583333333325,
          "durationTicks": 119,
          "midi": 66,
          "name": "F#4",
          "ticks": 11400,
          "time": 11.875,
          "velocity": 0.6299212598425197
        },
        {
          "duration": 0.1239583333333325,
          "durationTicks": 119,
          "midi": 74,
          "name": "D5",
          "ticks": 11520,
          "time": 12,
          "velocity": 0.6299212598425197
        },
        {
          "duration": 0.1239583333333325,
          "durationTicks": 119,
          "midi": 67,
          "name": "G4",
          "ticks": 11640,
          "time": 12.125,
          "velocity": 0.6299212598425197
        },
        {
          "duration": 0.1239583333333325,
          "durationTicks": 119,
          "midi": 66,
          "name": "F#4",
          "ticks": 11760,
          "time": 12.25,
          "velocity": 0.6299212598425197
        },
        {
          "duration": 0.1239583333333325,
          "durationTicks": 119,
          "midi": 67,
          "name": "G4",
          "ticks": 11880,
          "time": 12.375,
          "velocity": 0.6299212598425197
        },
        {
          "duration": 0.1239583333333325,
          "durationTicks": 119,
          "midi": 62,
          "name": "D4",
          "ticks": 12000,
          "time": 12.5,
          "velocity": 0.6299212598425197
        },
        {
          "duration": 0.1239583333333325,
          "durationTicks": 119,
          "midi": 67,
          "name": "G4",
          "ticks": 12120,
          "time": 12.625,
          "velocity": 0.6299212598425197
        },
        {
          "duration": 0.1239583333333325,
          "durationTicks": 119,
          "midi": 66,
          "name": "F#4",
          "ticks": 12240,
          "time": 12.75,
          "velocity": 0.6299212598425197
        },
        {
          "duration": 0.1239583333333325,
          "durationTicks": 119,
          "midi": 67,
          "name": "G4",
          "ticks": 12360,
          "time": 12.875,
          "velocity": 0.6299212598425197
        },
        {
          "duration": 0.1239583333333325,
          "durationTicks": 119,
          "midi": 74,
          "name": "D5",
          "ticks": 12480,
          "time": 13,
          "velocity": 0.6299212598425197
        },
        {
          "duration": 0.1239583333333325,
          "durationTicks": 119,
          "midi": 67,
          "name": "G4",
          "ticks": 12600,
          "time": 13.125,
          "velocity": 0.6299212598425197
        },
        {
          "duration": 0.1239583333333325,
          "durationTicks": 119,
          "midi": 66,
          "name": "F#4",
          "ticks": 12720,
          "time": 13.25,
          "velocity": 0.6299212598425197
        },
        {
          "duration": 0.1239583333333325,
          "durationTicks": 119,
          "midi": 67,
          "name": "G4",
          "ticks": 12840,
          "time": 13.375,
          "velocity": 0.6299212598425197
        },
        {
          "duration": 0.1239583333333325,
          "durationTicks": 119,
          "midi": 62,
          "name": "D4",
          "ticks": 12960,
          "time": 13.5,
          "velocity": 0.6299212598425197
        },
        {
          "duration": 0.1239583333333325,
          "durationTicks": 119,
          "midi": 67,
          "name": "G4",
          "ticks": 13080,
          "time": 13.625,
          "velocity": 0.6299212598425197
        },
        {
          "duration": 0.1239583333333325,
          "durationTicks": 119,
          "midi": 66,
          "name": "F#4",
          "ticks": 13200,
          "time": 13.75,
          "velocity": 0.6299212598425197
        },
        {
          "duration": 0.1239583333333325,
          "durationTicks": 119,
          "midi": 67,
          "name": "G4",
          "ticks": 13320,
          "time": 13.875,
          "velocity": 0.6299212598425197
        },
        {
          "duration": 0.1239583333333325,
          "durationTicks": 119,
          "midi": 72,
          "name": "C5",
          "ticks": 13440,
          "time": 14,
          "velocity": 0.6299212598425197
        },
        {
          "duration": 0.1239583333333325,
          "durationTicks": 119,
          "midi": 64,
          "name": "E4",
          "ticks": 13560,
          "time": 14.125,
          "velocity": 0.6299212598425197
        },
        {
          "duration": 0.1239583333333325,
          "durationTicks": 119,
          "midi": 62,
          "name": "D4",
          "ticks": 13680,
          "time": 14.25,
          "velocity": 0.6299212598425197
        },
        {
          "duration": 0.1239583333333325,
          "durationTicks": 119,
          "midi": 64,
          "name": "E4",
          "ticks": 13800,
          "time": 14.375,
          "velocity": 0.6299212598425197
        },
        {
          "duration": 0.1239583333333325,
          "durationTicks": 119,
          "midi": 60,
          "name": "C4",
          "ticks": 13920,
          "time": 14.5,
          "velocity": 0.6299212598425197
        },
        {
          "duration": 0.1239583333333325,
          "durationTicks": 119,
          "midi": 64,
          "name": "E4",
          "ticks": 14040,
          "time": 14.625,
          "velocity": 0.6299212598425197
        },
        {
          "duration": 0.1239583333333325,
          "durationTicks": 119,
          "midi": 62,
          "name": "D4",
          "ticks": 14160,
          "time": 14.75,
          "velocity": 0.6299212598425197
        },
        {
          "duration": 0.1239583333333325,
          "durationTicks": 119,
          "midi": 64,
          "name": "E4",
          "ticks": 14280,
          "time": 14.875,
          "velocity": 0.6299212598425197
        },
        {
          "duration": 0.1239583333333325,
          "durationTicks": 119,
          "midi": 72,
          "name": "C5",
          "ticks": 14400,
          "time": 15,
          "velocity": 0.6299212598425197
        },
        {
          "duration": 0.1239583333333325,
          "durationTicks": 119,
          "midi": 64,
          "name": "E4",
          "ticks": 14520,
          "time": 15.125,
          "velocity": 0.6299212598425197
        },
        {
          "duration": 0.1239583333333325,
          "durationTicks": 119,
          "midi": 62,
          "name": "D4",
          "ticks": 14640,
          "time": 15.25,
          "velocity": 0.6299212598425197
        },
        {
          "duration": 0.1239583333333325,
          "durationTicks": 119,
          "midi": 64,
          "name": "E4",
          "ticks": 14760,
          "time": 15.375,
          "velocity": 0.6299212598425197
        },
        {
          "duration": 0.1239583333333325,
          "durationTicks": 119,
          "midi": 60,
          "name": "C4",
          "ticks": 14880,
          "time": 15.5,
          "velocity": 0.6299212598425197
        },
        {
          "duration": 0.1239583333333325,
          "durationTicks": 119,
          "midi": 64,
          "name": "E4",
          "ticks": 15000,
          "time": 15.625,
          "velocity": 0.6299212598425197
        },
        {
          "duration": 0.1239583333333325,
          "durationTicks": 119,
          "midi": 62,
          "name": "D4",
          "ticks": 15120,
          "time": 15.75,
          "velocity": 0.6299212598425197
        },
        {
          "duration": 0.1239583333333325,
          "durationTicks": 119,
          "midi": 64,
          "name": "E4",
          "ticks": 15240,
          "time": 15.875,
          "velocity": 0.6299212598425197
        },
        {
          "duration": 0.12395833333333428,
          "durationTicks": 119,
          "midi": 72,
          "name": "C5",
          "ticks": 15360,
          "time": 16,
          "velocity": 0.6299212598425197
        },
        {
          "duration": 0.12395833333333428,
          "durationTicks": 119,
          "midi": 65,
          "name": "F4",
          "ticks": 15480,
          "time": 16.125,
          "velocity": 0.6299212598425197
        },
        {
          "duration": 0.12395833333333428,
          "durationTicks": 119,
          "midi": 64,
          "name": "E4",
          "ticks": 15600,
          "time": 16.25,
          "velocity": 0.6299212598425197
        },
        {
          "duration": 0.12395833333333428,
          "durationTicks": 119,
          "midi": 65,
          "name": "F4",
          "ticks": 15720,
          "time": 16.375,
          "velocity": 0.6299212598425197
        },
        {
          "duration": 0.12395833333333428,
          "durationTicks": 119,
          "midi": 60,
          "name": "C4",
          "ticks": 15840,
          "time": 16.5,
          "velocity": 0.6299212598425197
        },
        {
          "duration": 0.12395833333333428,
          "durationTicks": 119,
          "midi": 65,
          "name": "F4",
          "ticks": 15960,
          "time": 16.625,
          "velocity": 0.6299212598425197
        },
        {
          "duration": 0.12395833333333428,
          "durationTicks": 119,
          "midi": 64,
          "name": "E4",
          "ticks": 16080,
          "time": 16.75,
          "velocity": 0.6299212598425197
        },
        {
          "duration": 0.12395833333333428,
          "durationTicks": 119,
          "midi": 65,
          "name": "F4",
          "ticks": 16200,
          "time": 16.875,
          "velocity": 0.6299212598425197
        },
        {
          "duration": 0.12395833333333428,
          "durationTicks": 119,
          "midi": 72,
          "name": "C5",
          "ticks": 16320,
          "time": 17,
          "velocity": 0.6299212598425197
        },
        {
          "duration": 0.12395833333333428,
          "durationTicks": 119,
          "midi": 65,
          "name": "F4",
          "ticks": 16440,
          "time": 17.125,
          "velocity": 0.6299212598425197
        },
        {
          "duration": 0.12395833333333428,
          "durationTicks": 119,
          "midi": 64,
          "name": "E4",
          "ticks": 16560,
          "time": 17.25,
          "velocity": 0.6299212598425197
        },
        {
          "duration": 0.12395833333333428,
          "durationTicks": 119,
          "midi": 65,
          "name": "F4",
          "ticks": 16680,
          "time": 17.375,
          "velocity": 0.6299212598425197
        },
        {
          "duration": 0.12395833333333428,
          "durationTicks": 119,
          "midi": 60,
          "name": "C4",
          "ticks": 16800,
          "time": 17.5,
          "velocity": 0.6299212598425197
        },
        {
          "duration": 0.12395833333333428,
          "durationTicks": 119,
          "midi": 65,
          "name": "F4",
          "ticks": 16920,
          "time": 17.625,
          "velocity": 0.6299212598425197
        },
        {
          "duration": 0.12395833333333428,
          "durationTicks": 119,
          "midi": 64,
          "name": "E4",
          "ticks": 17040,
          "time": 17.75,
          "velocity": 0.6299212598425197
        },
        {
          "duration": 0.12395833333333428,
          "durationTicks": 119,
          "midi": 65,
          "name": "F4",
          "ticks": 17160,
          "time": 17.875,
          "velocity": 0.6299212598425197
        },
        {
          "duration": 0.12395833333333428,
          "durationTicks": 119,
          "midi": 70,
          "name": "A#4",
          "ticks": 17280,
          "time": 18,
          "velocity": 0.6299212598425197
        },
        {
          "duration": 0.12395833333333428,
          "durationTicks": 119,
          "midi": 65,
          "name": "F4",
          "ticks": 17400,
          "time": 18.125,
          "velocity": 0.6299212598425197
        },
        {
          "duration": 0.12395833333333428,
          "durationTicks": 119,
          "midi": 63,
          "name": "D#4",
          "ticks": 17520,
          "time": 18.25,
          "velocity": 0.6299212598425197
        },
        {
          "duration": 0.12395833333333428,
          "durationTicks": 119,
          "midi": 65,
          "name": "F4",
          "ticks": 17640,
          "time": 18.375,
          "velocity": 0.6299212598425197
        },
        {
          "duration": 0.12395833333333428,
          "durationTicks": 119,
          "midi": 62,
          "name": "D4",
          "ticks": 17760,
          "time": 18.5,
          "velocity": 0.6299212598425197
        },
        {
          "duration": 0.12395833333333428,
          "durationTicks": 119,
          "midi": 65,
          "name": "F4",
          "ticks": 17880,
          "time": 18.625,
          "velocity": 0.6299212598425197
        },
        {
          "duration": 0.12395833333333428,
          "durationTicks": 119,
          "midi": 63,
          "name": "D#4",
          "ticks": 18000,
          "time": 18.75,
          "velocity": 0.6299212598425197
        },
        {
          "duration": 0.12395833333333428,
          "durationTicks": 119,
          "midi": 65,
          "name": "F4",
          "ticks": 18120,
          "time": 18.875,
          "velocity": 0.6299212598425197
        },
        {
          "duration": 0.12395833333333428,
          "durationTicks": 119,
          "midi": 70,
          "name": "A#4",
          "ticks": 18240,
          "time": 19,
          "velocity": 0.6299212598425197
        },
        {
          "duration": 0.12395833333333428,
          "durationTicks": 119,
          "midi": 65,
          "name": "F4",
          "ticks": 18360,
          "time": 19.125,
          "velocity": 0.6299212598425197
        },
        {
          "duration": 0.12395833333333428,
          "durationTicks": 119,
          "midi": 63,
          "name": "D#4",
          "ticks": 18480,
          "time": 19.25,
          "velocity": 0.6299212598425197
        },
        {
          "duration": 0.12395833333333428,
          "durationTicks": 119,
          "midi": 65,
          "name": "F4",
          "ticks": 18600,
          "time": 19.375,
          "velocity": 0.6299212598425197
        },
        {
          "duration": 0.12395833333333428,
          "durationTicks": 119,
          "midi": 62,
          "name": "D4",
          "ticks": 18720,
          "time": 19.5,
          "velocity": 0.6299212598425197
        },
        {
          "duration": 0.12395833333333428,
          "durationTicks": 119,
          "midi": 65,
          "name": "F4",
          "ticks": 18840,
          "time": 19.625,
          "velocity": 0.6299212598425197
        },
        {
          "duration": 0.12395833333333428,
          "durationTicks": 119,
          "midi": 63,
          "name": "D#4",
          "ticks": 18960,
          "time": 19.75,
          "velocity": 0.6299212598425197
        },
        {
          "duration": 0.12395833333333428,
          "durationTicks": 119,
          "midi": 65,
          "name": "F4",
          "ticks": 19080,
          "time": 19.875,
          "velocity": 0.6299212598425197
        },
        {
          "duration": 0.12395833333333428,
          "durationTicks": 119,
          "midi": 70,
          "name": "A#4",
          "ticks": 19200,
          "time": 20,
          "velocity": 0.6299212598425197
        },
        {
          "duration": 0.12395833333333428,
          "durationTicks": 119,
          "midi": 67,
          "name": "G4",
          "ticks": 19320,
          "time": 20.125,
          "velocity": 0.6299212598425197
        },
        {
          "duration": 0.12395833333333428,
          "durationTicks": 119,
          "midi": 65,
          "name": "F4",
          "ticks": 19440,
          "time": 20.25,
          "velocity": 0.6299212598425197
        },
        {
          "duration": 0.12395833333333428,
          "durationTicks": 119,
          "midi": 67,
          "name": "G4",
          "ticks": 19560,
          "time": 20.375,
          "velocity": 0.6299212598425197
        },
        {
          "duration": 0.12395833333333428,
          "durationTicks": 119,
          "midi": 63,
          "name": "D#4",
          "ticks": 19680,
          "time": 20.5,
          "velocity": 0.6299212598425197
        },
        {
          "duration": 0.12395833333333428,
          "durationTicks": 119,
          "midi": 67,
          "name": "G4",
          "ticks": 19800,
          "time": 20.625,
          "velocity": 0.6299212598425197
        },
        {
          "duration": 0.12395833333333428,
          "durationTicks": 119,
          "midi": 65,
          "name": "F4",
          "ticks": 19920,
          "time": 20.75,
          "velocity": 0.6299212598425197
        },
        {
          "duration": 0.12395833333333428,
          "durationTicks": 119,
          "midi": 67,
          "name": "G4",
          "ticks": 20040,
          "time": 20.875,
          "velocity": 0.6299212598425197
        },
        {
          "duration": 0.12395833333333428,
          "durationTicks": 119,
          "midi": 70,
          "name": "A#4",
          "ticks": 20160,
          "time": 21,
          "velocity": 0.6299212598425197
        },
        {
          "duration": 0.12395833333333428,
          "durationTicks": 119,
          "midi": 67,
          "name": "G4",
          "ticks": 20280,
          "time": 21.125,
          "velocity": 0.6299212598425197
        },
        {
          "duration": 0.12395833333333428,
          "durationTicks": 119,
          "midi": 65,
          "name": "F4",
          "ticks": 20400,
          "time": 21.25,
          "velocity": 0.6299212598425197
        },
        {
          "duration": 0.12395833333333428,
          "durationTicks": 119,
          "midi": 67,
          "name": "G4",
          "ticks": 20520,
          "time": 21.375,
          "velocity": 0.6299212598425197
        },
        {
          "duration": 0.12395833333333428,
          "durationTicks": 119,
          "midi": 63,
          "name": "D#4",
          "ticks": 20640,
          "time": 21.5,
          "velocity": 0.6299212598425197
        },
        {
          "duration": 0.12395833333333428,
          "durationTicks": 119,
          "midi": 67,
          "name": "G4",
          "ticks": 20760,
          "time": 21.625,
          "velocity": 0.6299212598425197
        },
        {
          "duration": 0.12395833333333428,
          "durationTicks": 119,
          "midi": 65,
          "name": "F4",
          "ticks": 20880,
          "time": 21.75,
          "velocity": 0.6299212598425197
        },
        {
          "duration": 0.12395833333333428,
          "durationTicks": 119,
          "midi": 67,
          "name": "G4",
          "ticks": 21000,
          "time": 21.875,
          "velocity": 0.6299212598425197
        },
        {
          "duration": 0.12395833333333428,
          "durationTicks": 119,
          "midi": 68,
          "name": "G#4",
          "ticks": 21120,
          "time": 22,
          "velocity": 0.6299212598425197
        },
        {
          "duration": 0.12395833333333428,
          "durationTicks": 119,
          "midi": 67,
          "name": "G4",
          "ticks": 21240,
          "time": 22.125,
          "velocity": 0.6299212598425197
        },
        {
          "duration": 0.12395833333333428,
          "durationTicks": 119,
          "midi": 65,
          "name": "F4",
          "ticks": 21360,
          "time": 22.25,
          "velocity": 0.6299212598425197
        },
        {
          "duration": 0.12395833333333428,
          "durationTicks": 119,
          "midi": 67,
          "name": "G4",
          "ticks": 21480,
          "time": 22.375,
          "velocity": 0.6299212598425197
        },
        {
          "duration": 0.12395833333333428,
          "durationTicks": 119,
          "midi": 63,
          "name": "D#4",
          "ticks": 21600,
          "time": 22.5,
          "velocity": 0.6299212598425197
        },
        {
          "duration": 0.12395833333333428,
          "durationTicks": 119,
          "midi": 67,
          "name": "G4",
          "ticks": 21720,
          "time": 22.625,
          "velocity": 0.6299212598425197
        },
        {
          "duration": 0.12395833333333428,
          "durationTicks": 119,
          "midi": 65,
          "name": "F4",
          "ticks": 21840,
          "time": 22.75,
          "velocity": 0.6299212598425197
        },
        {
          "duration": 0.12395833333333428,
          "durationTicks": 119,
          "midi": 67,
          "name": "G4",
          "ticks": 21960,
          "time": 22.875,
          "velocity": 0.6299212598425197
        },
        {
          "duration": 0.12395833333333428,
          "durationTicks": 119,
          "midi": 68,
          "name": "G#4",
          "ticks": 22080,
          "time": 23,
          "velocity": 0.6299212598425197
        },
        {
          "duration": 0.12395833333333428,
          "durationTicks": 119,
          "midi": 67,
          "name": "G4",
          "ticks": 22200,
          "time": 23.125,
          "velocity": 0.6299212598425197
        },
        {
          "duration": 0.12395833333333428,
          "durationTicks": 119,
          "midi": 65,
          "name": "F4",
          "ticks": 22320,
          "time": 23.25,
          "velocity": 0.6299212598425197
        },
        {
          "duration": 0.12395833333333428,
          "durationTicks": 119,
          "midi": 67,
          "name": "G4",
          "ticks": 22440,
          "time": 23.375,
          "velocity": 0.6299212598425197
        },
        {
          "duration": 0.12395833333333428,
          "durationTicks": 119,
          "midi": 63,
          "name": "D#4",
          "ticks": 22560,
          "time": 23.5,
          "velocity": 0.6299212598425197
        },
        {
          "duration": 0.12395833333333428,
          "durationTicks": 119,
          "midi": 67,
          "name": "G4",
          "ticks": 22680,
          "time": 23.625,
          "velocity": 0.6299212598425197
        },
        {
          "duration": 0.12395833333333428,
          "durationTicks": 119,
          "midi": 65,
          "name": "F4",
          "ticks": 22800,
          "time": 23.75,
          "velocity": 0.6299212598425197
        },
        {
          "duration": 0.12395833333333428,
          "durationTicks": 119,
          "midi": 67,
          "name": "G4",
          "ticks": 22920,
          "time": 23.875,
          "velocity": 0.6299212598425197
        },
        {
          "duration": 0.12395833333333428,
          "durationTicks": 119,
          "midi": 68,
          "name": "G#4",
          "ticks": 23040,
          "time": 24,
          "velocity": 0.6299212598425197
        },
        {
          "duration": 0.12395833333333428,
          "durationTicks": 119,
          "midi": 62,
          "name": "D4",
          "ticks": 23160,
          "time": 24.125,
          "velocity": 0.6299212598425197
        },
        {
          "duration": 0.12395833333333428,
          "durationTicks": 119,
          "midi": 60,
          "name": "C4",
          "ticks": 23280,
          "time": 24.25,
          "velocity": 0.6299212598425197
        },
        {
          "duration": 0.12395833333333428,
          "durationTicks": 119,
          "midi": 62,
          "name": "D4",
          "ticks": 23400,
          "time": 24.375,
          "velocity": 0.6299212598425197
        },
        {
          "duration": 0.12395833333333428,
          "durationTicks": 119,
          "midi": 58,
          "name": "A#3",
          "ticks": 23520,
          "time": 24.5,
          "velocity": 0.6299212598425197
        },
        {
          "duration": 0.12395833333333428,
          "durationTicks": 119,
          "midi": 62,
          "name": "D4",
          "ticks": 23640,
          "time": 24.625,
          "velocity": 0.6299212598425197
        },
        {
          "duration": 0.12395833333333428,
          "durationTicks": 119,
          "midi": 60,
          "name": "C4",
          "ticks": 23760,
          "time": 24.75,
          "velocity": 0.6299212598425197
        },
        {
          "duration": 0.12395833333333428,
          "durationTicks": 119,
          "midi": 62,
          "name": "D4",
          "ticks": 23880,
          "time": 24.875,
          "velocity": 0.6299212598425197
        },
        {
          "duration": 0.12395833333333428,
          "durationTicks": 119,
          "midi": 68,
          "name": "G#4",
          "ticks": 24000,
          "time": 25,
          "velocity": 0.6299212598425197
        },
        {
          "duration": 0.12395833333333428,
          "durationTicks": 119,
          "midi": 62,
          "name": "D4",
          "ticks": 24120,
          "time": 25.125,
          "velocity": 0.6299212598425197
        },
        {
          "duration": 0.12395833333333428,
          "durationTicks": 119,
          "midi": 60,
          "name": "C4",
          "ticks": 24240,
          "time": 25.25,
          "velocity": 0.6299212598425197
        },
        {
          "duration": 0.12395833333333428,
          "durationTicks": 119,
          "midi": 62,
          "name": "D4",
          "ticks": 24360,
          "time": 25.375,
          "velocity": 0.6299212598425197
        },
        {
          "duration": 0.12395833333333428,
          "durationTicks": 119,
          "midi": 58,
          "name": "A#3",
          "ticks": 24480,
          "time": 25.5,
          "velocity": 0.6299212598425197
        },
        {
          "duration": 0.12395833333333428,
          "durationTicks": 119,
          "midi": 62,
          "name": "D4",
          "ticks": 24600,
          "time": 25.625,
          "velocity": 0.6299212598425197
        },
        {
          "duration": 0.12395833333333428,
          "durationTicks": 119,
          "midi": 60,
          "name": "C4",
          "ticks": 24720,
          "time": 25.75,
          "velocity": 0.6299212598425197
        },
        {
          "duration": 0.12395833333333428,
          "durationTicks": 119,
          "midi": 62,
          "name": "D4",
          "ticks": 24840,
          "time": 25.875,
          "velocity": 0.6299212598425197
        },
        {
          "duration": 0.12395833333333428,
          "durationTicks": 119,
          "midi": 67,
          "name": "G4",
          "ticks": 24960,
          "time": 26,
          "velocity": 0.6299212598425197
        },
        {
          "duration": 0.12395833333333428,
          "durationTicks": 119,
          "midi": 58,
          "name": "A#3",
          "ticks": 25080,
          "time": 26.125,
          "velocity": 0.6299212598425197
        },
        {
          "duration": 0.12395833333333428,
          "durationTicks": 119,
          "midi": 56,
          "name": "G#3",
          "ticks": 25200,
          "time": 26.25,
          "velocity": 0.6299212598425197
        },
        {
          "duration": 0.12395833333333428,
          "durationTicks": 119,
          "midi": 58,
          "name": "A#3",
          "ticks": 25320,
          "time": 26.375,
          "velocity": 0.6299212598425197
        },
        {
          "duration": 0.12395833333333428,
          "durationTicks": 119,
          "midi": 63,
          "name": "D#4",
          "ticks": 25440,
          "time": 26.5,
          "velocity": 0.6299212598425197
        },
        {
          "duration": 0.12395833333333428,
          "durationTicks": 119,
          "midi": 58,
          "name": "A#3",
          "ticks": 25560,
          "time": 26.625,
          "velocity": 0.6299212598425197
        },
        {
          "duration": 0.12395833333333428,
          "durationTicks": 119,
          "midi": 56,
          "name": "G#3",
          "ticks": 25680,
          "time": 26.75,
          "velocity": 0.6299212598425197
        },
        {
          "duration": 0.12395833333333428,
          "durationTicks": 119,
          "midi": 58,
          "name": "A#3",
          "ticks": 25800,
          "time": 26.875,
          "velocity": 0.6299212598425197
        },
        {
          "duration": 0.12395833333333428,
          "durationTicks": 119,
          "midi": 67,
          "name": "G4",
          "ticks": 25920,
          "time": 27,
          "velocity": 0.6299212598425197
        },
        {
          "duration": 0.12395833333333428,
          "durationTicks": 119,
          "midi": 58,
          "name": "A#3",
          "ticks": 26040,
          "time": 27.125,
          "velocity": 0.6299212598425197
        },
        {
          "duration": 0.12395833333333428,
          "durationTicks": 119,
          "midi": 56,
          "name": "G#3",
          "ticks": 26160,
          "time": 27.25,
          "velocity": 0.6299212598425197
        },
        {
          "duration": 0.12395833333333428,
          "durationTicks": 119,
          "midi": 58,
          "name": "A#3",
          "ticks": 26280,
          "time": 27.375,
          "velocity": 0.6299212598425197
        },
        {
          "duration": 0.12395833333333428,
          "durationTicks": 119,
          "midi": 63,
          "name": "D#4",
          "ticks": 26400,
          "time": 27.5,
          "velocity": 0.6299212598425197
        },
        {
          "duration": 0.12395833333333428,
          "durationTicks": 119,
          "midi": 58,
          "name": "A#3",
          "ticks": 26520,
          "time": 27.625,
          "velocity": 0.6299212598425197
        },
        {
          "duration": 0.12395833333333428,
          "durationTicks": 119,
          "midi": 56,
          "name": "G#3",
          "ticks": 26640,
          "time": 27.75,
          "velocity": 0.6299212598425197
        },
        {
          "duration": 0.12395833333333428,
          "durationTicks": 119,
          "midi": 58,
          "name": "A#3",
          "ticks": 26760,
          "time": 27.875,
          "velocity": 0.6299212598425197
        },
        {
          "duration": 0.12395833333333428,
          "durationTicks": 119,
          "midi": 65,
          "name": "F4",
          "ticks": 26880,
          "time": 28,
          "velocity": 0.6299212598425197
        },
        {
          "duration": 0.12395833333333428,
          "durationTicks": 119,
          "midi": 60,
          "name": "C4",
          "ticks": 27000,
          "time": 28.125,
          "velocity": 0.6299212598425197
        },
        {
          "duration": 0.12395833333333428,
          "durationTicks": 119,
          "midi": 58,
          "name": "A#3",
          "ticks": 27120,
          "time": 28.25,
          "velocity": 0.6299212598425197
        },
        {
          "duration": 0.12395833333333428,
          "durationTicks": 119,
          "midi": 60,
          "name": "C4",
          "ticks": 27240,
          "time": 28.375,
          "velocity": 0.6299212598425197
        },
        {
          "duration": 0.12395833333333428,
          "durationTicks": 119,
          "midi": 57,
          "name": "A3",
          "ticks": 27360,
          "time": 28.5,
          "velocity": 0.6299212598425197
        },
        {
          "duration": 0.12395833333333428,
          "durationTicks": 119,
          "midi": 60,
          "name": "C4",
          "ticks": 27480,
          "time": 28.625,
          "velocity": 0.6299212598425197
        },
        {
          "duration": 0.12395833333333428,
          "durationTicks": 119,
          "midi": 58,
          "name": "A#3",
          "ticks": 27600,
          "time": 28.75,
          "velocity": 0.6299212598425197
        },
        {
          "duration": 0.12395833333333428,
          "durationTicks": 119,
          "midi": 60,
          "name": "C4",
          "ticks": 27720,
          "time": 28.875,
          "velocity": 0.6299212598425197
        },
        {
          "duration": 0.12395833333333428,
          "durationTicks": 119,
          "midi": 65,
          "name": "F4",
          "ticks": 27840,
          "time": 29,
          "velocity": 0.6299212598425197
        },
        {
          "duration": 0.12395833333333428,
          "durationTicks": 119,
          "midi": 60,
          "name": "C4",
          "ticks": 27960,
          "time": 29.125,
          "velocity": 0.6299212598425197
        },
        {
          "duration": 0.12395833333333428,
          "durationTicks": 119,
          "midi": 58,
          "name": "A#3",
          "ticks": 28080,
          "time": 29.25,
          "velocity": 0.6299212598425197
        },
        {
          "duration": 0.12395833333333428,
          "durationTicks": 119,
          "midi": 60,
          "name": "C4",
          "ticks": 28200,
          "time": 29.375,
          "velocity": 0.6299212598425197
        },
        {
          "duration": 0.12395833333333428,
          "durationTicks": 119,
          "midi": 57,
          "name": "A3",
          "ticks": 28320,
          "time": 29.5,
          "velocity": 0.6299212598425197
        },
        {
          "duration": 0.12395833333333428,
          "durationTicks": 119,
          "midi": 60,
          "name": "C4",
          "ticks": 28440,
          "time": 29.625,
          "velocity": 0.6299212598425197
        },
        {
          "duration": 0.12395833333333428,
          "durationTicks": 119,
          "midi": 58,
          "name": "A#3",
          "ticks": 28560,
          "time": 29.75,
          "velocity": 0.6299212598425197
        },
        {
          "duration": 0.12395833333333428,
          "durationTicks": 119,
          "midi": 60,
          "name": "C4",
          "ticks": 28680,
          "time": 29.875,
          "velocity": 0.6299212598425197
        },
        {
          "duration": 0.12395833333333428,
          "durationTicks": 119,
          "midi": 65,
          "name": "F4",
          "ticks": 28800,
          "time": 30,
          "velocity": 0.6299212598425197
        },
        {
          "duration": 0.12395833333333428,
          "durationTicks": 119,
          "midi": 62,
          "name": "D4",
          "ticks": 28920,
          "time": 30.125,
          "velocity": 0.6299212598425197
        },
        {
          "duration": 0.12395833333333428,
          "durationTicks": 119,
          "midi": 60,
          "name": "C4",
          "ticks": 29040,
          "time": 30.25,
          "velocity": 0.6299212598425197
        },
        {
          "duration": 0.12395833333333428,
          "durationTicks": 119,
          "midi": 62,
          "name": "D4",
          "ticks": 29160,
          "time": 30.375,
          "velocity": 0.6299212598425197
        },
        {
          "duration": 0.12395833333333428,
          "durationTicks": 119,
          "midi": 59,
          "name": "B3",
          "ticks": 29280,
          "time": 30.5,
          "velocity": 0.6299212598425197
        },
        {
          "duration": 0.12395833333333428,
          "durationTicks": 119,
          "midi": 62,
          "name": "D4",
          "ticks": 29400,
          "time": 30.625,
          "velocity": 0.6299212598425197
        },
        {
          "duration": 0.12395833333333428,
          "durationTicks": 119,
          "midi": 60,
          "name": "C4",
          "ticks": 29520,
          "time": 30.75,
          "velocity": 0.6299212598425197
        },
        {
          "duration": 0.12395833333333428,
          "durationTicks": 119,
          "midi": 62,
          "name": "D4",
          "ticks": 29640,
          "time": 30.875,
          "velocity": 0.6299212598425197
        },
        {
          "duration": 0.12395833333333428,
          "durationTicks": 119,
          "midi": 65,
          "name": "F4",
          "ticks": 29760,
          "time": 31,
          "velocity": 0.6299212598425197
        },
        {
          "duration": 0.12395833333333428,
          "durationTicks": 119,
          "midi": 62,
          "name": "D4",
          "ticks": 29880,
          "time": 31.125,
          "velocity": 0.6299212598425197
        },
        {
          "duration": 0.12395833333333428,
          "durationTicks": 119,
          "midi": 60,
          "name": "C4",
          "ticks": 30000,
          "time": 31.25,
          "velocity": 0.6299212598425197
        },
        {
          "duration": 0.12395833333333428,
          "durationTicks": 119,
          "midi": 62,
          "name": "D4",
          "ticks": 30120,
          "time": 31.375,
          "velocity": 0.6299212598425197
        },
        {
          "duration": 0.12395833333333428,
          "durationTicks": 119,
          "midi": 59,
          "name": "B3",
          "ticks": 30240,
          "time": 31.5,
          "velocity": 0.6299212598425197
        },
        {
          "duration": 0.12395833333333428,
          "durationTicks": 119,
          "midi": 62,
          "name": "D4",
          "ticks": 30360,
          "time": 31.625,
          "velocity": 0.6299212598425197
        },
        {
          "duration": 0.12395833333333428,
          "durationTicks": 119,
          "midi": 60,
          "name": "C4",
          "ticks": 30480,
          "time": 31.75,
          "velocity": 0.6299212598425197
        },
        {
          "duration": 0.12395833333333428,
          "durationTicks": 119,
          "midi": 62,
          "name": "D4",
          "ticks": 30600,
          "time": 31.875,
          "velocity": 0.6299212598425197
        },
        {
          "duration": 0.12395833333333428,
          "durationTicks": 119,
          "midi": 65,
          "name": "F4",
          "ticks": 30720,
          "time": 32,
          "velocity": 0.6299212598425197
        },
        {
          "duration": 0.12395833333333428,
          "durationTicks": 119,
          "midi": 62,
          "name": "D4",
          "ticks": 30840,
          "time": 32.125,
          "velocity": 0.6299212598425197
        },
        {
          "duration": 0.12395833333333428,
          "durationTicks": 119,
          "midi": 60,
          "name": "C4",
          "ticks": 30960,
          "time": 32.25,
          "velocity": 0.6299212598425197
        },
        {
          "duration": 0.12395833333333428,
          "durationTicks": 119,
          "midi": 62,
          "name": "D4",
          "ticks": 31080,
          "time": 32.375,
          "velocity": 0.6299212598425197
        },
        {
          "duration": 0.12395833333333428,
          "durationTicks": 119,
          "midi": 59,
          "name": "B3",
          "ticks": 31200,
          "time": 32.5,
          "velocity": 0.6299212598425197
        },
        {
          "duration": 0.12395833333333428,
          "durationTicks": 119,
          "midi": 62,
          "name": "D4",
          "ticks": 31320,
          "time": 32.625,
          "velocity": 0.6299212598425197
        },
        {
          "duration": 0.12395833333333428,
          "durationTicks": 119,
          "midi": 60,
          "name": "C4",
          "ticks": 31440,
          "time": 32.75,
          "velocity": 0.6299212598425197
        },
        {
          "duration": 0.12395833333333428,
          "durationTicks": 119,
          "midi": 62,
          "name": "D4",
          "ticks": 31560,
          "time": 32.875,
          "velocity": 0.6299212598425197
        },
        {
          "duration": 0.12395833333333428,
          "durationTicks": 119,
          "midi": 65,
          "name": "F4",
          "ticks": 31680,
          "time": 33,
          "velocity": 0.6299212598425197
        },
        {
          "duration": 0.12395833333333428,
          "durationTicks": 119,
          "midi": 62,
          "name": "D4",
          "ticks": 31800,
          "time": 33.125,
          "velocity": 0.6299212598425197
        },
        {
          "duration": 0.12395833333333428,
          "durationTicks": 119,
          "midi": 60,
          "name": "C4",
          "ticks": 31920,
          "time": 33.25,
          "velocity": 0.6299212598425197
        },
        {
          "duration": 0.12395833333333428,
          "durationTicks": 119,
          "midi": 62,
          "name": "D4",
          "ticks": 32040,
          "time": 33.375,
          "velocity": 0.6299212598425197
        },
        {
          "duration": 0.12395833333333428,
          "durationTicks": 119,
          "midi": 59,
          "name": "B3",
          "ticks": 32160,
          "time": 33.5,
          "velocity": 0.6299212598425197
        },
        {
          "duration": 0.12395833333333428,
          "durationTicks": 119,
          "midi": 62,
          "name": "D4",
          "ticks": 32280,
          "time": 33.625,
          "velocity": 0.6299212598425197
        },
        {
          "duration": 0.12395833333333428,
          "durationTicks": 119,
          "midi": 60,
          "name": "C4",
          "ticks": 32400,
          "time": 33.75,
          "velocity": 0.6299212598425197
        },
        {
          "duration": 0.12395833333333428,
          "durationTicks": 119,
          "midi": 62,
          "name": "D4",
          "ticks": 32520,
          "time": 33.875,
          "velocity": 0.6299212598425197
        },
        {
          "duration": 0.12395833333333428,
          "durationTicks": 119,
          "midi": 63,
          "name": "D#4",
          "ticks": 32640,
          "time": 34,
          "velocity": 0.6299212598425197
        },
        {
          "duration": 0.12395833333333428,
          "durationTicks": 119,
          "midi": 60,
          "name": "C4",
          "ticks": 32760,
          "time": 34.125,
          "velocity": 0.6299212598425197
        },
        {
          "duration": 0.12395833333333428,
          "durationTicks": 119,
          "midi": 59,
          "name": "B3",
          "ticks": 32880,
          "time": 34.25,
          "velocity": 0.6299212598425197
        },
        {
          "duration": 0.12395833333333428,
          "durationTicks": 119,
          "midi": 60,
          "name": "C4",
          "ticks": 33000,
          "time": 34.375,
          "velocity": 0.6299212598425197
        },
        {
          "duration": 0.12395833333333428,
          "durationTicks": 119,
          "midi": 55,
          "name": "G3",
          "ticks": 33120,
          "time": 34.5,
          "velocity": 0.6299212598425197
        },
        {
          "duration": 0.12395833333333428,
          "durationTicks": 119,
          "midi": 60,
          "name": "C4",
          "ticks": 33240,
          "time": 34.625,
          "velocity": 0.6299212598425197
        },
        {
          "duration": 0.12395833333333428,
          "durationTicks": 119,
          "midi": 59,
          "name": "B3",
          "ticks": 33360,
          "time": 34.75,
          "velocity": 0.6299212598425197
        },
        {
          "duration": 0.12395833333333428,
          "durationTicks": 119,
          "midi": 60,
          "name": "C4",
          "ticks": 33480,
          "time": 34.875,
          "velocity": 0.6299212598425197
        },
        {
          "duration": 0.12395833333333428,
          "durationTicks": 119,
          "midi": 63,
          "name": "D#4",
          "ticks": 33600,
          "time": 35,
          "velocity": 0.6299212598425197
        },
        {
          "duration": 0.12395833333333428,
          "durationTicks": 119,
          "midi": 60,
          "name": "C4",
          "ticks": 33720,
          "time": 35.125,
          "velocity": 0.6299212598425197
        },
        {
          "duration": 0.12395833333333428,
          "durationTicks": 119,
          "midi": 59,
          "name": "B3",
          "ticks": 33840,
          "time": 35.25,
          "velocity": 0.6299212598425197
        },
        {
          "duration": 0.12395833333333428,
          "durationTicks": 119,
          "midi": 60,
          "name": "C4",
          "ticks": 33960,
          "time": 35.375,
          "velocity": 0.6299212598425197
        },
        {
          "duration": 0.12395833333333428,
          "durationTicks": 119,
          "midi": 55,
          "name": "G3",
          "ticks": 34080,
          "time": 35.5,
          "velocity": 0.6299212598425197
        },
        {
          "duration": 0.12395833333333428,
          "durationTicks": 119,
          "midi": 60,
          "name": "C4",
          "ticks": 34200,
          "time": 35.625,
          "velocity": 0.6299212598425197
        },
        {
          "duration": 0.12395833333333428,
          "durationTicks": 119,
          "midi": 59,
          "name": "B3",
          "ticks": 34320,
          "time": 35.75,
          "velocity": 0.6299212598425197
        },
        {
          "duration": 0.12395833333333428,
          "durationTicks": 119,
          "midi": 60,
          "name": "C4",
          "ticks": 34440,
          "time": 35.875,
          "velocity": 0.6299212598425197
        },
        {
          "duration": 0.12395833333333428,
          "durationTicks": 119,
          "midi": 53,
          "name": "F3",
          "ticks": 34560,
          "time": 36,
          "velocity": 0.6299212598425197
        },
        {
          "duration": 0.12395833333333428,
          "durationTicks": 119,
          "midi": 63,
          "name": "D#4",
          "ticks": 34680,
          "time": 36.125,
          "velocity": 0.6299212598425197
        },
        {
          "duration": 0.12395833333333428,
          "durationTicks": 119,
          "midi": 62,
          "name": "D4",
          "ticks": 34800,
          "time": 36.25,
          "velocity": 0.6299212598425197
        },
        {
          "duration": 0.12395833333333428,
          "durationTicks": 119,
          "midi": 63,
          "name": "D#4",
          "ticks": 34920,
          "time": 36.375,
          "velocity": 0.6299212598425197
        },
        {
          "duration": 0.12395833333333428,
          "durationTicks": 119,
          "midi": 65,
          "name": "F4",
          "ticks": 35040,
          "time": 36.5,
          "velocity": 0.6299212598425197
        },
        {
          "duration": 0.12395833333333428,
          "durationTicks": 119,
          "midi": 63,
          "name": "D#4",
          "ticks": 35160,
          "time": 36.625,
          "velocity": 0.6299212598425197
        },
        {
          "duration": 0.12395833333333428,
          "durationTicks": 119,
          "midi": 62,
          "name": "D4",
          "ticks": 35280,
          "time": 36.75,
          "velocity": 0.6299212598425197
        },
        {
          "duration": 0.12395833333333428,
          "durationTicks": 119,
          "midi": 63,
          "name": "D#4",
          "ticks": 35400,
          "time": 36.875,
          "velocity": 0.6299212598425197
        },
        {
          "duration": 0.12395833333333428,
          "durationTicks": 119,
          "midi": 53,
          "name": "F3",
          "ticks": 35520,
          "time": 37,
          "velocity": 0.6299212598425197
        },
        {
          "duration": 0.12395833333333428,
          "durationTicks": 119,
          "midi": 63,
          "name": "D#4",
          "ticks": 35640,
          "time": 37.125,
          "velocity": 0.6299212598425197
        },
        {
          "duration": 0.12395833333333428,
          "durationTicks": 119,
          "midi": 62,
          "name": "D4",
          "ticks": 35760,
          "time": 37.25,
          "velocity": 0.6299212598425197
        },
        {
          "duration": 0.12395833333333428,
          "durationTicks": 119,
          "midi": 63,
          "name": "D#4",
          "ticks": 35880,
          "time": 37.375,
          "velocity": 0.6299212598425197
        },
        {
          "duration": 0.12395833333333428,
          "durationTicks": 119,
          "midi": 65,
          "name": "F4",
          "ticks": 36000,
          "time": 37.5,
          "velocity": 0.6299212598425197
        },
        {
          "duration": 0.12395833333333428,
          "durationTicks": 119,
          "midi": 63,
          "name": "D#4",
          "ticks": 36120,
          "time": 37.625,
          "velocity": 0.6299212598425197
        },
        {
          "duration": 0.12395833333333428,
          "durationTicks": 119,
          "midi": 62,
          "name": "D4",
          "ticks": 36240,
          "time": 37.75,
          "velocity": 0.6299212598425197
        },
        {
          "duration": 0.12395833333333428,
          "durationTicks": 119,
          "midi": 63,
          "name": "D#4",
          "ticks": 36360,
          "time": 37.875,
          "velocity": 0.6299212598425197
        },
        {
          "duration": 0.12395833333333428,
          "durationTicks": 119,
          "midi": 54,
          "name": "F#3",
          "ticks": 36480,
          "time": 38,
          "velocity": 0.6299212598425197
        },
        {
          "duration": 0.12395833333333428,
          "durationTicks": 119,
          "midi": 60,
          "name": "C4",
          "ticks": 36600,
          "time": 38.125,
          "velocity": 0.6299212598425197
        },
        {
          "duration": 0.12395833333333428,
          "durationTicks": 119,
          "midi": 59,
          "name": "B3",
          "ticks": 36720,
          "time": 38.25,
          "velocity": 0.6299212598425197
        },
        {
          "duration": 0.12395833333333428,
          "durationTicks": 119,
          "midi": 60,
          "name": "C4",
          "ticks": 36840,
          "time": 38.375,
          "velocity": 0.6299212598425197
        },
        {
          "duration": 0.12395833333333428,
          "durationTicks": 119,
          "midi": 63,
          "name": "D#4",
          "ticks": 36960,
          "time": 38.5,
          "velocity": 0.6299212598425197
        },
        {
          "duration": 0.12395833333333428,
          "durationTicks": 119,
          "midi": 60,
          "name": "C4",
          "ticks": 37080,
          "time": 38.625,
          "velocity": 0.6299212598425197
        },
        {
          "duration": 0.12395833333333428,
          "durationTicks": 119,
          "midi": 59,
          "name": "B3",
          "ticks": 37200,
          "time": 38.75,
          "velocity": 0.6299212598425197
        },
        {
          "duration": 0.12395833333333428,
          "durationTicks": 119,
          "midi": 60,
          "name": "C4",
          "ticks": 37320,
          "time": 38.875,
          "velocity": 0.6299212598425197
        },
        {
          "duration": 0.12395833333333428,
          "durationTicks": 119,
          "midi": 54,
          "name": "F#3",
          "ticks": 37440,
          "time": 39,
          "velocity": 0.6299212598425197
        },
        {
          "duration": 0.12395833333333428,
          "durationTicks": 119,
          "midi": 60,
          "name": "C4",
          "ticks": 37560,
          "time": 39.125,
          "velocity": 0.6299212598425197
        },
        {
          "duration": 0.12395833333333428,
          "durationTicks": 119,
          "midi": 59,
          "name": "B3",
          "ticks": 37680,
          "time": 39.25,
          "velocity": 0.6299212598425197
        },
        {
          "duration": 0.12395833333333428,
          "durationTicks": 119,
          "midi": 60,
          "name": "C4",
          "ticks": 37800,
          "time": 39.375,
          "velocity": 0.6299212598425197
        },
        {
          "duration": 0.12395833333333428,
          "durationTicks": 119,
          "midi": 63,
          "name": "D#4",
          "ticks": 37920,
          "time": 39.5,
          "velocity": 0.6299212598425197
        },
        {
          "duration": 0.12395833333333428,
          "durationTicks": 119,
          "midi": 60,
          "name": "C4",
          "ticks": 38040,
          "time": 39.625,
          "velocity": 0.6299212598425197
        },
        {
          "duration": 0.12395833333333428,
          "durationTicks": 119,
          "midi": 59,
          "name": "B3",
          "ticks": 38160,
          "time": 39.75,
          "velocity": 0.6299212598425197
        },
        {
          "duration": 0.12395833333333428,
          "durationTicks": 119,
          "midi": 60,
          "name": "C4",
          "ticks": 38280,
          "time": 39.875,
          "velocity": 0.6299212598425197
        },
        {
          "duration": 0.12395833333333428,
          "durationTicks": 119,
          "midi": 63,
          "name": "D#4",
          "ticks": 38400,
          "time": 40,
          "velocity": 0.6299212598425197
        },
        {
          "duration": 0.12395833333333428,
          "durationTicks": 119,
          "midi": 60,
          "name": "C4",
          "ticks": 38520,
          "time": 40.125,
          "velocity": 0.6299212598425197
        },
        {
          "duration": 0.12395833333333428,
          "durationTicks": 119,
          "midi": 59,
          "name": "B3",
          "ticks": 38640,
          "time": 40.25,
          "velocity": 0.6299212598425197
        },
        {
          "duration": 0.12395833333333428,
          "durationTicks": 119,
          "midi": 60,
          "name": "C4",
          "ticks": 38760,
          "time": 40.375,
          "velocity": 0.6299212598425197
        },
        {
          "duration": 0.12395833333333428,
          "durationTicks": 119,
          "midi": 55,
          "name": "G3",
          "ticks": 38880,
          "time": 40.5,
          "velocity": 0.6299212598425197
        },
        {
          "duration": 0.12395833333333428,
          "durationTicks": 119,
          "midi": 60,
          "name": "C4",
          "ticks": 39000,
          "time": 40.625,
          "velocity": 0.6299212598425197
        },
        {
          "duration": 0.12395833333333428,
          "durationTicks": 119,
          "midi": 59,
          "name": "B3",
          "ticks": 39120,
          "time": 40.75,
          "velocity": 0.6299212598425197
        },
        {
          "duration": 0.12395833333333428,
          "durationTicks": 119,
          "midi": 60,
          "name": "C4",
          "ticks": 39240,
          "time": 40.875,
          "velocity": 0.6299212598425197
        },
        {
          "duration": 0.12395833333333428,
          "durationTicks": 119,
          "midi": 63,
          "name": "D#4",
          "ticks": 39360,
          "time": 41,
          "velocity": 0.6299212598425197
        },
        {
          "duration": 0.12395833333333428,
          "durationTicks": 119,
          "midi": 60,
          "name": "C4",
          "ticks": 39480,
          "time": 41.125,
          "velocity": 0.6299212598425197
        },
        {
          "duration": 0.12395833333333428,
          "durationTicks": 119,
          "midi": 59,
          "name": "B3",
          "ticks": 39600,
          "time": 41.25,
          "velocity": 0.6299212598425197
        },
        {
          "duration": 0.12395833333333428,
          "durationTicks": 119,
          "midi": 60,
          "name": "C4",
          "ticks": 39720,
          "time": 41.375,
          "velocity": 0.6299212598425197
        },
        {
          "duration": 0.12395833333333428,
          "durationTicks": 119,
          "midi": 55,
          "name": "G3",
          "ticks": 39840,
          "time": 41.5,
          "velocity": 0.6299212598425197
        },
        {
          "duration": 0.12395833333333428,
          "durationTicks": 119,
          "midi": 60,
          "name": "C4",
          "ticks": 39960,
          "time": 41.625,
          "velocity": 0.6299212598425197
        },
        {
          "duration": 0.12395833333333428,
          "durationTicks": 119,
          "midi": 59,
          "name": "B3",
          "ticks": 40080,
          "time": 41.75,
          "velocity": 0.6299212598425197
        },
        {
          "duration": 0.12395833333333428,
          "durationTicks": 119,
          "midi": 60,
          "name": "C4",
          "ticks": 40200,
          "time": 41.875,
          "velocity": 0.6299212598425197
        },
        {
          "duration": 0.12395833333333428,
          "durationTicks": 119,
          "midi": 66,
          "name": "F#4",
          "ticks": 40320,
          "time": 42,
          "velocity": 0.6299212598425197
        },
        {
          "duration": 0.12395833333333428,
          "durationTicks": 119,
          "midi": 60,
          "name": "C4",
          "ticks": 40440,
          "time": 42.125,
          "velocity": 0.6299212598425197
        },
        {
          "duration": 0.12395833333333428,
          "durationTicks": 119,
          "midi": 59,
          "name": "B3",
          "ticks": 40560,
          "time": 42.25,
          "velocity": 0.6299212598425197
        },
        {
          "duration": 0.12395833333333428,
          "durationTicks": 119,
          "midi": 60,
          "name": "C4",
          "ticks": 40680,
          "time": 42.375,
          "velocity": 0.6299212598425197
        },
        {
          "duration": 0.12395833333333428,
          "durationTicks": 119,
          "midi": 57,
          "name": "A3",
          "ticks": 40800,
          "time": 42.5,
          "velocity": 0.6299212598425197
        },
        {
          "duration": 0.12395833333333428,
          "durationTicks": 119,
          "midi": 60,
          "name": "C4",
          "ticks": 40920,
          "time": 42.625,
          "velocity": 0.6299212598425197
        },
        {
          "duration": 0.12395833333333428,
          "durationTicks": 119,
          "midi": 59,
          "name": "B3",
          "ticks": 41040,
          "time": 42.75,
          "velocity": 0.6299212598425197
        },
        {
          "duration": 0.12395833333333428,
          "durationTicks": 119,
          "midi": 60,
          "name": "C4",
          "ticks": 41160,
          "time": 42.875,
          "velocity": 0.6299212598425197
        },
        {
          "duration": 0.12395833333333428,
          "durationTicks": 119,
          "midi": 66,
          "name": "F#4",
          "ticks": 41280,
          "time": 43,
          "velocity": 0.6299212598425197
        },
        {
          "duration": 0.12395833333333428,
          "durationTicks": 119,
          "midi": 60,
          "name": "C4",
          "ticks": 41400,
          "time": 43.125,
          "velocity": 0.6299212598425197
        },
        {
          "duration": 0.12395833333333428,
          "durationTicks": 119,
          "midi": 59,
          "name": "B3",
          "ticks": 41520,
          "time": 43.25,
          "velocity": 0.6299212598425197
        },
        {
          "duration": 0.12395833333333428,
          "durationTicks": 119,
          "midi": 60,
          "name": "C4",
          "ticks": 41640,
          "time": 43.375,
          "velocity": 0.6299212598425197
        },
        {
          "duration": 0.12395833333333428,
          "durationTicks": 119,
          "midi": 57,
          "name": "A3",
          "ticks": 41760,
          "time": 43.5,
          "velocity": 0.6299212598425197
        },
        {
          "duration": 0.12395833333333428,
          "durationTicks": 119,
          "midi": 60,
          "name": "C4",
          "ticks": 41880,
          "time": 43.625,
          "velocity": 0.6299212598425197
        },
        {
          "duration": 0.12395833333333428,
          "durationTicks": 119,
          "midi": 59,
          "name": "B3",
          "ticks": 42000,
          "time": 43.75,
          "velocity": 0.6299212598425197
        },
        {
          "duration": 0.12395833333333428,
          "durationTicks": 119,
          "midi": 60,
          "name": "C4",
          "ticks": 42120,
          "time": 43.875,
          "velocity": 0.6299212598425197
        },
        {
          "duration": 0.12395833333333428,
          "durationTicks": 119,
          "midi": 67,
          "name": "G4",
          "ticks": 42240,
          "time": 44,
          "velocity": 0.6299212598425197
        },
        {
          "duration": 0.12395833333333428,
          "durationTicks": 119,
          "midi": 60,
          "name": "C4",
          "ticks": 42360,
          "time": 44.125,
          "velocity": 0.6299212598425197
        },
        {
          "duration": 0.12395833333333428,
          "durationTicks": 119,
          "midi": 59,
          "name": "B3",
          "ticks": 42480,
          "time": 44.25,
          "velocity": 0.6299212598425197
        },
        {
          "duration": 0.12395833333333428,
          "durationTicks": 119,
          "midi": 60,
          "name": "C4",
          "ticks": 42600,
          "time": 44.375,
          "velocity": 0.6299212598425197
        },
        {
          "duration": 0.12395833333333428,
          "durationTicks": 119,
          "midi": 62,
          "name": "D4",
          "ticks": 42720,
          "time": 44.5,
          "velocity": 0.6299212598425197
        },
        {
          "duration": 0.12395833333333428,
          "durationTicks": 119,
          "midi": 60,
          "name": "C4",
          "ticks": 42840,
          "time": 44.625,
          "velocity": 0.6299212598425197
        },
        {
          "duration": 0.12395833333333428,
          "durationTicks": 119,
          "midi": 59,
          "name": "B3",
          "ticks": 42960,
          "time": 44.75,
          "velocity": 0.6299212598425197
        },
        {
          "duration": 0.12395833333333428,
          "durationTicks": 119,
          "midi": 60,
          "name": "C4",
          "ticks": 43080,
          "time": 44.875,
          "velocity": 0.6299212598425197
        },
        {
          "duration": 0.12395833333333428,
          "durationTicks": 119,
          "midi": 67,
          "name": "G4",
          "ticks": 43200,
          "time": 45,
          "velocity": 0.6299212598425197
        },
        {
          "duration": 0.12395833333333428,
          "durationTicks": 119,
          "midi": 60,
          "name": "C4",
          "ticks": 43320,
          "time": 45.125,
          "velocity": 0.6299212598425197
        },
        {
          "duration": 0.12395833333333428,
          "durationTicks": 119,
          "midi": 59,
          "name": "B3",
          "ticks": 43440,
          "time": 45.25,
          "velocity": 0.6299212598425197
        },
        {
          "duration": 0.12395833333333428,
          "durationTicks": 119,
          "midi": 60,
          "name": "C4",
          "ticks": 43560,
          "time": 45.375,
          "velocity": 0.6299212598425197
        },
        {
          "duration": 0.12395833333333428,
          "durationTicks": 119,
          "midi": 62,
          "name": "D4",
          "ticks": 43680,
          "time": 45.5,
          "velocity": 0.6299212598425197
        },
        {
          "duration": 0.12395833333333428,
          "durationTicks": 119,
          "midi": 60,
          "name": "C4",
          "ticks": 43800,
          "time": 45.625,
          "velocity": 0.6299212598425197
        },
        {
          "duration": 0.12395833333333428,
          "durationTicks": 119,
          "midi": 59,
          "name": "B3",
          "ticks": 43920,
          "time": 45.75,
          "velocity": 0.6299212598425197
        },
        {
          "duration": 0.12395833333333428,
          "durationTicks": 119,
          "midi": 60,
          "name": "C4",
          "ticks": 44040,
          "time": 45.875,
          "velocity": 0.6299212598425197
        },
        {
          "duration": 0.12395833333333428,
          "durationTicks": 119,
          "midi": 68,
          "name": "G#4",
          "ticks": 44160,
          "time": 46,
          "velocity": 0.6299212598425197
        },
        {
          "duration": 0.12395833333333428,
          "durationTicks": 119,
          "midi": 60,
          "name": "C4",
          "ticks": 44280,
          "time": 46.125,
          "velocity": 0.6299212598425197
        },
        {
          "duration": 0.12395833333333428,
          "durationTicks": 119,
          "midi": 59,
          "name": "B3",
          "ticks": 44400,
          "time": 46.25,
          "velocity": 0.6299212598425197
        },
        {
          "duration": 0.12395833333333428,
          "durationTicks": 119,
          "midi": 60,
          "name": "C4",
          "ticks": 44520,
          "time": 46.375,
          "velocity": 0.6299212598425197
        },
        {
          "duration": 0.12395833333333428,
          "durationTicks": 119,
          "midi": 62,
          "name": "D4",
          "ticks": 44640,
          "time": 46.5,
          "velocity": 0.6299212598425197
        },
        {
          "duration": 0.12395833333333428,
          "durationTicks": 119,
          "midi": 60,
          "name": "C4",
          "ticks": 44760,
          "time": 46.625,
          "velocity": 0.6299212598425197
        },
        {
          "duration": 0.12395833333333428,
          "durationTicks": 119,
          "midi": 59,
          "name": "B3",
          "ticks": 44880,
          "time": 46.75,
          "velocity": 0.6299212598425197
        },
        {
          "duration": 0.12395833333333428,
          "durationTicks": 119,
          "midi": 60,
          "name": "C4",
          "ticks": 45000,
          "time": 46.875,
          "velocity": 0.6299212598425197
        },
        {
          "duration": 0.12395833333333428,
          "durationTicks": 119,
          "midi": 68,
          "name": "G#4",
          "ticks": 45120,
          "time": 47,
          "velocity": 0.6299212598425197
        },
        {
          "duration": 0.12395833333333428,
          "durationTicks": 119,
          "midi": 60,
          "name": "C4",
          "ticks": 45240,
          "time": 47.125,
          "velocity": 0.6299212598425197
        },
        {
          "duration": 0.12395833333333428,
          "durationTicks": 119,
          "midi": 59,
          "name": "B3",
          "ticks": 45360,
          "time": 47.25,
          "velocity": 0.6299212598425197
        },
        {
          "duration": 0.12395833333333428,
          "durationTicks": 119,
          "midi": 60,
          "name": "C4",
          "ticks": 45480,
          "time": 47.375,
          "velocity": 0.6299212598425197
        },
        {
          "duration": 0.12395833333333428,
          "durationTicks": 119,
          "midi": 62,
          "name": "D4",
          "ticks": 45600,
          "time": 47.5,
          "velocity": 0.6299212598425197
        },
        {
          "duration": 0.12395833333333428,
          "durationTicks": 119,
          "midi": 60,
          "name": "C4",
          "ticks": 45720,
          "time": 47.625,
          "velocity": 0.6299212598425197
        },
        {
          "duration": 0.12395833333333428,
          "durationTicks": 119,
          "midi": 59,
          "name": "B3",
          "ticks": 45840,
          "time": 47.75,
          "velocity": 0.6299212598425197
        },
        {
          "duration": 0.12395833333333428,
          "durationTicks": 119,
          "midi": 60,
          "name": "C4",
          "ticks": 45960,
          "time": 47.875,
          "velocity": 0.6299212598425197
        },
        {
          "duration": 0.12395833333333428,
          "durationTicks": 119,
          "midi": 53,
          "name": "F3",
          "ticks": 46440,
          "time": 48.375,
          "velocity": 0.6299212598425197
        },
        {
          "duration": 0.12395833333333428,
          "durationTicks": 119,
          "midi": 56,
          "name": "G#3",
          "ticks": 46560,
          "time": 48.5,
          "velocity": 0.6299212598425197
        },
        {
          "duration": 0.12395833333333428,
          "durationTicks": 119,
          "midi": 53,
          "name": "F3",
          "ticks": 46680,
          "time": 48.625,
          "velocity": 0.6299212598425197
        },
        {
          "duration": 0.12395833333333428,
          "durationTicks": 119,
          "midi": 52,
          "name": "E3",
          "ticks": 46800,
          "time": 48.75,
          "velocity": 0.6299212598425197
        },
        {
          "duration": 0.12395833333333428,
          "durationTicks": 119,
          "midi": 53,
          "name": "F3",
          "ticks": 46920,
          "time": 48.875,
          "velocity": 0.6299212598425197
        },
        {
          "duration": 0.12395833333333428,
          "durationTicks": 119,
          "midi": 59,
          "name": "B3",
          "ticks": 47040,
          "time": 49,
          "velocity": 0.6299212598425197
        },
        {
          "duration": 0.12395833333333428,
          "durationTicks": 119,
          "midi": 53,
          "name": "F3",
          "ticks": 47160,
          "time": 49.125,
          "velocity": 0.6299212598425197
        },
        {
          "duration": 0.12395833333333428,
          "durationTicks": 119,
          "midi": 62,
          "name": "D4",
          "ticks": 47280,
          "time": 49.25,
          "velocity": 0.6299212598425197
        },
        {
          "duration": 0.12395833333333428,
          "durationTicks": 119,
          "midi": 59,
          "name": "B3",
          "ticks": 47400,
          "time": 49.375,
          "velocity": 0.6299212598425197
        },
        {
          "duration": 0.12395833333333428,
          "durationTicks": 119,
          "midi": 56,
          "name": "G#3",
          "ticks": 47520,
          "time": 49.5,
          "velocity": 0.6299212598425197
        },
        {
          "duration": 0.12395833333333428,
          "durationTicks": 119,
          "midi": 53,
          "name": "F3",
          "ticks": 47640,
          "time": 49.625,
          "velocity": 0.6299212598425197
        },
        {
          "duration": 0.12395833333333428,
          "durationTicks": 119,
          "midi": 52,
          "name": "E3",
          "ticks": 47760,
          "time": 49.75,
          "velocity": 0.6299212598425197
        },
        {
          "duration": 0.12395833333333428,
          "durationTicks": 119,
          "midi": 53,
          "name": "F3",
          "ticks": 47880,
          "time": 49.875,
          "velocity": 0.6299212598425197
        },
        {
          "duration": 0.12395833333333428,
          "durationTicks": 119,
          "midi": 55,
          "name": "G3",
          "ticks": 48360,
          "time": 50.375,
          "velocity": 0.6299212598425197
        },
        {
          "duration": 0.12395833333333428,
          "durationTicks": 119,
          "midi": 60,
          "name": "C4",
          "ticks": 48480,
          "time": 50.5,
          "velocity": 0.6299212598425197
        },
        {
          "duration": 0.12395833333333428,
          "durationTicks": 119,
          "midi": 55,
          "name": "G3",
          "ticks": 48600,
          "time": 50.625,
          "velocity": 0.6299212598425197
        },
        {
          "duration": 0.12395833333333428,
          "durationTicks": 119,
          "midi": 54,
          "name": "F#3",
          "ticks": 48720,
          "time": 50.75,
          "velocity": 0.6299212598425197
        },
        {
          "duration": 0.12395833333333428,
          "durationTicks": 119,
          "midi": 55,
          "name": "G3",
          "ticks": 48840,
          "time": 50.875,
          "velocity": 0.6299212598425197
        },
        {
          "duration": 0.12395833333333428,
          "durationTicks": 119,
          "midi": 60,
          "name": "C4",
          "ticks": 49440,
          "time": 51.5,
          "velocity": 0.6299212598425197
        },
        {
          "duration": 0.12395833333333428,
          "durationTicks": 119,
          "midi": 56,
          "name": "G#3",
          "ticks": 49560,
          "time": 51.625,
          "velocity": 0.6299212598425197
        },
        {
          "duration": 0.12395833333333428,
          "durationTicks": 119,
          "midi": 55,
          "name": "G3",
          "ticks": 49680,
          "time": 51.75,
          "velocity": 0.6299212598425197
        },
        {
          "duration": 0.12395833333333428,
          "durationTicks": 119,
          "midi": 56,
          "name": "G#3",
          "ticks": 49800,
          "time": 51.875,
          "velocity": 0.6299212598425197
        },
        {
          "duration": 0.12395833333333428,
          "durationTicks": 119,
          "midi": 60,
          "name": "C4",
          "ticks": 50280,
          "time": 52.375,
          "velocity": 0.6299212598425197
        },
        {
          "duration": 0.12395833333333428,
          "durationTicks": 119,
          "midi": 63,
          "name": "D#4",
          "ticks": 50400,
          "time": 52.5,
          "velocity": 0.6299212598425197
        },
        {
          "duration": 0.12395833333333428,
          "durationTicks": 119,
          "midi": 60,
          "name": "C4",
          "ticks": 50520,
          "time": 52.625,
          "velocity": 0.6299212598425197
        },
        {
          "duration": 0.12395833333333428,
          "durationTicks": 119,
          "midi": 59,
          "name": "B3",
          "ticks": 50640,
          "time": 52.75,
          "velocity": 0.6299212598425197
        },
        {
          "duration": 0.12395833333333428,
          "durationTicks": 119,
          "midi": 60,
          "name": "C4",
          "ticks": 50760,
          "time": 52.875,
          "velocity": 0.6299212598425197
        },
        {
          "duration": 0.12395833333333428,
          "durationTicks": 119,
          "midi": 66,
          "name": "F#4",
          "ticks": 50880,
          "time": 53,
          "velocity": 0.6299212598425197
        },
        {
          "duration": 0.12395833333333428,
          "durationTicks": 119,
          "midi": 60,
          "name": "C4",
          "ticks": 51000,
          "time": 53.125,
          "velocity": 0.6299212598425197
        },
        {
          "duration": 0.12395833333333428,
          "durationTicks": 119,
          "midi": 69,
          "name": "A4",
          "ticks": 51120,
          "time": 53.25,
          "velocity": 0.6299212598425197
        },
        {
          "duration": 0.12395833333333428,
          "durationTicks": 119,
          "midi": 66,
          "name": "F#4",
          "ticks": 51240,
          "time": 53.375,
          "velocity": 0.6299212598425197
        },
        {
          "duration": 0.12395833333333428,
          "durationTicks": 119,
          "midi": 63,
          "name": "D#4",
          "ticks": 51360,
          "time": 53.5,
          "velocity": 0.6299212598425197
        },
        {
          "duration": 0.12395833333333428,
          "durationTicks": 119,
          "midi": 60,
          "name": "C4",
          "ticks": 51480,
          "time": 53.625,
          "velocity": 0.6299212598425197
        },
        {
          "duration": 0.12395833333333428,
          "durationTicks": 119,
          "midi": 59,
          "name": "B3",
          "ticks": 51600,
          "time": 53.75,
          "velocity": 0.6299212598425197
        },
        {
          "duration": 0.12395833333333428,
          "durationTicks": 119,
          "midi": 60,
          "name": "C4",
          "ticks": 51720,
          "time": 53.875,
          "velocity": 0.6299212598425197
        },
        {
          "duration": 0.10258618125000396,
          "durationTicks": 119,
          "midi": 74,
          "name": "D5",
          "ticks": 51960,
          "time": 54.10344825,
          "velocity": 0.6299212598425197
        },
        {
          "duration": 0.10258618125000396,
          "durationTicks": 119,
          "midi": 72,
          "name": "C5",
          "ticks": 52080,
          "time": 54.2068965,
          "velocity": 0.6299212598425197
        },
        {
          "duration": 0.10258618125000396,
          "durationTicks": 119,
          "midi": 74,
          "name": "D5",
          "ticks": 52200,
          "time": 54.31034475,
          "velocity": 0.6299212598425197
        },
        {
          "duration": 0.10258618125000396,
          "durationTicks": 119,
          "midi": 75,
          "name": "D#5",
          "ticks": 52320,
          "time": 54.413793,
          "velocity": 0.6299212598425197
        },
        {
          "duration": 0.10258618125000396,
          "durationTicks": 119,
          "midi": 72,
          "name": "C5",
          "ticks": 52440,
          "time": 54.51724125,
          "velocity": 0.6299212598425197
        },
        {
          "duration": 0.10258618125000396,
          "durationTicks": 119,
          "midi": 71,
          "name": "B4",
          "ticks": 52560,
          "time": 54.6206895,
          "velocity": 0.6299212598425197
        },
        {
          "duration": 0.10258618125000396,
          "durationTicks": 119,
          "midi": 72,
          "name": "C5",
          "ticks": 52680,
          "time": 54.72413775,
          "velocity": 0.6299212598425197
        },
        {
          "duration": 0.10258618125000396,
          "durationTicks": 119,
          "midi": 69,
          "name": "A4",
          "ticks": 52800,
          "time": 54.827586,
          "velocity": 0.6299212598425197
        },
        {
          "duration": 0.10258618124999686,
          "durationTicks": 119,
          "midi": 72,
          "name": "C5",
          "ticks": 52920,
          "time": 54.93103425,
          "velocity": 0.6299212598425197
        },
        {
          "duration": 0.10258618124999686,
          "durationTicks": 119,
          "midi": 71,
          "name": "B4",
          "ticks": 53040,
          "time": 55.0344825,
          "velocity": 0.6299212598425197
        },
        {
          "duration": 0.10258618124999686,
          "durationTicks": 119,
          "midi": 72,
          "name": "C5",
          "ticks": 53160,
          "time": 55.13793075,
          "velocity": 0.6299212598425197
        },
        {
          "duration": 0.10258618124999686,
          "durationTicks": 119,
          "midi": 74,
          "name": "D5",
          "ticks": 53280,
          "time": 55.241379,
          "velocity": 0.6299212598425197
        },
        {
          "duration": 0.10258618124999686,
          "durationTicks": 119,
          "midi": 71,
          "name": "B4",
          "ticks": 53400,
          "time": 55.34482725,
          "velocity": 0.6299212598425197
        },
        {
          "duration": 0.10258618124999686,
          "durationTicks": 119,
          "midi": 69,
          "name": "A4",
          "ticks": 53520,
          "time": 55.4482755,
          "velocity": 0.6299212598425197
        },
        {
          "duration": 0.10258618124999686,
          "durationTicks": 119,
          "midi": 71,
          "name": "B4",
          "ticks": 53640,
          "time": 55.55172375,
          "velocity": 0.6299212598425197
        },
        {
          "duration": 0.10258618124999686,
          "durationTicks": 119,
          "midi": 67,
          "name": "G4",
          "ticks": 53760,
          "time": 55.655172,
          "velocity": 0.6299212598425197
        },
        {
          "duration": 0.10258618124999686,
          "durationTicks": 119,
          "midi": 71,
          "name": "B4",
          "ticks": 53880,
          "time": 55.75862025,
          "velocity": 0.6299212598425197
        },
        {
          "duration": 0.10258618125000396,
          "durationTicks": 119,
          "midi": 69,
          "name": "A4",
          "ticks": 54000,
          "time": 55.8620685,
          "velocity": 0.6299212598425197
        },
        {
          "duration": 0.10258618125000396,
          "durationTicks": 119,
          "midi": 71,
          "name": "B4",
          "ticks": 54120,
          "time": 55.96551675,
          "velocity": 0.6299212598425197
        },
        {
          "duration": 0.10258618125000396,
          "durationTicks": 119,
          "midi": 72,
          "name": "C5",
          "ticks": 54240,
          "time": 56.068965,
          "velocity": 0.6299212598425197
        },
        {
          "duration": 0.10258618125000396,
          "durationTicks": 119,
          "midi": 69,
          "name": "A4",
          "ticks": 54360,
          "time": 56.17241325,
          "velocity": 0.6299212598425197
        },
        {
          "duration": 0.10258618125000396,
          "durationTicks": 119,
          "midi": 67,
          "name": "G4",
          "ticks": 54480,
          "time": 56.2758615,
          "velocity": 0.6299212598425197
        },
        {
          "duration": 0.10258618125000396,
          "durationTicks": 119,
          "midi": 69,
          "name": "A4",
          "ticks": 54600,
          "time": 56.37930975,
          "velocity": 0.6299212598425197
        },
        {
          "duration": 0.10258618125000396,
          "durationTicks": 119,
          "midi": 66,
          "name": "F#4",
          "ticks": 54720,
          "time": 56.482758,
          "velocity": 0.6299212598425197
        },
        {
          "duration": 0.10258618124999686,
          "durationTicks": 119,
          "midi": 69,
          "name": "A4",
          "ticks": 54840,
          "time": 56.586206250000004,
          "velocity": 0.6299212598425197
        },
        {
          "duration": 0.10258618124999686,
          "durationTicks": 119,
          "midi": 67,
          "name": "G4",
          "ticks": 54960,
          "time": 56.6896545,
          "velocity": 0.6299212598425197
        },
        {
          "duration": 0.10258618124999686,
          "durationTicks": 119,
          "midi": 69,
          "name": "A4",
          "ticks": 55080,
          "time": 56.79310275,
          "velocity": 0.6299212598425197
        },
        {
          "duration": 0.10258618124999686,
          "durationTicks": 119,
          "midi": 71,
          "name": "B4",
          "ticks": 55200,
          "time": 56.896551,
          "velocity": 0.6299212598425197
        },
        {
          "duration": 0.10258618124999686,
          "durationTicks": 119,
          "midi": 67,
          "name": "G4",
          "ticks": 55320,
          "time": 56.99999925,
          "velocity": 0.6299212598425197
        },
        {
          "duration": 0.10258618124999686,
          "durationTicks": 119,
          "midi": 66,
          "name": "F#4",
          "ticks": 55440,
          "time": 57.1034475,
          "velocity": 0.6299212598425197
        },
        {
          "duration": 0.10258618124999686,
          "durationTicks": 119,
          "midi": 67,
          "name": "G4",
          "ticks": 55560,
          "time": 57.20689575,
          "velocity": 0.6299212598425197
        },
        {
          "duration": 0.10258618124999686,
          "durationTicks": 119,
          "midi": 62,
          "name": "D4",
          "ticks": 55680,
          "time": 57.310344,
          "velocity": 0.6299212598425197
        },
        {
          "duration": 0.10258618124999686,
          "durationTicks": 119,
          "midi": 79,
          "name": "G5",
          "ticks": 55800,
          "time": 57.41379225,
          "velocity": 0.6299212598425197
        },
        {
          "duration": 0.10258618125000396,
          "durationTicks": 119,
          "midi": 77,
          "name": "F5",
          "ticks": 55920,
          "time": 57.5172405,
          "velocity": 0.6299212598425197
        },
        {
          "duration": 0.10258618125000396,
          "durationTicks": 119,
          "midi": 79,
          "name": "G5",
          "ticks": 56040,
          "time": 57.62068875,
          "velocity": 0.6299212598425197
        },
        {
          "duration": 0.10258618125000396,
          "durationTicks": 119,
          "midi": 80,
          "name": "G#5",
          "ticks": 56160,
          "time": 57.724137,
          "velocity": 0.6299212598425197
        },
        {
          "duration": 0.10258618125000396,
          "durationTicks": 119,
          "midi": 77,
          "name": "F5",
          "ticks": 56280,
          "time": 57.82758525,
          "velocity": 0.6299212598425197
        },
        {
          "duration": 0.10258618125000396,
          "durationTicks": 119,
          "midi": 75,
          "name": "D#5",
          "ticks": 56400,
          "time": 57.9310335,
          "velocity": 0.6299212598425197
        },
        {
          "duration": 0.10258618125000396,
          "durationTicks": 119,
          "midi": 77,
          "name": "F5",
          "ticks": 56520,
          "time": 58.03448175,
          "velocity": 0.6299212598425197
        },
        {
          "duration": 0.10258618125000396,
          "durationTicks": 119,
          "midi": 74,
          "name": "D5",
          "ticks": 56640,
          "time": 58.13793,
          "velocity": 0.6299212598425197
        },
        {
          "duration": 0.10258618125000396,
          "durationTicks": 119,
          "midi": 77,
          "name": "F5",
          "ticks": 56760,
          "time": 58.24137825,
          "velocity": 0.6299212598425197
        },
        {
          "duration": 0.10258618125000396,
          "durationTicks": 119,
          "midi": 75,
          "name": "D#5",
          "ticks": 56880,
          "time": 58.344826499999996,
          "velocity": 0.6299212598425197
        },
        {
          "duration": 0.10258618124999686,
          "durationTicks": 119,
          "midi": 77,
          "name": "F5",
          "ticks": 57000,
          "time": 58.44827475,
          "velocity": 0.6299212598425197
        },
        {
          "duration": 0.10258618124999686,
          "durationTicks": 119,
          "midi": 79,
          "name": "G5",
          "ticks": 57120,
          "time": 58.551723,
          "velocity": 0.6299212598425197
        },
        {
          "duration": 0.10258618124999686,
          "durationTicks": 119,
          "midi": 75,
          "name": "D#5",
          "ticks": 57240,
          "time": 58.65517125,
          "velocity": 0.6299212598425197
        },
        {
          "duration": 0.10258618124999686,
          "durationTicks": 119,
          "midi": 74,
          "name": "D5",
          "ticks": 57360,
          "time": 58.7586195,
          "velocity": 0.6299212598425197
        },
        {
          "duration": 0.10258618124999686,
          "durationTicks": 119,
          "midi": 75,
          "name": "D#5",
          "ticks": 57480,
          "time": 58.86206775,
          "velocity": 0.6299212598425197
        },
        {
          "duration": 0.10258618124999686,
          "durationTicks": 119,
          "midi": 72,
          "name": "C5",
          "ticks": 57600,
          "time": 58.965516,
          "velocity": 0.6299212598425197
        },
        {
          "duration": 0.10258618124999686,
          "durationTicks": 119,
          "midi": 75,
          "name": "D#5",
          "ticks": 57720,
          "time": 59.06896425,
          "velocity": 0.6299212598425197
        },
        {
          "duration": 0.10258618124999686,
          "durationTicks": 119,
          "midi": 74,
          "name": "D5",
          "ticks": 57840,
          "time": 59.1724125,
          "velocity": 0.6299212598425197
        },
        {
          "duration": 0.10258618124999686,
          "durationTicks": 119,
          "midi": 75,
          "name": "D#5",
          "ticks": 57960,
          "time": 59.27586075,
          "velocity": 0.6299212598425197
        },
        {
          "duration": 0.10258618125000396,
          "durationTicks": 119,
          "midi": 77,
          "name": "F5",
          "ticks": 58080,
          "time": 59.379309,
          "velocity": 0.6299212598425197
        },
        {
          "duration": 0.10258618125000396,
          "durationTicks": 119,
          "midi": 74,
          "name": "D5",
          "ticks": 58200,
          "time": 59.48275725,
          "velocity": 0.6299212598425197
        },
        {
          "duration": 0.10258618125000396,
          "durationTicks": 119,
          "midi": 72,
          "name": "C5",
          "ticks": 58320,
          "time": 59.5862055,
          "velocity": 0.6299212598425197
        },
        {
          "duration": 0.10258618125000396,
          "durationTicks": 119,
          "midi": 74,
          "name": "D5",
          "ticks": 58440,
          "time": 59.68965375,
          "velocity": 0.6299212598425197
        },
        {
          "duration": 0.10258618125000396,
          "durationTicks": 119,
          "midi": 71,
          "name": "B4",
          "ticks": 58560,
          "time": 59.793102,
          "velocity": 0.6299212598425197
        },
        {
          "duration": 0.10258618124999686,
          "durationTicks": 119,
          "midi": 74,
          "name": "D5",
          "ticks": 58680,
          "time": 59.896550250000004,
          "velocity": 0.6299212598425197
        },
        {
          "duration": 0.10258618124999686,
          "durationTicks": 119,
          "midi": 72,
          "name": "C5",
          "ticks": 58800,
          "time": 59.999998500000004,
          "velocity": 0.6299212598425197
        },
        {
          "duration": 0.10258618124999686,
          "durationTicks": 119,
          "midi": 74,
          "name": "D5",
          "ticks": 58920,
          "time": 60.10344675,
          "velocity": 0.6299212598425197
        },
        {
          "duration": 0.10258618124999686,
          "durationTicks": 119,
          "midi": 75,
          "name": "D#5",
          "ticks": 59040,
          "time": 60.206895,
          "velocity": 0.6299212598425197
        },
        {
          "duration": 0.10258618124999686,
          "durationTicks": 119,
          "midi": 72,
          "name": "C5",
          "ticks": 59160,
          "time": 60.31034325,
          "velocity": 0.6299212598425197
        },
        {
          "duration": 0.10258618124999686,
          "durationTicks": 119,
          "midi": 71,
          "name": "B4",
          "ticks": 59280,
          "time": 60.4137915,
          "velocity": 0.6299212598425197
        },
        {
          "duration": 0.10258618124999686,
          "durationTicks": 119,
          "midi": 72,
          "name": "C5",
          "ticks": 59400,
          "time": 60.51723975,
          "velocity": 0.6299212598425197
        },
        {
          "duration": 0.10258618124999686,
          "durationTicks": 119,
          "midi": 67,
          "name": "G4",
          "ticks": 59520,
          "time": 60.620688,
          "velocity": 0.6299212598425197
        },
        {
          "duration": 0.10258618124999686,
          "durationTicks": 119,
          "midi": 72,
          "name": "C5",
          "ticks": 59640,
          "time": 60.72413625,
          "velocity": 0.6299212598425197
        },
        {
          "duration": 0.10258618124999686,
          "durationTicks": 119,
          "midi": 71,
          "name": "B4",
          "ticks": 59760,
          "time": 60.8275845,
          "velocity": 0.6299212598425197
        },
        {
          "duration": 0.10258618124999686,
          "durationTicks": 119,
          "midi": 72,
          "name": "C5",
          "ticks": 59880,
          "time": 60.93103275,
          "velocity": 0.6299212598425197
        },
        {
          "duration": 0.10258618125000396,
          "durationTicks": 119,
          "midi": 68,
          "name": "G#4",
          "ticks": 60000,
          "time": 61.034481,
          "velocity": 0.6299212598425197
        },
        {
          "duration": 0.10258618125000396,
          "durationTicks": 119,
          "midi": 77,
          "name": "F5",
          "ticks": 60120,
          "time": 61.13792925,
          "velocity": 0.6299212598425197
        },
        {
          "duration": 0.10258618125000396,
          "durationTicks": 119,
          "midi": 75,
          "name": "D#5",
          "ticks": 60240,
          "time": 61.2413775,
          "velocity": 0.6299212598425197
        },
        {
          "duration": 0.10258618125000396,
          "durationTicks": 119,
          "midi": 77,
          "name": "F5",
          "ticks": 60360,
          "time": 61.34482575,
          "velocity": 0.6299212598425197
        },
        {
          "duration": 0.10258618125000396,
          "durationTicks": 119,
          "midi": 67,
          "name": "G4",
          "ticks": 60480,
          "time": 61.448274,
          "velocity": 0.6299212598425197
        },
        {
          "duration": 0.10258618125000396,
          "durationTicks": 119,
          "midi": 75,
          "name": "D#5",
          "ticks": 60600,
          "time": 61.55172225,
          "velocity": 0.6299212598425197
        },
        {
          "duration": 0.10258618125000396,
          "durationTicks": 119,
          "midi": 74,
          "name": "D5",
          "ticks": 60720,
          "time": 61.6551705,
          "velocity": 0.6299212598425197
        },
        {
          "duration": 0.10258618125000396,
          "durationTicks": 119,
          "midi": 75,
          "name": "D#5",
          "ticks": 60840,
          "time": 61.75861875,
          "velocity": 0.6299212598425197
        },
        {
          "duration": 0.10258618124999686,
          "durationTicks": 119,
          "midi": 65,
          "name": "F4",
          "ticks": 60960,
          "time": 61.862067,
          "velocity": 0.6299212598425197
        },
        {
          "duration": 0.10258618124999686,
          "durationTicks": 119,
          "midi": 74,
          "name": "D5",
          "ticks": 61080,
          "time": 61.96551525,
          "velocity": 0.6299212598425197
        },
        {
          "duration": 0.10258618124999686,
          "durationTicks": 119,
          "midi": 72,
          "name": "C5",
          "ticks": 61200,
          "time": 62.0689635,
          "velocity": 0.6299212598425197
        },
        {
          "duration": 0.10258618124999686,
          "durationTicks": 119,
          "midi": 74,
          "name": "D5",
          "ticks": 61320,
          "time": 62.17241175,
          "velocity": 0.6299212598425197
        },
        {
          "duration": 0.10258618124999686,
          "durationTicks": 119,
          "midi": 63,
          "name": "D#4",
          "ticks": 61440,
          "time": 62.27586,
          "velocity": 0.6299212598425197
        },
        {
          "duration": 0.10258618124999686,
          "durationTicks": 119,
          "midi": 72,
          "name": "C5",
          "ticks": 61560,
          "time": 62.37930825,
          "velocity": 0.6299212598425197
        },
        {
          "duration": 0.10258618124999686,
          "durationTicks": 119,
          "midi": 71,
          "name": "B4",
          "ticks": 61680,
          "time": 62.4827565,
          "velocity": 0.6299212598425197
        },
        {
          "duration": 0.10258618124999686,
          "durationTicks": 119,
          "midi": 72,
          "name": "C5",
          "ticks": 61800,
          "time": 62.58620475,
          "velocity": 0.6299212598425197
        },
        {
          "duration": 0.10258618124999686,
          "durationTicks": 119,
          "midi": 68,
          "name": "G#4",
          "ticks": 61920,
          "time": 62.689653,
          "velocity": 0.6299212598425197
        },
        {
          "duration": 0.10258618124999686,
          "durationTicks": 119,
          "midi": 65,
          "name": "F4",
          "ticks": 62040,
          "time": 62.79310125,
          "velocity": 0.6299212598425197
        },
        {
          "duration": 0.10258618124999686,
          "durationTicks": 119,
          "midi": 63,
          "name": "D#4",
          "ticks": 62160,
          "time": 62.8965495,
          "velocity": 0.6299212598425197
        },
        {
          "duration": 0.10258618124999686,
          "durationTicks": 119,
          "midi": 65,
          "name": "F4",
          "ticks": 62280,
          "time": 62.99999775,
          "velocity": 0.6299212598425197
        },
        {
          "duration": 0.10258618125000396,
          "durationTicks": 119,
          "midi": 67,
          "name": "G4",
          "ticks": 62400,
          "time": 63.103446,
          "velocity": 0.6299212598425197
        },
        {
          "duration": 0.10258618124999686,
          "durationTicks": 119,
          "midi": 63,
          "name": "D#4",
          "ticks": 62520,
          "time": 63.206894250000005,
          "velocity": 0.6299212598425197
        },
        {
          "duration": 0.10258618124999686,
          "durationTicks": 119,
          "midi": 62,
          "name": "D4",
          "ticks": 62640,
          "time": 63.310342500000004,
          "velocity": 0.6299212598425197
        },
        {
          "duration": 0.10258618124999686,
          "durationTicks": 119,
          "midi": 63,
          "name": "D#4",
          "ticks": 62760,
          "time": 63.413790750000004,
          "velocity": 0.6299212598425197
        },
        {
          "duration": 0.10258618124999686,
          "durationTicks": 119,
          "midi": 65,
          "name": "F4",
          "ticks": 62880,
          "time": 63.517239000000004,
          "velocity": 0.6299212598425197
        },
        {
          "duration": 0.10258618124999686,
          "durationTicks": 119,
          "midi": 62,
          "name": "D4",
          "ticks": 63000,
          "time": 63.62068725,
          "velocity": 0.6299212598425197
        },
        {
          "duration": 0.10258618124999686,
          "durationTicks": 119,
          "midi": 60,
          "name": "C4",
          "ticks": 63120,
          "time": 63.7241355,
          "velocity": 0.6299212598425197
        },
        {
          "duration": 0.10258618124999686,
          "durationTicks": 119,
          "midi": 62,
          "name": "D4",
          "ticks": 63240,
          "time": 63.82758375,
          "velocity": 0.6299212598425197
        },
        {
          "duration": 1.868751868749996,
          "durationTicks": 299,
          "midi": 48,
          "name": "C3",
          "ticks": 63360,
          "time": 63.931032,
          "velocity": 0.6299212598425197
        },
        {
          "duration": 1.8562518562499974,
          "durationTicks": 297,
          "midi": 55,
          "name": "G3",
          "ticks": 63361,
          "time": 63.93728200625,
          "velocity": 0.6299212598425197
        },
        {
          "duration": 1.8500018499999982,
          "durationTicks": 296,
          "midi": 58,
          "name": "A#3",
          "ticks": 63362,
          "time": 63.9435320125,
          "velocity": 0.6299212598425197
        },
        {
          "duration": 1.8375018374999996,
          "durationTicks": 294,
          "midi": 60,
          "name": "C4",
          "ticks": 63364,
          "time": 63.956032025,
          "velocity": 0.6299212598425197
        },
        {
          "duration": 0.7062507062499961,
          "durationTicks": 113,
          "midi": 64,
          "name": "E4",
          "ticks": 63365,
          "time": 63.962282031250005,
          "velocity": 0.6299212598425197
        },
        {
          "duration": 0.23046887291665996,
          "durationTicks": 59,
          "midi": 60,
          "name": "C4",
          "ticks": 63660,
          "time": 65.806033875,
          "velocity": 0.6299212598425197
        },
        {
          "duration": 0.23046887291665996,
          "durationTicks": 59,
          "midi": 62,
          "name": "D4",
          "ticks": 63720,
          "time": 66.040409,
          "velocity": 0.6299212598425197
        },
        {
          "duration": 0.23046887291667417,
          "durationTicks": 59,
          "midi": 64,
          "name": "E4",
          "ticks": 63780,
          "time": 66.274784125,
          "velocity": 0.6299212598425197
        },
        {
          "duration": 0.11328131041666722,
          "durationTicks": 29,
          "midi": 65,
          "name": "F4",
          "ticks": 63840,
          "time": 66.50915925,
          "velocity": 0.6299212598425197
        },
        {
          "duration": 0.11328131041666722,
          "durationTicks": 29,
          "midi": 67,
          "name": "G4",
          "ticks": 63870,
          "time": 66.6263468125,
          "velocity": 0.6299212598425197
        },
        {
          "duration": 0.11328131041666722,
          "durationTicks": 29,
          "midi": 68,
          "name": "G#4",
          "ticks": 63900,
          "time": 66.743534375,
          "velocity": 0.6299212598425197
        },
        {
          "duration": 0.11328131041666722,
          "durationTicks": 29,
          "midi": 70,
          "name": "A#4",
          "ticks": 63930,
          "time": 66.8607219375,
          "velocity": 0.6299212598425197
        },
        {
          "duration": 0.11328131041666722,
          "durationTicks": 29,
          "midi": 72,
          "name": "C5",
          "ticks": 63960,
          "time": 66.9779095,
          "velocity": 0.6299212598425197
        },
        {
          "duration": 0.11328131041666722,
          "durationTicks": 29,
          "midi": 70,
          "name": "A#4",
          "ticks": 63990,
          "time": 67.0950970625,
          "velocity": 0.6299212598425197
        },
        {
          "duration": 0.11328131041666722,
          "durationTicks": 29,
          "midi": 68,
          "name": "G#4",
          "ticks": 64020,
          "time": 67.212284625,
          "velocity": 0.6299212598425197
        },
        {
          "duration": 0.11328131041666722,
          "durationTicks": 29,
          "midi": 67,
          "name": "G4",
          "ticks": 64050,
          "time": 67.3294721875,
          "velocity": 0.6299212598425197
        },
        {
          "duration": 0.46484399791667386,
          "durationTicks": 119,
          "midi": 65,
          "name": "F4",
          "ticks": 64080,
          "time": 67.44665975,
          "velocity": 0.6299212598425197
        },
        {
          "duration": 0.23046887291667417,
          "durationTicks": 59,
          "midi": 67,
          "name": "G4",
          "ticks": 64200,
          "time": 67.91541,
          "velocity": 0.6299212598425197
        },
        {
          "duration": 0.23046887291667417,
          "durationTicks": 59,
          "midi": 64,
          "name": "E4",
          "ticks": 64260,
          "time": 68.149785125,
          "velocity": 0.6299212598425197
        },
        {
          "duration": 1.1187506812499919,
          "durationTicks": 269,
          "midi": 48,
          "name": "C3",
          "ticks": 64320,
          "time": 68.38416025,
          "velocity": 0.6299212598425197
        },
        {
          "duration": 1.1085944229166529,
          "durationTicks": 267,
          "midi": 53,
          "name": "F3",
          "ticks": 64321,
          "time": 68.38806650208333,
          "velocity": 0.6299212598425197
        },
        {
          "duration": 1.1046881708333274,
          "durationTicks": 266,
          "midi": 56,
          "name": "G#3",
          "ticks": 64322,
          "time": 68.39197275416666,
          "velocity": 0.6299212598425197
        },
        {
          "duration": 1.1007819187499877,
          "durationTicks": 265,
          "midi": 60,
          "name": "C4",
          "ticks": 64323,
          "time": 68.39587900625,
          "velocity": 0.6299212598425197
        },
        {
          "duration": 0.08984379791667152,
          "durationTicks": 23,
          "midi": 65,
          "name": "F4",
          "ticks": 64325,
          "time": 68.40369151041666,
          "velocity": 0.6299212598425197
        },
        {
          "duration": 0.11328131041666722,
          "durationTicks": 29,
          "midi": 64,
          "name": "E4",
          "ticks": 64350,
          "time": 68.5013478125,
          "velocity": 0.6299212598425197
        },
        {
          "duration": 1.0718757437499988,
          "durationTicks": 239,
          "midi": 65,
          "name": "F4",
          "ticks": 64380,
          "time": 68.618535375,
          "velocity": 0.6299212598425197
        },
        {
          "duration": 0.23046887291665996,
          "durationTicks": 59,
          "midi": 67,
          "name": "G4",
          "ticks": 64620,
          "time": 69.69666112499999,
          "velocity": 0.6299212598425197
        },
        {
          "duration": 0.23046887291665996,
          "durationTicks": 59,
          "midi": 65,
          "name": "F4",
          "ticks": 64680,
          "time": 69.93103624999999,
          "velocity": 0.6299212598425197
        },
        {
          "duration": 0.23046887291667417,
          "durationTicks": 59,
          "midi": 64,
          "name": "E4",
          "ticks": 64740,
          "time": 70.16541137499999,
          "velocity": 0.6299212598425197
        },
        {
          "duration": 0.23046887291667417,
          "durationTicks": 59,
          "midi": 65,
          "name": "F4",
          "ticks": 64800,
          "time": 70.39978649999999,
          "velocity": 0.6299212598425197
        },
        {
          "duration": 0.23046887291667417,
          "durationTicks": 59,
          "midi": 67,
          "name": "G4",
          "ticks": 64860,
          "time": 70.63416162499999,
          "velocity": 0.6299212598425197
        },
        {
          "duration": 0.23046887291667417,
          "durationTicks": 59,
          "midi": 68,
          "name": "G#4",
          "ticks": 64920,
          "time": 70.86853674999999,
          "velocity": 0.6299212598425197
        },
        {
          "duration": 0.23046887291667417,
          "durationTicks": 59,
          "midi": 67,
          "name": "G4",
          "ticks": 64980,
          "time": 71.10291187499999,
          "velocity": 0.6299212598425197
        },
        {
          "duration": 0.11328131041666722,
          "durationTicks": 29,
          "midi": 65,
          "name": "F4",
          "ticks": 65040,
          "time": 71.33728699999999,
          "velocity": 0.6299212598425197
        },
        {
          "duration": 0.11328131041666722,
          "durationTicks": 29,
          "midi": 63,
          "name": "D#4",
          "ticks": 65070,
          "time": 71.4544745625,
          "velocity": 0.6299212598425197
        },
        {
          "duration": 0.11328131041666722,
          "durationTicks": 29,
          "midi": 62,
          "name": "D4",
          "ticks": 65100,
          "time": 71.57166212499999,
          "velocity": 0.6299212598425197
        },
        {
          "duration": 0.11328131041666722,
          "durationTicks": 29,
          "midi": 63,
          "name": "D#4",
          "ticks": 65130,
          "time": 71.6888496875,
          "velocity": 0.6299212598425197
        },
        {
          "duration": 0.11328131041666722,
          "durationTicks": 29,
          "midi": 65,
          "name": "F4",
          "ticks": 65160,
          "time": 71.80603724999999,
          "velocity": 0.6299212598425197
        },
        {
          "duration": 0.11328131041666722,
          "durationTicks": 29,
          "midi": 62,
          "name": "D4",
          "ticks": 65190,
          "time": 71.9232248125,
          "velocity": 0.6299212598425197
        },
        {
          "duration": 0.11328131041666722,
          "durationTicks": 29,
          "midi": 63,
          "name": "D#4",
          "ticks": 65220,
          "time": 72.04041237499999,
          "velocity": 0.6299212598425197
        },
        {
          "duration": 0.11328131041666722,
          "durationTicks": 29,
          "midi": 65,
          "name": "F4",
          "ticks": 65250,
          "time": 72.1575999375,
          "velocity": 0.6299212598425197
        },
        {
          "duration": 0.3739583333333343,
          "durationTicks": 359,
          "midi": 59,
          "name": "B3",
          "ticks": 65280,
          "time": 72.27478749999999,
          "velocity": 0.6299212598425197
        },
        {
          "duration": 0.12395833333333428,
          "durationTicks": 119,
          "midi": 50,
          "name": "D3",
          "ticks": 65640,
          "time": 72.64978749999999,
          "velocity": 0.6299212598425197
        },
        {
          "duration": 0.12395833333333428,
          "durationTicks": 119,
          "midi": 53,
          "name": "F3",
          "ticks": 65760,
          "time": 72.77478749999999,
          "velocity": 0.6299212598425197
        },
        {
          "duration": 0.12395833333333428,
          "durationTicks": 119,
          "midi": 56,
          "name": "G#3",
          "ticks": 65880,
          "time": 72.89978749999999,
          "velocity": 0.6299212598425197
        },
        {
          "duration": 0.12395833333333428,
          "durationTicks": 119,
          "midi": 55,
          "name": "G3",
          "ticks": 66000,
          "time": 73.02478749999999,
          "velocity": 0.6299212598425197
        },
        {
          "duration": 0.12395833333333428,
          "durationTicks": 119,
          "midi": 53,
          "name": "F3",
          "ticks": 66120,
          "time": 73.14978749999999,
          "velocity": 0.6299212598425197
        },
        {
          "duration": 0.12395833333333428,
          "durationTicks": 119,
          "midi": 59,
          "name": "B3",
          "ticks": 66240,
          "time": 73.27478749999999,
          "velocity": 0.6299212598425197
        },
        {
          "duration": 0.12395833333333428,
          "durationTicks": 119,
          "midi": 53,
          "name": "F3",
          "ticks": 66360,
          "time": 73.39978749999999,
          "velocity": 0.6299212598425197
        },
        {
          "duration": 0.12395833333333428,
          "durationTicks": 119,
          "midi": 62,
          "name": "D4",
          "ticks": 66480,
          "time": 73.52478749999999,
          "velocity": 0.6299212598425197
        },
        {
          "duration": 0.12395833333333428,
          "durationTicks": 119,
          "midi": 53,
          "name": "F3",
          "ticks": 66600,
          "time": 73.64978749999999,
          "velocity": 0.6299212598425197
        },
        {
          "duration": 0.12395833333333428,
          "durationTicks": 119,
          "midi": 59,
          "name": "B3",
          "ticks": 66720,
          "time": 73.77478749999999,
          "velocity": 0.6299212598425197
        },
        {
          "duration": 0.12395833333333428,
          "durationTicks": 119,
          "midi": 56,
          "name": "G#3",
          "ticks": 66840,
          "time": 73.89978749999999,
          "velocity": 0.6299212598425197
        },
        {
          "duration": 0.12395833333333428,
          "durationTicks": 119,
          "midi": 55,
          "name": "G3",
          "ticks": 66960,
          "time": 74.02478749999999,
          "velocity": 0.6299212598425197
        },
        {
          "duration": 0.12395833333333428,
          "durationTicks": 119,
          "midi": 53,
          "name": "F3",
          "ticks": 67080,
          "time": 74.14978749999999,
          "velocity": 0.6299212598425197
        },
        {
          "duration": 0.12395833333333428,
          "durationTicks": 119,
          "midi": 52,
          "name": "E3",
          "ticks": 67200,
          "time": 74.27478749999999,
          "velocity": 0.6299212598425197
        },
        {
          "duration": 0.12395833333333428,
          "durationTicks": 119,
          "midi": 61,
          "name": "C#4",
          "ticks": 67320,
          "time": 74.39978749999999,
          "velocity": 0.6299212598425197
        },
        {
          "duration": 0.12395833333333428,
          "durationTicks": 119,
          "midi": 58,
          "name": "A#3",
          "ticks": 67440,
          "time": 74.52478749999999,
          "velocity": 0.6299212598425197
        },
        {
          "duration": 0.12395833333333428,
          "durationTicks": 119,
          "midi": 55,
          "name": "G3",
          "ticks": 67560,
          "time": 74.64978749999999,
          "velocity": 0.6299212598425197
        },
        {
          "duration": 0.12395833333333428,
          "durationTicks": 119,
          "midi": 60,
          "name": "C4",
          "ticks": 67680,
          "time": 74.77478749999999,
          "velocity": 0.6299212598425197
        },
        {
          "duration": 0.12395833333333428,
          "durationTicks": 119,
          "midi": 56,
          "name": "G#3",
          "ticks": 67800,
          "time": 74.89978749999999,
          "velocity": 0.6299212598425197
        },
        {
          "duration": 0.12395833333333428,
          "durationTicks": 119,
          "midi": 53,
          "name": "F3",
          "ticks": 67920,
          "time": 75.02478749999999,
          "velocity": 0.6299212598425197
        },
        {
          "duration": 0.12395833333333428,
          "durationTicks": 119,
          "midi": 56,
          "name": "G#3",
          "ticks": 68040,
          "time": 75.14978749999999,
          "velocity": 0.6299212598425197
        },
        {
          "duration": 0.12395833333333428,
          "durationTicks": 119,
          "midi": 55,
          "name": "G3",
          "ticks": 68160,
          "time": 75.27478749999999,
          "velocity": 0.6299212598425197
        },
        {
          "duration": 0.12395833333333428,
          "durationTicks": 119,
          "midi": 58,
          "name": "A#3",
          "ticks": 68280,
          "time": 75.39978749999999,
          "velocity": 0.6299212598425197
        },
        {
          "duration": 0.12395833333333428,
          "durationTicks": 119,
          "midi": 55,
          "name": "G3",
          "ticks": 68400,
          "time": 75.52478749999999,
          "velocity": 0.6299212598425197
        },
        {
          "duration": 0.12395833333333428,
          "durationTicks": 119,
          "midi": 52,
          "name": "E3",
          "ticks": 68520,
          "time": 75.64978749999999,
          "velocity": 0.6299212598425197
        },
        {
          "duration": 0.12395833333333428,
          "durationTicks": 119,
          "midi": 56,
          "name": "G#3",
          "ticks": 68640,
          "time": 75.77478749999999,
          "velocity": 0.6299212598425197
        },
        {
          "duration": 0.12395833333333428,
          "durationTicks": 119,
          "midi": 53,
          "name": "F3",
          "ticks": 68760,
          "time": 75.89978749999999,
          "velocity": 0.6299212598425197
        },
        {
          "duration": 0.12395833333333428,
          "durationTicks": 119,
          "midi": 50,
          "name": "D3",
          "ticks": 68880,
          "time": 76.02478749999999,
          "velocity": 0.6299212598425197
        },
        {
          "duration": 0.12395833333333428,
          "durationTicks": 119,
          "midi": 53,
          "name": "F3",
          "ticks": 69000,
          "time": 76.14978749999999,
          "velocity": 0.6299212598425197
        },
        {
          "duration": 0.12395833333333428,
          "durationTicks": 119,
          "midi": 52,
          "name": "E3",
          "ticks": 69120,
          "time": 76.27478749999999,
          "velocity": 0.6299212598425197
        },
        {
          "duration": 0.12395833333333428,
          "durationTicks": 119,
          "midi": 55,
          "name": "G3",
          "ticks": 69240,
          "time": 76.39978749999999,
          "velocity": 0.6299212598425197
        },
        {
          "duration": 0.12395833333333428,
          "durationTicks": 119,
          "midi": 52,
          "name": "E3",
          "ticks": 69360,
          "time": 76.52478749999999,
          "velocity": 0.6299212598425197
        },
        {
          "duration": 0.12395833333333428,
          "durationTicks": 119,
          "midi": 48,
          "name": "C3",
          "ticks": 69480,
          "time": 76.64978749999999,
          "velocity": 0.6299212598425197
        },
        {
          "duration": 0.12395833333333428,
          "durationTicks": 119,
          "midi": 53,
          "name": "F3",
          "ticks": 69600,
          "time": 76.77478749999999,
          "velocity": 0.6299212598425197
        },
        {
          "duration": 0.12395833333333428,
          "durationTicks": 119,
          "midi": 50,
          "name": "D3",
          "ticks": 69720,
          "time": 76.89978749999999,
          "velocity": 0.6299212598425197
        },
        {
          "duration": 0.12395833333333428,
          "durationTicks": 119,
          "midi": 47,
          "name": "B2",
          "ticks": 69840,
          "time": 77.02478749999999,
          "velocity": 0.6299212598425197
        },
        {
          "duration": 0.12395833333333428,
          "durationTicks": 119,
          "midi": 50,
          "name": "D3",
          "ticks": 69960,
          "time": 77.14978749999999,
          "velocity": 0.6299212598425197
        },
        {
          "duration": 0.12395833333333428,
          "durationTicks": 119,
          "midi": 50,
          "name": "D3",
          "ticks": 70440,
          "time": 77.64978749999999,
          "velocity": 0.6299212598425197
        },
        {
          "duration": 0.12395833333333428,
          "durationTicks": 119,
          "midi": 52,
          "name": "E3",
          "ticks": 70560,
          "time": 77.77478749999999,
          "velocity": 0.6299212598425197
        },
        {
          "duration": 0.12395833333333428,
          "durationTicks": 119,
          "midi": 55,
          "name": "G3",
          "ticks": 70680,
          "time": 77.89978749999999,
          "velocity": 0.6299212598425197
        },
        {
          "duration": 0.12395833333333428,
          "durationTicks": 119,
          "midi": 58,
          "name": "A#3",
          "ticks": 70800,
          "time": 78.02478749999999,
          "velocity": 0.6299212598425197
        },
        {
          "duration": 0.12395833333333428,
          "durationTicks": 119,
          "midi": 55,
          "name": "G3",
          "ticks": 70920,
          "time": 78.14978749999999,
          "velocity": 0.6299212598425197
        },
        {
          "duration": 0.12395833333333428,
          "durationTicks": 119,
          "midi": 56,
          "name": "G#3",
          "ticks": 71040,
          "time": 78.27478749999999,
          "velocity": 0.6299212598425197
        },
        {
          "duration": 0.12395833333333428,
          "durationTicks": 119,
          "midi": 60,
          "name": "C4",
          "ticks": 71160,
          "time": 78.39978749999999,
          "velocity": 0.6299212598425197
        },
        {
          "duration": 0.12395833333333428,
          "durationTicks": 119,
          "midi": 65,
          "name": "F4",
          "ticks": 71280,
          "time": 78.52478749999999,
          "velocity": 0.6299212598425197
        },
        {
          "duration": 0.12395833333333428,
          "durationTicks": 119,
          "midi": 62,
          "name": "D4",
          "ticks": 71400,
          "time": 78.64978749999999,
          "velocity": 0.6299212598425197
        },
        {
          "duration": 0.12395833333333428,
          "durationTicks": 119,
          "midi": 65,
          "name": "F4",
          "ticks": 71520,
          "time": 78.77478749999999,
          "velocity": 0.6299212598425197
        },
        {
          "duration": 0.12395833333333428,
          "durationTicks": 119,
          "midi": 68,
          "name": "G#4",
          "ticks": 71640,
          "time": 78.89978749999999,
          "velocity": 0.6299212598425197
        },
        {
          "duration": 0.12395833333333428,
          "durationTicks": 119,
          "midi": 72,
          "name": "C5",
          "ticks": 71760,
          "time": 79.02478749999999,
          "velocity": 0.6299212598425197
        },
        {
          "duration": 0.12395833333333428,
          "durationTicks": 119,
          "midi": 71,
          "name": "B4",
          "ticks": 71880,
          "time": 79.14978749999999,
          "velocity": 0.6299212598425197
        },
        {
          "duration": 0.3152776104166719,
          "durationTicks": 239,
          "midi": 72,
          "name": "C5",
          "ticks": 72000,
          "time": 79.27478749999999,
          "velocity": 0.6299212598425197
        },
        {
          "duration": 0.37916604166666446,
          "durationTicks": 239,
          "midi": 67,
          "name": "G4",
          "ticks": 72120,
          "time": 79.42478725,
          "velocity": 0.6299212598425197
        },
        {
          "duration": 0.5117850000000033,
          "durationTicks": 239,
          "midi": 65,
          "name": "F4",
          "ticks": 72240,
          "time": 79.591454,
          "velocity": 0.6299212598425197
        },
        {
          "duration": 0.29749999999999943,
          "durationTicks": 119,
          "midi": 62,
          "name": "D4",
          "ticks": 72360,
          "time": 79.805739,
          "velocity": 0.6299212598425197
        },
        {
          "duration": 2.3949980041666663,
          "durationTicks": 479,
          "midi": 64,
          "name": "E4",
          "ticks": 72480,
          "time": 80.105739,
          "velocity": 0.6299212598425197
        }
      ],
      "endOfTrackTicks": 72960
    },
    {
      "channel": 0,
      "controlChanges": {},
      "pitchBends": [],
      "instrument": {
        "family": "piano",
        "number": 0,
        "name": "acoustic grand piano"
      },
      "name": "Piano\u0000",
      "notes": [
        {
          "duration": 0.12395833333333334,
          "durationTicks": 119,
          "midi": 48,
          "name": "C3",
          "ticks": 0,
          "time": 0,
          "velocity": 0.6299212598425197
        },
        {
          "duration": 0.12395833333333334,
          "durationTicks": 119,
          "midi": 55,
          "name": "G3",
          "ticks": 120,
          "time": 0.125,
          "velocity": 0.6299212598425197
        },
        {
          "duration": 0.12395833333333334,
          "durationTicks": 119,
          "midi": 53,
          "name": "F3",
          "ticks": 240,
          "time": 0.25,
          "velocity": 0.6299212598425197
        },
        {
          "duration": 0.12395833333333334,
          "durationTicks": 119,
          "midi": 55,
          "name": "G3",
          "ticks": 360,
          "time": 0.375,
          "velocity": 0.6299212598425197
        },
        {
          "duration": 0.12395833333333328,
          "durationTicks": 119,
          "midi": 51,
          "name": "D#3",
          "ticks": 480,
          "time": 0.5,
          "velocity": 0.6299212598425197
        },
        {
          "duration": 0.12395833333333328,
          "durationTicks": 119,
          "midi": 55,
          "name": "G3",
          "ticks": 600,
          "time": 0.625,
          "velocity": 0.6299212598425197
        },
        {
          "duration": 0.12395833333333328,
          "durationTicks": 119,
          "midi": 53,
          "name": "F3",
          "ticks": 720,
          "time": 0.75,
          "velocity": 0.6299212598425197
        },
        {
          "duration": 0.12395833333333328,
          "durationTicks": 119,
          "midi": 55,
          "name": "G3",
          "ticks": 840,
          "time": 0.875,
          "velocity": 0.6299212598425197
        },
        {
          "duration": 0.12395833333333339,
          "durationTicks": 119,
          "midi": 48,
          "name": "C3",
          "ticks": 960,
          "time": 1,
          "velocity": 0.6299212598425197
        },
        {
          "duration": 0.12395833333333339,
          "durationTicks": 119,
          "midi": 55,
          "name": "G3",
          "ticks": 1080,
          "time": 1.125,
          "velocity": 0.6299212598425197
        },
        {
          "duration": 0.12395833333333339,
          "durationTicks": 119,
          "midi": 53,
          "name": "F3",
          "ticks": 1200,
          "time": 1.25,
          "velocity": 0.6299212598425197
        },
        {
          "duration": 0.12395833333333339,
          "durationTicks": 119,
          "midi": 55,
          "name": "G3",
          "ticks": 1320,
          "time": 1.375,
          "velocity": 0.6299212598425197
        },
        {
          "duration": 0.12395833333333339,
          "durationTicks": 119,
          "midi": 51,
          "name": "D#3",
          "ticks": 1440,
          "time": 1.5,
          "velocity": 0.6299212598425197
        },
        {
          "duration": 0.12395833333333339,
          "durationTicks": 119,
          "midi": 55,
          "name": "G3",
          "ticks": 1560,
          "time": 1.625,
          "velocity": 0.6299212598425197
        },
        {
          "duration": 0.12395833333333339,
          "durationTicks": 119,
          "midi": 53,
          "name": "F3",
          "ticks": 1680,
          "time": 1.75,
          "velocity": 0.6299212598425197
        },
        {
          "duration": 0.12395833333333339,
          "durationTicks": 119,
          "midi": 55,
          "name": "G3",
          "ticks": 1800,
          "time": 1.875,
          "velocity": 0.6299212598425197
        },
        {
          "duration": 0.12395833333333339,
          "durationTicks": 119,
          "midi": 48,
          "name": "C3",
          "ticks": 1920,
          "time": 2,
          "velocity": 0.6299212598425197
        },
        {
          "duration": 0.12395833333333339,
          "durationTicks": 119,
          "midi": 56,
          "name": "G#3",
          "ticks": 2040,
          "time": 2.125,
          "velocity": 0.6299212598425197
        },
        {
          "duration": 0.12395833333333339,
          "durationTicks": 119,
          "midi": 55,
          "name": "G3",
          "ticks": 2160,
          "time": 2.25,
          "velocity": 0.6299212598425197
        },
        {
          "duration": 0.12395833333333339,
          "durationTicks": 119,
          "midi": 56,
          "name": "G#3",
          "ticks": 2280,
          "time": 2.375,
          "velocity": 0.6299212598425197
        },
        {
          "duration": 0.12395833333333339,
          "durationTicks": 119,
          "midi": 53,
          "name": "F3",
          "ticks": 2400,
          "time": 2.5,
          "velocity": 0.6299212598425197
        },
        {
          "duration": 0.12395833333333339,
          "durationTicks": 119,
          "midi": 56,
          "name": "G#3",
          "ticks": 2520,
          "time": 2.625,
          "velocity": 0.6299212598425197
        },
        {
          "duration": 0.12395833333333339,
          "durationTicks": 119,
          "midi": 55,
          "name": "G3",
          "ticks": 2640,
          "time": 2.75,
          "velocity": 0.6299212598425197
        },
        {
          "duration": 0.12395833333333339,
          "durationTicks": 119,
          "midi": 56,
          "name": "G#3",
          "ticks": 2760,
          "time": 2.875,
          "velocity": 0.6299212598425197
        },
        {
          "duration": 0.12395833333333339,
          "durationTicks": 119,
          "midi": 48,
          "name": "C3",
          "ticks": 2880,
          "time": 3,
          "velocity": 0.6299212598425197
        },
        {
          "duration": 0.12395833333333339,
          "durationTicks": 119,
          "midi": 56,
          "name": "G#3",
          "ticks": 3000,
          "time": 3.125,
          "velocity": 0.6299212598425197
        },
        {
          "duration": 0.12395833333333339,
          "durationTicks": 119,
          "midi": 55,
          "name": "G3",
          "ticks": 3120,
          "time": 3.25,
          "velocity": 0.6299212598425197
        },
        {
          "duration": 0.12395833333333339,
          "durationTicks": 119,
          "midi": 56,
          "name": "G#3",
          "ticks": 3240,
          "time": 3.375,
          "velocity": 0.6299212598425197
        },
        {
          "duration": 0.12395833333333339,
          "durationTicks": 119,
          "midi": 53,
          "name": "F3",
          "ticks": 3360,
          "time": 3.5,
          "velocity": 0.6299212598425197
        },
        {
          "duration": 0.12395833333333339,
          "durationTicks": 119,
          "midi": 56,
          "name": "G#3",
          "ticks": 3480,
          "time": 3.625,
          "velocity": 0.6299212598425197
        },
        {
          "duration": 0.12395833333333339,
          "durationTicks": 119,
          "midi": 55,
          "name": "G3",
          "ticks": 3600,
          "time": 3.75,
          "velocity": 0.6299212598425197
        },
        {
          "duration": 0.12395833333333339,
          "durationTicks": 119,
          "midi": 56,
          "name": "G#3",
          "ticks": 3720,
          "time": 3.875,
          "velocity": 0.6299212598425197
        },
        {
          "duration": 0.12395833333333339,
          "durationTicks": 119,
          "midi": 48,
          "name": "C3",
          "ticks": 3840,
          "time": 4,
          "velocity": 0.6299212598425197
        },
        {
          "duration": 0.12395833333333339,
          "durationTicks": 119,
          "midi": 56,
          "name": "G#3",
          "ticks": 3960,
          "time": 4.125,
          "velocity": 0.6299212598425197
        },
        {
          "duration": 0.12395833333333339,
          "durationTicks": 119,
          "midi": 55,
          "name": "G3",
          "ticks": 4080,
          "time": 4.25,
          "velocity": 0.6299212598425197
        },
        {
          "duration": 0.12395833333333339,
          "durationTicks": 119,
          "midi": 56,
          "name": "G#3",
          "ticks": 4200,
          "time": 4.375,
          "velocity": 0.6299212598425197
        },
        {
          "duration": 0.12395833333333339,
          "durationTicks": 119,
          "midi": 53,
          "name": "F3",
          "ticks": 4320,
          "time": 4.5,
          "velocity": 0.6299212598425197
        },
        {
          "duration": 0.12395833333333339,
          "durationTicks": 119,
          "midi": 56,
          "name": "G#3",
          "ticks": 4440,
          "time": 4.625,
          "velocity": 0.6299212598425197
        },
        {
          "duration": 0.12395833333333339,
          "durationTicks": 119,
          "midi": 55,
          "name": "G3",
          "ticks": 4560,
          "time": 4.75,
          "velocity": 0.6299212598425197
        },
        {
          "duration": 0.12395833333333339,
          "durationTicks": 119,
          "midi": 56,
          "name": "G#3",
          "ticks": 4680,
          "time": 4.875,
          "velocity": 0.6299212598425197
        },
        {
          "duration": 0.12395833333333339,
          "durationTicks": 119,
          "midi": 48,
          "name": "C3",
          "ticks": 4800,
          "time": 5,
          "velocity": 0.6299212598425197
        },
        {
          "duration": 0.12395833333333339,
          "durationTicks": 119,
          "midi": 56,
          "name": "G#3",
          "ticks": 4920,
          "time": 5.125,
          "velocity": 0.6299212598425197
        },
        {
          "duration": 0.12395833333333339,
          "durationTicks": 119,
          "midi": 55,
          "name": "G3",
          "ticks": 5040,
          "time": 5.25,
          "velocity": 0.6299212598425197
        },
        {
          "duration": 0.12395833333333339,
          "durationTicks": 119,
          "midi": 56,
          "name": "G#3",
          "ticks": 5160,
          "time": 5.375,
          "velocity": 0.6299212598425197
        },
        {
          "duration": 0.12395833333333339,
          "durationTicks": 119,
          "midi": 53,
          "name": "F3",
          "ticks": 5280,
          "time": 5.5,
          "velocity": 0.6299212598425197
        },
        {
          "duration": 0.12395833333333339,
          "durationTicks": 119,
          "midi": 56,
          "name": "G#3",
          "ticks": 5400,
          "time": 5.625,
          "velocity": 0.6299212598425197
        },
        {
          "duration": 0.12395833333333339,
          "durationTicks": 119,
          "midi": 55,
          "name": "G3",
          "ticks": 5520,
          "time": 5.75,
          "velocity": 0.6299212598425197
        },
        {
          "duration": 0.12395833333333339,
          "durationTicks": 119,
          "midi": 56,
          "name": "G#3",
          "ticks": 5640,
          "time": 5.875,
          "velocity": 0.6299212598425197
        },
        {
          "duration": 0.12395833333333339,
          "durationTicks": 119,
          "midi": 48,
          "name": "C3",
          "ticks": 5760,
          "time": 6,
          "velocity": 0.6299212598425197
        },
        {
          "duration": 0.12395833333333339,
          "durationTicks": 119,
          "midi": 51,
          "name": "D#3",
          "ticks": 5880,
          "time": 6.125,
          "velocity": 0.6299212598425197
        },
        {
          "duration": 0.12395833333333339,
          "durationTicks": 119,
          "midi": 50,
          "name": "D3",
          "ticks": 6000,
          "time": 6.25,
          "velocity": 0.6299212598425197
        },
        {
          "duration": 0.12395833333333339,
          "durationTicks": 119,
          "midi": 51,
          "name": "D#3",
          "ticks": 6120,
          "time": 6.375,
          "velocity": 0.6299212598425197
        },
        {
          "duration": 0.12395833333333339,
          "durationTicks": 119,
          "midi": 55,
          "name": "G3",
          "ticks": 6240,
          "time": 6.5,
          "velocity": 0.6299212598425197
        },
        {
          "duration": 0.12395833333333339,
          "durationTicks": 119,
          "midi": 51,
          "name": "D#3",
          "ticks": 6360,
          "time": 6.625,
          "velocity": 0.6299212598425197
        },
        {
          "duration": 0.12395833333333339,
          "durationTicks": 119,
          "midi": 50,
          "name": "D3",
          "ticks": 6480,
          "time": 6.75,
          "velocity": 0.6299212598425197
        },
        {
          "duration": 0.12395833333333339,
          "durationTicks": 119,
          "midi": 51,
          "name": "D#3",
          "ticks": 6600,
          "time": 6.875,
          "velocity": 0.6299212598425197
        },
        {
          "duration": 0.12395833333333339,
          "durationTicks": 119,
          "midi": 48,
          "name": "C3",
          "ticks": 6720,
          "time": 7,
          "velocity": 0.6299212598425197
        },
        {
          "duration": 0.12395833333333339,
          "durationTicks": 119,
          "midi": 51,
          "name": "D#3",
          "ticks": 6840,
          "time": 7.125,
          "velocity": 0.6299212598425197
        },
        {
          "duration": 0.12395833333333339,
          "durationTicks": 119,
          "midi": 50,
          "name": "D3",
          "ticks": 6960,
          "time": 7.25,
          "velocity": 0.6299212598425197
        },
        {
          "duration": 0.12395833333333339,
          "durationTicks": 119,
          "midi": 51,
          "name": "D#3",
          "ticks": 7080,
          "time": 7.375,
          "velocity": 0.6299212598425197
        },
        {
          "duration": 0.12395833333333339,
          "durationTicks": 119,
          "midi": 55,
          "name": "G3",
          "ticks": 7200,
          "time": 7.5,
          "velocity": 0.6299212598425197
        },
        {
          "duration": 0.12395833333333339,
          "durationTicks": 119,
          "midi": 51,
          "name": "D#3",
          "ticks": 7320,
          "time": 7.625,
          "velocity": 0.6299212598425197
        },
        {
          "duration": 0.12395833333333339,
          "durationTicks": 119,
          "midi": 50,
          "name": "D3",
          "ticks": 7440,
          "time": 7.75,
          "velocity": 0.6299212598425197
        },
        {
          "duration": 0.12395833333333339,
          "durationTicks": 119,
          "midi": 51,
          "name": "D#3",
          "ticks": 7560,
          "time": 7.875,
          "velocity": 0.6299212598425197
        },
        {
          "duration": 0.1239583333333325,
          "durationTicks": 119,
          "midi": 48,
          "name": "C3",
          "ticks": 7680,
          "time": 8,
          "velocity": 0.6299212598425197
        },
        {
          "duration": 0.1239583333333325,
          "durationTicks": 119,
          "midi": 60,
          "name": "C4",
          "ticks": 7800,
          "time": 8.125,
          "velocity": 0.6299212598425197
        },
        {
          "duration": 0.1239583333333325,
          "durationTicks": 119,
          "midi": 58,
          "name": "A#3",
          "ticks": 7920,
          "time": 8.25,
          "velocity": 0.6299212598425197
        },
        {
          "duration": 0.1239583333333325,
          "durationTicks": 119,
          "midi": 60,
          "name": "C4",
          "ticks": 8040,
          "time": 8.375,
          "velocity": 0.6299212598425197
        },
        {
          "duration": 0.1239583333333325,
          "durationTicks": 119,
          "midi": 56,
          "name": "G#3",
          "ticks": 8160,
          "time": 8.5,
          "velocity": 0.6299212598425197
        },
        {
          "duration": 0.1239583333333325,
          "durationTicks": 119,
          "midi": 60,
          "name": "C4",
          "ticks": 8280,
          "time": 8.625,
          "velocity": 0.6299212598425197
        },
        {
          "duration": 0.1239583333333325,
          "durationTicks": 119,
          "midi": 58,
          "name": "A#3",
          "ticks": 8400,
          "time": 8.75,
          "velocity": 0.6299212598425197
        },
        {
          "duration": 0.1239583333333325,
          "durationTicks": 119,
          "midi": 60,
          "name": "C4",
          "ticks": 8520,
          "time": 8.875,
          "velocity": 0.6299212598425197
        },
        {
          "duration": 0.1239583333333325,
          "durationTicks": 119,
          "midi": 48,
          "name": "C3",
          "ticks": 8640,
          "time": 9,
          "velocity": 0.6299212598425197
        },
        {
          "duration": 0.1239583333333325,
          "durationTicks": 119,
          "midi": 60,
          "name": "C4",
          "ticks": 8760,
          "time": 9.125,
          "velocity": 0.6299212598425197
        },
        {
          "duration": 0.1239583333333325,
          "durationTicks": 119,
          "midi": 58,
          "name": "A#3",
          "ticks": 8880,
          "time": 9.25,
          "velocity": 0.6299212598425197
        },
        {
          "duration": 0.1239583333333325,
          "durationTicks": 119,
          "midi": 60,
          "name": "C4",
          "ticks": 9000,
          "time": 9.375,
          "velocity": 0.6299212598425197
        },
        {
          "duration": 0.1239583333333325,
          "durationTicks": 119,
          "midi": 56,
          "name": "G#3",
          "ticks": 9120,
          "time": 9.5,
          "velocity": 0.6299212598425197
        },
        {
          "duration": 0.1239583333333325,
          "durationTicks": 119,
          "midi": 60,
          "name": "C4",
          "ticks": 9240,
          "time": 9.625,
          "velocity": 0.6299212598425197
        },
        {
          "duration": 0.1239583333333325,
          "durationTicks": 119,
          "midi": 58,
          "name": "A#3",
          "ticks": 9360,
          "time": 9.75,
          "velocity": 0.6299212598425197
        },
        {
          "duration": 0.1239583333333325,
          "durationTicks": 119,
          "midi": 60,
          "name": "C4",
          "ticks": 9480,
          "time": 9.875,
          "velocity": 0.6299212598425197
        },
        {
          "duration": 0.1239583333333325,
          "durationTicks": 119,
          "midi": 48,
          "name": "C3",
          "ticks": 9600,
          "time": 10,
          "velocity": 0.6299212598425197
        },
        {
          "duration": 0.1239583333333325,
          "durationTicks": 119,
          "midi": 57,
          "name": "A3",
          "ticks": 9720,
          "time": 10.125,
          "velocity": 0.6299212598425197
        },
        {
          "duration": 0.1239583333333325,
          "durationTicks": 119,
          "midi": 55,
          "name": "G3",
          "ticks": 9840,
          "time": 10.25,
          "velocity": 0.6299212598425197
        },
        {
          "duration": 0.1239583333333325,
          "durationTicks": 119,
          "midi": 57,
          "name": "A3",
          "ticks": 9960,
          "time": 10.375,
          "velocity": 0.6299212598425197
        },
        {
          "duration": 0.1239583333333325,
          "durationTicks": 119,
          "midi": 54,
          "name": "F#3",
          "ticks": 10080,
          "time": 10.5,
          "velocity": 0.6299212598425197
        },
        {
          "duration": 0.1239583333333325,
          "durationTicks": 119,
          "midi": 57,
          "name": "A3",
          "ticks": 10200,
          "time": 10.625,
          "velocity": 0.6299212598425197
        },
        {
          "duration": 0.1239583333333325,
          "durationTicks": 119,
          "midi": 55,
          "name": "G3",
          "ticks": 10320,
          "time": 10.75,
          "velocity": 0.6299212598425197
        },
        {
          "duration": 0.1239583333333325,
          "durationTicks": 119,
          "midi": 57,
          "name": "A3",
          "ticks": 10440,
          "time": 10.875,
          "velocity": 0.6299212598425197
        },
        {
          "duration": 0.1239583333333325,
          "durationTicks": 119,
          "midi": 48,
          "name": "C3",
          "ticks": 10560,
          "time": 11,
          "velocity": 0.6299212598425197
        },
        {
          "duration": 0.1239583333333325,
          "durationTicks": 119,
          "midi": 57,
          "name": "A3",
          "ticks": 10680,
          "time": 11.125,
          "velocity": 0.6299212598425197
        },
        {
          "duration": 0.1239583333333325,
          "durationTicks": 119,
          "midi": 55,
          "name": "G3",
          "ticks": 10800,
          "time": 11.25,
          "velocity": 0.6299212598425197
        },
        {
          "duration": 0.1239583333333325,
          "durationTicks": 119,
          "midi": 57,
          "name": "A3",
          "ticks": 10920,
          "time": 11.375,
          "velocity": 0.6299212598425197
        },
        {
          "duration": 0.1239583333333325,
          "durationTicks": 119,
          "midi": 54,
          "name": "F#3",
          "ticks": 11040,
          "time": 11.5,
          "velocity": 0.6299212598425197
        },
        {
          "duration": 0.1239583333333325,
          "durationTicks": 119,
          "midi": 57,
          "name": "A3",
          "ticks": 11160,
          "time": 11.625,
          "velocity": 0.6299212598425197
        },
        {
          "duration": 0.1239583333333325,
          "durationTicks": 119,
          "midi": 55,
          "name": "G3",
          "ticks": 11280,
          "time": 11.75,
          "velocity": 0.6299212598425197
        },
        {
          "duration": 0.1239583333333325,
          "durationTicks": 119,
          "midi": 57,
          "name": "A3",
          "ticks": 11400,
          "time": 11.875,
          "velocity": 0.6299212598425197
        },
        {
          "duration": 0.1239583333333325,
          "durationTicks": 119,
          "midi": 46,
          "name": "A#2",
          "ticks": 11520,
          "time": 12,
          "velocity": 0.6299212598425197
        },
        {
          "duration": 0.1239583333333325,
          "durationTicks": 119,
          "midi": 58,
          "name": "A#3",
          "ticks": 11640,
          "time": 12.125,
          "velocity": 0.6299212598425197
        },
        {
          "duration": 0.1239583333333325,
          "durationTicks": 119,
          "midi": 57,
          "name": "A3",
          "ticks": 11760,
          "time": 12.25,
          "velocity": 0.6299212598425197
        },
        {
          "duration": 0.1239583333333325,
          "durationTicks": 119,
          "midi": 58,
          "name": "A#3",
          "ticks": 11880,
          "time": 12.375,
          "velocity": 0.6299212598425197
        },
        {
          "duration": 0.1239583333333325,
          "durationTicks": 119,
          "midi": 55,
          "name": "G3",
          "ticks": 12000,
          "time": 12.5,
          "velocity": 0.6299212598425197
        },
        {
          "duration": 0.1239583333333325,
          "durationTicks": 119,
          "midi": 58,
          "name": "A#3",
          "ticks": 12120,
          "time": 12.625,
          "velocity": 0.6299212598425197
        },
        {
          "duration": 0.1239583333333325,
          "durationTicks": 119,
          "midi": 57,
          "name": "A3",
          "ticks": 12240,
          "time": 12.75,
          "velocity": 0.6299212598425197
        },
        {
          "duration": 0.1239583333333325,
          "durationTicks": 119,
          "midi": 58,
          "name": "A#3",
          "ticks": 12360,
          "time": 12.875,
          "velocity": 0.6299212598425197
        },
        {
          "duration": 0.1239583333333325,
          "durationTicks": 119,
          "midi": 46,
          "name": "A#2",
          "ticks": 12480,
          "time": 13,
          "velocity": 0.6299212598425197
        },
        {
          "duration": 0.1239583333333325,
          "durationTicks": 119,
          "midi": 58,
          "name": "A#3",
          "ticks": 12600,
          "time": 13.125,
          "velocity": 0.6299212598425197
        },
        {
          "duration": 0.1239583333333325,
          "durationTicks": 119,
          "midi": 57,
          "name": "A3",
          "ticks": 12720,
          "time": 13.25,
          "velocity": 0.6299212598425197
        },
        {
          "duration": 0.1239583333333325,
          "durationTicks": 119,
          "midi": 58,
          "name": "A#3",
          "ticks": 12840,
          "time": 13.375,
          "velocity": 0.6299212598425197
        },
        {
          "duration": 0.1239583333333325,
          "durationTicks": 119,
          "midi": 55,
          "name": "G3",
          "ticks": 12960,
          "time": 13.5,
          "velocity": 0.6299212598425197
        },
        {
          "duration": 0.1239583333333325,
          "durationTicks": 119,
          "midi": 58,
          "name": "A#3",
          "ticks": 13080,
          "time": 13.625,
          "velocity": 0.6299212598425197
        },
        {
          "duration": 0.1239583333333325,
          "durationTicks": 119,
          "midi": 57,
          "name": "A3",
          "ticks": 13200,
          "time": 13.75,
          "velocity": 0.6299212598425197
        },
        {
          "duration": 0.1239583333333325,
          "durationTicks": 119,
          "midi": 58,
          "name": "A#3",
          "ticks": 13320,
          "time": 13.875,
          "velocity": 0.6299212598425197
        },
        {
          "duration": 0.1239583333333325,
          "durationTicks": 119,
          "midi": 46,
          "name": "A#2",
          "ticks": 13440,
          "time": 14,
          "velocity": 0.6299212598425197
        },
        {
          "duration": 0.1239583333333325,
          "durationTicks": 119,
          "midi": 55,
          "name": "G3",
          "ticks": 13560,
          "time": 14.125,
          "velocity": 0.6299212598425197
        },
        {
          "duration": 0.1239583333333325,
          "durationTicks": 119,
          "midi": 53,
          "name": "F3",
          "ticks": 13680,
          "time": 14.25,
          "velocity": 0.6299212598425197
        },
        {
          "duration": 0.1239583333333325,
          "durationTicks": 119,
          "midi": 55,
          "name": "G3",
          "ticks": 13800,
          "time": 14.375,
          "velocity": 0.6299212598425197
        },
        {
          "duration": 0.1239583333333325,
          "durationTicks": 119,
          "midi": 52,
          "name": "E3",
          "ticks": 13920,
          "time": 14.5,
          "velocity": 0.6299212598425197
        },
        {
          "duration": 0.1239583333333325,
          "durationTicks": 119,
          "midi": 55,
          "name": "G3",
          "ticks": 14040,
          "time": 14.625,
          "velocity": 0.6299212598425197
        },
        {
          "duration": 0.1239583333333325,
          "durationTicks": 119,
          "midi": 53,
          "name": "F3",
          "ticks": 14160,
          "time": 14.75,
          "velocity": 0.6299212598425197
        },
        {
          "duration": 0.1239583333333325,
          "durationTicks": 119,
          "midi": 55,
          "name": "G3",
          "ticks": 14280,
          "time": 14.875,
          "velocity": 0.6299212598425197
        },
        {
          "duration": 0.1239583333333325,
          "durationTicks": 119,
          "midi": 46,
          "name": "A#2",
          "ticks": 14400,
          "time": 15,
          "velocity": 0.6299212598425197
        },
        {
          "duration": 0.1239583333333325,
          "durationTicks": 119,
          "midi": 55,
          "name": "G3",
          "ticks": 14520,
          "time": 15.125,
          "velocity": 0.6299212598425197
        },
        {
          "duration": 0.1239583333333325,
          "durationTicks": 119,
          "midi": 53,
          "name": "F3",
          "ticks": 14640,
          "time": 15.25,
          "velocity": 0.6299212598425197
        },
        {
          "duration": 0.1239583333333325,
          "durationTicks": 119,
          "midi": 55,
          "name": "G3",
          "ticks": 14760,
          "time": 15.375,
          "velocity": 0.6299212598425197
        },
        {
          "duration": 0.1239583333333325,
          "durationTicks": 119,
          "midi": 52,
          "name": "E3",
          "ticks": 14880,
          "time": 15.5,
          "velocity": 0.6299212598425197
        },
        {
          "duration": 0.1239583333333325,
          "durationTicks": 119,
          "midi": 55,
          "name": "G3",
          "ticks": 15000,
          "time": 15.625,
          "velocity": 0.6299212598425197
        },
        {
          "duration": 0.1239583333333325,
          "durationTicks": 119,
          "midi": 53,
          "name": "F3",
          "ticks": 15120,
          "time": 15.75,
          "velocity": 0.6299212598425197
        },
        {
          "duration": 0.1239583333333325,
          "durationTicks": 119,
          "midi": 55,
          "name": "G3",
          "ticks": 15240,
          "time": 15.875,
          "velocity": 0.6299212598425197
        },
        {
          "duration": 0.12395833333333428,
          "durationTicks": 119,
          "midi": 44,
          "name": "G#2",
          "ticks": 15360,
          "time": 16,
          "velocity": 0.6299212598425197
        },
        {
          "duration": 0.12395833333333428,
          "durationTicks": 119,
          "midi": 56,
          "name": "G#3",
          "ticks": 15480,
          "time": 16.125,
          "velocity": 0.6299212598425197
        },
        {
          "duration": 0.12395833333333428,
          "durationTicks": 119,
          "midi": 55,
          "name": "G3",
          "ticks": 15600,
          "time": 16.25,
          "velocity": 0.6299212598425197
        },
        {
          "duration": 0.12395833333333428,
          "durationTicks": 119,
          "midi": 56,
          "name": "G#3",
          "ticks": 15720,
          "time": 16.375,
          "velocity": 0.6299212598425197
        },
        {
          "duration": 0.12395833333333428,
          "durationTicks": 119,
          "midi": 53,
          "name": "F3",
          "ticks": 15840,
          "time": 16.5,
          "velocity": 0.6299212598425197
        },
        {
          "duration": 0.12395833333333428,
          "durationTicks": 119,
          "midi": 56,
          "name": "G#3",
          "ticks": 15960,
          "time": 16.625,
          "velocity": 0.6299212598425197
        },
        {
          "duration": 0.12395833333333428,
          "durationTicks": 119,
          "midi": 55,
          "name": "G3",
          "ticks": 16080,
          "time": 16.75,
          "velocity": 0.6299212598425197
        },
        {
          "duration": 0.12395833333333428,
          "durationTicks": 119,
          "midi": 56,
          "name": "G#3",
          "ticks": 16200,
          "time": 16.875,
          "velocity": 0.6299212598425197
        },
        {
          "duration": 0.12395833333333428,
          "durationTicks": 119,
          "midi": 44,
          "name": "G#2",
          "ticks": 16320,
          "time": 17,
          "velocity": 0.6299212598425197
        },
        {
          "duration": 0.12395833333333428,
          "durationTicks": 119,
          "midi": 56,
          "name": "G#3",
          "ticks": 16440,
          "time": 17.125,
          "velocity": 0.6299212598425197
        },
        {
          "duration": 0.12395833333333428,
          "durationTicks": 119,
          "midi": 55,
          "name": "G3",
          "ticks": 16560,
          "time": 17.25,
          "velocity": 0.6299212598425197
        },
        {
          "duration": 0.12395833333333428,
          "durationTicks": 119,
          "midi": 56,
          "name": "G#3",
          "ticks": 16680,
          "time": 17.375,
          "velocity": 0.6299212598425197
        },
        {
          "duration": 0.12395833333333428,
          "durationTicks": 119,
          "midi": 53,
          "name": "F3",
          "ticks": 16800,
          "time": 17.5,
          "velocity": 0.6299212598425197
        },
        {
          "duration": 0.12395833333333428,
          "durationTicks": 119,
          "midi": 56,
          "name": "G#3",
          "ticks": 16920,
          "time": 17.625,
          "velocity": 0.6299212598425197
        },
        {
          "duration": 0.12395833333333428,
          "durationTicks": 119,
          "midi": 55,
          "name": "G3",
          "ticks": 17040,
          "time": 17.75,
          "velocity": 0.6299212598425197
        },
        {
          "duration": 0.12395833333333428,
          "durationTicks": 119,
          "midi": 56,
          "name": "G#3",
          "ticks": 17160,
          "time": 17.875,
          "velocity": 0.6299212598425197
        },
        {
          "duration": 0.12395833333333428,
          "durationTicks": 119,
          "midi": 44,
          "name": "G#2",
          "ticks": 17280,
          "time": 18,
          "velocity": 0.6299212598425197
        },
        {
          "duration": 0.12395833333333428,
          "durationTicks": 119,
          "midi": 50,
          "name": "D3",
          "ticks": 17400,
          "time": 18.125,
          "velocity": 0.6299212598425197
        },
        {
          "duration": 0.12395833333333428,
          "durationTicks": 119,
          "midi": 48,
          "name": "C3",
          "ticks": 17520,
          "time": 18.25,
          "velocity": 0.6299212598425197
        },
        {
          "duration": 0.12395833333333428,
          "durationTicks": 119,
          "midi": 50,
          "name": "D3",
          "ticks": 17640,
          "time": 18.375,
          "velocity": 0.6299212598425197
        },
        {
          "duration": 0.12395833333333428,
          "durationTicks": 119,
          "midi": 53,
          "name": "F3",
          "ticks": 17760,
          "time": 18.5,
          "velocity": 0.6299212598425197
        },
        {
          "duration": 0.12395833333333428,
          "durationTicks": 119,
          "midi": 50,
          "name": "D3",
          "ticks": 17880,
          "time": 18.625,
          "velocity": 0.6299212598425197
        },
        {
          "duration": 0.12395833333333428,
          "durationTicks": 119,
          "midi": 48,
          "name": "C3",
          "ticks": 18000,
          "time": 18.75,
          "velocity": 0.6299212598425197
        },
        {
          "duration": 0.12395833333333428,
          "durationTicks": 119,
          "midi": 50,
          "name": "D3",
          "ticks": 18120,
          "time": 18.875,
          "velocity": 0.6299212598425197
        },
        {
          "duration": 0.12395833333333428,
          "durationTicks": 119,
          "midi": 44,
          "name": "G#2",
          "ticks": 18240,
          "time": 19,
          "velocity": 0.6299212598425197
        },
        {
          "duration": 0.12395833333333428,
          "durationTicks": 119,
          "midi": 50,
          "name": "D3",
          "ticks": 18360,
          "time": 19.125,
          "velocity": 0.6299212598425197
        },
        {
          "duration": 0.12395833333333428,
          "durationTicks": 119,
          "midi": 48,
          "name": "C3",
          "ticks": 18480,
          "time": 19.25,
          "velocity": 0.6299212598425197
        },
        {
          "duration": 0.12395833333333428,
          "durationTicks": 119,
          "midi": 50,
          "name": "D3",
          "ticks": 18600,
          "time": 19.375,
          "velocity": 0.6299212598425197
        },
        {
          "duration": 0.12395833333333428,
          "durationTicks": 119,
          "midi": 53,
          "name": "F3",
          "ticks": 18720,
          "time": 19.5,
          "velocity": 0.6299212598425197
        },
        {
          "duration": 0.12395833333333428,
          "durationTicks": 119,
          "midi": 50,
          "name": "D3",
          "ticks": 18840,
          "time": 19.625,
          "velocity": 0.6299212598425197
        },
        {
          "duration": 0.12395833333333428,
          "durationTicks": 119,
          "midi": 48,
          "name": "C3",
          "ticks": 18960,
          "time": 19.75,
          "velocity": 0.6299212598425197
        },
        {
          "duration": 0.12395833333333428,
          "durationTicks": 119,
          "midi": 50,
          "name": "D3",
          "ticks": 19080,
          "time": 19.875,
          "velocity": 0.6299212598425197
        },
        {
          "duration": 0.12395833333333428,
          "durationTicks": 119,
          "midi": 43,
          "name": "G2",
          "ticks": 19200,
          "time": 20,
          "velocity": 0.6299212598425197
        },
        {
          "duration": 0.12395833333333428,
          "durationTicks": 119,
          "midi": 51,
          "name": "D#3",
          "ticks": 19320,
          "time": 20.125,
          "velocity": 0.6299212598425197
        },
        {
          "duration": 0.12395833333333428,
          "durationTicks": 119,
          "midi": 50,
          "name": "D3",
          "ticks": 19440,
          "time": 20.25,
          "velocity": 0.6299212598425197
        },
        {
          "duration": 0.12395833333333428,
          "durationTicks": 119,
          "midi": 51,
          "name": "D#3",
          "ticks": 19560,
          "time": 20.375,
          "velocity": 0.6299212598425197
        },
        {
          "duration": 0.12395833333333428,
          "durationTicks": 119,
          "midi": 55,
          "name": "G3",
          "ticks": 19680,
          "time": 20.5,
          "velocity": 0.6299212598425197
        },
        {
          "duration": 0.12395833333333428,
          "durationTicks": 119,
          "midi": 51,
          "name": "D#3",
          "ticks": 19800,
          "time": 20.625,
          "velocity": 0.6299212598425197
        },
        {
          "duration": 0.12395833333333428,
          "durationTicks": 119,
          "midi": 50,
          "name": "D3",
          "ticks": 19920,
          "time": 20.75,
          "velocity": 0.6299212598425197
        },
        {
          "duration": 0.12395833333333428,
          "durationTicks": 119,
          "midi": 51,
          "name": "D#3",
          "ticks": 20040,
          "time": 20.875,
          "velocity": 0.6299212598425197
        },
        {
          "duration": 0.12395833333333428,
          "durationTicks": 119,
          "midi": 43,
          "name": "G2",
          "ticks": 20160,
          "time": 21,
          "velocity": 0.6299212598425197
        },
        {
          "duration": 0.12395833333333428,
          "durationTicks": 119,
          "midi": 51,
          "name": "D#3",
          "ticks": 20280,
          "time": 21.125,
          "velocity": 0.6299212598425197
        },
        {
          "duration": 0.12395833333333428,
          "durationTicks": 119,
          "midi": 50,
          "name": "D3",
          "ticks": 20400,
          "time": 21.25,
          "velocity": 0.6299212598425197
        },
        {
          "duration": 0.12395833333333428,
          "durationTicks": 119,
          "midi": 51,
          "name": "D#3",
          "ticks": 20520,
          "time": 21.375,
          "velocity": 0.6299212598425197
        },
        {
          "duration": 0.12395833333333428,
          "durationTicks": 119,
          "midi": 55,
          "name": "G3",
          "ticks": 20640,
          "time": 21.5,
          "velocity": 0.6299212598425197
        },
        {
          "duration": 0.12395833333333428,
          "durationTicks": 119,
          "midi": 51,
          "name": "D#3",
          "ticks": 20760,
          "time": 21.625,
          "velocity": 0.6299212598425197
        },
        {
          "duration": 0.12395833333333428,
          "durationTicks": 119,
          "midi": 50,
          "name": "D3",
          "ticks": 20880,
          "time": 21.75,
          "velocity": 0.6299212598425197
        },
        {
          "duration": 0.12395833333333428,
          "durationTicks": 119,
          "midi": 51,
          "name": "D#3",
          "ticks": 21000,
          "time": 21.875,
          "velocity": 0.6299212598425197
        },
        {
          "duration": 0.12395833333333428,
          "durationTicks": 119,
          "midi": 48,
          "name": "C3",
          "ticks": 21120,
          "time": 22,
          "velocity": 0.6299212598425197
        },
        {
          "duration": 0.12395833333333428,
          "durationTicks": 119,
          "midi": 51,
          "name": "D#3",
          "ticks": 21240,
          "time": 22.125,
          "velocity": 0.6299212598425197
        },
        {
          "duration": 0.12395833333333428,
          "durationTicks": 119,
          "midi": 50,
          "name": "D3",
          "ticks": 21360,
          "time": 22.25,
          "velocity": 0.6299212598425197
        },
        {
          "duration": 0.12395833333333428,
          "durationTicks": 119,
          "midi": 51,
          "name": "D#3",
          "ticks": 21480,
          "time": 22.375,
          "velocity": 0.6299212598425197
        },
        {
          "duration": 0.12395833333333428,
          "durationTicks": 119,
          "midi": 56,
          "name": "G#3",
          "ticks": 21600,
          "time": 22.5,
          "velocity": 0.6299212598425197
        },
        {
          "duration": 0.12395833333333428,
          "durationTicks": 119,
          "midi": 51,
          "name": "D#3",
          "ticks": 21720,
          "time": 22.625,
          "velocity": 0.6299212598425197
        },
        {
          "duration": 0.12395833333333428,
          "durationTicks": 119,
          "midi": 50,
          "name": "D3",
          "ticks": 21840,
          "time": 22.75,
          "velocity": 0.6299212598425197
        },
        {
          "duration": 0.12395833333333428,
          "durationTicks": 119,
          "midi": 51,
          "name": "D#3",
          "ticks": 21960,
          "time": 22.875,
          "velocity": 0.6299212598425197
        },
        {
          "duration": 0.12395833333333428,
          "durationTicks": 119,
          "midi": 48,
          "name": "C3",
          "ticks": 22080,
          "time": 23,
          "velocity": 0.6299212598425197
        },
        {
          "duration": 0.12395833333333428,
          "durationTicks": 119,
          "midi": 51,
          "name": "D#3",
          "ticks": 22200,
          "time": 23.125,
          "velocity": 0.6299212598425197
        },
        {
          "duration": 0.12395833333333428,
          "durationTicks": 119,
          "midi": 50,
          "name": "D3",
          "ticks": 22320,
          "time": 23.25,
          "velocity": 0.6299212598425197
        },
        {
          "duration": 0.12395833333333428,
          "durationTicks": 119,
          "midi": 51,
          "name": "D#3",
          "ticks": 22440,
          "time": 23.375,
          "velocity": 0.6299212598425197
        },
        {
          "duration": 0.12395833333333428,
          "durationTicks": 119,
          "midi": 56,
          "name": "G#3",
          "ticks": 22560,
          "time": 23.5,
          "velocity": 0.6299212598425197
        },
        {
          "duration": 0.12395833333333428,
          "durationTicks": 119,
          "midi": 51,
          "name": "D#3",
          "ticks": 22680,
          "time": 23.625,
          "velocity": 0.6299212598425197
        },
        {
          "duration": 0.12395833333333428,
          "durationTicks": 119,
          "midi": 50,
          "name": "D3",
          "ticks": 22800,
          "time": 23.75,
          "velocity": 0.6299212598425197
        },
        {
          "duration": 0.12395833333333428,
          "durationTicks": 119,
          "midi": 51,
          "name": "D#3",
          "ticks": 22920,
          "time": 23.875,
          "velocity": 0.6299212598425197
        },
        {
          "duration": 0.12395833333333428,
          "durationTicks": 119,
          "midi": 50,
          "name": "D3",
          "ticks": 23040,
          "time": 24,
          "velocity": 0.6299212598425197
        },
        {
          "duration": 0.12395833333333428,
          "durationTicks": 119,
          "midi": 53,
          "name": "F3",
          "ticks": 23160,
          "time": 24.125,
          "velocity": 0.6299212598425197
        },
        {
          "duration": 0.12395833333333428,
          "durationTicks": 119,
          "midi": 51,
          "name": "D#3",
          "ticks": 23280,
          "time": 24.25,
          "velocity": 0.6299212598425197
        },
        {
          "duration": 0.12395833333333428,
          "durationTicks": 119,
          "midi": 53,
          "name": "F3",
          "ticks": 23400,
          "time": 24.375,
          "velocity": 0.6299212598425197
        },
        {
          "duration": 0.12395833333333428,
          "durationTicks": 119,
          "midi": 56,
          "name": "G#3",
          "ticks": 23520,
          "time": 24.5,
          "velocity": 0.6299212598425197
        },
        {
          "duration": 0.12395833333333428,
          "durationTicks": 119,
          "midi": 53,
          "name": "F3",
          "ticks": 23640,
          "time": 24.625,
          "velocity": 0.6299212598425197
        },
        {
          "duration": 0.12395833333333428,
          "durationTicks": 119,
          "midi": 51,
          "name": "D#3",
          "ticks": 23760,
          "time": 24.75,
          "velocity": 0.6299212598425197
        },
        {
          "duration": 0.12395833333333428,
          "durationTicks": 119,
          "midi": 53,
          "name": "F3",
          "ticks": 23880,
          "time": 24.875,
          "velocity": 0.6299212598425197
        },
        {
          "duration": 0.12395833333333428,
          "durationTicks": 119,
          "midi": 50,
          "name": "D3",
          "ticks": 24000,
          "time": 25,
          "velocity": 0.6299212598425197
        },
        {
          "duration": 0.12395833333333428,
          "durationTicks": 119,
          "midi": 53,
          "name": "F3",
          "ticks": 24120,
          "time": 25.125,
          "velocity": 0.6299212598425197
        },
        {
          "duration": 0.12395833333333428,
          "durationTicks": 119,
          "midi": 51,
          "name": "D#3",
          "ticks": 24240,
          "time": 25.25,
          "velocity": 0.6299212598425197
        },
        {
          "duration": 0.12395833333333428,
          "durationTicks": 119,
          "midi": 53,
          "name": "F3",
          "ticks": 24360,
          "time": 25.375,
          "velocity": 0.6299212598425197
        },
        {
          "duration": 0.12395833333333428,
          "durationTicks": 119,
          "midi": 56,
          "name": "G#3",
          "ticks": 24480,
          "time": 25.5,
          "velocity": 0.6299212598425197
        },
        {
          "duration": 0.12395833333333428,
          "durationTicks": 119,
          "midi": 53,
          "name": "F3",
          "ticks": 24600,
          "time": 25.625,
          "velocity": 0.6299212598425197
        },
        {
          "duration": 0.12395833333333428,
          "durationTicks": 119,
          "midi": 51,
          "name": "D#3",
          "ticks": 24720,
          "time": 25.75,
          "velocity": 0.6299212598425197
        },
        {
          "duration": 0.12395833333333428,
          "durationTicks": 119,
          "midi": 53,
          "name": "F3",
          "ticks": 24840,
          "time": 25.875,
          "velocity": 0.6299212598425197
        },
        {
          "duration": 0.12395833333333428,
          "durationTicks": 119,
          "midi": 51,
          "name": "D#3",
          "ticks": 24960,
          "time": 26,
          "velocity": 0.6299212598425197
        },
        {
          "duration": 0.12395833333333428,
          "durationTicks": 119,
          "midi": 55,
          "name": "G3",
          "ticks": 25080,
          "time": 26.125,
          "velocity": 0.6299212598425197
        },
        {
          "duration": 0.12395833333333428,
          "durationTicks": 119,
          "midi": 53,
          "name": "F3",
          "ticks": 25200,
          "time": 26.25,
          "velocity": 0.6299212598425197
        },
        {
          "duration": 0.12395833333333428,
          "durationTicks": 119,
          "midi": 55,
          "name": "G3",
          "ticks": 25320,
          "time": 26.375,
          "velocity": 0.6299212598425197
        },
        {
          "duration": 0.12395833333333428,
          "durationTicks": 119,
          "midi": 56,
          "name": "G#3",
          "ticks": 25440,
          "time": 26.5,
          "velocity": 0.6299212598425197
        },
        {
          "duration": 0.12395833333333428,
          "durationTicks": 119,
          "midi": 55,
          "name": "G3",
          "ticks": 25560,
          "time": 26.625,
          "velocity": 0.6299212598425197
        },
        {
          "duration": 0.12395833333333428,
          "durationTicks": 119,
          "midi": 53,
          "name": "F3",
          "ticks": 25680,
          "time": 26.75,
          "velocity": 0.6299212598425197
        },
        {
          "duration": 0.12395833333333428,
          "durationTicks": 119,
          "midi": 55,
          "name": "G3",
          "ticks": 25800,
          "time": 26.875,
          "velocity": 0.6299212598425197
        },
        {
          "duration": 0.12395833333333428,
          "durationTicks": 119,
          "midi": 51,
          "name": "D#3",
          "ticks": 25920,
          "time": 27,
          "velocity": 0.6299212598425197
        },
        {
          "duration": 0.12395833333333428,
          "durationTicks": 119,
          "midi": 55,
          "name": "G3",
          "ticks": 26040,
          "time": 27.125,
          "velocity": 0.6299212598425197
        },
        {
          "duration": 0.12395833333333428,
          "durationTicks": 119,
          "midi": 53,
          "name": "F3",
          "ticks": 26160,
          "time": 27.25,
          "velocity": 0.6299212598425197
        },
        {
          "duration": 0.12395833333333428,
          "durationTicks": 119,
          "midi": 55,
          "name": "G3",
          "ticks": 26280,
          "time": 27.375,
          "velocity": 0.6299212598425197
        },
        {
          "duration": 0.12395833333333428,
          "durationTicks": 119,
          "midi": 56,
          "name": "G#3",
          "ticks": 26400,
          "time": 27.5,
          "velocity": 0.6299212598425197
        },
        {
          "duration": 0.12395833333333428,
          "durationTicks": 119,
          "midi": 55,
          "name": "G3",
          "ticks": 26520,
          "time": 27.625,
          "velocity": 0.6299212598425197
        },
        {
          "duration": 0.12395833333333428,
          "durationTicks": 119,
          "midi": 53,
          "name": "F3",
          "ticks": 26640,
          "time": 27.75,
          "velocity": 0.6299212598425197
        },
        {
          "duration": 0.12395833333333428,
          "durationTicks": 119,
          "midi": 55,
          "name": "G3",
          "ticks": 26760,
          "time": 27.875,
          "velocity": 0.6299212598425197
        },
        {
          "duration": 0.12395833333333428,
          "durationTicks": 119,
          "midi": 51,
          "name": "D#3",
          "ticks": 26880,
          "time": 28,
          "velocity": 0.6299212598425197
        },
        {
          "duration": 0.12395833333333428,
          "durationTicks": 119,
          "midi": 57,
          "name": "A3",
          "ticks": 27000,
          "time": 28.125,
          "velocity": 0.6299212598425197
        },
        {
          "duration": 0.12395833333333428,
          "durationTicks": 119,
          "midi": 55,
          "name": "G3",
          "ticks": 27120,
          "time": 28.25,
          "velocity": 0.6299212598425197
        },
        {
          "duration": 0.12395833333333428,
          "durationTicks": 119,
          "midi": 57,
          "name": "A3",
          "ticks": 27240,
          "time": 28.375,
          "velocity": 0.6299212598425197
        },
        {
          "duration": 0.12395833333333428,
          "durationTicks": 119,
          "midi": 53,
          "name": "F3",
          "ticks": 27360,
          "time": 28.5,
          "velocity": 0.6299212598425197
        },
        {
          "duration": 0.12395833333333428,
          "durationTicks": 119,
          "midi": 57,
          "name": "A3",
          "ticks": 27480,
          "time": 28.625,
          "velocity": 0.6299212598425197
        },
        {
          "duration": 0.12395833333333428,
          "durationTicks": 119,
          "midi": 55,
          "name": "G3",
          "ticks": 27600,
          "time": 28.75,
          "velocity": 0.6299212598425197
        },
        {
          "duration": 0.12395833333333428,
          "durationTicks": 119,
          "midi": 57,
          "name": "A3",
          "ticks": 27720,
          "time": 28.875,
          "velocity": 0.6299212598425197
        },
        {
          "duration": 0.12395833333333428,
          "durationTicks": 119,
          "midi": 51,
          "name": "D#3",
          "ticks": 27840,
          "time": 29,
          "velocity": 0.6299212598425197
        },
        {
          "duration": 0.12395833333333428,
          "durationTicks": 119,
          "midi": 57,
          "name": "A3",
          "ticks": 27960,
          "time": 29.125,
          "velocity": 0.6299212598425197
        },
        {
          "duration": 0.12395833333333428,
          "durationTicks": 119,
          "midi": 55,
          "name": "G3",
          "ticks": 28080,
          "time": 29.25,
          "velocity": 0.6299212598425197
        },
        {
          "duration": 0.12395833333333428,
          "durationTicks": 119,
          "midi": 57,
          "name": "A3",
          "ticks": 28200,
          "time": 29.375,
          "velocity": 0.6299212598425197
        },
        {
          "duration": 0.12395833333333428,
          "durationTicks": 119,
          "midi": 53,
          "name": "F3",
          "ticks": 28320,
          "time": 29.5,
          "velocity": 0.6299212598425197
        },
        {
          "duration": 0.12395833333333428,
          "durationTicks": 119,
          "midi": 57,
          "name": "A3",
          "ticks": 28440,
          "time": 29.625,
          "velocity": 0.6299212598425197
        },
        {
          "duration": 0.12395833333333428,
          "durationTicks": 119,
          "midi": 55,
          "name": "G3",
          "ticks": 28560,
          "time": 29.75,
          "velocity": 0.6299212598425197
        },
        {
          "duration": 0.12395833333333428,
          "durationTicks": 119,
          "midi": 57,
          "name": "A3",
          "ticks": 28680,
          "time": 29.875,
          "velocity": 0.6299212598425197
        },
        {
          "duration": 0.12395833333333428,
          "durationTicks": 119,
          "midi": 50,
          "name": "D3",
          "ticks": 28800,
          "time": 30,
          "velocity": 0.6299212598425197
        },
        {
          "duration": 0.12395833333333428,
          "durationTicks": 119,
          "midi": 53,
          "name": "F3",
          "ticks": 28920,
          "time": 30.125,
          "velocity": 0.6299212598425197
        },
        {
          "duration": 0.12395833333333428,
          "durationTicks": 119,
          "midi": 51,
          "name": "D#3",
          "ticks": 29040,
          "time": 30.25,
          "velocity": 0.6299212598425197
        },
        {
          "duration": 0.12395833333333428,
          "durationTicks": 119,
          "midi": 53,
          "name": "F3",
          "ticks": 29160,
          "time": 30.375,
          "velocity": 0.6299212598425197
        },
        {
          "duration": 0.12395833333333428,
          "durationTicks": 119,
          "midi": 56,
          "name": "G#3",
          "ticks": 29280,
          "time": 30.5,
          "velocity": 0.6299212598425197
        },
        {
          "duration": 0.12395833333333428,
          "durationTicks": 119,
          "midi": 53,
          "name": "F3",
          "ticks": 29400,
          "time": 30.625,
          "velocity": 0.6299212598425197
        },
        {
          "duration": 0.12395833333333428,
          "durationTicks": 119,
          "midi": 51,
          "name": "D#3",
          "ticks": 29520,
          "time": 30.75,
          "velocity": 0.6299212598425197
        },
        {
          "duration": 0.12395833333333428,
          "durationTicks": 119,
          "midi": 53,
          "name": "F3",
          "ticks": 29640,
          "time": 30.875,
          "velocity": 0.6299212598425197
        },
        {
          "duration": 0.12395833333333428,
          "durationTicks": 119,
          "midi": 50,
          "name": "D3",
          "ticks": 29760,
          "time": 31,
          "velocity": 0.6299212598425197
        },
        {
          "duration": 0.12395833333333428,
          "durationTicks": 119,
          "midi": 53,
          "name": "F3",
          "ticks": 29880,
          "time": 31.125,
          "velocity": 0.6299212598425197
        },
        {
          "duration": 0.12395833333333428,
          "durationTicks": 119,
          "midi": 51,
          "name": "D#3",
          "ticks": 30000,
          "time": 31.25,
          "velocity": 0.6299212598425197
        },
        {
          "duration": 0.12395833333333428,
          "durationTicks": 119,
          "midi": 53,
          "name": "F3",
          "ticks": 30120,
          "time": 31.375,
          "velocity": 0.6299212598425197
        },
        {
          "duration": 0.12395833333333428,
          "durationTicks": 119,
          "midi": 56,
          "name": "G#3",
          "ticks": 30240,
          "time": 31.5,
          "velocity": 0.6299212598425197
        },
        {
          "duration": 0.12395833333333428,
          "durationTicks": 119,
          "midi": 53,
          "name": "F3",
          "ticks": 30360,
          "time": 31.625,
          "velocity": 0.6299212598425197
        },
        {
          "duration": 0.12395833333333428,
          "durationTicks": 119,
          "midi": 51,
          "name": "D#3",
          "ticks": 30480,
          "time": 31.75,
          "velocity": 0.6299212598425197
        },
        {
          "duration": 0.12395833333333428,
          "durationTicks": 119,
          "midi": 53,
          "name": "F3",
          "ticks": 30600,
          "time": 31.875,
          "velocity": 0.6299212598425197
        },
        {
          "duration": 0.12395833333333428,
          "durationTicks": 119,
          "midi": 48,
          "name": "C3",
          "ticks": 30720,
          "time": 32,
          "velocity": 0.6299212598425197
        },
        {
          "duration": 0.12395833333333428,
          "durationTicks": 119,
          "midi": 53,
          "name": "F3",
          "ticks": 30840,
          "time": 32.125,
          "velocity": 0.6299212598425197
        },
        {
          "duration": 0.12395833333333428,
          "durationTicks": 119,
          "midi": 52,
          "name": "E3",
          "ticks": 30960,
          "time": 32.25,
          "velocity": 0.6299212598425197
        },
        {
          "duration": 0.12395833333333428,
          "durationTicks": 119,
          "midi": 53,
          "name": "F3",
          "ticks": 31080,
          "time": 32.375,
          "velocity": 0.6299212598425197
        },
        {
          "duration": 0.12395833333333428,
          "durationTicks": 119,
          "midi": 56,
          "name": "G#3",
          "ticks": 31200,
          "time": 32.5,
          "velocity": 0.6299212598425197
        },
        {
          "duration": 0.12395833333333428,
          "durationTicks": 119,
          "midi": 53,
          "name": "F3",
          "ticks": 31320,
          "time": 32.625,
          "velocity": 0.6299212598425197
        },
        {
          "duration": 0.12395833333333428,
          "durationTicks": 119,
          "midi": 52,
          "name": "E3",
          "ticks": 31440,
          "time": 32.75,
          "velocity": 0.6299212598425197
        },
        {
          "duration": 0.12395833333333428,
          "durationTicks": 119,
          "midi": 53,
          "name": "F3",
          "ticks": 31560,
          "time": 32.875,
          "velocity": 0.6299212598425197
        },
        {
          "duration": 0.12395833333333428,
          "durationTicks": 119,
          "midi": 48,
          "name": "C3",
          "ticks": 31680,
          "time": 33,
          "velocity": 0.6299212598425197
        },
        {
          "duration": 0.12395833333333428,
          "durationTicks": 119,
          "midi": 53,
          "name": "F3",
          "ticks": 31800,
          "time": 33.125,
          "velocity": 0.6299212598425197
        },
        {
          "duration": 0.12395833333333428,
          "durationTicks": 119,
          "midi": 52,
          "name": "E3",
          "ticks": 31920,
          "time": 33.25,
          "velocity": 0.6299212598425197
        },
        {
          "duration": 0.12395833333333428,
          "durationTicks": 119,
          "midi": 53,
          "name": "F3",
          "ticks": 32040,
          "time": 33.375,
          "velocity": 0.6299212598425197
        },
        {
          "duration": 0.12395833333333428,
          "durationTicks": 119,
          "midi": 56,
          "name": "G#3",
          "ticks": 32160,
          "time": 33.5,
          "velocity": 0.6299212598425197
        },
        {
          "duration": 0.12395833333333428,
          "durationTicks": 119,
          "midi": 53,
          "name": "F3",
          "ticks": 32280,
          "time": 33.625,
          "velocity": 0.6299212598425197
        },
        {
          "duration": 0.12395833333333428,
          "durationTicks": 119,
          "midi": 52,
          "name": "E3",
          "ticks": 32400,
          "time": 33.75,
          "velocity": 0.6299212598425197
        },
        {
          "duration": 0.12395833333333428,
          "durationTicks": 119,
          "midi": 53,
          "name": "F3",
          "ticks": 32520,
          "time": 33.875,
          "velocity": 0.6299212598425197
        },
        {
          "duration": 0.12395833333333428,
          "durationTicks": 119,
          "midi": 48,
          "name": "C3",
          "ticks": 32640,
          "time": 34,
          "velocity": 0.6299212598425197
        },
        {
          "duration": 0.12395833333333428,
          "durationTicks": 119,
          "midi": 51,
          "name": "D#3",
          "ticks": 32760,
          "time": 34.125,
          "velocity": 0.6299212598425197
        },
        {
          "duration": 0.12395833333333428,
          "durationTicks": 119,
          "midi": 50,
          "name": "D3",
          "ticks": 32880,
          "time": 34.25,
          "velocity": 0.6299212598425197
        },
        {
          "duration": 0.12395833333333428,
          "durationTicks": 119,
          "midi": 51,
          "name": "D#3",
          "ticks": 33000,
          "time": 34.375,
          "velocity": 0.6299212598425197
        },
        {
          "duration": 0.12395833333333428,
          "durationTicks": 119,
          "midi": 53,
          "name": "F3",
          "ticks": 33120,
          "time": 34.5,
          "velocity": 0.6299212598425197
        },
        {
          "duration": 0.12395833333333428,
          "durationTicks": 119,
          "midi": 51,
          "name": "D#3",
          "ticks": 33240,
          "time": 34.625,
          "velocity": 0.6299212598425197
        },
        {
          "duration": 0.12395833333333428,
          "durationTicks": 119,
          "midi": 50,
          "name": "D3",
          "ticks": 33360,
          "time": 34.75,
          "velocity": 0.6299212598425197
        },
        {
          "duration": 0.12395833333333428,
          "durationTicks": 119,
          "midi": 51,
          "name": "D#3",
          "ticks": 33480,
          "time": 34.875,
          "velocity": 0.6299212598425197
        },
        {
          "duration": 0.12395833333333428,
          "durationTicks": 119,
          "midi": 46,
          "name": "A#2",
          "ticks": 33600,
          "time": 35,
          "velocity": 0.6299212598425197
        },
        {
          "duration": 0.12395833333333428,
          "durationTicks": 119,
          "midi": 51,
          "name": "D#3",
          "ticks": 33720,
          "time": 35.125,
          "velocity": 0.6299212598425197
        },
        {
          "duration": 0.12395833333333428,
          "durationTicks": 119,
          "midi": 50,
          "name": "D3",
          "ticks": 33840,
          "time": 35.25,
          "velocity": 0.6299212598425197
        },
        {
          "duration": 0.12395833333333428,
          "durationTicks": 119,
          "midi": 51,
          "name": "D#3",
          "ticks": 33960,
          "time": 35.375,
          "velocity": 0.6299212598425197
        },
        {
          "duration": 0.12395833333333428,
          "durationTicks": 119,
          "midi": 53,
          "name": "F3",
          "ticks": 34080,
          "time": 35.5,
          "velocity": 0.6299212598425197
        },
        {
          "duration": 0.12395833333333428,
          "durationTicks": 119,
          "midi": 51,
          "name": "D#3",
          "ticks": 34200,
          "time": 35.625,
          "velocity": 0.6299212598425197
        },
        {
          "duration": 0.12395833333333428,
          "durationTicks": 119,
          "midi": 50,
          "name": "D3",
          "ticks": 34320,
          "time": 35.75,
          "velocity": 0.6299212598425197
        },
        {
          "duration": 0.12395833333333428,
          "durationTicks": 119,
          "midi": 51,
          "name": "D#3",
          "ticks": 34440,
          "time": 35.875,
          "velocity": 0.6299212598425197
        },
        {
          "duration": 0.12395833333333428,
          "durationTicks": 119,
          "midi": 44,
          "name": "G#2",
          "ticks": 34560,
          "time": 36,
          "velocity": 0.6299212598425197
        },
        {
          "duration": 0.12395833333333428,
          "durationTicks": 119,
          "midi": 48,
          "name": "C3",
          "ticks": 34680,
          "time": 36.125,
          "velocity": 0.6299212598425197
        },
        {
          "duration": 0.12395833333333428,
          "durationTicks": 119,
          "midi": 47,
          "name": "B2",
          "ticks": 34800,
          "time": 36.25,
          "velocity": 0.6299212598425197
        },
        {
          "duration": 0.12395833333333428,
          "durationTicks": 119,
          "midi": 48,
          "name": "C3",
          "ticks": 34920,
          "time": 36.375,
          "velocity": 0.6299212598425197
        },
        {
          "duration": 0.12395833333333428,
          "durationTicks": 119,
          "midi": 50,
          "name": "D3",
          "ticks": 35040,
          "time": 36.5,
          "velocity": 0.6299212598425197
        },
        {
          "duration": 0.12395833333333428,
          "durationTicks": 119,
          "midi": 48,
          "name": "C3",
          "ticks": 35160,
          "time": 36.625,
          "velocity": 0.6299212598425197
        },
        {
          "duration": 0.12395833333333428,
          "durationTicks": 119,
          "midi": 47,
          "name": "B2",
          "ticks": 35280,
          "time": 36.75,
          "velocity": 0.6299212598425197
        },
        {
          "duration": 0.12395833333333428,
          "durationTicks": 119,
          "midi": 48,
          "name": "C3",
          "ticks": 35400,
          "time": 36.875,
          "velocity": 0.6299212598425197
        },
        {
          "duration": 0.12395833333333428,
          "durationTicks": 119,
          "midi": 44,
          "name": "G#2",
          "ticks": 35520,
          "time": 37,
          "velocity": 0.6299212598425197
        },
        {
          "duration": 0.12395833333333428,
          "durationTicks": 119,
          "midi": 48,
          "name": "C3",
          "ticks": 35640,
          "time": 37.125,
          "velocity": 0.6299212598425197
        },
        {
          "duration": 0.12395833333333428,
          "durationTicks": 119,
          "midi": 47,
          "name": "B2",
          "ticks": 35760,
          "time": 37.25,
          "velocity": 0.6299212598425197
        },
        {
          "duration": 0.12395833333333428,
          "durationTicks": 119,
          "midi": 48,
          "name": "C3",
          "ticks": 35880,
          "time": 37.375,
          "velocity": 0.6299212598425197
        },
        {
          "duration": 0.12395833333333428,
          "durationTicks": 119,
          "midi": 50,
          "name": "D3",
          "ticks": 36000,
          "time": 37.5,
          "velocity": 0.6299212598425197
        },
        {
          "duration": 0.12395833333333428,
          "durationTicks": 119,
          "midi": 48,
          "name": "C3",
          "ticks": 36120,
          "time": 37.625,
          "velocity": 0.6299212598425197
        },
        {
          "duration": 0.12395833333333428,
          "durationTicks": 119,
          "midi": 47,
          "name": "B2",
          "ticks": 36240,
          "time": 37.75,
          "velocity": 0.6299212598425197
        },
        {
          "duration": 0.12395833333333428,
          "durationTicks": 119,
          "midi": 48,
          "name": "C3",
          "ticks": 36360,
          "time": 37.875,
          "velocity": 0.6299212598425197
        },
        {
          "duration": 0.12395833333333428,
          "durationTicks": 119,
          "midi": 45,
          "name": "A2",
          "ticks": 36480,
          "time": 38,
          "velocity": 0.6299212598425197
        },
        {
          "duration": 0.12395833333333428,
          "durationTicks": 119,
          "midi": 51,
          "name": "D#3",
          "ticks": 36600,
          "time": 38.125,
          "velocity": 0.6299212598425197
        },
        {
          "duration": 0.12395833333333428,
          "durationTicks": 119,
          "midi": 50,
          "name": "D3",
          "ticks": 36720,
          "time": 38.25,
          "velocity": 0.6299212598425197
        },
        {
          "duration": 0.12395833333333428,
          "durationTicks": 119,
          "midi": 51,
          "name": "D#3",
          "ticks": 36840,
          "time": 38.375,
          "velocity": 0.6299212598425197
        },
        {
          "duration": 0.12395833333333428,
          "durationTicks": 119,
          "midi": 48,
          "name": "C3",
          "ticks": 36960,
          "time": 38.5,
          "velocity": 0.6299212598425197
        },
        {
          "duration": 0.12395833333333428,
          "durationTicks": 119,
          "midi": 51,
          "name": "D#3",
          "ticks": 37080,
          "time": 38.625,
          "velocity": 0.6299212598425197
        },
        {
          "duration": 0.12395833333333428,
          "durationTicks": 119,
          "midi": 50,
          "name": "D3",
          "ticks": 37200,
          "time": 38.75,
          "velocity": 0.6299212598425197
        },
        {
          "duration": 0.12395833333333428,
          "durationTicks": 119,
          "midi": 51,
          "name": "D#3",
          "ticks": 37320,
          "time": 38.875,
          "velocity": 0.6299212598425197
        },
        {
          "duration": 0.12395833333333428,
          "durationTicks": 119,
          "midi": 45,
          "name": "A2",
          "ticks": 37440,
          "time": 39,
          "velocity": 0.6299212598425197
        },
        {
          "duration": 0.12395833333333428,
          "durationTicks": 119,
          "midi": 51,
          "name": "D#3",
          "ticks": 37560,
          "time": 39.125,
          "velocity": 0.6299212598425197
        },
        {
          "duration": 0.12395833333333428,
          "durationTicks": 119,
          "midi": 50,
          "name": "D3",
          "ticks": 37680,
          "time": 39.25,
          "velocity": 0.6299212598425197
        },
        {
          "duration": 0.12395833333333428,
          "durationTicks": 119,
          "midi": 51,
          "name": "D#3",
          "ticks": 37800,
          "time": 39.375,
          "velocity": 0.6299212598425197
        },
        {
          "duration": 0.12395833333333428,
          "durationTicks": 119,
          "midi": 48,
          "name": "C3",
          "ticks": 37920,
          "time": 39.5,
          "velocity": 0.6299212598425197
        },
        {
          "duration": 0.12395833333333428,
          "durationTicks": 119,
          "midi": 51,
          "name": "D#3",
          "ticks": 38040,
          "time": 39.625,
          "velocity": 0.6299212598425197
        },
        {
          "duration": 0.12395833333333428,
          "durationTicks": 119,
          "midi": 50,
          "name": "D3",
          "ticks": 38160,
          "time": 39.75,
          "velocity": 0.6299212598425197
        },
        {
          "duration": 0.12395833333333428,
          "durationTicks": 119,
          "midi": 51,
          "name": "D#3",
          "ticks": 38280,
          "time": 39.875,
          "velocity": 0.6299212598425197
        },
        {
          "duration": 0.12395833333333428,
          "durationTicks": 119,
          "midi": 43,
          "name": "G2",
          "ticks": 38400,
          "time": 40,
          "velocity": 0.6299212598425197
        },
        {
          "duration": 0.12395833333333428,
          "durationTicks": 119,
          "midi": 51,
          "name": "D#3",
          "ticks": 38520,
          "time": 40.125,
          "velocity": 0.6299212598425197
        },
        {
          "duration": 0.12395833333333428,
          "durationTicks": 119,
          "midi": 50,
          "name": "D3",
          "ticks": 38640,
          "time": 40.25,
          "velocity": 0.6299212598425197
        },
        {
          "duration": 0.12395833333333428,
          "durationTicks": 119,
          "midi": 51,
          "name": "D#3",
          "ticks": 38760,
          "time": 40.375,
          "velocity": 0.6299212598425197
        },
        {
          "duration": 0.12395833333333428,
          "durationTicks": 119,
          "midi": 53,
          "name": "F3",
          "ticks": 38880,
          "time": 40.5,
          "velocity": 0.6299212598425197
        },
        {
          "duration": 0.12395833333333428,
          "durationTicks": 119,
          "midi": 51,
          "name": "D#3",
          "ticks": 39000,
          "time": 40.625,
          "velocity": 0.6299212598425197
        },
        {
          "duration": 0.12395833333333428,
          "durationTicks": 119,
          "midi": 50,
          "name": "D3",
          "ticks": 39120,
          "time": 40.75,
          "velocity": 0.6299212598425197
        },
        {
          "duration": 0.12395833333333428,
          "durationTicks": 119,
          "midi": 51,
          "name": "D#3",
          "ticks": 39240,
          "time": 40.875,
          "velocity": 0.6299212598425197
        },
        {
          "duration": 0.12395833333333428,
          "durationTicks": 119,
          "midi": 43,
          "name": "G2",
          "ticks": 39360,
          "time": 41,
          "velocity": 0.6299212598425197
        },
        {
          "duration": 0.12395833333333428,
          "durationTicks": 119,
          "midi": 51,
          "name": "D#3",
          "ticks": 39480,
          "time": 41.125,
          "velocity": 0.6299212598425197
        },
        {
          "duration": 0.12395833333333428,
          "durationTicks": 119,
          "midi": 50,
          "name": "D3",
          "ticks": 39600,
          "time": 41.25,
          "velocity": 0.6299212598425197
        },
        {
          "duration": 0.12395833333333428,
          "durationTicks": 119,
          "midi": 51,
          "name": "D#3",
          "ticks": 39720,
          "time": 41.375,
          "velocity": 0.6299212598425197
        },
        {
          "duration": 0.12395833333333428,
          "durationTicks": 119,
          "midi": 53,
          "name": "F3",
          "ticks": 39840,
          "time": 41.5,
          "velocity": 0.6299212598425197
        },
        {
          "duration": 0.12395833333333428,
          "durationTicks": 119,
          "midi": 51,
          "name": "D#3",
          "ticks": 39960,
          "time": 41.625,
          "velocity": 0.6299212598425197
        },
        {
          "duration": 0.12395833333333428,
          "durationTicks": 119,
          "midi": 50,
          "name": "D3",
          "ticks": 40080,
          "time": 41.75,
          "velocity": 0.6299212598425197
        },
        {
          "duration": 0.12395833333333428,
          "durationTicks": 119,
          "midi": 51,
          "name": "D#3",
          "ticks": 40200,
          "time": 41.875,
          "velocity": 0.6299212598425197
        },
        {
          "duration": 0.12395833333333428,
          "durationTicks": 119,
          "midi": 43,
          "name": "G2",
          "ticks": 40320,
          "time": 42,
          "velocity": 0.6299212598425197
        },
        {
          "duration": 0.12395833333333428,
          "durationTicks": 119,
          "midi": 51,
          "name": "D#3",
          "ticks": 40440,
          "time": 42.125,
          "velocity": 0.6299212598425197
        },
        {
          "duration": 0.12395833333333428,
          "durationTicks": 119,
          "midi": 50,
          "name": "D3",
          "ticks": 40560,
          "time": 42.25,
          "velocity": 0.6299212598425197
        },
        {
          "duration": 0.12395833333333428,
          "durationTicks": 119,
          "midi": 51,
          "name": "D#3",
          "ticks": 40680,
          "time": 42.375,
          "velocity": 0.6299212598425197
        },
        {
          "duration": 0.12395833333333428,
          "durationTicks": 119,
          "midi": 48,
          "name": "C3",
          "ticks": 40800,
          "time": 42.5,
          "velocity": 0.6299212598425197
        },
        {
          "duration": 0.12395833333333428,
          "durationTicks": 119,
          "midi": 51,
          "name": "D#3",
          "ticks": 40920,
          "time": 42.625,
          "velocity": 0.6299212598425197
        },
        {
          "duration": 0.12395833333333428,
          "durationTicks": 119,
          "midi": 50,
          "name": "D3",
          "ticks": 41040,
          "time": 42.75,
          "velocity": 0.6299212598425197
        },
        {
          "duration": 0.12395833333333428,
          "durationTicks": 119,
          "midi": 51,
          "name": "D#3",
          "ticks": 41160,
          "time": 42.875,
          "velocity": 0.6299212598425197
        },
        {
          "duration": 0.12395833333333428,
          "durationTicks": 119,
          "midi": 43,
          "name": "G2",
          "ticks": 41280,
          "time": 43,
          "velocity": 0.6299212598425197
        },
        {
          "duration": 0.12395833333333428,
          "durationTicks": 119,
          "midi": 51,
          "name": "D#3",
          "ticks": 41400,
          "time": 43.125,
          "velocity": 0.6299212598425197
        },
        {
          "duration": 0.12395833333333428,
          "durationTicks": 119,
          "midi": 50,
          "name": "D3",
          "ticks": 41520,
          "time": 43.25,
          "velocity": 0.6299212598425197
        },
        {
          "duration": 0.12395833333333428,
          "durationTicks": 119,
          "midi": 51,
          "name": "D#3",
          "ticks": 41640,
          "time": 43.375,
          "velocity": 0.6299212598425197
        },
        {
          "duration": 0.12395833333333428,
          "durationTicks": 119,
          "midi": 48,
          "name": "C3",
          "ticks": 41760,
          "time": 43.5,
          "velocity": 0.6299212598425197
        },
        {
          "duration": 0.12395833333333428,
          "durationTicks": 119,
          "midi": 51,
          "name": "D#3",
          "ticks": 41880,
          "time": 43.625,
          "velocity": 0.6299212598425197
        },
        {
          "duration": 0.12395833333333428,
          "durationTicks": 119,
          "midi": 50,
          "name": "D3",
          "ticks": 42000,
          "time": 43.75,
          "velocity": 0.6299212598425197
        },
        {
          "duration": 0.12395833333333428,
          "durationTicks": 119,
          "midi": 51,
          "name": "D#3",
          "ticks": 42120,
          "time": 43.875,
          "velocity": 0.6299212598425197
        },
        {
          "duration": 0.12395833333333428,
          "durationTicks": 119,
          "midi": 43,
          "name": "G2",
          "ticks": 42240,
          "time": 44,
          "velocity": 0.6299212598425197
        },
        {
          "duration": 0.12395833333333428,
          "durationTicks": 119,
          "midi": 51,
          "name": "D#3",
          "ticks": 42360,
          "time": 44.125,
          "velocity": 0.6299212598425197
        },
        {
          "duration": 0.12395833333333428,
          "durationTicks": 119,
          "midi": 50,
          "name": "D3",
          "ticks": 42480,
          "time": 44.25,
          "velocity": 0.6299212598425197
        },
        {
          "duration": 0.12395833333333428,
          "durationTicks": 119,
          "midi": 51,
          "name": "D#3",
          "ticks": 42600,
          "time": 44.375,
          "velocity": 0.6299212598425197
        },
        {
          "duration": 0.12395833333333428,
          "durationTicks": 119,
          "midi": 53,
          "name": "F3",
          "ticks": 42720,
          "time": 44.5,
          "velocity": 0.6299212598425197
        },
        {
          "duration": 0.12395833333333428,
          "durationTicks": 119,
          "midi": 51,
          "name": "D#3",
          "ticks": 42840,
          "time": 44.625,
          "velocity": 0.6299212598425197
        },
        {
          "duration": 0.12395833333333428,
          "durationTicks": 119,
          "midi": 50,
          "name": "D3",
          "ticks": 42960,
          "time": 44.75,
          "velocity": 0.6299212598425197
        },
        {
          "duration": 0.12395833333333428,
          "durationTicks": 119,
          "midi": 51,
          "name": "D#3",
          "ticks": 43080,
          "time": 44.875,
          "velocity": 0.6299212598425197
        },
        {
          "duration": 0.12395833333333428,
          "durationTicks": 119,
          "midi": 43,
          "name": "G2",
          "ticks": 43200,
          "time": 45,
          "velocity": 0.6299212598425197
        },
        {
          "duration": 0.12395833333333428,
          "durationTicks": 119,
          "midi": 51,
          "name": "D#3",
          "ticks": 43320,
          "time": 45.125,
          "velocity": 0.6299212598425197
        },
        {
          "duration": 0.12395833333333428,
          "durationTicks": 119,
          "midi": 50,
          "name": "D3",
          "ticks": 43440,
          "time": 45.25,
          "velocity": 0.6299212598425197
        },
        {
          "duration": 0.12395833333333428,
          "durationTicks": 119,
          "midi": 51,
          "name": "D#3",
          "ticks": 43560,
          "time": 45.375,
          "velocity": 0.6299212598425197
        },
        {
          "duration": 0.12395833333333428,
          "durationTicks": 119,
          "midi": 53,
          "name": "F3",
          "ticks": 43680,
          "time": 45.5,
          "velocity": 0.6299212598425197
        },
        {
          "duration": 0.12395833333333428,
          "durationTicks": 119,
          "midi": 51,
          "name": "D#3",
          "ticks": 43800,
          "time": 45.625,
          "velocity": 0.6299212598425197
        },
        {
          "duration": 0.12395833333333428,
          "durationTicks": 119,
          "midi": 50,
          "name": "D3",
          "ticks": 43920,
          "time": 45.75,
          "velocity": 0.6299212598425197
        },
        {
          "duration": 0.12395833333333428,
          "durationTicks": 119,
          "midi": 51,
          "name": "D#3",
          "ticks": 44040,
          "time": 45.875,
          "velocity": 0.6299212598425197
        },
        {
          "duration": 0.12395833333333428,
          "durationTicks": 119,
          "midi": 43,
          "name": "G2",
          "ticks": 44160,
          "time": 46,
          "velocity": 0.6299212598425197
        },
        {
          "duration": 0.12395833333333428,
          "durationTicks": 119,
          "midi": 51,
          "name": "D#3",
          "ticks": 44280,
          "time": 46.125,
          "velocity": 0.6299212598425197
        },
        {
          "duration": 0.12395833333333428,
          "durationTicks": 119,
          "midi": 50,
          "name": "D3",
          "ticks": 44400,
          "time": 46.25,
          "velocity": 0.6299212598425197
        },
        {
          "duration": 0.12395833333333428,
          "durationTicks": 119,
          "midi": 51,
          "name": "D#3",
          "ticks": 44520,
          "time": 46.375,
          "velocity": 0.6299212598425197
        },
        {
          "duration": 0.12395833333333428,
          "durationTicks": 119,
          "midi": 53,
          "name": "F3",
          "ticks": 44640,
          "time": 46.5,
          "velocity": 0.6299212598425197
        },
        {
          "duration": 0.12395833333333428,
          "durationTicks": 119,
          "midi": 51,
          "name": "D#3",
          "ticks": 44760,
          "time": 46.625,
          "velocity": 0.6299212598425197
        },
        {
          "duration": 0.12395833333333428,
          "durationTicks": 119,
          "midi": 50,
          "name": "D3",
          "ticks": 44880,
          "time": 46.75,
          "velocity": 0.6299212598425197
        },
        {
          "duration": 0.12395833333333428,
          "durationTicks": 119,
          "midi": 51,
          "name": "D#3",
          "ticks": 45000,
          "time": 46.875,
          "velocity": 0.6299212598425197
        },
        {
          "duration": 0.12395833333333428,
          "durationTicks": 119,
          "midi": 43,
          "name": "G2",
          "ticks": 45120,
          "time": 47,
          "velocity": 0.6299212598425197
        },
        {
          "duration": 0.12395833333333428,
          "durationTicks": 119,
          "midi": 51,
          "name": "D#3",
          "ticks": 45240,
          "time": 47.125,
          "velocity": 0.6299212598425197
        },
        {
          "duration": 0.12395833333333428,
          "durationTicks": 119,
          "midi": 50,
          "name": "D3",
          "ticks": 45360,
          "time": 47.25,
          "velocity": 0.6299212598425197
        },
        {
          "duration": 0.12395833333333428,
          "durationTicks": 119,
          "midi": 51,
          "name": "D#3",
          "ticks": 45480,
          "time": 47.375,
          "velocity": 0.6299212598425197
        },
        {
          "duration": 0.12395833333333428,
          "durationTicks": 119,
          "midi": 53,
          "name": "F3",
          "ticks": 45600,
          "time": 47.5,
          "velocity": 0.6299212598425197
        },
        {
          "duration": 0.12395833333333428,
          "durationTicks": 119,
          "midi": 51,
          "name": "D#3",
          "ticks": 45720,
          "time": 47.625,
          "velocity": 0.6299212598425197
        },
        {
          "duration": 0.12395833333333428,
          "durationTicks": 119,
          "midi": 50,
          "name": "D3",
          "ticks": 45840,
          "time": 47.75,
          "velocity": 0.6299212598425197
        },
        {
          "duration": 0.12395833333333428,
          "durationTicks": 119,
          "midi": 51,
          "name": "D#3",
          "ticks": 45960,
          "time": 47.875,
          "velocity": 0.6299212598425197
        },
        {
          "duration": 0.12395833333333428,
          "durationTicks": 119,
          "midi": 43,
          "name": "G2",
          "ticks": 46080,
          "time": 48,
          "velocity": 0.6299212598425197
        },
        {
          "duration": 0.12395833333333428,
          "durationTicks": 119,
          "midi": 47,
          "name": "B2",
          "ticks": 46200,
          "time": 48.125,
          "velocity": 0.6299212598425197
        },
        {
          "duration": 0.12395833333333428,
          "durationTicks": 119,
          "midi": 50,
          "name": "D3",
          "ticks": 46320,
          "time": 48.25,
          "velocity": 0.6299212598425197
        },
        {
          "duration": 0.12395833333333428,
          "durationTicks": 119,
          "midi": 43,
          "name": "G2",
          "ticks": 48000,
          "time": 50,
          "velocity": 0.6299212598425197
        },
        {
          "duration": 0.12395833333333428,
          "durationTicks": 119,
          "midi": 48,
          "name": "C3",
          "ticks": 48120,
          "time": 50.125,
          "velocity": 0.6299212598425197
        },
        {
          "duration": 0.12395833333333428,
          "durationTicks": 119,
          "midi": 51,
          "name": "D#3",
          "ticks": 48240,
          "time": 50.25,
          "velocity": 0.6299212598425197
        },
        {
          "duration": 0.12395833333333428,
          "durationTicks": 119,
          "midi": 63,
          "name": "D#4",
          "ticks": 48960,
          "time": 51,
          "velocity": 0.6299212598425197
        },
        {
          "duration": 0.12395833333333428,
          "durationTicks": 119,
          "midi": 60,
          "name": "C4",
          "ticks": 49080,
          "time": 51.125,
          "velocity": 0.6299212598425197
        },
        {
          "duration": 0.12395833333333428,
          "durationTicks": 119,
          "midi": 67,
          "name": "G4",
          "ticks": 49200,
          "time": 51.25,
          "velocity": 0.6299212598425197
        },
        {
          "duration": 0.12395833333333428,
          "durationTicks": 119,
          "midi": 63,
          "name": "D#4",
          "ticks": 49320,
          "time": 51.375,
          "velocity": 0.6299212598425197
        },
        {
          "duration": 0.12395833333333428,
          "durationTicks": 119,
          "midi": 43,
          "name": "G2",
          "ticks": 49920,
          "time": 52,
          "velocity": 0.6299212598425197
        },
        {
          "duration": 0.12395833333333428,
          "durationTicks": 119,
          "midi": 45,
          "name": "A2",
          "ticks": 50040,
          "time": 52.125,
          "velocity": 0.6299212598425197
        },
        {
          "duration": 0.12395833333333428,
          "durationTicks": 119,
          "midi": 54,
          "name": "F#3",
          "ticks": 50160,
          "time": 52.25,
          "velocity": 0.6299212598425197
        },
        {
          "duration": 1.7577581812499972,
          "durationTicks": 2039,
          "midi": 43,
          "name": "G2",
          "ticks": 51840,
          "time": 54,
          "velocity": 0.6299212598425197
        },
        {
          "duration": 0.10258618124999686,
          "durationTicks": 119,
          "midi": 62,
          "name": "D4",
          "ticks": 53880,
          "time": 55.75862025,
          "velocity": 0.6299212598425197
        },
        {
          "duration": 0.10258618125000396,
          "durationTicks": 119,
          "midi": 60,
          "name": "C4",
          "ticks": 54000,
          "time": 55.8620685,
          "velocity": 0.6299212598425197
        },
        {
          "duration": 0.10258618125000396,
          "durationTicks": 119,
          "midi": 62,
          "name": "D4",
          "ticks": 54120,
          "time": 55.96551675,
          "velocity": 0.6299212598425197
        },
        {
          "duration": 0.10258618125000396,
          "durationTicks": 119,
          "midi": 63,
          "name": "D#4",
          "ticks": 54240,
          "time": 56.068965,
          "velocity": 0.6299212598425197
        },
        {
          "duration": 0.10258618125000396,
          "durationTicks": 119,
          "midi": 60,
          "name": "C4",
          "ticks": 54360,
          "time": 56.17241325,
          "velocity": 0.6299212598425197
        },
        {
          "duration": 0.10258618125000396,
          "durationTicks": 119,
          "midi": 59,
          "name": "B3",
          "ticks": 54480,
          "time": 56.2758615,
          "velocity": 0.6299212598425197
        },
        {
          "duration": 0.10258618125000396,
          "durationTicks": 119,
          "midi": 60,
          "name": "C4",
          "ticks": 54600,
          "time": 56.37930975,
          "velocity": 0.6299212598425197
        },
        {
          "duration": 0.10258618125000396,
          "durationTicks": 119,
          "midi": 57,
          "name": "A3",
          "ticks": 54720,
          "time": 56.482758,
          "velocity": 0.6299212598425197
        },
        {
          "duration": 0.10258618124999686,
          "durationTicks": 119,
          "midi": 60,
          "name": "C4",
          "ticks": 54840,
          "time": 56.586206250000004,
          "velocity": 0.6299212598425197
        },
        {
          "duration": 0.10258618124999686,
          "durationTicks": 119,
          "midi": 59,
          "name": "B3",
          "ticks": 54960,
          "time": 56.6896545,
          "velocity": 0.6299212598425197
        },
        {
          "duration": 0.10258618124999686,
          "durationTicks": 119,
          "midi": 60,
          "name": "C4",
          "ticks": 55080,
          "time": 56.79310275,
          "velocity": 0.6299212598425197
        },
        {
          "duration": 0.10258618124999686,
          "durationTicks": 119,
          "midi": 62,
          "name": "D4",
          "ticks": 55200,
          "time": 56.896551,
          "velocity": 0.6299212598425197
        },
        {
          "duration": 0.10258618124999686,
          "durationTicks": 119,
          "midi": 59,
          "name": "B3",
          "ticks": 55320,
          "time": 56.99999925,
          "velocity": 0.6299212598425197
        },
        {
          "duration": 0.10258618124999686,
          "durationTicks": 119,
          "midi": 57,
          "name": "A3",
          "ticks": 55440,
          "time": 57.1034475,
          "velocity": 0.6299212598425197
        },
        {
          "duration": 0.10258618124999686,
          "durationTicks": 119,
          "midi": 59,
          "name": "B3",
          "ticks": 55560,
          "time": 57.20689575,
          "velocity": 0.6299212598425197
        },
        {
          "duration": 0.10258618124999686,
          "durationTicks": 119,
          "midi": 55,
          "name": "G3",
          "ticks": 55680,
          "time": 57.310344,
          "velocity": 0.6299212598425197
        },
        {
          "duration": 0.10258618124999686,
          "durationTicks": 119,
          "midi": 59,
          "name": "B3",
          "ticks": 55800,
          "time": 57.41379225,
          "velocity": 0.6299212598425197
        },
        {
          "duration": 0.10258618125000396,
          "durationTicks": 119,
          "midi": 57,
          "name": "A3",
          "ticks": 55920,
          "time": 57.5172405,
          "velocity": 0.6299212598425197
        },
        {
          "duration": 0.10258618125000396,
          "durationTicks": 119,
          "midi": 59,
          "name": "B3",
          "ticks": 56040,
          "time": 57.62068875,
          "velocity": 0.6299212598425197
        },
        {
          "duration": 0.10258618125000396,
          "durationTicks": 119,
          "midi": 60,
          "name": "C4",
          "ticks": 56160,
          "time": 57.724137,
          "velocity": 0.6299212598425197
        },
        {
          "duration": 0.10258618125000396,
          "durationTicks": 119,
          "midi": 56,
          "name": "G#3",
          "ticks": 56280,
          "time": 57.82758525,
          "velocity": 0.6299212598425197
        },
        {
          "duration": 0.10258618125000396,
          "durationTicks": 119,
          "midi": 55,
          "name": "G3",
          "ticks": 56400,
          "time": 57.9310335,
          "velocity": 0.6299212598425197
        },
        {
          "duration": 0.10258618125000396,
          "durationTicks": 119,
          "midi": 56,
          "name": "G#3",
          "ticks": 56520,
          "time": 58.03448175,
          "velocity": 0.6299212598425197
        },
        {
          "duration": 0.10258618125000396,
          "durationTicks": 119,
          "midi": 53,
          "name": "F3",
          "ticks": 56640,
          "time": 58.13793,
          "velocity": 0.6299212598425197
        },
        {
          "duration": 0.10258618125000396,
          "durationTicks": 119,
          "midi": 57,
          "name": "A3",
          "ticks": 56760,
          "time": 58.24137825,
          "velocity": 0.6299212598425197
        },
        {
          "duration": 0.10258618125000396,
          "durationTicks": 119,
          "midi": 55,
          "name": "G3",
          "ticks": 56880,
          "time": 58.344826499999996,
          "velocity": 0.6299212598425197
        },
        {
          "duration": 0.10258618124999686,
          "durationTicks": 119,
          "midi": 57,
          "name": "A3",
          "ticks": 57000,
          "time": 58.44827475,
          "velocity": 0.6299212598425197
        },
        {
          "duration": 0.10258618124999686,
          "durationTicks": 119,
          "midi": 59,
          "name": "B3",
          "ticks": 57120,
          "time": 58.551723,
          "velocity": 0.6299212598425197
        },
        {
          "duration": 0.10258618124999686,
          "durationTicks": 119,
          "midi": 55,
          "name": "G3",
          "ticks": 57240,
          "time": 58.65517125,
          "velocity": 0.6299212598425197
        },
        {
          "duration": 0.10258618124999686,
          "durationTicks": 119,
          "midi": 53,
          "name": "F3",
          "ticks": 57360,
          "time": 58.7586195,
          "velocity": 0.6299212598425197
        },
        {
          "duration": 0.10258618124999686,
          "durationTicks": 119,
          "midi": 55,
          "name": "G3",
          "ticks": 57480,
          "time": 58.86206775,
          "velocity": 0.6299212598425197
        },
        {
          "duration": 0.10258618124999686,
          "durationTicks": 119,
          "midi": 51,
          "name": "D#3",
          "ticks": 57600,
          "time": 58.965516,
          "velocity": 0.6299212598425197
        },
        {
          "duration": 0.10258618124999686,
          "durationTicks": 119,
          "midi": 67,
          "name": "G4",
          "ticks": 57720,
          "time": 59.06896425,
          "velocity": 0.6299212598425197
        },
        {
          "duration": 0.10258618124999686,
          "durationTicks": 119,
          "midi": 65,
          "name": "F4",
          "ticks": 57840,
          "time": 59.1724125,
          "velocity": 0.6299212598425197
        },
        {
          "duration": 0.10258618124999686,
          "durationTicks": 119,
          "midi": 67,
          "name": "G4",
          "ticks": 57960,
          "time": 59.27586075,
          "velocity": 0.6299212598425197
        },
        {
          "duration": 0.10258618125000396,
          "durationTicks": 119,
          "midi": 68,
          "name": "G#4",
          "ticks": 58080,
          "time": 59.379309,
          "velocity": 0.6299212598425197
        },
        {
          "duration": 0.10258618125000396,
          "durationTicks": 119,
          "midi": 65,
          "name": "F4",
          "ticks": 58200,
          "time": 59.48275725,
          "velocity": 0.6299212598425197
        },
        {
          "duration": 0.10258618125000396,
          "durationTicks": 119,
          "midi": 63,
          "name": "D#4",
          "ticks": 58320,
          "time": 59.5862055,
          "velocity": 0.6299212598425197
        },
        {
          "duration": 0.10258618125000396,
          "durationTicks": 119,
          "midi": 65,
          "name": "F4",
          "ticks": 58440,
          "time": 59.68965375,
          "velocity": 0.6299212598425197
        },
        {
          "duration": 0.10258618125000396,
          "durationTicks": 119,
          "midi": 62,
          "name": "D4",
          "ticks": 58560,
          "time": 59.793102,
          "velocity": 0.6299212598425197
        },
        {
          "duration": 0.10258618124999686,
          "durationTicks": 119,
          "midi": 65,
          "name": "F4",
          "ticks": 58680,
          "time": 59.896550250000004,
          "velocity": 0.6299212598425197
        },
        {
          "duration": 0.10258618124999686,
          "durationTicks": 119,
          "midi": 63,
          "name": "D#4",
          "ticks": 58800,
          "time": 59.999998500000004,
          "velocity": 0.6299212598425197
        },
        {
          "duration": 0.10258618124999686,
          "durationTicks": 119,
          "midi": 65,
          "name": "F4",
          "ticks": 58920,
          "time": 60.10344675,
          "velocity": 0.6299212598425197
        },
        {
          "duration": 0.10258618124999686,
          "durationTicks": 119,
          "midi": 67,
          "name": "G4",
          "ticks": 59040,
          "time": 60.206895,
          "velocity": 0.6299212598425197
        },
        {
          "duration": 0.10258618124999686,
          "durationTicks": 119,
          "midi": 63,
          "name": "D#4",
          "ticks": 59160,
          "time": 60.31034325,
          "velocity": 0.6299212598425197
        },
        {
          "duration": 0.10258618124999686,
          "durationTicks": 119,
          "midi": 62,
          "name": "D4",
          "ticks": 59280,
          "time": 60.4137915,
          "velocity": 0.6299212598425197
        },
        {
          "duration": 0.10258618124999686,
          "durationTicks": 119,
          "midi": 63,
          "name": "D#4",
          "ticks": 59400,
          "time": 60.51723975,
          "velocity": 0.6299212598425197
        },
        {
          "duration": 0.10258618124999686,
          "durationTicks": 119,
          "midi": 60,
          "name": "C4",
          "ticks": 59520,
          "time": 60.620688,
          "velocity": 0.6299212598425197
        },
        {
          "duration": 0.10258618124999686,
          "durationTicks": 119,
          "midi": 63,
          "name": "D#4",
          "ticks": 59640,
          "time": 60.72413625,
          "velocity": 0.6299212598425197
        },
        {
          "duration": 0.10258618124999686,
          "durationTicks": 119,
          "midi": 62,
          "name": "D4",
          "ticks": 59760,
          "time": 60.8275845,
          "velocity": 0.6299212598425197
        },
        {
          "duration": 0.10258618124999686,
          "durationTicks": 119,
          "midi": 63,
          "name": "D#4",
          "ticks": 59880,
          "time": 60.93103275,
          "velocity": 0.6299212598425197
        },
        {
          "duration": 0.10258618125000396,
          "durationTicks": 119,
          "midi": 65,
          "name": "F4",
          "ticks": 60000,
          "time": 61.034481,
          "velocity": 0.6299212598425197
        },
        {
          "duration": 0.10258618125000396,
          "durationTicks": 119,
          "midi": 62,
          "name": "D4",
          "ticks": 60120,
          "time": 61.13792925,
          "velocity": 0.6299212598425197
        },
        {
          "duration": 0.10258618125000396,
          "durationTicks": 119,
          "midi": 60,
          "name": "C4",
          "ticks": 60240,
          "time": 61.2413775,
          "velocity": 0.6299212598425197
        },
        {
          "duration": 0.10258618125000396,
          "durationTicks": 119,
          "midi": 62,
          "name": "D4",
          "ticks": 60360,
          "time": 61.34482575,
          "velocity": 0.6299212598425197
        },
        {
          "duration": 0.10258618125000396,
          "durationTicks": 119,
          "midi": 63,
          "name": "D#4",
          "ticks": 60480,
          "time": 61.448274,
          "velocity": 0.6299212598425197
        },
        {
          "duration": 0.10258618125000396,
          "durationTicks": 119,
          "midi": 60,
          "name": "C4",
          "ticks": 60600,
          "time": 61.55172225,
          "velocity": 0.6299212598425197
        },
        {
          "duration": 0.10258618125000396,
          "durationTicks": 119,
          "midi": 59,
          "name": "B3",
          "ticks": 60720,
          "time": 61.6551705,
          "velocity": 0.6299212598425197
        },
        {
          "duration": 0.10258618125000396,
          "durationTicks": 119,
          "midi": 60,
          "name": "C4",
          "ticks": 60840,
          "time": 61.75861875,
          "velocity": 0.6299212598425197
        },
        {
          "duration": 0.10258618124999686,
          "durationTicks": 119,
          "midi": 62,
          "name": "D4",
          "ticks": 60960,
          "time": 61.862067,
          "velocity": 0.6299212598425197
        },
        {
          "duration": 0.10258618124999686,
          "durationTicks": 119,
          "midi": 59,
          "name": "B3",
          "ticks": 61080,
          "time": 61.96551525,
          "velocity": 0.6299212598425197
        },
        {
          "duration": 0.10258618124999686,
          "durationTicks": 119,
          "midi": 57,
          "name": "A3",
          "ticks": 61200,
          "time": 62.0689635,
          "velocity": 0.6299212598425197
        },
        {
          "duration": 0.10258618124999686,
          "durationTicks": 119,
          "midi": 59,
          "name": "B3",
          "ticks": 61320,
          "time": 62.17241175,
          "velocity": 0.6299212598425197
        },
        {
          "duration": 0.10258618124999686,
          "durationTicks": 119,
          "midi": 60,
          "name": "C4",
          "ticks": 61440,
          "time": 62.27586,
          "velocity": 0.6299212598425197
        },
        {
          "duration": 0.10258618124999686,
          "durationTicks": 119,
          "midi": 63,
          "name": "D#4",
          "ticks": 61560,
          "time": 62.37930825,
          "velocity": 0.6299212598425197
        },
        {
          "duration": 0.10258618124999686,
          "durationTicks": 119,
          "midi": 62,
          "name": "D4",
          "ticks": 61680,
          "time": 62.4827565,
          "velocity": 0.6299212598425197
        },
        {
          "duration": 0.10258618124999686,
          "durationTicks": 119,
          "midi": 63,
          "name": "D#4",
          "ticks": 61800,
          "time": 62.58620475,
          "velocity": 0.6299212598425197
        },
        {
          "duration": 0.10258618124999686,
          "durationTicks": 119,
          "midi": 53,
          "name": "F3",
          "ticks": 61920,
          "time": 62.689653,
          "velocity": 0.6299212598425197
        },
        {
          "duration": 0.10258618124999686,
          "durationTicks": 119,
          "midi": 62,
          "name": "D4",
          "ticks": 62040,
          "time": 62.79310125,
          "velocity": 0.6299212598425197
        },
        {
          "duration": 0.10258618124999686,
          "durationTicks": 119,
          "midi": 60,
          "name": "C4",
          "ticks": 62160,
          "time": 62.8965495,
          "velocity": 0.6299212598425197
        },
        {
          "duration": 0.10258618124999686,
          "durationTicks": 119,
          "midi": 62,
          "name": "D4",
          "ticks": 62280,
          "time": 62.99999775,
          "velocity": 0.6299212598425197
        },
        {
          "duration": 0.10258618125000396,
          "durationTicks": 119,
          "midi": 51,
          "name": "D#3",
          "ticks": 62400,
          "time": 63.103446,
          "velocity": 0.6299212598425197
        },
        {
          "duration": 0.10258618124999686,
          "durationTicks": 119,
          "midi": 60,
          "name": "C4",
          "ticks": 62520,
          "time": 63.206894250000005,
          "velocity": 0.6299212598425197
        },
        {
          "duration": 0.10258618124999686,
          "durationTicks": 119,
          "midi": 59,
          "name": "B3",
          "ticks": 62640,
          "time": 63.310342500000004,
          "velocity": 0.6299212598425197
        },
        {
          "duration": 0.10258618124999686,
          "durationTicks": 119,
          "midi": 60,
          "name": "C4",
          "ticks": 62760,
          "time": 63.413790750000004,
          "velocity": 0.6299212598425197
        },
        {
          "duration": 0.10258618124999686,
          "durationTicks": 119,
          "midi": 50,
          "name": "D3",
          "ticks": 62880,
          "time": 63.517239000000004,
          "velocity": 0.6299212598425197
        },
        {
          "duration": 0.10258618124999686,
          "durationTicks": 119,
          "midi": 59,
          "name": "B3",
          "ticks": 63000,
          "time": 63.62068725,
          "velocity": 0.6299212598425197
        },
        {
          "duration": 0.10258618124999686,
          "durationTicks": 119,
          "midi": 57,
          "name": "A3",
          "ticks": 63120,
          "time": 63.7241355,
          "velocity": 0.6299212598425197
        },
        {
          "duration": 0.10258618124999686,
          "durationTicks": 119,
          "midi": 59,
          "name": "B3",
          "ticks": 63240,
          "time": 63.82758375,
          "velocity": 0.6299212598425197
        },
        {
          "duration": 1.8739583333333343,
          "durationTicks": 1799,
          "midi": 36,
          "name": "C2",
          "ticks": 65400,
          "time": 72.39978749999999,
          "velocity": 0.6299212598425197
        },
        {
          "duration": 1.7489583333333343,
          "durationTicks": 1679,
          "midi": 47,
          "name": "B2",
          "ticks": 65520,
          "time": 72.52478749999999,
          "velocity": 0.6299212598425197
        },
        {
          "duration": 5.225949504166678,
          "durationTicks": 2879,
          "midi": 36,
          "name": "C2",
          "ticks": 70080,
          "time": 77.27478749999999,
          "velocity": 0.6299212598425197
        },
        {
          "duration": 0.12395833333333428,
          "durationTicks": 119,
          "midi": 43,
          "name": "G2",
          "ticks": 70200,
          "time": 77.39978749999999,
          "velocity": 0.6299212598425197
        },
        {
          "duration": 4.975949504166678,
          "durationTicks": 2639,
          "midi": 48,
          "name": "C3",
          "ticks": 70320,
          "time": 77.52478749999999,
          "velocity": 0.6299212598425197
        }
      ],
      "endOfTrackTicks": 72960
    }
  ]
}