{
  "header": {
    "PPQ": 480,
    "timeSignature": [
      12,
      8
    ],
    "bpm": 217.5000543750136,
    "name": ""
  },
  "tempo": [
    {
      "absoluteTime": 0,
      "seconds": 0,
      "bpm": 217.5000543750136
    }
  ],
  "timeSignature": [
    {
      "absoluteTime": 0,
      "seconds": 0,
      "numerator": 12,
      "denominator": 3,
      "click": 24,
      "notesQ": 8
    }
  ],
  "startTime": 0,
  "duration": 47.9166546874997,
  "tracks": [
    {
      "startTime": 0.41379299999999997,
      "duration": 47.9166546874997,
      "length": 238,
      "notes": [
        {
          "name": "C4",
          "midi": 60,
          "time": 0.41379299999999997,
          "velocity": 0.6299212598425197,
          "duration": 0.13045973749999995
        },
        {
          "name": "D#4",
          "midi": 63,
          "time": 0.5517239999999999,
          "velocity": 0.6299212598425197,
          "duration": 0.13045973750000006
        },
        {
          "name": "C4",
          "midi": 60,
          "time": 0.6896549999999999,
          "velocity": 0.6299212598425197,
          "duration": 0.13045973750000006
        },
        {
          "name": "D4",
          "midi": 62,
          "time": 1.241379,
          "velocity": 0.6299212598425197,
          "duration": 0.13045973750000006
        },
        {
          "name": "G4",
          "midi": 67,
          "time": 1.37931,
          "velocity": 0.6299212598425197,
          "duration": 0.13045973750000006
        },
        {
          "name": "F4",
          "midi": 65,
          "time": 1.517241,
          "velocity": 0.6299212598425197,
          "duration": 0.13045973750000006
        },
        {
          "name": "D#4",
          "midi": 63,
          "time": 2.068965,
          "velocity": 0.6299212598425197,
          "duration": 0.13045973749999984
        },
        {
          "name": "G#4",
          "midi": 68,
          "time": 2.206896,
          "velocity": 0.6299212598425197,
          "duration": 0.13045973749999984
        },
        {
          "name": "C5",
          "midi": 72,
          "time": 2.344827,
          "velocity": 0.6299212598425197,
          "duration": 0.13045973749999984
        },
        {
          "name": "B4",
          "midi": 71,
          "time": 2.482758,
          "velocity": 0.6299212598425197,
          "duration": 0.13045973749999984
        },
        {
          "name": "A4",
          "midi": 69,
          "time": 2.620689,
          "velocity": 0.6299212598425197,
          "duration": 0.13045973749999984
        },
        {
          "name": "G4",
          "midi": 67,
          "time": 2.75862,
          "velocity": 0.6299212598425197,
          "duration": 0.13045973749999984
        },
        {
          "name": "F4",
          "midi": 65,
          "time": 2.896551,
          "velocity": 0.6299212598425197,
          "duration": 0.13045973749999984
        },
        {
          "name": "D#4",
          "midi": 63,
          "time": 3.034482,
          "velocity": 0.6299212598425197,
          "duration": 0.13045973749999984
        },
        {
          "name": "D4",
          "midi": 62,
          "time": 3.172413,
          "velocity": 0.6299212598425197,
          "duration": 0.13045973749999984
        },
        {
          "name": "C5",
          "midi": 72,
          "time": 3.724137,
          "velocity": 0.6299212598425197,
          "duration": 0.13045973749999984
        },
        {
          "name": "D#5",
          "midi": 75,
          "time": 3.862068,
          "velocity": 0.6299212598425197,
          "duration": 0.13045973749999984
        },
        {
          "name": "C5",
          "midi": 72,
          "time": 3.999999,
          "velocity": 0.6299212598425197,
          "duration": 0.13045973749999984
        },
        {
          "name": "D5",
          "midi": 74,
          "time": 4.551723,
          "velocity": 0.6299212598425197,
          "duration": 0.13045973749999984
        },
        {
          "name": "G5",
          "midi": 79,
          "time": 4.689654,
          "velocity": 0.6299212598425197,
          "duration": 0.13045973749999984
        },
        {
          "name": "F5",
          "midi": 77,
          "time": 4.827585,
          "velocity": 0.6299212598425197,
          "duration": 0.13045973749999984
        },
        {
          "name": "D#5",
          "midi": 75,
          "time": 5.379309,
          "velocity": 0.6299212598425197,
          "duration": 0.13045973749999984
        },
        {
          "name": "G#5",
          "midi": 80,
          "time": 5.51724,
          "velocity": 0.6299212598425197,
          "duration": 0.13045973749999984
        },
        {
          "name": "C6",
          "midi": 84,
          "time": 5.655171,
          "velocity": 0.6299212598425197,
          "duration": 0.13045973749999984
        },
        {
          "name": "B5",
          "midi": 83,
          "time": 5.793102,
          "velocity": 0.6299212598425197,
          "duration": 0.13045973749999984
        },
        {
          "name": "A5",
          "midi": 81,
          "time": 5.931033,
          "velocity": 0.6299212598425197,
          "duration": 0.13045973749999984
        },
        {
          "name": "G5",
          "midi": 79,
          "time": 6.068964,
          "velocity": 0.6299212598425197,
          "duration": 0.13045973749999984
        },
        {
          "name": "F5",
          "midi": 77,
          "time": 6.206895,
          "velocity": 0.6299212598425197,
          "duration": 0.13045973749999984
        },
        {
          "name": "D#5",
          "midi": 75,
          "time": 6.344826,
          "velocity": 0.6299212598425197,
          "duration": 0.13045973749999984
        },
        {
          "name": "D5",
          "midi": 74,
          "time": 6.482757,
          "velocity": 0.6299212598425197,
          "duration": 0.13045973749999984
        },
        {
          "name": "D#5",
          "midi": 75,
          "time": 6.620688,
          "velocity": 0.6299212598425197,
          "duration": 0.13045973749999984
        },
        {
          "name": "D5",
          "midi": 74,
          "time": 7.1724120000000005,
          "velocity": 0.6456692913385826,
          "duration": 0.13045973749999984
        },
        {
          "name": "D#5",
          "midi": 75,
          "time": 7.3103430000000005,
          "velocity": 0.6535433070866141,
          "duration": 0.13045973749999984
        },
        {
          "name": "F5",
          "midi": 77,
          "time": 7.4482740000000005,
          "velocity": 0.6614173228346457,
          "duration": 0.13045973749999984
        },
        {
          "name": "F5",
          "midi": 77,
          "time": 7.999998000000001,
          "velocity": 0.6771653543307087,
          "duration": 0.13045973749999984
        },
        {
          "name": "D#5",
          "midi": 75,
          "time": 8.137929,
          "velocity": 0.6850393700787402,
          "duration": 0.13045973750000073
        },
        {
          "name": "D5",
          "midi": 74,
          "time": 8.27586,
          "velocity": 0.6929133858267716,
          "duration": 0.13045973750000073
        },
        {
          "name": "C5",
          "midi": 72,
          "time": 8.827584,
          "velocity": 0.7086614173228346,
          "duration": 0.13045973750000073
        },
        {
          "name": "D5",
          "midi": 74,
          "time": 8.965515,
          "velocity": 0.7165354330708661,
          "duration": 0.13045973750000073
        },
        {
          "name": "D#5",
          "midi": 75,
          "time": 9.103446,
          "velocity": 0.7244094488188977,
          "duration": 0.13045973750000073
        },
        {
          "name": "D#5",
          "midi": 75,
          "time": 9.65517,
          "velocity": 0.7401574803149606,
          "duration": 0.13045973750000073
        },
        {
          "name": "D5",
          "midi": 74,
          "time": 9.793101,
          "velocity": 0.7480314960629921,
          "duration": 0.13045973750000073
        },
        {
          "name": "C5",
          "midi": 72,
          "time": 9.931032,
          "velocity": 0.7559055118110236,
          "duration": 0.5517240000000001
        },
        {
          "name": "G#4",
          "midi": 68,
          "time": 10.344825,
          "velocity": 0.6692913385826772,
          "duration": 0.13045973750000073
        },
        {
          "name": "C5",
          "midi": 72,
          "time": 10.482756,
          "velocity": 0.6377952755905512,
          "duration": 1.0201146874999996
        },
        {
          "name": "G#4",
          "midi": 68,
          "time": 10.620687,
          "velocity": 0.6062992125984252,
          "duration": 0.13045973750000073
        },
        {
          "name": "A#4",
          "midi": 70,
          "time": 11.172411,
          "velocity": 0.48031496062992124,
          "duration": 0.13045973750000073
        },
        {
          "name": "D#5",
          "midi": 75,
          "time": 11.310342,
          "velocity": 0.44881889763779526,
          "duration": 0.13045973750000073
        },
        {
          "name": "D5",
          "midi": 74,
          "time": 11.448273,
          "velocity": 0.41732283464566927,
          "duration": 0.13045973749999895
        },
        {
          "name": "C5",
          "midi": 72,
          "time": 11.586203999999999,
          "velocity": 0.3858267716535433,
          "duration": 0.3925286374999999
        },
        {
          "name": "A#3",
          "midi": 58,
          "time": 11.999996999999999,
          "velocity": 0.4094488188976378,
          "duration": 0.13045973750000073
        },
        {
          "name": "C4",
          "midi": 60,
          "time": 12.137927999999999,
          "velocity": 0.4251968503937008,
          "duration": 0.13045973750000073
        },
        {
          "name": "D4",
          "midi": 62,
          "time": 12.275858999999999,
          "velocity": 0.4330708661417323,
          "duration": 0.13045973750000073
        },
        {
          "name": "D#4",
          "midi": 63,
          "time": 12.413789999999999,
          "velocity": 0.4409448818897638,
          "duration": 0.13045973750000073
        },
        {
          "name": "F4",
          "midi": 65,
          "time": 12.551720999999999,
          "velocity": 0.4566929133858268,
          "duration": 0.13045973750000073
        },
        {
          "name": "G4",
          "midi": 67,
          "time": 12.689651999999999,
          "velocity": 0.4645669291338583,
          "duration": 0.13045973750000073
        },
        {
          "name": "G#4",
          "midi": 68,
          "time": 12.827582999999999,
          "velocity": 0.47244094488188976,
          "duration": 0.13045973750000073
        },
        {
          "name": "A#4",
          "midi": 70,
          "time": 12.965513999999999,
          "velocity": 0.48031496062992124,
          "duration": 0.13045973750000073
        },
        {
          "name": "C5",
          "midi": 72,
          "time": 13.103444999999999,
          "velocity": 0.49606299212598426,
          "duration": 0.13045973750000073
        },
        {
          "name": "G4",
          "midi": 67,
          "time": 13.655168999999999,
          "velocity": 0.5354330708661418,
          "duration": 0.13045973750000073
        },
        {
          "name": "A4",
          "midi": 69,
          "time": 13.793099999999999,
          "velocity": 0.5433070866141733,
          "duration": 0.13045973750000073
        },
        {
          "name": "A#4",
          "midi": 70,
          "time": 13.931030999999999,
          "velocity": 0.5511811023622047,
          "duration": 0.13045973750000073
        },
        {
          "name": "F#4",
          "midi": 66,
          "time": 14.482755,
          "velocity": 0.5984251968503937,
          "duration": 0.13045973750000073
        },
        {
          "name": "G4",
          "midi": 67,
          "time": 14.620686,
          "velocity": 0.6062992125984252,
          "duration": 0.13045973750000073
        },
        {
          "name": "A4",
          "midi": 69,
          "time": 14.758617,
          "velocity": 0.6141732283464567,
          "duration": 0.13045973750000073
        },
        {
          "name": "G4",
          "midi": 67,
          "time": 14.896548,
          "velocity": 0.6299212598425197,
          "duration": 0.3925286374999999
        },
        {
          "name": "G3",
          "midi": 55,
          "time": 15.310341,
          "velocity": 0.6299212598425197,
          "duration": 0.13045973750000073
        },
        {
          "name": "A#3",
          "midi": 58,
          "time": 15.448272,
          "velocity": 0.6299212598425197,
          "duration": 0.13045973750000073
        },
        {
          "name": "G3",
          "midi": 55,
          "time": 15.586203,
          "velocity": 0.6299212598425197,
          "duration": 0.13045973750000073
        },
        {
          "name": "A3",
          "midi": 57,
          "time": 16.137927,
          "velocity": 0.6299212598425197,
          "duration": 0.13045973750000073
        },
        {
          "name": "D4",
          "midi": 62,
          "time": 16.275858000000003,
          "velocity": 0.6299212598425197,
          "duration": 0.13045973750000073
        },
        {
          "name": "C4",
          "midi": 60,
          "time": 16.413789000000005,
          "velocity": 0.6299212598425197,
          "duration": 0.13045973750000073
        },
        {
          "name": "A#3",
          "midi": 58,
          "time": 16.965513000000005,
          "velocity": 0.6299212598425197,
          "duration": 0.13045973750000073
        },
        {
          "name": "D#4",
          "midi": 63,
          "time": 17.103444000000007,
          "velocity": 0.6299212598425197,
          "duration": 0.13045973750000073
        },
        {
          "name": "G4",
          "midi": 67,
          "time": 17.24137500000001,
          "velocity": 0.6299212598425197,
          "duration": 0.13045973750000073
        },
        {
          "name": "F#4",
          "midi": 66,
          "time": 17.37930600000001,
          "velocity": 0.6299212598425197,
          "duration": 0.13045973750000073
        },
        {
          "name": "E4",
          "midi": 64,
          "time": 17.517237000000012,
          "velocity": 0.6299212598425197,
          "duration": 0.13045973750000073
        },
        {
          "name": "D4",
          "midi": 62,
          "time": 17.655168000000014,
          "velocity": 0.6299212598425197,
          "duration": 0.13045973750000073
        },
        {
          "name": "C4",
          "midi": 60,
          "time": 17.793099000000016,
          "velocity": 0.6299212598425197,
          "duration": 0.13045973750000073
        },
        {
          "name": "A#3",
          "midi": 58,
          "time": 17.931030000000018,
          "velocity": 0.6299212598425197,
          "duration": 0.13045973750000073
        },
        {
          "name": "A3",
          "midi": 57,
          "time": 18.06896100000002,
          "velocity": 0.6299212598425197,
          "duration": 0.13045973750000073
        },
        {
          "name": "G4",
          "midi": 67,
          "time": 18.62068500000002,
          "velocity": 0.6299212598425197,
          "duration": 0.13045973750000073
        },
        {
          "name": "A#4",
          "midi": 70,
          "time": 18.75861600000002,
          "velocity": 0.6299212598425197,
          "duration": 0.13045973750000073
        },
        {
          "name": "G4",
          "midi": 67,
          "time": 18.896547000000023,
          "velocity": 0.6299212598425197,
          "duration": 0.13045973750000073
        },
        {
          "name": "A4",
          "midi": 69,
          "time": 19.448271000000023,
          "velocity": 0.6299212598425197,
          "duration": 0.13045973750000073
        },
        {
          "name": "D5",
          "midi": 74,
          "time": 19.586202000000025,
          "velocity": 0.6299212598425197,
          "duration": 0.13045973750000073
        },
        {
          "name": "C5",
          "midi": 72,
          "time": 19.724133000000027,
          "velocity": 0.6299212598425197,
          "duration": 0.13045973750000073
        },
        {
          "name": "A#4",
          "midi": 70,
          "time": 20.275857000000027,
          "velocity": 0.6299212598425197,
          "duration": 0.13045973750000073
        },
        {
          "name": "D#5",
          "midi": 75,
          "time": 20.41378800000003,
          "velocity": 0.6299212598425197,
          "duration": 0.13045973750000073
        },
        {
          "name": "G5",
          "midi": 79,
          "time": 20.55171900000003,
          "velocity": 0.6299212598425197,
          "duration": 0.13045973750000073
        },
        {
          "name": "F#5",
          "midi": 78,
          "time": 20.689650000000032,
          "velocity": 0.6299212598425197,
          "duration": 0.13045973750000073
        },
        {
          "name": "E5",
          "midi": 76,
          "time": 20.827581000000034,
          "velocity": 0.6299212598425197,
          "duration": 0.13045973750000073
        },
        {
          "name": "D5",
          "midi": 74,
          "time": 20.965512000000036,
          "velocity": 0.6299212598425197,
          "duration": 0.13045973750000073
        },
        {
          "name": "C5",
          "midi": 72,
          "time": 21.103443000000038,
          "velocity": 0.6299212598425197,
          "duration": 0.13045973750000073
        },
        {
          "name": "A#4",
          "midi": 70,
          "time": 21.24137400000004,
          "velocity": 0.6299212598425197,
          "duration": 0.13045973750000073
        },
        {
          "name": "A4",
          "midi": 69,
          "time": 21.37930500000004,
          "velocity": 0.6299212598425197,
          "duration": 0.13045973750000073
        },
        {
          "name": "A#4",
          "midi": 70,
          "time": 21.517236000000043,
          "velocity": 0.6299212598425197,
          "duration": 0.5517240000000001
        },
        {
          "name": "G4",
          "midi": 67,
          "time": 21.93102900000004,
          "velocity": 0.6299212598425197,
          "duration": 0.13045973750000073
        },
        {
          "name": "A#4",
          "midi": 70,
          "time": 22.068960000000043,
          "velocity": 0.6299212598425197,
          "duration": 1.0201146875000013
        },
        {
          "name": "G4",
          "midi": 67,
          "time": 22.20689100000004,
          "velocity": 0.6299212598425197,
          "duration": 0.13045973750000073
        },
        {
          "name": "A4",
          "midi": 69,
          "time": 22.75861500000004,
          "velocity": 0.6299212598425197,
          "duration": 0.13045973750000073
        },
        {
          "name": "D5",
          "midi": 74,
          "time": 22.896546000000043,
          "velocity": 0.6299212598425197,
          "duration": 0.13045973750000073
        },
        {
          "name": "C5",
          "midi": 72,
          "time": 23.034477000000045,
          "velocity": 0.6299212598425197,
          "duration": 0.13045973750000073
        },
        {
          "name": "A#4",
          "midi": 70,
          "time": 23.172408000000047,
          "velocity": 0.6299212598425197,
          "duration": 0.13045973750000073
        },
        {
          "name": "A4",
          "midi": 69,
          "time": 23.31033900000005,
          "velocity": 0.6299212598425197,
          "duration": 0.13045973750000073
        },
        {
          "name": "G4",
          "midi": 67,
          "time": 23.44827000000005,
          "velocity": 0.6299212598425197,
          "duration": 0.13045973750000073
        },
        {
          "name": "A4",
          "midi": 69,
          "time": 23.586201000000052,
          "velocity": 0.6299212598425197,
          "duration": 0.13045973750000073
        },
        {
          "name": "G4",
          "midi": 67,
          "time": 23.724132000000054,
          "velocity": 0.6299212598425197,
          "duration": 0.13045973750000073
        },
        {
          "name": "F4",
          "midi": 65,
          "time": 23.862063000000056,
          "velocity": 0.6299212598425197,
          "duration": 0.13045973750000073
        },
        {
          "name": "G4",
          "midi": 67,
          "time": 23.999994000000058,
          "velocity": 0.6299212598425197,
          "duration": 0.13045973750000073
        },
        {
          "name": "F4",
          "midi": 65,
          "time": 24.13792500000006,
          "velocity": 0.6299212598425197,
          "duration": 0.13045973750000073
        },
        {
          "name": "D#4",
          "midi": 63,
          "time": 24.27585600000006,
          "velocity": 0.6299212598425197,
          "duration": 0.13045973750000073
        },
        {
          "name": "D4",
          "midi": 62,
          "time": 24.413787000000063,
          "velocity": 0.6299212598425197,
          "duration": 0.13045973750000073
        },
        {
          "name": "G4",
          "midi": 67,
          "time": 24.551718000000065,
          "velocity": 0.6299212598425197,
          "duration": 0.13045973750000073
        },
        {
          "name": "D5",
          "midi": 74,
          "time": 24.689649000000067,
          "velocity": 0.6299212598425197,
          "duration": 0.13045973750000073
        },
        {
          "name": "D#5",
          "midi": 75,
          "time": 24.82758000000007,
          "velocity": 0.6299212598425197,
          "duration": 0.13045973750000073
        },
        {
          "name": "D5",
          "midi": 74,
          "time": 24.96551100000007,
          "velocity": 0.6299212598425197,
          "duration": 0.13045973750000073
        },
        {
          "name": "C5",
          "midi": 72,
          "time": 25.103442000000072,
          "velocity": 0.6299212598425197,
          "duration": 0.13045973750000073
        },
        {
          "name": "D5",
          "midi": 74,
          "time": 25.241373000000074,
          "velocity": 0.6299212598425197,
          "duration": 0.13045973750000073
        },
        {
          "name": "C5",
          "midi": 72,
          "time": 25.379304000000076,
          "velocity": 0.6299212598425197,
          "duration": 0.13045973750000073
        },
        {
          "name": "A#4",
          "midi": 70,
          "time": 25.517235000000078,
          "velocity": 0.6299212598425197,
          "duration": 0.13045973750000073
        },
        {
          "name": "C5",
          "midi": 72,
          "time": 25.65516600000008,
          "velocity": 0.6299212598425197,
          "duration": 0.13045973750000073
        },
        {
          "name": "A#4",
          "midi": 70,
          "time": 25.79309700000008,
          "velocity": 0.6299212598425197,
          "duration": 0.13045973750000073
        },
        {
          "name": "G#4",
          "midi": 68,
          "time": 25.931028000000083,
          "velocity": 0.6299212598425197,
          "duration": 0.13045973750000073
        },
        {
          "name": "G4",
          "midi": 67,
          "time": 26.068959000000085,
          "velocity": 0.6299212598425197,
          "duration": 0.13045973750000073
        },
        {
          "name": "C5",
          "midi": 72,
          "time": 26.206890000000087,
          "velocity": 0.6299212598425197,
          "duration": 0.13045973750000073
        },
        {
          "name": "G5",
          "midi": 79,
          "time": 26.34482100000009,
          "velocity": 0.6299212598425197,
          "duration": 0.13045973750000073
        },
        {
          "name": "G#5",
          "midi": 80,
          "time": 26.48275200000009,
          "velocity": 0.6299212598425197,
          "duration": 0.26149418749999853
        },
        {
          "name": "F3",
          "midi": 53,
          "time": 26.89654500000009,
          "velocity": 0.6299212598425197,
          "duration": 0.13045973750000073
        },
        {
          "name": "G#3",
          "midi": 56,
          "time": 27.03447600000009,
          "velocity": 0.6299212598425197,
          "duration": 0.13045973750000073
        },
        {
          "name": "F3",
          "midi": 53,
          "time": 27.172407000000092,
          "velocity": 0.6299212598425197,
          "duration": 0.13045973750000073
        },
        {
          "name": "G3",
          "midi": 55,
          "time": 27.724131000000092,
          "velocity": 0.6299212598425197,
          "duration": 0.13045973750000073
        },
        {
          "name": "C4",
          "midi": 60,
          "time": 27.862062000000094,
          "velocity": 0.6299212598425197,
          "duration": 0.13045973750000073
        },
        {
          "name": "A#3",
          "midi": 58,
          "time": 27.999993000000096,
          "velocity": 0.6299212598425197,
          "duration": 0.13045973750000073
        },
        {
          "name": "G#3",
          "midi": 56,
          "time": 28.551717000000096,
          "velocity": 0.6299212598425197,
          "duration": 0.13045973750000073
        },
        {
          "name": "C#4",
          "midi": 61,
          "time": 28.689648000000098,
          "velocity": 0.6299212598425197,
          "duration": 0.13045973750000073
        },
        {
          "name": "F4",
          "midi": 65,
          "time": 28.8275790000001,
          "velocity": 0.6299212598425197,
          "duration": 0.13045973750000073
        },
        {
          "name": "E4",
          "midi": 64,
          "time": 28.9655100000001,
          "velocity": 0.6299212598425197,
          "duration": 0.13045973750000073
        },
        {
          "name": "D4",
          "midi": 62,
          "time": 29.103441000000103,
          "velocity": 0.6299212598425197,
          "duration": 0.13045973750000073
        },
        {
          "name": "C4",
          "midi": 60,
          "time": 29.241372000000105,
          "velocity": 0.6299212598425197,
          "duration": 0.13045973750000073
        },
        {
          "name": "A#3",
          "midi": 58,
          "time": 29.379303000000107,
          "velocity": 0.6299212598425197,
          "duration": 0.13045973750000073
        },
        {
          "name": "G#3",
          "midi": 56,
          "time": 29.51723400000011,
          "velocity": 0.6299212598425197,
          "duration": 0.13045973750000073
        },
        {
          "name": "G3",
          "midi": 55,
          "time": 29.65516500000011,
          "velocity": 0.6299212598425197,
          "duration": 0.13045973750000073
        },
        {
          "name": "F4",
          "midi": 65,
          "time": 30.20688900000011,
          "velocity": 0.6299212598425197,
          "duration": 0.13045973750000073
        },
        {
          "name": "G#4",
          "midi": 68,
          "time": 30.344820000000112,
          "velocity": 0.6299212598425197,
          "duration": 0.13045973750000073
        },
        {
          "name": "F4",
          "midi": 65,
          "time": 30.482751000000114,
          "velocity": 0.6299212598425197,
          "duration": 0.13045973750000073
        },
        {
          "name": "G4",
          "midi": 67,
          "time": 31.034475000000114,
          "velocity": 0.6299212598425197,
          "duration": 0.13045973750000073
        },
        {
          "name": "C5",
          "midi": 72,
          "time": 31.172406000000116,
          "velocity": 0.6299212598425197,
          "duration": 0.13045973750000073
        },
        {
          "name": "A#4",
          "midi": 70,
          "time": 31.310337000000118,
          "velocity": 0.6299212598425197,
          "duration": 0.13045973750000073
        },
        {
          "name": "G#4",
          "midi": 68,
          "time": 31.862061000000118,
          "velocity": 0.6299212598425197,
          "duration": 0.13045973750000073
        },
        {
          "name": "C#5",
          "midi": 73,
          "time": 31.99999200000012,
          "velocity": 0.6299212598425197,
          "duration": 0.13045973749999717
        },
        {
          "name": "F5",
          "midi": 77,
          "time": 32.137923000000114,
          "velocity": 0.6299212598425197,
          "duration": 0.13045973749999717
        },
        {
          "name": "E5",
          "midi": 76,
          "time": 32.27585400000011,
          "velocity": 0.6299212598425197,
          "duration": 0.13045973749999717
        },
        {
          "name": "D5",
          "midi": 74,
          "time": 32.413785000000104,
          "velocity": 0.6299212598425197,
          "duration": 0.13045973749999717
        },
        {
          "name": "C5",
          "midi": 72,
          "time": 32.5517160000001,
          "velocity": 0.6299212598425197,
          "duration": 0.13045973749999717
        },
        {
          "name": "A#4",
          "midi": 70,
          "time": 32.68964700000009,
          "velocity": 0.6299212598425197,
          "duration": 0.13045973749999717
        },
        {
          "name": "G#4",
          "midi": 68,
          "time": 32.82757800000009,
          "velocity": 0.6299212598425197,
          "duration": 0.13045973749999717
        },
        {
          "name": "G4",
          "midi": 67,
          "time": 32.96550900000008,
          "velocity": 0.6299212598425197,
          "duration": 0.13045973749999717
        },
        {
          "name": "G#4",
          "midi": 68,
          "time": 33.10344000000008,
          "velocity": 0.6299212598425197,
          "duration": 0.13045973749999717
        },
        {
          "name": "F4",
          "midi": 65,
          "time": 33.24137100000007,
          "velocity": 0.6299212598425197,
          "duration": 0.13045973749999717
        },
        {
          "name": "C4",
          "midi": 60,
          "time": 33.37930200000007,
          "velocity": 0.6299212598425197,
          "duration": 0.13045973749999717
        },
        {
          "name": "G#3",
          "midi": 56,
          "time": 33.51723300000006,
          "velocity": 0.6299212598425197,
          "duration": 0.13045973749999717
        },
        {
          "name": "G4",
          "midi": 67,
          "time": 33.655164000000056,
          "velocity": 0.6299212598425197,
          "duration": 0.13045973749999717
        },
        {
          "name": "G#4",
          "midi": 68,
          "time": 33.79309500000005,
          "velocity": 0.6299212598425197,
          "duration": 0.13045973749999717
        },
        {
          "name": "A#4",
          "midi": 70,
          "time": 33.931026000000045,
          "velocity": 0.6299212598425197,
          "duration": 0.13045973749999717
        },
        {
          "name": "F4",
          "midi": 65,
          "time": 34.06895700000004,
          "velocity": 0.6299212598425197,
          "duration": 0.13045973749999717
        },
        {
          "name": "C#4",
          "midi": 61,
          "time": 34.206888000000035,
          "velocity": 0.6299212598425197,
          "duration": 0.13045973749999717
        },
        {
          "name": "A#3",
          "midi": 58,
          "time": 34.34481900000003,
          "velocity": 0.6299212598425197,
          "duration": 0.4132182874999941
        },
        {
          "name": "A#4",
          "midi": 70,
          "time": 34.48275000000003,
          "velocity": 0.6299212598425197,
          "duration": 0.13045973749999717
        },
        {
          "name": "G#4",
          "midi": 68,
          "time": 34.620681000000026,
          "velocity": 0.6299212598425197,
          "duration": 0.13045973749999717
        },
        {
          "name": "G4",
          "midi": 67,
          "time": 34.75861200000002,
          "velocity": 0.6299212598425197,
          "duration": 0.13045973749999717
        },
        {
          "name": "D#4",
          "midi": 63,
          "time": 34.896543000000015,
          "velocity": 0.6299212598425197,
          "duration": 0.13045973749999717
        },
        {
          "name": "A#3",
          "midi": 58,
          "time": 35.03447400000001,
          "velocity": 0.6299212598425197,
          "duration": 0.13045973749999717
        },
        {
          "name": "G3",
          "midi": 55,
          "time": 35.172405000000005,
          "velocity": 0.6299212598425197,
          "duration": 0.13045973749999717
        },
        {
          "name": "F4",
          "midi": 65,
          "time": 35.310336,
          "velocity": 0.6299212598425197,
          "duration": 0.13045973749999717
        },
        {
          "name": "G4",
          "midi": 67,
          "time": 35.448266999999994,
          "velocity": 0.6299212598425197,
          "duration": 0.13045973749999717
        },
        {
          "name": "G#4",
          "midi": 68,
          "time": 35.58619799999999,
          "velocity": 0.6299212598425197,
          "duration": 0.13045973749999717
        },
        {
          "name": "D#4",
          "midi": 63,
          "time": 35.724128999999984,
          "velocity": 0.6299212598425197,
          "duration": 0.13045973749999717
        },
        {
          "name": "C4",
          "midi": 60,
          "time": 35.86205999999998,
          "velocity": 0.6299212598425197,
          "duration": 0.13045973749999717
        },
        {
          "name": "G#3",
          "midi": 56,
          "time": 35.99999099999997,
          "velocity": 0.6299212598425197,
          "duration": 0.4132182874999941
        },
        {
          "name": "G#4",
          "midi": 68,
          "time": 36.137921999999975,
          "velocity": 0.6299212598425197,
          "duration": 0.13045973749999717
        },
        {
          "name": "G4",
          "midi": 67,
          "time": 36.27585299999997,
          "velocity": 0.6299212598425197,
          "duration": 0.13045973749999717
        },
        {
          "name": "F#4",
          "midi": 66,
          "time": 36.413783999999964,
          "velocity": 0.6299212598425197,
          "duration": 0.13045973749999717
        },
        {
          "name": "F4",
          "midi": 65,
          "time": 36.55171499999996,
          "velocity": 0.6299212598425197,
          "duration": 0.13045973749999717
        },
        {
          "name": "D#4",
          "midi": 63,
          "time": 36.689645999999954,
          "velocity": 0.6299212598425197,
          "duration": 0.13045973749999717
        },
        {
          "name": "F4",
          "midi": 65,
          "time": 36.82757699999995,
          "velocity": 0.6299212598425197,
          "duration": 0.13045973749999717
        },
        {
          "name": "D#4",
          "midi": 63,
          "time": 36.96550799999994,
          "velocity": 0.6299212598425197,
          "duration": 0.13045973749999717
        },
        {
          "name": "D4",
          "midi": 62,
          "time": 37.10343899999994,
          "velocity": 0.6299212598425197,
          "duration": 0.13045973749999717
        },
        {
          "name": "D#4",
          "midi": 63,
          "time": 37.24136999999993,
          "velocity": 0.6299212598425197,
          "duration": 0.13045973749999717
        },
        {
          "name": "D4",
          "midi": 62,
          "time": 37.37930099999993,
          "velocity": 0.6299212598425197,
          "duration": 0.13045973749999717
        },
        {
          "name": "C4",
          "midi": 60,
          "time": 37.51723199999992,
          "velocity": 0.6299212598425197,
          "duration": 0.13045973749999717
        },
        {
          "name": "D4",
          "midi": 62,
          "time": 37.65516299999992,
          "velocity": 0.6299212598425197,
          "duration": 0.13045973749999717
        },
        {
          "name": "G4",
          "midi": 67,
          "time": 37.79309399999991,
          "velocity": 0.6299212598425197,
          "duration": 0.13045973749999717
        },
        {
          "name": "D5",
          "midi": 74,
          "time": 37.931024999999906,
          "velocity": 0.6299212598425197,
          "duration": 0.13045973749999717
        },
        {
          "name": "D#5",
          "midi": 75,
          "time": 38.0689559999999,
          "velocity": 0.6299212598425197,
          "duration": 0.13045973749999717
        },
        {
          "name": "D5",
          "midi": 74,
          "time": 38.206886999999895,
          "velocity": 0.6299212598425197,
          "duration": 0.13045973749999717
        },
        {
          "name": "C5",
          "midi": 72,
          "time": 38.34481799999989,
          "velocity": 0.6299212598425197,
          "duration": 0.13045973749999717
        },
        {
          "name": "D5",
          "midi": 74,
          "time": 38.482748999999885,
          "velocity": 0.6299212598425197,
          "duration": 0.13045973749999717
        },
        {
          "name": "C5",
          "midi": 72,
          "time": 38.62067999999988,
          "velocity": 0.6299212598425197,
          "duration": 0.13045973749999717
        },
        {
          "name": "B4",
          "midi": 71,
          "time": 38.758610999999874,
          "velocity": 0.6299212598425197,
          "duration": 0.13045973749999717
        },
        {
          "name": "C5",
          "midi": 72,
          "time": 38.89654199999987,
          "velocity": 0.6299212598425197,
          "duration": 0.13045973749999717
        },
        {
          "name": "B4",
          "midi": 71,
          "time": 39.03447299999986,
          "velocity": 0.6299212598425197,
          "duration": 0.13045973749999717
        },
        {
          "name": "A4",
          "midi": 69,
          "time": 39.17240399999986,
          "velocity": 0.6299212598425197,
          "duration": 0.13045973749999717
        },
        {
          "name": "G4",
          "midi": 67,
          "time": 39.31033499999985,
          "velocity": 0.6299212598425197,
          "duration": 0.13045973749999717
        },
        {
          "name": "B4",
          "midi": 71,
          "time": 39.44826599999985,
          "velocity": 0.6299212598425197,
          "duration": 0.13045973749999717
        },
        {
          "name": "D5",
          "midi": 74,
          "time": 39.58619699999984,
          "velocity": 0.6299212598425197,
          "duration": 0.13045973749999717
        },
        {
          "name": "C5",
          "midi": 72,
          "time": 39.72412799999984,
          "velocity": 0.6299212598425197,
          "duration": 1.5718386874999766
        },
        {
          "name": "C4",
          "midi": 60,
          "time": 40.137920999999835,
          "velocity": 0.6299212598425197,
          "duration": 0.13045973749999717
        },
        {
          "name": "D#4",
          "midi": 63,
          "time": 40.27585199999983,
          "velocity": 0.6299212598425197,
          "duration": 0.13045973749999717
        },
        {
          "name": "C4",
          "midi": 60,
          "time": 40.413782999999825,
          "velocity": 0.6299212598425197,
          "duration": 0.13045973749999717
        },
        {
          "name": "D4",
          "midi": 62,
          "time": 40.965506999999825,
          "velocity": 0.6299212598425197,
          "duration": 0.13045973749999717
        },
        {
          "name": "G4",
          "midi": 67,
          "time": 41.10343799999982,
          "velocity": 0.6299212598425197,
          "duration": 0.13045973749999717
        },
        {
          "name": "F4",
          "midi": 65,
          "time": 41.241368999999814,
          "velocity": 0.6299212598425197,
          "duration": 0.13045973749999717
        },
        {
          "name": "D#4",
          "midi": 63,
          "time": 41.793092999999814,
          "velocity": 0.6299212598425197,
          "duration": 0.13045973749999717
        },
        {
          "name": "G#4",
          "midi": 68,
          "time": 41.93102399999981,
          "velocity": 0.6299212598425197,
          "duration": 0.13045973749999717
        },
        {
          "name": "C5",
          "midi": 72,
          "time": 42.068954999999804,
          "velocity": 0.6299212598425197,
          "duration": 0.13045973749999717
        },
        {
          "name": "B4",
          "midi": 71,
          "time": 42.2068859999998,
          "velocity": 0.6299212598425197,
          "duration": 0.13045973749999717
        },
        {
          "name": "A4",
          "midi": 69,
          "time": 42.34481699999979,
          "velocity": 0.6299212598425197,
          "duration": 0.13045973749999717
        },
        {
          "name": "G4",
          "midi": 67,
          "time": 42.48274799999979,
          "velocity": 0.6299212598425197,
          "duration": 0.13045973749999717
        },
        {
          "name": "F4",
          "midi": 65,
          "time": 42.62067899999978,
          "velocity": 0.6299212598425197,
          "duration": 0.13045973749999717
        },
        {
          "name": "D#4",
          "midi": 63,
          "time": 42.75860999999978,
          "velocity": 0.6299212598425197,
          "duration": 0.13045973749999717
        },
        {
          "name": "D4",
          "midi": 62,
          "time": 42.89654099999977,
          "velocity": 0.6299212598425197,
          "duration": 0.13045973749999717
        },
        {
          "name": "C5",
          "midi": 72,
          "time": 43.44826499999977,
          "velocity": 0.6299212598425197,
          "duration": 0.13045973749999717
        },
        {
          "name": "D#5",
          "midi": 75,
          "time": 43.58619599999977,
          "velocity": 0.6299212598425197,
          "duration": 0.13045973749999717
        },
        {
          "name": "C5",
          "midi": 72,
          "time": 43.72412699999976,
          "velocity": 0.6299212598425197,
          "duration": 0.13045973749999717
        },
        {
          "name": "D5",
          "midi": 74,
          "time": 44.27585099999976,
          "velocity": 0.6299212598425197,
          "duration": 0.13045973749999717
        },
        {
          "name": "G5",
          "midi": 79,
          "time": 44.413781999999756,
          "velocity": 0.6299212598425197,
          "duration": 0.13045973749999717
        },
        {
          "name": "F5",
          "midi": 77,
          "time": 44.55171299999975,
          "velocity": 0.6299212598425197,
          "duration": 0.13045973749999717
        },
        {
          "name": "D#5",
          "midi": 75,
          "time": 45.10343699999975,
          "velocity": 0.6299212598425197,
          "duration": 0.13045973749999717
        },
        {
          "name": "G#5",
          "midi": 80,
          "time": 45.241367999999746,
          "velocity": 0.6299212598425197,
          "duration": 0.13045973749999717
        },
        {
          "name": "C6",
          "midi": 84,
          "time": 45.37929899999974,
          "velocity": 0.6299212598425197,
          "duration": 0.13045973749999717
        },
        {
          "name": "B5",
          "midi": 83,
          "time": 45.517229999999735,
          "velocity": 0.6299212598425197,
          "duration": 0.13045973749999717
        },
        {
          "name": "G5",
          "midi": 79,
          "time": 45.65516099999973,
          "velocity": 0.6299212598425197,
          "duration": 0.13045973749999717
        },
        {
          "name": "D5",
          "midi": 74,
          "time": 45.793091999999724,
          "velocity": 0.6299212598425197,
          "duration": 0.13045973749999717
        },
        {
          "name": "B4",
          "midi": 71,
          "time": 45.93102299999972,
          "velocity": 0.6299212598425197,
          "duration": 0.13045973749999717
        },
        {
          "name": "G4",
          "midi": 67,
          "time": 46.068953999999714,
          "velocity": 0.6299212598425197,
          "duration": 0.13045973749999717
        },
        {
          "name": "D4",
          "midi": 62,
          "time": 46.20688499999971,
          "velocity": 0.6299212598425197,
          "duration": 0.13045973749999717
        },
        {
          "name": "C4",
          "midi": 60,
          "time": 46.3448159999997,
          "velocity": 0.6299212598425197,
          "duration": 1.5718386874999979
        }
      ],
      "controlChanges": {
        "7": [
          {
            "number": 7,
            "time": 0,
            "value": 0.7874015748031497
          },
          {
            "number": 7,
            "time": 0,
            "value": 0.7874015748031497
          }
        ],
        "10": [
          {
            "number": 10,
            "time": 0,
            "value": 0.5039370078740157
          },
          {
            "number": 10,
            "time": 0,
            "value": 0.5039370078740157
          }
        ],
        "91": [
          {
            "number": 91,
            "time": 0,
            "value": 0
          },
          {
            "number": 91,
            "time": 0,
            "value": 0
          }
        ],
        "93": [
          {
            "number": 93,
            "time": 0,
            "value": 0
          },
          {
            "number": 93,
            "time": 0,
            "value": 0
          }
        ],
        "121": [
          {
            "number": 121,
            "time": 0,
            "value": 0
          },
          {
            "number": 121,
            "time": 0,
            "value": 0
          }
        ]
      },
      "id": 0,
      "name": "Piano",
      "instrumentNumber": 0,
      "instrument": "acoustic grand piano",
      "instrumentFamily": "piano",
      "channelNumber": 1,
      "isPercussion": false
    },
    {
      "startTime": 0,
      "duration": 45.09596573749995,
      "length": 132,
      "notes": [
        {
          "name": "C3",
          "midi": 48,
          "time": 0,
          "velocity": 0.6299212598425197,
          "duration": 0.1304597375
        },
        {
          "name": "D#3",
          "midi": 51,
          "time": 0.137931,
          "velocity": 0.6299212598425197,
          "duration": 0.13045973749999998
        },
        {
          "name": "G3",
          "midi": 55,
          "time": 0.275862,
          "velocity": 0.6299212598425197,
          "duration": 0.1304597375
        },
        {
          "name": "B3",
          "midi": 59,
          "time": 0.8275859999999999,
          "velocity": 0.6299212598425197,
          "duration": 0.13045973750000006
        },
        {
          "name": "G3",
          "midi": 55,
          "time": 0.965517,
          "velocity": 0.6299212598425197,
          "duration": 0.13045973750000006
        },
        {
          "name": "B3",
          "midi": 59,
          "time": 1.103448,
          "velocity": 0.6299212598425197,
          "duration": 0.13045973750000006
        },
        {
          "name": "D#4",
          "midi": 63,
          "time": 1.655172,
          "velocity": 0.6299212598425197,
          "duration": 0.13045973750000006
        },
        {
          "name": "G#3",
          "midi": 56,
          "time": 1.7931030000000001,
          "velocity": 0.6299212598425197,
          "duration": 0.13045973750000006
        },
        {
          "name": "C4",
          "midi": 60,
          "time": 1.9310340000000001,
          "velocity": 0.6299212598425197,
          "duration": 0.13045973750000006
        },
        {
          "name": "C4",
          "midi": 60,
          "time": 3.310344,
          "velocity": 0.6299212598425197,
          "duration": 0.13045973749999984
        },
        {
          "name": "D#4",
          "midi": 63,
          "time": 3.448275,
          "velocity": 0.6299212598425197,
          "duration": 0.13045973749999984
        },
        {
          "name": "G4",
          "midi": 67,
          "time": 3.5862060000000002,
          "velocity": 0.6299212598425197,
          "duration": 0.13045973749999984
        },
        {
          "name": "B4",
          "midi": 71,
          "time": 4.13793,
          "velocity": 0.6299212598425197,
          "duration": 0.13045973749999984
        },
        {
          "name": "G4",
          "midi": 67,
          "time": 4.275861,
          "velocity": 0.6299212598425197,
          "duration": 0.13045973749999984
        },
        {
          "name": "B4",
          "midi": 71,
          "time": 4.413792,
          "velocity": 0.6299212598425197,
          "duration": 0.13045973749999984
        },
        {
          "name": "D#5",
          "midi": 75,
          "time": 4.965516,
          "velocity": 0.6299212598425197,
          "duration": 0.13045973749999984
        },
        {
          "name": "G#4",
          "midi": 68,
          "time": 5.103447,
          "velocity": 0.6299212598425197,
          "duration": 0.13045973749999984
        },
        {
          "name": "C5",
          "midi": 72,
          "time": 5.241378,
          "velocity": 0.6299212598425197,
          "duration": 0.13045973749999984
        },
        {
          "name": "C5",
          "midi": 72,
          "time": 6.7586189999999995,
          "velocity": 0.6299212598425197,
          "duration": 0.13045973749999984
        },
        {
          "name": "G4",
          "midi": 67,
          "time": 6.8965499999999995,
          "velocity": 0.6377952755905512,
          "duration": 0.13045973749999984
        },
        {
          "name": "D#4",
          "midi": 63,
          "time": 7.0344809999999995,
          "velocity": 0.6456692913385826,
          "duration": 0.13045973749999984
        },
        {
          "name": "C5",
          "midi": 72,
          "time": 7.586205,
          "velocity": 0.6614173228346457,
          "duration": 0.13045973749999984
        },
        {
          "name": "G#4",
          "midi": 68,
          "time": 7.724136,
          "velocity": 0.6692913385826772,
          "duration": 0.13045973749999984
        },
        {
          "name": "F4",
          "midi": 65,
          "time": 7.862067,
          "velocity": 0.6771653543307087,
          "duration": 0.13045973749999984
        },
        {
          "name": "A#4",
          "midi": 70,
          "time": 8.413791,
          "velocity": 0.6929133858267716,
          "duration": 0.13045973750000073
        },
        {
          "name": "F4",
          "midi": 65,
          "time": 8.551722,
          "velocity": 0.7007874015748031,
          "duration": 0.13045973750000073
        },
        {
          "name": "D4",
          "midi": 62,
          "time": 8.689653,
          "velocity": 0.7086614173228346,
          "duration": 0.13045973750000073
        },
        {
          "name": "A#4",
          "midi": 70,
          "time": 9.241377,
          "velocity": 0.7244094488188977,
          "duration": 0.13045973750000073
        },
        {
          "name": "G4",
          "midi": 67,
          "time": 9.379308,
          "velocity": 0.7322834645669292,
          "duration": 0.13045973750000073
        },
        {
          "name": "D#4",
          "midi": 63,
          "time": 9.517239,
          "velocity": 0.7401574803149606,
          "duration": 0.13045973750000073
        },
        {
          "name": "G#3",
          "midi": 56,
          "time": 9.931032,
          "velocity": 0.7559055118110236,
          "duration": 0.13045973750000073
        },
        {
          "name": "C4",
          "midi": 60,
          "time": 10.068963,
          "velocity": 0.7322834645669292,
          "duration": 0.13045973750000073
        },
        {
          "name": "D#4",
          "midi": 63,
          "time": 10.206894,
          "velocity": 0.7007874015748031,
          "duration": 0.13045973750000073
        },
        {
          "name": "G4",
          "midi": 67,
          "time": 10.758618,
          "velocity": 0.5748031496062992,
          "duration": 0.13045973750000073
        },
        {
          "name": "D#4",
          "midi": 63,
          "time": 10.896549,
          "velocity": 0.5433070866141733,
          "duration": 0.13045973750000073
        },
        {
          "name": "G4",
          "midi": 67,
          "time": 11.03448,
          "velocity": 0.5118110236220472,
          "duration": 0.13045973750000073
        },
        {
          "name": "F3",
          "midi": 53,
          "time": 11.586204,
          "velocity": 0.3858267716535433,
          "duration": 0.13045973750000073
        },
        {
          "name": "G3",
          "midi": 55,
          "time": 11.724135,
          "velocity": 0.3937007874015748,
          "duration": 0.13045973750000073
        },
        {
          "name": "G#3",
          "midi": 56,
          "time": 11.862066,
          "velocity": 0.4015748031496063,
          "duration": 0.13045973750000073
        },
        {
          "name": "D4",
          "midi": 62,
          "time": 13.241376,
          "velocity": 0.5039370078740157,
          "duration": 0.13045973750000073
        },
        {
          "name": "E4",
          "midi": 64,
          "time": 13.379307,
          "velocity": 0.5118110236220472,
          "duration": 0.13045973750000073
        },
        {
          "name": "F#4",
          "midi": 66,
          "time": 13.517238,
          "velocity": 0.5275590551181102,
          "duration": 0.13045973750000073
        },
        {
          "name": "C4",
          "midi": 60,
          "time": 14.068962,
          "velocity": 0.5669291338582677,
          "duration": 0.13045973750000073
        },
        {
          "name": "D4",
          "midi": 62,
          "time": 14.206893,
          "velocity": 0.5748031496062992,
          "duration": 0.13045973750000073
        },
        {
          "name": "E4",
          "midi": 64,
          "time": 14.344824000000001,
          "velocity": 0.5826771653543307,
          "duration": 0.13045973750000073
        },
        {
          "name": "A#2",
          "midi": 46,
          "time": 15.034479000000001,
          "velocity": 0.6299212598425197,
          "duration": 0.13045973750000073
        },
        {
          "name": "D3",
          "midi": 50,
          "time": 15.172410000000001,
          "velocity": 0.6299212598425197,
          "duration": 0.13045973750000073
        },
        {
          "name": "F#3",
          "midi": 54,
          "time": 15.724134000000001,
          "velocity": 0.6299212598425197,
          "duration": 0.13045973750000073
        },
        {
          "name": "D3",
          "midi": 50,
          "time": 15.862065000000001,
          "velocity": 0.6299212598425197,
          "duration": 0.13045973750000073
        },
        {
          "name": "F#3",
          "midi": 54,
          "time": 15.999996000000001,
          "velocity": 0.6299212598425197,
          "duration": 0.13045973749999895
        },
        {
          "name": "A#3",
          "midi": 58,
          "time": 16.55172,
          "velocity": 0.6299212598425197,
          "duration": 0.13045973750000073
        },
        {
          "name": "D#3",
          "midi": 51,
          "time": 16.689651,
          "velocity": 0.6299212598425197,
          "duration": 0.13045973750000073
        },
        {
          "name": "G3",
          "midi": 55,
          "time": 16.827582000000003,
          "velocity": 0.6299212598425197,
          "duration": 0.13045973750000073
        },
        {
          "name": "G3",
          "midi": 55,
          "time": 18.206892000000003,
          "velocity": 0.6299212598425197,
          "duration": 0.13045973750000073
        },
        {
          "name": "A#3",
          "midi": 58,
          "time": 18.344823000000005,
          "velocity": 0.6299212598425197,
          "duration": 0.13045973750000073
        },
        {
          "name": "D4",
          "midi": 62,
          "time": 18.482754000000007,
          "velocity": 0.6299212598425197,
          "duration": 0.13045973750000073
        },
        {
          "name": "F#4",
          "midi": 66,
          "time": 19.034478000000007,
          "velocity": 0.6299212598425197,
          "duration": 0.13045973750000073
        },
        {
          "name": "D4",
          "midi": 62,
          "time": 19.17240900000001,
          "velocity": 0.6299212598425197,
          "duration": 0.13045973750000073
        },
        {
          "name": "F#4",
          "midi": 66,
          "time": 19.31034000000001,
          "velocity": 0.6299212598425197,
          "duration": 0.13045973750000073
        },
        {
          "name": "A#4",
          "midi": 70,
          "time": 19.86206400000001,
          "velocity": 0.6299212598425197,
          "duration": 0.13045973750000073
        },
        {
          "name": "D#4",
          "midi": 63,
          "time": 19.999995000000013,
          "velocity": 0.6299212598425197,
          "duration": 0.13045973750000073
        },
        {
          "name": "G4",
          "midi": 67,
          "time": 20.137926000000014,
          "velocity": 0.6299212598425197,
          "duration": 0.13045973750000073
        },
        {
          "name": "G3",
          "midi": 55,
          "time": 21.517236000000015,
          "velocity": 0.6299212598425197,
          "duration": 0.13045973750000073
        },
        {
          "name": "A#3",
          "midi": 58,
          "time": 21.655167000000016,
          "velocity": 0.6299212598425197,
          "duration": 0.13045973750000073
        },
        {
          "name": "D4",
          "midi": 62,
          "time": 21.79309800000002,
          "velocity": 0.6299212598425197,
          "duration": 0.13045973750000073
        },
        {
          "name": "F#4",
          "midi": 66,
          "time": 22.34482200000002,
          "velocity": 0.6299212598425197,
          "duration": 0.13045973750000073
        },
        {
          "name": "D4",
          "midi": 62,
          "time": 22.48275300000002,
          "velocity": 0.6299212598425197,
          "duration": 0.13045973750000073
        },
        {
          "name": "F#4",
          "midi": 66,
          "time": 22.620684000000022,
          "velocity": 0.6299212598425197,
          "duration": 0.13045973750000073
        },
        {
          "name": "G2",
          "midi": 43,
          "time": 23.172408000000022,
          "velocity": 0.6299212598425197,
          "duration": 0.7856319875000004
        },
        {
          "name": "G3",
          "midi": 55,
          "time": 23.172408000000022,
          "velocity": 0.6299212598425197,
          "duration": 0.7856319875000004
        },
        {
          "name": "F2",
          "midi": 41,
          "time": 23.999994000000022,
          "velocity": 0.6299212598425197,
          "duration": 0.3925286374999999
        },
        {
          "name": "F3",
          "midi": 53,
          "time": 23.999994000000022,
          "velocity": 0.6299212598425197,
          "duration": 0.3925286374999999
        },
        {
          "name": "B2",
          "midi": 47,
          "time": 24.41378700000002,
          "velocity": 0.6299212598425197,
          "duration": 0.3925286374999999
        },
        {
          "name": "G3",
          "midi": 55,
          "time": 24.41378700000002,
          "velocity": 0.6299212598425197,
          "duration": 0.3925286374999999
        },
        {
          "name": "C3",
          "midi": 48,
          "time": 24.82758000000002,
          "velocity": 0.6299212598425197,
          "duration": 0.7856319875000004
        },
        {
          "name": "C4",
          "midi": 60,
          "time": 24.82758000000002,
          "velocity": 0.6299212598425197,
          "duration": 0.7856319875000004
        },
        {
          "name": "A#2",
          "midi": 46,
          "time": 25.65516600000002,
          "velocity": 0.6299212598425197,
          "duration": 0.3925286374999999
        },
        {
          "name": "A#3",
          "midi": 58,
          "time": 25.65516600000002,
          "velocity": 0.6299212598425197,
          "duration": 0.3925286374999999
        },
        {
          "name": "E2",
          "midi": 40,
          "time": 26.068959000000017,
          "velocity": 0.6299212598425197,
          "duration": 0.3925286374999999
        },
        {
          "name": "C3",
          "midi": 48,
          "time": 26.068959000000017,
          "velocity": 0.6299212598425197,
          "duration": 0.3925286374999999
        },
        {
          "name": "G#2",
          "midi": 44,
          "time": 26.620683000000017,
          "velocity": 0.6299212598425197,
          "duration": 0.13045973750000073
        },
        {
          "name": "C3",
          "midi": 48,
          "time": 26.75861400000002,
          "velocity": 0.6299212598425197,
          "duration": 0.13045973750000073
        },
        {
          "name": "E3",
          "midi": 52,
          "time": 27.31033800000002,
          "velocity": 0.6299212598425197,
          "duration": 0.13045973750000073
        },
        {
          "name": "C3",
          "midi": 48,
          "time": 27.44826900000002,
          "velocity": 0.6299212598425197,
          "duration": 0.13045973750000073
        },
        {
          "name": "E3",
          "midi": 52,
          "time": 27.586200000000023,
          "velocity": 0.6299212598425197,
          "duration": 0.13045973750000073
        },
        {
          "name": "G#3",
          "midi": 56,
          "time": 28.137924000000023,
          "velocity": 0.6299212598425197,
          "duration": 0.13045973750000073
        },
        {
          "name": "C#3",
          "midi": 49,
          "time": 28.275855000000025,
          "velocity": 0.6299212598425197,
          "duration": 0.13045973750000073
        },
        {
          "name": "F3",
          "midi": 53,
          "time": 28.413786000000027,
          "velocity": 0.6299212598425197,
          "duration": 0.13045973750000073
        },
        {
          "name": "F3",
          "midi": 53,
          "time": 29.793096000000027,
          "velocity": 0.6299212598425197,
          "duration": 0.13045973750000073
        },
        {
          "name": "G#3",
          "midi": 56,
          "time": 29.93102700000003,
          "velocity": 0.6299212598425197,
          "duration": 0.13045973750000073
        },
        {
          "name": "C4",
          "midi": 60,
          "time": 30.06895800000003,
          "velocity": 0.6299212598425197,
          "duration": 0.13045973750000073
        },
        {
          "name": "E4",
          "midi": 64,
          "time": 30.62068200000003,
          "velocity": 0.6299212598425197,
          "duration": 0.13045973750000073
        },
        {
          "name": "C4",
          "midi": 60,
          "time": 30.758613000000032,
          "velocity": 0.6299212598425197,
          "duration": 0.13045973750000073
        },
        {
          "name": "E4",
          "midi": 64,
          "time": 30.896544000000034,
          "velocity": 0.6299212598425197,
          "duration": 0.13045973750000073
        },
        {
          "name": "G#4",
          "midi": 68,
          "time": 31.448268000000034,
          "velocity": 0.6299212598425197,
          "duration": 0.13045973750000073
        },
        {
          "name": "C#4",
          "midi": 61,
          "time": 31.586199000000036,
          "velocity": 0.6299212598425197,
          "duration": 0.13045973750000073
        },
        {
          "name": "F4",
          "midi": 65,
          "time": 31.724130000000038,
          "velocity": 0.6299212598425197,
          "duration": 0.13045973750000073
        },
        {
          "name": "F2",
          "midi": 41,
          "time": 33.10344000000004,
          "velocity": 0.9448818897637795,
          "duration": 0.8270112874999995
        },
        {
          "name": "F3",
          "midi": 53,
          "time": 33.10344000000004,
          "velocity": 0.9448818897637795,
          "duration": 0.8270112874999995
        },
        {
          "name": "A#2",
          "midi": 46,
          "time": 33.93102600000004,
          "velocity": 0.9448818897637795,
          "duration": 0.8270112874999995
        },
        {
          "name": "A#3",
          "midi": 58,
          "time": 33.93102600000004,
          "velocity": 0.9448818897637795,
          "duration": 0.4137929999999983
        },
        {
          "name": "D#2",
          "midi": 39,
          "time": 34.758612000000035,
          "velocity": 0.9448818897637795,
          "duration": 0.8270112874999995
        },
        {
          "name": "D#3",
          "midi": 51,
          "time": 34.758612000000035,
          "velocity": 0.9448818897637795,
          "duration": 0.8270112874999995
        },
        {
          "name": "G#2",
          "midi": 44,
          "time": 35.58619800000003,
          "velocity": 0.9448818897637795,
          "duration": 0.8270112874999995
        },
        {
          "name": "G#3",
          "midi": 56,
          "time": 35.58619800000003,
          "velocity": 0.9448818897637795,
          "duration": 0.4137929999999983
        },
        {
          "name": "F#2",
          "midi": 42,
          "time": 36.41378400000003,
          "velocity": 0.6299212598425197,
          "duration": 0.7856319874999969
        },
        {
          "name": "C3",
          "midi": 48,
          "time": 36.41378400000003,
          "velocity": 0.6299212598425197,
          "duration": 0.7856319874999969
        },
        {
          "name": "D#3",
          "midi": 51,
          "time": 36.41378400000003,
          "velocity": 0.6299212598425197,
          "duration": 0.7856319874999969
        },
        {
          "name": "F#2",
          "midi": 42,
          "time": 37.241370000000025,
          "velocity": 0.6299212598425197,
          "duration": 0.7856319874999969
        },
        {
          "name": "C3",
          "midi": 48,
          "time": 37.241370000000025,
          "velocity": 0.6299212598425197,
          "duration": 0.7856319874999969
        },
        {
          "name": "G2",
          "midi": 43,
          "time": 38.06895600000002,
          "velocity": 0.6299212598425197,
          "duration": 0.7856319874999969
        },
        {
          "name": "D3",
          "midi": 50,
          "time": 38.06895600000002,
          "velocity": 0.6299212598425197,
          "duration": 0.7856319874999969
        },
        {
          "name": "G3",
          "midi": 55,
          "time": 38.06895600000002,
          "velocity": 0.6299212598425197,
          "duration": 0.7856319874999969
        },
        {
          "name": "B2",
          "midi": 47,
          "time": 38.89654200000002,
          "velocity": 0.6299212598425197,
          "duration": 0.7856319874999969
        },
        {
          "name": "D3",
          "midi": 50,
          "time": 38.89654200000002,
          "velocity": 0.6299212598425197,
          "duration": 0.7856319874999969
        },
        {
          "name": "D#3",
          "midi": 51,
          "time": 39.862059000000016,
          "velocity": 0.6299212598425197,
          "duration": 0.13045973749999717
        },
        {
          "name": "G3",
          "midi": 55,
          "time": 39.99999000000001,
          "velocity": 0.6299212598425197,
          "duration": 0.13045973749999717
        },
        {
          "name": "B3",
          "midi": 59,
          "time": 40.55171400000001,
          "velocity": 0.6299212598425197,
          "duration": 0.13045973749999717
        },
        {
          "name": "G3",
          "midi": 55,
          "time": 40.689645000000006,
          "velocity": 0.6299212598425197,
          "duration": 0.13045973749999717
        },
        {
          "name": "B3",
          "midi": 59,
          "time": 40.827576,
          "velocity": 0.6299212598425197,
          "duration": 0.13045973749999717
        },
        {
          "name": "D#4",
          "midi": 63,
          "time": 41.3793,
          "velocity": 0.6299212598425197,
          "duration": 0.13045973749999717
        },
        {
          "name": "G#3",
          "midi": 56,
          "time": 41.517230999999995,
          "velocity": 0.6299212598425197,
          "duration": 0.13045973749999717
        },
        {
          "name": "C4",
          "midi": 60,
          "time": 41.65516199999999,
          "velocity": 0.6299212598425197,
          "duration": 0.13045973749999717
        },
        {
          "name": "C4",
          "midi": 60,
          "time": 43.03447199999999,
          "velocity": 0.6299212598425197,
          "duration": 0.13045973749999717
        },
        {
          "name": "D#4",
          "midi": 63,
          "time": 43.17240299999998,
          "velocity": 0.6299212598425197,
          "duration": 0.13045973749999717
        },
        {
          "name": "G4",
          "midi": 67,
          "time": 43.310333999999976,
          "velocity": 0.6299212598425197,
          "duration": 0.13045973749999717
        },
        {
          "name": "B4",
          "midi": 71,
          "time": 43.862057999999976,
          "velocity": 0.6299212598425197,
          "duration": 0.13045973749999717
        },
        {
          "name": "G4",
          "midi": 67,
          "time": 43.99998899999997,
          "velocity": 0.6299212598425197,
          "duration": 0.13045973749999717
        },
        {
          "name": "B4",
          "midi": 71,
          "time": 44.137919999999966,
          "velocity": 0.6299212598425197,
          "duration": 0.13045973749999717
        },
        {
          "name": "D#5",
          "midi": 75,
          "time": 44.689643999999966,
          "velocity": 0.6299212598425197,
          "duration": 0.13045973749999717
        },
        {
          "name": "G#4",
          "midi": 68,
          "time": 44.82757499999996,
          "velocity": 0.6299212598425197,
          "duration": 0.13045973749999717
        },
        {
          "name": "C5",
          "midi": 72,
          "time": 44.965505999999955,
          "velocity": 0.6299212598425197,
          "duration": 0.13045973749999717
        }
      ],
      "controlChanges": {},
      "id": 1,
      "name": "Piano",
      "channelNumber": 0,
      "isPercussion": false
    }
  ]
}