{
  "header": {
    "PPQ": 480,
    "timeSignature": [
      12,
      8
    ],
    "bpm": 89.9999550000225,
    "name": ""
  },
  "tempo": [
    {
      "absoluteTime": 0,
      "seconds": 0,
      "bpm": 89.9999550000225
    }
  ],
  "timeSignature": [
    {
      "absoluteTime": 0,
      "seconds": 0,
      "numerator": 12,
      "denominator": 3,
      "click": 24,
      "notesQ": 8
    }
  ],
  "startTime": 0,
  "duration": 99.79866101041675,
  "tracks": [
    {
      "startTime": 0,
      "duration": 99.79866101041675,
      "length": 359,
      "notes": [
        {
          "name": "F#4",
          "midi": 66,
          "time": 0,
          "velocity": 0.6299212598425197,
          "duration": 0.3319446104166667
        },
        {
          "name": "C#4",
          "midi": 61,
          "time": 0.3333335,
          "velocity": 0.6299212598425197,
          "duration": 0.33194461041666673
        },
        {
          "name": "A4",
          "midi": 69,
          "time": 0.6666670000000001,
          "velocity": 0.6299212598425197,
          "duration": 0.3152779354166666
        },
        {
          "name": "A4",
          "midi": 69,
          "time": 1.0000005,
          "velocity": 0.6299212598425197,
          "duration": 0.33194461041666656
        },
        {
          "name": "F#4",
          "midi": 66,
          "time": 1.333334,
          "velocity": 0.6299212598425197,
          "duration": 0.3319446104166668
        },
        {
          "name": "A4",
          "midi": 69,
          "time": 1.6666675000000002,
          "velocity": 0.6299212598425197,
          "duration": 0.3152779354166666
        },
        {
          "name": "G#4",
          "midi": 68,
          "time": 2.000001,
          "velocity": 0.6299212598425197,
          "duration": 0.9486115854166668
        },
        {
          "name": "F4",
          "midi": 65,
          "time": 3.0000015,
          "velocity": 0.6299212598425197,
          "duration": 0.9486115854166668
        },
        {
          "name": "F#4",
          "midi": 66,
          "time": 4.000002,
          "velocity": 0.6299212598425197,
          "duration": 0.33194461041666656
        },
        {
          "name": "G#4",
          "midi": 68,
          "time": 4.3333355000000005,
          "velocity": 0.6299212598425197,
          "duration": 0.33194461041666656
        },
        {
          "name": "A4",
          "midi": 69,
          "time": 4.666669000000001,
          "velocity": 0.6299212598425197,
          "duration": 0.3152779354166668
        },
        {
          "name": "B4",
          "midi": 71,
          "time": 5.000002500000001,
          "velocity": 0.6299212598425197,
          "duration": 0.33194461041666656
        },
        {
          "name": "A4",
          "midi": 69,
          "time": 5.333336000000001,
          "velocity": 0.6299212598425197,
          "duration": 0.33194461041666656
        },
        {
          "name": "G#4",
          "midi": 68,
          "time": 5.666669500000001,
          "velocity": 0.6299212598425197,
          "duration": 0.33194461041666656
        },
        {
          "name": "A4",
          "midi": 69,
          "time": 6.000003000000001,
          "velocity": 0.6299212598425197,
          "duration": 0.33194461041666656
        },
        {
          "name": "G#4",
          "midi": 68,
          "time": 6.3333365000000015,
          "velocity": 0.6299212598425197,
          "duration": 0.33194461041666656
        },
        {
          "name": "F#4",
          "midi": 66,
          "time": 6.666670000000002,
          "velocity": 0.6299212598425197,
          "duration": 0.33194461041666656
        },
        {
          "name": "G#4",
          "midi": 68,
          "time": 7.000003500000002,
          "velocity": 0.6299212598425197,
          "duration": 0.3152779354166668
        },
        {
          "name": "F#4",
          "midi": 66,
          "time": 7.333337000000002,
          "velocity": 0.6299212598425197,
          "duration": 0.33194461041666656
        },
        {
          "name": "G#4",
          "midi": 68,
          "time": 7.666670500000002,
          "velocity": 0.6299212598425197,
          "duration": 0.3152779354166668
        },
        {
          "name": "A4",
          "midi": 69,
          "time": 8.000004000000002,
          "velocity": 0.6299212598425197,
          "duration": 0.33194461041666656
        },
        {
          "name": "F#4",
          "midi": 66,
          "time": 8.000004000000002,
          "velocity": 0.6299212598425197,
          "duration": 1.9986121104166674
        },
        {
          "name": "B4",
          "midi": 71,
          "time": 8.333337500000003,
          "velocity": 0.6299212598425197,
          "duration": 0.33194461041666656
        },
        {
          "name": "C#5",
          "midi": 73,
          "time": 8.666671000000003,
          "velocity": 0.6299212598425197,
          "duration": 0.33194461041666656
        },
        {
          "name": "D5",
          "midi": 74,
          "time": 9.000004500000003,
          "velocity": 0.6299212598425197,
          "duration": 0.33194461041666656
        },
        {
          "name": "C#5",
          "midi": 73,
          "time": 9.333338000000003,
          "velocity": 0.6299212598425197,
          "duration": 0.33194461041666656
        },
        {
          "name": "B4",
          "midi": 71,
          "time": 9.666671500000003,
          "velocity": 0.6299212598425197,
          "duration": 0.3152779354166668
        },
        {
          "name": "C#5",
          "midi": 73,
          "time": 10.000005000000003,
          "velocity": 0.6299212598425197,
          "duration": 0.9486115854166677
        },
        {
          "name": "G#4",
          "midi": 68,
          "time": 10.000005000000003,
          "velocity": 0.6299212598425197,
          "duration": 0.3152779354166668
        },
        {
          "name": "B4",
          "midi": 71,
          "time": 10.333338500000004,
          "velocity": 0.6299212598425197,
          "duration": 0.3152779354166668
        },
        {
          "name": "A4",
          "midi": 69,
          "time": 10.666672000000004,
          "velocity": 0.6299212598425197,
          "duration": 0.3152779354166668
        },
        {
          "name": "G#4",
          "midi": 68,
          "time": 11.000005500000004,
          "velocity": 0.6299212598425197,
          "duration": 0.3152779354166668
        },
        {
          "name": "F#4",
          "midi": 66,
          "time": 11.333339000000004,
          "velocity": 0.6299212598425197,
          "duration": 0.3152779354166668
        },
        {
          "name": "F4",
          "midi": 65,
          "time": 11.666672500000004,
          "velocity": 0.6299212598425197,
          "duration": 0.3152779354166668
        },
        {
          "name": "A4",
          "midi": 69,
          "time": 12.000006000000004,
          "velocity": 0.6299212598425197,
          "duration": 0.33194461041666656
        },
        {
          "name": "F#4",
          "midi": 66,
          "time": 12.000006000000004,
          "velocity": 0.6299212598425197,
          "duration": 0.9986116104166669
        },
        {
          "name": "B4",
          "midi": 71,
          "time": 12.333339500000005,
          "velocity": 0.6299212598425197,
          "duration": 0.33194461041666656
        },
        {
          "name": "C#5",
          "midi": 73,
          "time": 12.666673000000005,
          "velocity": 0.6299212598425197,
          "duration": 0.33194461041666656
        },
        {
          "name": "B4",
          "midi": 71,
          "time": 13.000006500000005,
          "velocity": 0.6299212598425197,
          "duration": 0.33194461041666656
        },
        {
          "name": "G#4",
          "midi": 68,
          "time": 13.000006500000005,
          "velocity": 0.6299212598425197,
          "duration": 0.9986116104166669
        },
        {
          "name": "C#5",
          "midi": 73,
          "time": 13.333340000000005,
          "velocity": 0.6299212598425197,
          "duration": 0.33194461041666656
        },
        {
          "name": "D5",
          "midi": 74,
          "time": 13.666673500000005,
          "velocity": 0.6299212598425197,
          "duration": 0.3152779354166668
        },
        {
          "name": "C#5",
          "midi": 73,
          "time": 14.000007000000005,
          "velocity": 0.6299212598425197,
          "duration": 0.33194461041666656
        },
        {
          "name": "F#4",
          "midi": 66,
          "time": 14.000007000000005,
          "velocity": 0.6299212598425197,
          "duration": 0.9986116104166669
        },
        {
          "name": "B4",
          "midi": 71,
          "time": 14.333340500000006,
          "velocity": 0.6299212598425197,
          "duration": 0.33194461041666656
        },
        {
          "name": "A4",
          "midi": 69,
          "time": 14.666674000000006,
          "velocity": 0.6299212598425197,
          "duration": 0.3152779354166668
        },
        {
          "name": "G#4",
          "midi": 68,
          "time": 15.000007500000006,
          "velocity": 0.6299212598425197,
          "duration": 0.33194461041666656
        },
        {
          "name": "F4",
          "midi": 65,
          "time": 15.000007500000006,
          "velocity": 0.6299212598425197,
          "duration": 0.6666670000000003
        },
        {
          "name": "F#4",
          "midi": 66,
          "time": 15.333341000000006,
          "velocity": 0.6299212598425197,
          "duration": 0.33194461041666656
        },
        {
          "name": "F4",
          "midi": 65,
          "time": 15.666674500000006,
          "velocity": 0.6299212598425197,
          "duration": 0.33194461041666656
        },
        {
          "name": "C#5",
          "midi": 73,
          "time": 16.000008000000005,
          "velocity": 0.6299212598425197,
          "duration": 0.6319447604166655
        },
        {
          "name": "F#4",
          "midi": 66,
          "time": 16.000008000000005,
          "velocity": 0.6299212598425197,
          "duration": 0.6319447604166655
        },
        {
          "name": "F#5",
          "midi": 78,
          "time": 16.666675000000005,
          "velocity": 0.6299212598425197,
          "duration": 0.3152779354166668
        },
        {
          "name": "C#5",
          "midi": 73,
          "time": 17.000008500000003,
          "velocity": 0.6299212598425197,
          "duration": 0.6319447604166655
        },
        {
          "name": "E5",
          "midi": 76,
          "time": 17.666675500000004,
          "velocity": 0.6299212598425197,
          "duration": 0.3152779354166668
        },
        {
          "name": "D5",
          "midi": 74,
          "time": 18.000009000000002,
          "velocity": 0.6299212598425197,
          "duration": 2.5319457104166787
        },
        {
          "name": "B4",
          "midi": 71,
          "time": 18.000009000000002,
          "velocity": 0.6299212598425197,
          "duration": 0.1569445229166675
        },
        {
          "name": "D4",
          "midi": 62,
          "time": 18.166675750000003,
          "velocity": 0.6299212598425197,
          "duration": 0.1569445229166675
        },
        {
          "name": "E4",
          "midi": 64,
          "time": 18.333342500000004,
          "velocity": 0.6299212598425197,
          "duration": 0.1569445229166675
        },
        {
          "name": "F#4",
          "midi": 66,
          "time": 18.500009250000005,
          "velocity": 0.6299212598425197,
          "duration": 0.1569445229166675
        },
        {
          "name": "G#4",
          "midi": 68,
          "time": 18.666676000000006,
          "velocity": 0.6299212598425197,
          "duration": 0.1569445229166675
        },
        {
          "name": "A4",
          "midi": 69,
          "time": 18.833342750000007,
          "velocity": 0.6299212598425197,
          "duration": 0.1569445229166675
        },
        {
          "name": "B4",
          "midi": 71,
          "time": 19.000009500000008,
          "velocity": 0.6299212598425197,
          "duration": 0.1569445229166675
        },
        {
          "name": "C#5",
          "midi": 73,
          "time": 19.16667625000001,
          "velocity": 0.6299212598425197,
          "duration": 0.1569445229166675
        },
        {
          "name": "B4",
          "midi": 71,
          "time": 19.33334300000001,
          "velocity": 0.6299212598425197,
          "duration": 0.1569445229166675
        },
        {
          "name": "A4",
          "midi": 69,
          "time": 19.50000975000001,
          "velocity": 0.6299212598425197,
          "duration": 0.1569445229166675
        },
        {
          "name": "G#4",
          "midi": 68,
          "time": 19.666676500000012,
          "velocity": 0.6299212598425197,
          "duration": 0.1569445229166675
        },
        {
          "name": "F#4",
          "midi": 66,
          "time": 19.833343250000013,
          "velocity": 0.6299212598425197,
          "duration": 0.1569445229166675
        },
        {
          "name": "F4",
          "midi": 65,
          "time": 20.000010000000014,
          "velocity": 0.6299212598425197,
          "duration": 0.9486115854166677
        },
        {
          "name": "C#5",
          "midi": 73,
          "time": 20.666677000000014,
          "velocity": 0.6299212598425197,
          "duration": 0.3152779354166668
        },
        {
          "name": "G#4",
          "midi": 68,
          "time": 21.000010500000013,
          "velocity": 0.6299212598425197,
          "duration": 0.6319447604166655
        },
        {
          "name": "C#4",
          "midi": 61,
          "time": 21.000010500000013,
          "velocity": 0.6299212598425197,
          "duration": 0.9486115854166677
        },
        {
          "name": "B4",
          "midi": 71,
          "time": 21.666677500000013,
          "velocity": 0.6299212598425197,
          "duration": 0.3152779354166668
        },
        {
          "name": "A4",
          "midi": 69,
          "time": 22.00001100000001,
          "velocity": 0.6299212598425197,
          "duration": 1.8986120604166778
        },
        {
          "name": "F#4",
          "midi": 66,
          "time": 22.00001100000001,
          "velocity": 0.6299212598425197,
          "duration": 0.1569445229166675
        },
        {
          "name": "A3",
          "midi": 57,
          "time": 22.166677750000012,
          "velocity": 0.6299212598425197,
          "duration": 0.1569445229166675
        },
        {
          "name": "B3",
          "midi": 59,
          "time": 22.333344500000013,
          "velocity": 0.6299212598425197,
          "duration": 0.1569445229166675
        },
        {
          "name": "C#4",
          "midi": 61,
          "time": 22.500011250000014,
          "velocity": 0.6299212598425197,
          "duration": 0.1569445229166675
        },
        {
          "name": "D4",
          "midi": 62,
          "time": 22.666678000000015,
          "velocity": 0.6299212598425197,
          "duration": 0.1569445229166675
        },
        {
          "name": "E4",
          "midi": 64,
          "time": 22.833344750000016,
          "velocity": 0.6299212598425197,
          "duration": 0.1569445229166675
        },
        {
          "name": "F#4",
          "midi": 66,
          "time": 23.000011500000017,
          "velocity": 0.6299212598425197,
          "duration": 0.1569445229166675
        },
        {
          "name": "G#4",
          "midi": 68,
          "time": 23.166678250000018,
          "velocity": 0.6299212598425197,
          "duration": 0.1569445229166675
        },
        {
          "name": "F#4",
          "midi": 66,
          "time": 23.33334500000002,
          "velocity": 0.6299212598425197,
          "duration": 0.1569445229166675
        },
        {
          "name": "E4",
          "midi": 64,
          "time": 23.50001175000002,
          "velocity": 0.6299212598425197,
          "duration": 0.1569445229166675
        },
        {
          "name": "D4",
          "midi": 62,
          "time": 23.66667850000002,
          "velocity": 0.6299212598425197,
          "duration": 0.1569445229166675
        },
        {
          "name": "C#4",
          "midi": 61,
          "time": 23.833345250000022,
          "velocity": 0.6299212598425197,
          "duration": 0.1569445229166675
        },
        {
          "name": "B4",
          "midi": 71,
          "time": 24.000012000000023,
          "velocity": 0.5039370078740157,
          "duration": 0.07361114791666523
        },
        {
          "name": "C#5",
          "midi": 73,
          "time": 24.079178706250023,
          "velocity": 0.5039370078740157,
          "duration": 0.07361114791666523
        },
        {
          "name": "B4",
          "midi": 71,
          "time": 24.163900970833353,
          "velocity": 0.5039370078740157,
          "duration": 4.269446579166665
        },
        {
          "name": "G4",
          "midi": 67,
          "time": 25.66667950000002,
          "velocity": 0.5039370078740157,
          "duration": 0.3152779354166668
        },
        {
          "name": "F#4",
          "midi": 66,
          "time": 26.000013000000017,
          "velocity": 0.5039370078740157,
          "duration": 1.5819452354166685
        },
        {
          "name": "G4",
          "midi": 67,
          "time": 27.66668050000002,
          "velocity": 0.5039370078740157,
          "duration": 0.3152779354166668
        },
        {
          "name": "E4",
          "midi": 64,
          "time": 28.000014000000018,
          "velocity": 0.5039370078740157,
          "duration": 1.581945235416665
        },
        {
          "name": "E5",
          "midi": 76,
          "time": 28.66668100000002,
          "velocity": 0.5039370078740157,
          "duration": 0.3152779354166668
        },
        {
          "name": "C#5",
          "midi": 73,
          "time": 29.000014500000017,
          "velocity": 0.5039370078740157,
          "duration": 0.9486115854166677
        },
        {
          "name": "A#4",
          "midi": 70,
          "time": 29.666681500000017,
          "velocity": 0.5039370078740157,
          "duration": 0.3152779354166668
        },
        {
          "name": "B4",
          "midi": 71,
          "time": 30.000015000000015,
          "velocity": 0.5039370078740157,
          "duration": 0.3152779354166668
        },
        {
          "name": "F#4",
          "midi": 66,
          "time": 30.000015000000015,
          "velocity": 0.5039370078740157,
          "duration": 1.8333342500000072
        },
        {
          "name": "F#5",
          "midi": 78,
          "time": 30.333348500000014,
          "velocity": 0.5039370078740157,
          "duration": 0.1569445229166675
        },
        {
          "name": "E5",
          "midi": 76,
          "time": 30.500015250000015,
          "velocity": 0.5039370078740157,
          "duration": 0.1569445229166675
        },
        {
          "name": "D5",
          "midi": 74,
          "time": 30.666682000000016,
          "velocity": 0.5039370078740157,
          "duration": 0.1569445229166675
        },
        {
          "name": "C#5",
          "midi": 73,
          "time": 30.833348750000017,
          "velocity": 0.5039370078740157,
          "duration": 0.1569445229166675
        },
        {
          "name": "B4",
          "midi": 71,
          "time": 31.000015500000018,
          "velocity": 0.5039370078740157,
          "duration": 0.1569445229166675
        },
        {
          "name": "C#5",
          "midi": 73,
          "time": 31.16668225000002,
          "velocity": 0.5039370078740157,
          "duration": 0.1569445229166675
        },
        {
          "name": "B4",
          "midi": 71,
          "time": 31.33334900000002,
          "velocity": 0.5039370078740157,
          "duration": 0.1569445229166675
        },
        {
          "name": "A4",
          "midi": 69,
          "time": 31.50001575000002,
          "velocity": 0.5039370078740157,
          "duration": 0.1569445229166675
        },
        {
          "name": "G#4",
          "midi": 68,
          "time": 31.66668250000002,
          "velocity": 0.5039370078740157,
          "duration": 0.1569445229166675
        },
        {
          "name": "F#4",
          "midi": 66,
          "time": 31.833349250000023,
          "velocity": 0.5039370078740157,
          "duration": 0.1569445229166675
        },
        {
          "name": "A4",
          "midi": 69,
          "time": 32.000016000000024,
          "velocity": 0.5039370078740157,
          "duration": 0.3152779354166668
        },
        {
          "name": "E4",
          "midi": 64,
          "time": 32.000016000000024,
          "velocity": 0.5039370078740157,
          "duration": 1.8333342499999787
        },
        {
          "name": "E5",
          "midi": 76,
          "time": 32.333349500000026,
          "velocity": 0.5039370078740157,
          "duration": 0.1569445229166675
        },
        {
          "name": "D5",
          "midi": 74,
          "time": 32.50001625000002,
          "velocity": 0.5039370078740157,
          "duration": 0.1569445229166675
        },
        {
          "name": "C#5",
          "midi": 73,
          "time": 32.66668300000002,
          "velocity": 0.5039370078740157,
          "duration": 0.1569445229166675
        },
        {
          "name": "B4",
          "midi": 71,
          "time": 32.83334975000002,
          "velocity": 0.5039370078740157,
          "duration": 0.1569445229166675
        },
        {
          "name": "A4",
          "midi": 69,
          "time": 33.000016500000015,
          "velocity": 0.5039370078740157,
          "duration": 0.1569445229166675
        },
        {
          "name": "B4",
          "midi": 71,
          "time": 33.16668325000001,
          "velocity": 0.5039370078740157,
          "duration": 0.1569445229166675
        },
        {
          "name": "A4",
          "midi": 69,
          "time": 33.33335000000001,
          "velocity": 0.5039370078740157,
          "duration": 0.1569445229166675
        },
        {
          "name": "G4",
          "midi": 67,
          "time": 33.50001675000001,
          "velocity": 0.5039370078740157,
          "duration": 0.1569445229166675
        },
        {
          "name": "F#4",
          "midi": 66,
          "time": 33.666683500000005,
          "velocity": 0.5039370078740157,
          "duration": 0.1569445229166675
        },
        {
          "name": "E4",
          "midi": 64,
          "time": 33.83335025,
          "velocity": 0.5039370078740157,
          "duration": 0.1569445229166675
        },
        {
          "name": "D5",
          "midi": 74,
          "time": 34.000017,
          "velocity": 0.5039370078740157,
          "duration": 1.8986120604166672
        },
        {
          "name": "F#4",
          "midi": 66,
          "time": 34.000017,
          "velocity": 0.5039370078740157,
          "duration": 0.9486115854166641
        },
        {
          "name": "D4",
          "midi": 62,
          "time": 35.0000175,
          "velocity": 0.5039370078740157,
          "duration": 0.9486115854166712
        },
        {
          "name": "A4",
          "midi": 69,
          "time": 36.000018000000004,
          "velocity": 0.5039370078740157,
          "duration": 0.6666670000000039
        },
        {
          "name": "E4",
          "midi": 64,
          "time": 36.000018000000004,
          "velocity": 0.5039370078740157,
          "duration": 0.3319446104166701
        },
        {
          "name": "C#4",
          "midi": 61,
          "time": 36.333351500000006,
          "velocity": 0.5039370078740157,
          "duration": 0.3319446104166701
        },
        {
          "name": "A4",
          "midi": 69,
          "time": 36.66668500000001,
          "velocity": 0.5039370078740157,
          "duration": 0.3319446104166701
        },
        {
          "name": "C#5",
          "midi": 73,
          "time": 37.00001850000001,
          "velocity": 0.5039370078740157,
          "duration": 0.6666670000000039
        },
        {
          "name": "A4",
          "midi": 69,
          "time": 37.00001850000001,
          "velocity": 0.5039370078740157,
          "duration": 0.3319446104166701
        },
        {
          "name": "E4",
          "midi": 64,
          "time": 37.33335200000001,
          "velocity": 0.5039370078740157,
          "duration": 0.3319446104166701
        },
        {
          "name": "C#5",
          "midi": 73,
          "time": 37.666685500000014,
          "velocity": 0.5039370078740157,
          "duration": 0.3319446104166701
        },
        {
          "name": "A4",
          "midi": 69,
          "time": 38.000019000000016,
          "velocity": 0.5039370078740157,
          "duration": 0.9486115854166641
        },
        {
          "name": "F#4",
          "midi": 66,
          "time": 38.000019000000016,
          "velocity": 0.5039370078740157,
          "duration": 0.9486115854166641
        },
        {
          "name": "D5",
          "midi": 74,
          "time": 39.000019500000015,
          "velocity": 0.5039370078740157,
          "duration": 0.6319447604166655
        },
        {
          "name": "A4",
          "midi": 69,
          "time": 39.000019500000015,
          "velocity": 0.5039370078740157,
          "duration": 0.9486115854166641
        },
        {
          "name": "D5",
          "midi": 74,
          "time": 39.66668650000001,
          "velocity": 0.5039370078740157,
          "duration": 0.3152779354166668
        },
        {
          "name": "E5",
          "midi": 76,
          "time": 40.00002000000001,
          "velocity": 0.5039370078740157,
          "duration": 0.9486115854166641
        },
        {
          "name": "A4",
          "midi": 69,
          "time": 40.00002000000001,
          "velocity": 0.5039370078740157,
          "duration": 1.8986120604166672
        },
        {
          "name": "C#5",
          "midi": 73,
          "time": 41.00002050000001,
          "velocity": 0.5039370078740157,
          "duration": 0.9486115854166712
        },
        {
          "name": "D5",
          "midi": 74,
          "time": 42.00002100000002,
          "velocity": 0.5039370078740157,
          "duration": 0.9486115854166641
        },
        {
          "name": "F#4",
          "midi": 66,
          "time": 42.00002100000002,
          "velocity": 0.5039370078740157,
          "duration": 1.8986120604166672
        },
        {
          "name": "A4",
          "midi": 69,
          "time": 43.00002150000002,
          "velocity": 0.5039370078740157,
          "duration": 0.9486115854166712
        },
        {
          "name": "A4",
          "midi": 69,
          "time": 44.00002200000002,
          "velocity": 0.5039370078740157,
          "duration": 0.3319446104166701
        },
        {
          "name": "C#4",
          "midi": 61,
          "time": 44.00002200000002,
          "velocity": 0.5039370078740157,
          "duration": 0.998611610416674
        },
        {
          "name": "E4",
          "midi": 64,
          "time": 44.333355500000025,
          "velocity": 0.5039370078740157,
          "duration": 0.3319446104166701
        },
        {
          "name": "C#5",
          "midi": 73,
          "time": 44.66668900000003,
          "velocity": 0.5039370078740157,
          "duration": 0.3152779354166668
        },
        {
          "name": "C#5",
          "midi": 73,
          "time": 45.00002250000003,
          "velocity": 0.5039370078740157,
          "duration": 0.3319446104166701
        },
        {
          "name": "E4",
          "midi": 64,
          "time": 45.00002250000003,
          "velocity": 0.5039370078740157,
          "duration": 1.9986121104166727
        },
        {
          "name": "A4",
          "midi": 69,
          "time": 45.33335600000003,
          "velocity": 0.5039370078740157,
          "duration": 0.3319446104166701
        },
        {
          "name": "C#5",
          "midi": 73,
          "time": 45.66668950000003,
          "velocity": 0.5039370078740157,
          "duration": 0.3152779354166668
        },
        {
          "name": "B4",
          "midi": 71,
          "time": 46.000023000000034,
          "velocity": 0.5039370078740157,
          "duration": 0.9486115854166641
        },
        {
          "name": "G4",
          "midi": 67,
          "time": 47.00002350000003,
          "velocity": 0.5039370078740157,
          "duration": 0.9486115854166641
        },
        {
          "name": "E4",
          "midi": 64,
          "time": 47.00002350000003,
          "velocity": 0.5039370078740157,
          "duration": 0.9486115854166641
        },
        {
          "name": "A4",
          "midi": 69,
          "time": 48.00002400000003,
          "velocity": 0.5039370078740157,
          "duration": 0.6666670000000039
        },
        {
          "name": "C#4",
          "midi": 61,
          "time": 48.00002400000003,
          "velocity": 0.5039370078740157,
          "duration": 0.3152779354166668
        },
        {
          "name": "E4",
          "midi": 64,
          "time": 48.333357500000034,
          "velocity": 0.5039370078740157,
          "duration": 0.3152779354166668
        },
        {
          "name": "A4",
          "midi": 69,
          "time": 48.666691000000036,
          "velocity": 0.5039370078740157,
          "duration": 0.3152779354166668
        },
        {
          "name": "C#5",
          "midi": 73,
          "time": 49.00002450000004,
          "velocity": 0.5039370078740157,
          "duration": 0.9486115854166712
        },
        {
          "name": "A4",
          "midi": 69,
          "time": 49.00002450000004,
          "velocity": 0.5039370078740157,
          "duration": 0.3152779354166668
        },
        {
          "name": "B4",
          "midi": 71,
          "time": 49.33335800000004,
          "velocity": 0.5039370078740157,
          "duration": 0.3152779354166668
        },
        {
          "name": "A4",
          "midi": 69,
          "time": 49.66669150000004,
          "velocity": 0.5039370078740157,
          "duration": 0.3152779354166668
        },
        {
          "name": "D5",
          "midi": 74,
          "time": 50.00002500000004,
          "velocity": 0.5039370078740157,
          "duration": 0.3319446104166701
        },
        {
          "name": "F#4",
          "midi": 66,
          "time": 50.00002500000004,
          "velocity": 0.5039370078740157,
          "duration": 0.6652781104166721
        },
        {
          "name": "A4",
          "midi": 69,
          "time": 50.333358500000045,
          "velocity": 0.5039370078740157,
          "duration": 0.3319446104166701
        },
        {
          "name": "F#5",
          "midi": 78,
          "time": 50.66669200000005,
          "velocity": 0.5039370078740157,
          "duration": 0.3152779354166668
        },
        {
          "name": "F#5",
          "midi": 78,
          "time": 51.00002550000005,
          "velocity": 0.5039370078740157,
          "duration": 0.3319446104166701
        },
        {
          "name": "A4",
          "midi": 69,
          "time": 51.00002550000005,
          "velocity": 0.5039370078740157,
          "duration": 0.6652781104166721
        },
        {
          "name": "D5",
          "midi": 74,
          "time": 51.33335900000005,
          "velocity": 0.5039370078740157,
          "duration": 0.3319446104166701
        },
        {
          "name": "A5",
          "midi": 81,
          "time": 51.66669250000005,
          "velocity": 0.5039370078740157,
          "duration": 0.3152779354166668
        },
        {
          "name": "B4",
          "midi": 71,
          "time": 52.000026000000055,
          "velocity": 0.5039370078740157,
          "duration": 0.948611585416657
        },
        {
          "name": "D4",
          "midi": 62,
          "time": 52.16669275000005,
          "velocity": 0.5039370078740157,
          "duration": 0.1569445229166675
        },
        {
          "name": "E4",
          "midi": 64,
          "time": 52.33335950000005,
          "velocity": 0.5039370078740157,
          "duration": 0.1569445229166675
        },
        {
          "name": "F#4",
          "midi": 66,
          "time": 52.50002625000005,
          "velocity": 0.5039370078740157,
          "duration": 0.1569445229166675
        },
        {
          "name": "G4",
          "midi": 67,
          "time": 52.666693000000045,
          "velocity": 0.5039370078740157,
          "duration": 0.1569445229166675
        },
        {
          "name": "A4",
          "midi": 69,
          "time": 52.83335975000004,
          "velocity": 0.5039370078740157,
          "duration": 0.1569445229166675
        },
        {
          "name": "B4",
          "midi": 71,
          "time": 53.00002650000004,
          "velocity": 0.5039370078740157,
          "duration": 0.1652778604166656
        },
        {
          "name": "G4",
          "midi": 67,
          "time": 53.00002650000004,
          "velocity": 0.5039370078740157,
          "duration": 0.6666669999999897
        },
        {
          "name": "C#5",
          "midi": 73,
          "time": 53.16669325000004,
          "velocity": 0.5039370078740157,
          "duration": 0.1652778604166656
        },
        {
          "name": "B4",
          "midi": 71,
          "time": 53.333360000000035,
          "velocity": 0.5039370078740157,
          "duration": 0.1652778604166656
        },
        {
          "name": "A4",
          "midi": 69,
          "time": 53.50002675000003,
          "velocity": 0.5039370078740157,
          "duration": 0.1652778604166656
        },
        {
          "name": "G4",
          "midi": 67,
          "time": 53.66669350000003,
          "velocity": 0.5039370078740157,
          "duration": 0.331944610416663
        },
        {
          "name": "F#4",
          "midi": 66,
          "time": 53.83336025000003,
          "velocity": 0.5039370078740157,
          "duration": 0.1569445229166675
        },
        {
          "name": "A4",
          "midi": 69,
          "time": 54.000027000000024,
          "velocity": 0.5039370078740157,
          "duration": 0.6666670000000039
        },
        {
          "name": "E4",
          "midi": 64,
          "time": 54.000027000000024,
          "velocity": 0.5039370078740157,
          "duration": 0.3319446104166701
        },
        {
          "name": "C#4",
          "midi": 61,
          "time": 54.333360500000026,
          "velocity": 0.5039370078740157,
          "duration": 0.3319446104166701
        },
        {
          "name": "A4",
          "midi": 69,
          "time": 54.66669400000003,
          "velocity": 0.5039370078740157,
          "duration": 0.3319446104166701
        },
        {
          "name": "C#5",
          "midi": 73,
          "time": 55.00002750000003,
          "velocity": 0.5039370078740157,
          "duration": 0.6666670000000039
        },
        {
          "name": "A4",
          "midi": 69,
          "time": 55.00002750000003,
          "velocity": 0.5039370078740157,
          "duration": 0.3319446104166701
        },
        {
          "name": "E4",
          "midi": 64,
          "time": 55.33336100000003,
          "velocity": 0.5039370078740157,
          "duration": 0.3319446104166701
        },
        {
          "name": "C#5",
          "midi": 73,
          "time": 55.666694500000034,
          "velocity": 0.5039370078740157,
          "duration": 0.3319446104166701
        },
        {
          "name": "D5",
          "midi": 74,
          "time": 56.000028000000036,
          "velocity": 0.5039370078740157,
          "duration": 0.6666669999999897
        },
        {
          "name": "A4",
          "midi": 69,
          "time": 56.16669475000003,
          "velocity": 0.5039370078740157,
          "duration": 0.1569445229166675
        },
        {
          "name": "B4",
          "midi": 71,
          "time": 56.33336150000003,
          "velocity": 0.5039370078740157,
          "duration": 0.1569445229166675
        },
        {
          "name": "C#5",
          "midi": 73,
          "time": 56.50002825000003,
          "velocity": 0.5039370078740157,
          "duration": 0.1569445229166675
        },
        {
          "name": "D5",
          "midi": 74,
          "time": 56.666695000000026,
          "velocity": 0.5039370078740157,
          "duration": 0.28194458541666734
        },
        {
          "name": "E5",
          "midi": 76,
          "time": 56.83336175000002,
          "velocity": 0.5039370078740157,
          "duration": 0.1569445229166675
        },
        {
          "name": "F#5",
          "midi": 78,
          "time": 57.00002850000002,
          "velocity": 0.5039370078740157,
          "duration": 0.1569445229166675
        },
        {
          "name": "A4",
          "midi": 69,
          "time": 57.00002850000002,
          "velocity": 0.5039370078740157,
          "duration": 0.948611585416657
        },
        {
          "name": "G5",
          "midi": 79,
          "time": 57.16669525000002,
          "velocity": 0.5039370078740157,
          "duration": 0.1569445229166675
        },
        {
          "name": "F#5",
          "midi": 78,
          "time": 57.333362000000015,
          "velocity": 0.5039370078740157,
          "duration": 0.1569445229166675
        },
        {
          "name": "E5",
          "midi": 76,
          "time": 57.50002875000001,
          "velocity": 0.5039370078740157,
          "duration": 0.1569445229166675
        },
        {
          "name": "D5",
          "midi": 74,
          "time": 57.66669550000001,
          "velocity": 0.5039370078740157,
          "duration": 0.1569445229166675
        },
        {
          "name": "C#5",
          "midi": 73,
          "time": 57.83336225000001,
          "velocity": 0.5039370078740157,
          "duration": 0.1569445229166675
        },
        {
          "name": "B4",
          "midi": 71,
          "time": 58.000029000000005,
          "velocity": 0.5039370078740157,
          "duration": 0.9486115854166712
        },
        {
          "name": "E4",
          "midi": 64,
          "time": 58.000029000000005,
          "velocity": 0.5039370078740157,
          "duration": 0.3152779354166668
        },
        {
          "name": "D4",
          "midi": 62,
          "time": 58.33336250000001,
          "velocity": 0.5039370078740157,
          "duration": 0.3152779354166668
        },
        {
          "name": "C#4",
          "midi": 61,
          "time": 58.66669600000001,
          "velocity": 0.5039370078740157,
          "duration": 0.3152779354166668
        },
        {
          "name": "G4",
          "midi": 67,
          "time": 59.00002950000001,
          "velocity": 0.5039370078740157,
          "duration": 0.3319446104166701
        },
        {
          "name": "F#4",
          "midi": 66,
          "time": 59.33336300000001,
          "velocity": 0.5039370078740157,
          "duration": 0.3319446104166701
        },
        {
          "name": "B4",
          "midi": 71,
          "time": 59.666696500000015,
          "velocity": 0.5039370078740157,
          "duration": 0.3152779354166668
        },
        {
          "name": "E4",
          "midi": 64,
          "time": 59.666696500000015,
          "velocity": 0.5039370078740157,
          "duration": 0.3152779354166668
        },
        {
          "name": "A4",
          "midi": 69,
          "time": 60.00003000000002,
          "velocity": 0.5039370078740157,
          "duration": 0.998611610416674
        },
        {
          "name": "F#4",
          "midi": 66,
          "time": 60.00003000000002,
          "velocity": 0.5039370078740157,
          "duration": 0.3319446104166701
        },
        {
          "name": "E4",
          "midi": 64,
          "time": 60.33336350000002,
          "velocity": 0.5039370078740157,
          "duration": 0.3319446104166701
        },
        {
          "name": "D4",
          "midi": 62,
          "time": 60.66669700000002,
          "velocity": 0.5039370078740157,
          "duration": 0.3152779354166668
        },
        {
          "name": "A4",
          "midi": 69,
          "time": 61.00003050000002,
          "velocity": 0.5039370078740157,
          "duration": 0.3319446104166701
        },
        {
          "name": "G4",
          "midi": 67,
          "time": 61.333364000000024,
          "velocity": 0.5039370078740157,
          "duration": 0.3319446104166701
        },
        {
          "name": "B4",
          "midi": 71,
          "time": 61.666697500000026,
          "velocity": 0.5039370078740157,
          "duration": 0.3152779354166668
        },
        {
          "name": "F#4",
          "midi": 66,
          "time": 61.666697500000026,
          "velocity": 0.5039370078740157,
          "duration": 0.3152779354166668
        },
        {
          "name": "G4",
          "midi": 67,
          "time": 62.00003100000003,
          "velocity": 0.5039370078740157,
          "duration": 0.6319447604166655
        },
        {
          "name": "E4",
          "midi": 64,
          "time": 62.00003100000003,
          "velocity": 0.5039370078740157,
          "duration": 0.3152779354166668
        },
        {
          "name": "F#4",
          "midi": 66,
          "time": 62.33336450000003,
          "velocity": 0.5039370078740157,
          "duration": 0.3152779354166668
        },
        {
          "name": "G4",
          "midi": 67,
          "time": 62.66669800000003,
          "velocity": 0.5039370078740157,
          "duration": 0.3152779354166668
        },
        {
          "name": "A4",
          "midi": 69,
          "time": 63.000031500000034,
          "velocity": 0.5039370078740157,
          "duration": 0.3152779354166668
        },
        {
          "name": "B4",
          "midi": 71,
          "time": 63.333365000000036,
          "velocity": 0.5039370078740157,
          "duration": 0.3152779354166668
        },
        {
          "name": "C#5",
          "midi": 73,
          "time": 63.66669850000004,
          "velocity": 0.5039370078740157,
          "duration": 0.3152779354166668
        },
        {
          "name": "A4",
          "midi": 69,
          "time": 63.66669850000004,
          "velocity": 0.5039370078740157,
          "duration": 0.3152779354166668
        },
        {
          "name": "F#4",
          "midi": 66,
          "time": 64.00003200000003,
          "velocity": 0.5039370078740157,
          "duration": 0.6319447604166726
        },
        {
          "name": "D4",
          "midi": 62,
          "time": 64.00003200000003,
          "velocity": 0.5039370078740157,
          "duration": 0.9486115854166712
        },
        {
          "name": "F#5",
          "midi": 78,
          "time": 64.66669900000004,
          "velocity": 0.5039370078740157,
          "duration": 0.948611585416657
        },
        {
          "name": "D5",
          "midi": 74,
          "time": 65.00003250000003,
          "velocity": 0.5039370078740157,
          "duration": 0.948611585416657
        },
        {
          "name": "B4",
          "midi": 71,
          "time": 65.66669950000002,
          "velocity": 0.5039370078740157,
          "duration": 0.948611585416657
        },
        {
          "name": "G#4",
          "midi": 68,
          "time": 66.00003300000002,
          "velocity": 0.5039370078740157,
          "duration": 0.948611585416657
        },
        {
          "name": "G#5",
          "midi": 80,
          "time": 66.6667,
          "velocity": 0.5039370078740157,
          "duration": 0.948611585416657
        },
        {
          "name": "F5",
          "midi": 77,
          "time": 67.0000335,
          "velocity": 0.5039370078740157,
          "duration": 0.948611585416657
        },
        {
          "name": "C#5",
          "midi": 73,
          "time": 67.66670049999999,
          "velocity": 0.5039370078740157,
          "duration": 0.3152779354166739
        },
        {
          "name": "C#5",
          "midi": 73,
          "time": 68.000034,
          "velocity": 0.5039370078740157,
          "duration": 0.3152779354166597
        },
        {
          "name": "A4",
          "midi": 69,
          "time": 68.000034,
          "velocity": 0.5039370078740157,
          "duration": 0.3152779354166597
        },
        {
          "name": "F#5",
          "midi": 78,
          "time": 68.3333675,
          "velocity": 0.5039370078740157,
          "duration": 0.1569445229166604
        },
        {
          "name": "E5",
          "midi": 76,
          "time": 68.50003424999998,
          "velocity": 0.5039370078740157,
          "duration": 0.1569445229166604
        },
        {
          "name": "D5",
          "midi": 74,
          "time": 68.66670099999997,
          "velocity": 0.5039370078740157,
          "duration": 0.1569445229166604
        },
        {
          "name": "C#5",
          "midi": 73,
          "time": 68.83336774999997,
          "velocity": 0.5039370078740157,
          "duration": 0.1569445229166604
        },
        {
          "name": "B4",
          "midi": 71,
          "time": 69.00003449999996,
          "velocity": 0.5039370078740157,
          "duration": 0.1569445229166604
        },
        {
          "name": "C#5",
          "midi": 73,
          "time": 69.16670124999995,
          "velocity": 0.5039370078740157,
          "duration": 0.1569445229166604
        },
        {
          "name": "B4",
          "midi": 71,
          "time": 69.33336799999994,
          "velocity": 0.5039370078740157,
          "duration": 0.1569445229166604
        },
        {
          "name": "A4",
          "midi": 69,
          "time": 69.50003474999993,
          "velocity": 0.5039370078740157,
          "duration": 0.1569445229166604
        },
        {
          "name": "G#4",
          "midi": 68,
          "time": 69.66670149999992,
          "velocity": 0.5039370078740157,
          "duration": 0.1569445229166604
        },
        {
          "name": "F#4",
          "midi": 66,
          "time": 69.83336824999991,
          "velocity": 0.5039370078740157,
          "duration": 0.1569445229166604
        },
        {
          "name": "G#4",
          "midi": 68,
          "time": 70.0000349999999,
          "velocity": 0.5039370078740157,
          "duration": 0.9486115854166286
        },
        {
          "name": "F4",
          "midi": 65,
          "time": 70.0000349999999,
          "velocity": 0.5039370078740157,
          "duration": 0.3152779354166597
        },
        {
          "name": "F4",
          "midi": 65,
          "time": 70.33336849999989,
          "velocity": 0.5039370078740157,
          "duration": 0.1569445229166604
        },
        {
          "name": "D#4",
          "midi": 63,
          "time": 70.50003524999988,
          "velocity": 0.5039370078740157,
          "duration": 0.1569445229166604
        },
        {
          "name": "C#4",
          "midi": 61,
          "time": 70.66670199999987,
          "velocity": 0.5039370078740157,
          "duration": 0.1569445229166604
        },
        {
          "name": "F#4",
          "midi": 66,
          "time": 70.83336874999986,
          "velocity": 0.5039370078740157,
          "duration": 0.1569445229166604
        },
        {
          "name": "G#4",
          "midi": 68,
          "time": 71.00003549999985,
          "velocity": 0.5039370078740157,
          "duration": 0.1569445229166604
        },
        {
          "name": "F#4",
          "midi": 66,
          "time": 71.16670224999984,
          "velocity": 0.5039370078740157,
          "duration": 0.1569445229166604
        },
        {
          "name": "F4",
          "midi": 65,
          "time": 71.33336899999983,
          "velocity": 0.5039370078740157,
          "duration": 0.1569445229166604
        },
        {
          "name": "G#4",
          "midi": 68,
          "time": 71.50003574999982,
          "velocity": 0.5039370078740157,
          "duration": 0.1569445229166604
        },
        {
          "name": "F#4",
          "midi": 66,
          "time": 71.66670249999981,
          "velocity": 0.5039370078740157,
          "duration": 0.1569445229166604
        },
        {
          "name": "G#4",
          "midi": 68,
          "time": 71.8333692499998,
          "velocity": 0.5039370078740157,
          "duration": 0.1569445229166604
        },
        {
          "name": "C#5",
          "midi": 73,
          "time": 72.0000359999998,
          "velocity": 0.5039370078740157,
          "duration": 0.6666670000000181
        },
        {
          "name": "G#4",
          "midi": 68,
          "time": 72.0000359999998,
          "velocity": 0.5039370078740157,
          "duration": 0.3319446104166701
        },
        {
          "name": "F4",
          "midi": 65,
          "time": 72.3333694999998,
          "velocity": 0.5039370078740157,
          "duration": 0.3319446104166701
        },
        {
          "name": "C#5",
          "midi": 73,
          "time": 72.66670299999981,
          "velocity": 0.5039370078740157,
          "duration": 0.3319446104166701
        },
        {
          "name": "F5",
          "midi": 77,
          "time": 73.00003649999982,
          "velocity": 0.5039370078740157,
          "duration": 0.6652781104166792
        },
        {
          "name": "C#5",
          "midi": 73,
          "time": 73.00003649999982,
          "velocity": 0.5039370078740157,
          "duration": 0.3319446104166701
        },
        {
          "name": "G#4",
          "midi": 68,
          "time": 73.33336999999983,
          "velocity": 0.5039370078740157,
          "duration": 0.3319446104166701
        },
        {
          "name": "G#5",
          "midi": 80,
          "time": 73.66670349999984,
          "velocity": 0.5039370078740157,
          "duration": 0.3152779354166597
        },
        {
          "name": "F5",
          "midi": 77,
          "time": 73.66670349999984,
          "velocity": 0.5039370078740157,
          "duration": 0.3152779354166597
        },
        {
          "name": "C#5",
          "midi": 73,
          "time": 74.00003699999984,
          "velocity": 0.5039370078740157,
          "duration": 0.6666670000000181
        },
        {
          "name": "A4",
          "midi": 69,
          "time": 74.00003699999984,
          "velocity": 0.5039370078740157,
          "duration": 0.3319446104166701
        },
        {
          "name": "F#4",
          "midi": 66,
          "time": 74.33337049999984,
          "velocity": 0.5039370078740157,
          "duration": 0.3319446104166701
        },
        {
          "name": "C#5",
          "midi": 73,
          "time": 74.66670399999985,
          "velocity": 0.5039370078740157,
          "duration": 0.3319446104166701
        },
        {
          "name": "F#5",
          "midi": 78,
          "time": 75.00003749999986,
          "velocity": 0.5039370078740157,
          "duration": 0.6652781104166792
        },
        {
          "name": "C#5",
          "midi": 73,
          "time": 75.00003749999986,
          "velocity": 0.5039370078740157,
          "duration": 0.3319446104166701
        },
        {
          "name": "A4",
          "midi": 69,
          "time": 75.33337099999987,
          "velocity": 0.5039370078740157,
          "duration": 0.3319446104166701
        },
        {
          "name": "A5",
          "midi": 81,
          "time": 75.66670449999988,
          "velocity": 0.5039370078740157,
          "duration": 0.3152779354166597
        },
        {
          "name": "F#5",
          "midi": 78,
          "time": 75.66670449999988,
          "velocity": 0.5039370078740157,
          "duration": 0.3152779354166597
        },
        {
          "name": "D5",
          "midi": 74,
          "time": 76.00003799999988,
          "velocity": 0.5039370078740157,
          "duration": 0.948611585416657
        },
        {
          "name": "B4",
          "midi": 71,
          "time": 76.00003799999988,
          "velocity": 0.5039370078740157,
          "duration": 0.3152779354166597
        },
        {
          "name": "A4",
          "midi": 69,
          "time": 76.33337149999987,
          "velocity": 0.5039370078740157,
          "duration": 0.3152779354166597
        },
        {
          "name": "B4",
          "midi": 71,
          "time": 76.66670499999987,
          "velocity": 0.5039370078740157,
          "duration": 0.3152779354166739
        },
        {
          "name": "F5",
          "midi": 77,
          "time": 77.00003849999987,
          "velocity": 0.5039370078740157,
          "duration": 0.6666669999999897
        },
        {
          "name": "C#5",
          "midi": 73,
          "time": 77.00003849999987,
          "velocity": 0.5039370078740157,
          "duration": 0.3152779354166597
        },
        {
          "name": "D#5",
          "midi": 75,
          "time": 77.33337199999987,
          "velocity": 0.5039370078740157,
          "duration": 0.3152779354166597
        },
        {
          "name": "F5",
          "midi": 77,
          "time": 77.66670549999986,
          "velocity": 0.5039370078740157,
          "duration": 0.3152779354166597
        },
        {
          "name": "A4",
          "midi": 69,
          "time": 78.00003899999986,
          "velocity": 0.5039370078740157,
          "duration": 0.3319446104166701
        },
        {
          "name": "F#4",
          "midi": 66,
          "time": 78.33337249999987,
          "velocity": 0.5039370078740157,
          "duration": 0.3319446104166701
        },
        {
          "name": "C#5",
          "midi": 73,
          "time": 78.66670599999988,
          "velocity": 0.5039370078740157,
          "duration": 0.3152779354166597
        },
        {
          "name": "C#5",
          "midi": 73,
          "time": 79.00003949999987,
          "velocity": 0.5039370078740157,
          "duration": 0.3319446104166701
        },
        {
          "name": "F#4",
          "midi": 66,
          "time": 79.00003949999987,
          "velocity": 0.5039370078740157,
          "duration": 0.998611610416674
        },
        {
          "name": "A4",
          "midi": 69,
          "time": 79.33337299999988,
          "velocity": 0.5039370078740157,
          "duration": 0.3319446104166701
        },
        {
          "name": "F#5",
          "midi": 78,
          "time": 79.66670649999989,
          "velocity": 0.5039370078740157,
          "duration": 0.3152779354166597
        },
        {
          "name": "C#5",
          "midi": 73,
          "time": 80.00003999999988,
          "velocity": 0.5039370078740157,
          "duration": 0.3319446104166701
        },
        {
          "name": "G#4",
          "midi": 68,
          "time": 80.00003999999988,
          "velocity": 0.5039370078740157,
          "duration": 0.6652781104166792
        },
        {
          "name": "B4",
          "midi": 71,
          "time": 80.3333734999999,
          "velocity": 0.5039370078740157,
          "duration": 0.3319446104166701
        },
        {
          "name": "G#5",
          "midi": 80,
          "time": 80.6667069999999,
          "velocity": 0.5039370078740157,
          "duration": 0.3152779354166597
        },
        {
          "name": "G#5",
          "midi": 80,
          "time": 81.0000404999999,
          "velocity": 0.5039370078740157,
          "duration": 0.3319446104166701
        },
        {
          "name": "B4",
          "midi": 71,
          "time": 81.0000404999999,
          "velocity": 0.5039370078740157,
          "duration": 0.6652781104166792
        },
        {
          "name": "C#5",
          "midi": 73,
          "time": 81.3333739999999,
          "velocity": 0.5039370078740157,
          "duration": 0.3319446104166701
        },
        {
          "name": "B5",
          "midi": 83,
          "time": 81.66670749999992,
          "velocity": 0.5039370078740157,
          "duration": 0.3152779354166597
        },
        {
          "name": "F#5",
          "midi": 78,
          "time": 82.00004099999991,
          "velocity": 0.5039370078740157,
          "duration": 0.3319446104166701
        },
        {
          "name": "A4",
          "midi": 69,
          "time": 82.00004099999991,
          "velocity": 0.5039370078740157,
          "duration": 0.6652781104166792
        },
        {
          "name": "C#5",
          "midi": 73,
          "time": 82.33337449999992,
          "velocity": 0.5039370078740157,
          "duration": 0.3319446104166701
        },
        {
          "name": "A5",
          "midi": 81,
          "time": 82.66670799999993,
          "velocity": 0.5039370078740157,
          "duration": 0.3152779354166597
        },
        {
          "name": "A5",
          "midi": 81,
          "time": 83.00004149999992,
          "velocity": 0.5039370078740157,
          "duration": 0.3319446104166701
        },
        {
          "name": "C#5",
          "midi": 73,
          "time": 83.00004149999992,
          "velocity": 0.5039370078740157,
          "duration": 0.6652781104166792
        },
        {
          "name": "F#5",
          "midi": 78,
          "time": 83.33337499999993,
          "velocity": 0.5039370078740157,
          "duration": 0.3319446104166701
        },
        {
          "name": "C#6",
          "midi": 85,
          "time": 83.66670849999994,
          "velocity": 0.5039370078740157,
          "duration": 0.3152779354166597
        },
        {
          "name": "C#5",
          "midi": 73,
          "time": 84.00004199999994,
          "velocity": 0.5039370078740157,
          "duration": 0.9486115854166712
        },
        {
          "name": "C#6",
          "midi": 85,
          "time": 84.33337549999993,
          "velocity": 0.5039370078740157,
          "duration": 0.1652778604166656
        },
        {
          "name": "B5",
          "midi": 83,
          "time": 84.50004224999994,
          "velocity": 0.5039370078740157,
          "duration": 0.1652778604166656
        },
        {
          "name": "A5",
          "midi": 81,
          "time": 84.66670899999994,
          "velocity": 0.5039370078740157,
          "duration": 0.1652778604166656
        },
        {
          "name": "G#5",
          "midi": 80,
          "time": 84.83337574999995,
          "velocity": 0.5039370078740157,
          "duration": 0.1652778604166656
        },
        {
          "name": "F#5",
          "midi": 78,
          "time": 85.00004249999995,
          "velocity": 0.6299212598425197,
          "duration": 0.3319446104166701
        },
        {
          "name": "C#5",
          "midi": 73,
          "time": 85.00004249999995,
          "velocity": 0.6299212598425197,
          "duration": 0.6652781104166792
        },
        {
          "name": "F#5",
          "midi": 78,
          "time": 85.33337599999996,
          "velocity": 0.6299212598425197,
          "duration": 0.1652778604166656
        },
        {
          "name": "G#5",
          "midi": 80,
          "time": 85.50004274999996,
          "velocity": 0.6299212598425197,
          "duration": 0.1652778604166656
        },
        {
          "name": "F#5",
          "midi": 78,
          "time": 85.66670949999997,
          "velocity": 0.6299212598425197,
          "duration": 0.1652778604166656
        },
        {
          "name": "E5",
          "midi": 76,
          "time": 85.83337624999997,
          "velocity": 0.6299212598425197,
          "duration": 0.1652778604166656
        },
        {
          "name": "D5",
          "midi": 74,
          "time": 86.00004299999998,
          "velocity": 0.6299212598425197,
          "duration": 0.1652778604166656
        },
        {
          "name": "C#5",
          "midi": 73,
          "time": 86.16670974999998,
          "velocity": 0.6299212598425197,
          "duration": 0.1652778604166656
        },
        {
          "name": "B4",
          "midi": 71,
          "time": 86.33337649999999,
          "velocity": 0.6299212598425197,
          "duration": 0.1652778604166656
        },
        {
          "name": "A4",
          "midi": 69,
          "time": 86.50004324999999,
          "velocity": 0.6299212598425197,
          "duration": 0.1652778604166656
        },
        {
          "name": "G#4",
          "midi": 68,
          "time": 86.66671,
          "velocity": 0.6299212598425197,
          "duration": 0.1652778604166656
        },
        {
          "name": "F#4",
          "midi": 66,
          "time": 86.83337675,
          "velocity": 0.6299212598425197,
          "duration": 0.1652778604166656
        },
        {
          "name": "F4",
          "midi": 65,
          "time": 87.0000435,
          "velocity": 0.6299212598425197,
          "duration": 0.1652778604166656
        },
        {
          "name": "D#4",
          "midi": 63,
          "time": 87.16671025000001,
          "velocity": 0.6299212598425197,
          "duration": 0.1652778604166656
        },
        {
          "name": "C#4",
          "midi": 61,
          "time": 87.33337700000001,
          "velocity": 0.6299212598425197,
          "duration": 0.1652778604166656
        },
        {
          "name": "D#4",
          "midi": 63,
          "time": 87.50004375000002,
          "velocity": 0.6299212598425197,
          "duration": 0.1652778604166656
        },
        {
          "name": "F4",
          "midi": 65,
          "time": 87.66671050000002,
          "velocity": 0.6299212598425197,
          "duration": 0.1652778604166656
        },
        {
          "name": "G#4",
          "midi": 68,
          "time": 87.83337725000003,
          "velocity": 0.6299212598425197,
          "duration": 0.1569445229166604
        },
        {
          "name": "F#4",
          "midi": 66,
          "time": 88.00004400000002,
          "velocity": 0.6299212598425197,
          "duration": 0.9486115854166712
        },
        {
          "name": "C#5",
          "midi": 73,
          "time": 88.00004400000002,
          "velocity": 0.6299212598425197,
          "duration": 0.9486115854166712
        },
        {
          "name": "F#4",
          "midi": 66,
          "time": 89.00004450000002,
          "velocity": 0.6299212598425197,
          "duration": 0.6319447604166726
        },
        {
          "name": "C#4",
          "midi": 61,
          "time": 89.00004450000002,
          "velocity": 0.6299212598425197,
          "duration": 0.6319447604166726
        },
        {
          "name": "C#5",
          "midi": 73,
          "time": 89.66671150000002,
          "velocity": 0.6299212598425197,
          "duration": 0.3152779354166597
        },
        {
          "name": "D#4",
          "midi": 63,
          "time": 89.66671150000002,
          "velocity": 0.6299212598425197,
          "duration": 0.3152779354166597
        },
        {
          "name": "C#5",
          "midi": 73,
          "time": 90.00004500000001,
          "velocity": 0.6299212598425197,
          "duration": 0.9486115854166712
        },
        {
          "name": "F4",
          "midi": 65,
          "time": 90.00004500000001,
          "velocity": 0.6299212598425197,
          "duration": 0.6319447604166726
        },
        {
          "name": "F#4",
          "midi": 66,
          "time": 90.66671200000002,
          "velocity": 0.6299212598425197,
          "duration": 0.3152779354166739
        },
        {
          "name": "F5",
          "midi": 77,
          "time": 91.00004550000003,
          "velocity": 0.6299212598425197,
          "duration": 0.9486115854166712
        },
        {
          "name": "G#4",
          "midi": 68,
          "time": 91.00004550000003,
          "velocity": 0.6299212598425197,
          "duration": 0.6319447604166726
        },
        {
          "name": "B4",
          "midi": 71,
          "time": 91.66671250000003,
          "velocity": 0.6299212598425197,
          "duration": 0.3152779354166739
        },
        {
          "name": "D5",
          "midi": 74,
          "time": 92.00004600000004,
          "velocity": 0.6299212598425197,
          "duration": 1.8986120604166672
        },
        {
          "name": "A4",
          "midi": 69,
          "time": 92.00004600000004,
          "velocity": 0.6299212598425197,
          "duration": 0.6319447604166726
        },
        {
          "name": "G#4",
          "midi": 68,
          "time": 92.66671300000004,
          "velocity": 0.6299212598425197,
          "duration": 0.3152779354166597
        },
        {
          "name": "A4",
          "midi": 69,
          "time": 93.00004650000004,
          "velocity": 0.6299212598425197,
          "duration": 0.6319447604166726
        },
        {
          "name": "B4",
          "midi": 71,
          "time": 93.66671350000004,
          "velocity": 0.6299212598425197,
          "duration": 0.3152779354166597
        },
        {
          "name": "C#5",
          "midi": 73,
          "time": 94.00004700000004,
          "velocity": 0.6299212598425197,
          "duration": 0.3319446104166701
        },
        {
          "name": "G#4",
          "midi": 68,
          "time": 94.00004700000004,
          "velocity": 0.6299212598425197,
          "duration": 0.3319446104166701
        },
        {
          "name": "A4",
          "midi": 69,
          "time": 94.33338050000005,
          "velocity": 0.6299212598425197,
          "duration": 0.3319446104166701
        },
        {
          "name": "B4",
          "midi": 71,
          "time": 94.66671400000006,
          "velocity": 0.6299212598425197,
          "duration": 0.3319446104166701
        },
        {
          "name": "C#5",
          "midi": 73,
          "time": 95.00004750000006,
          "velocity": 0.6299212598425197,
          "duration": 0.3319446104166701
        },
        {
          "name": "D#5",
          "midi": 75,
          "time": 95.33338100000007,
          "velocity": 0.6299212598425197,
          "duration": 0.3319446104166701
        },
        {
          "name": "F5",
          "midi": 77,
          "time": 95.66671450000008,
          "velocity": 0.6299212598425197,
          "duration": 0.3152779354166597
        },
        {
          "name": "C#5",
          "midi": 73,
          "time": 95.66671450000008,
          "velocity": 0.6299212598425197,
          "duration": 0.3152779354166597
        },
        {
          "name": "F#5",
          "midi": 78,
          "time": 96.00004800000008,
          "velocity": 0.6299212598425197,
          "duration": 3.7986130104166733
        },
        {
          "name": "A#4",
          "midi": 70,
          "time": 96.00004800000008,
          "velocity": 0.6299212598425197,
          "duration": 3.7986130104166733
        }
      ],
      "controlChanges": {
        "7": [
          {
            "number": 7,
            "time": 0,
            "value": 0.7874015748031497
          }
        ],
        "10": [
          {
            "number": 10,
            "time": 0,
            "value": 0.5039370078740157
          }
        ],
        "91": [
          {
            "number": 91,
            "time": 0,
            "value": 0
          }
        ],
        "93": [
          {
            "number": 93,
            "time": 0,
            "value": 0
          }
        ],
        "121": [
          {
            "number": 121,
            "time": 0,
            "value": 0
          }
        ]
      },
      "id": 0,
      "name": "Piano",
      "instrumentNumber": 0,
      "instrument": "acoustic grand piano",
      "instrumentFamily": "piano",
      "channelNumber": 0,
      "isPercussion": false
    },
    {
      "startTime": 0,
      "duration": 99.79866101041647,
      "length": 195,
      "notes": [
        {
          "name": "F#2",
          "midi": 42,
          "time": 0,
          "velocity": 0.6299212598425197,
          "duration": 0.9486115854166667
        },
        {
          "name": "F#3",
          "midi": 54,
          "time": 1.0000005,
          "velocity": 0.6299212598425197,
          "duration": 0.9486115854166668
        },
        {
          "name": "F3",
          "midi": 53,
          "time": 2.000001,
          "velocity": 0.6299212598425197,
          "duration": 0.33194461041666656
        },
        {
          "name": "D#3",
          "midi": 51,
          "time": 2.3333345,
          "velocity": 0.6299212598425197,
          "duration": 0.33194461041666656
        },
        {
          "name": "C#3",
          "midi": 49,
          "time": 2.6666679999999996,
          "velocity": 0.6299212598425197,
          "duration": 0.3152779354166668
        },
        {
          "name": "G#3",
          "midi": 56,
          "time": 3.0000014999999998,
          "velocity": 0.6299212598425197,
          "duration": 0.33194461041666656
        },
        {
          "name": "F#3",
          "midi": 54,
          "time": 3.3333349999999995,
          "velocity": 0.6299212598425197,
          "duration": 0.33194461041666656
        },
        {
          "name": "F3",
          "midi": 53,
          "time": 3.666668499999999,
          "velocity": 0.6299212598425197,
          "duration": 0.3152779354166668
        },
        {
          "name": "F#3",
          "midi": 54,
          "time": 4.000001999999999,
          "velocity": 0.6299212598425197,
          "duration": 0.9486115854166668
        },
        {
          "name": "C#3",
          "midi": 49,
          "time": 5.0000025,
          "velocity": 0.6299212598425197,
          "duration": 0.9486115854166668
        },
        {
          "name": "C3",
          "midi": 48,
          "time": 6.000003,
          "velocity": 0.6299212598425197,
          "duration": 0.9486115854166668
        },
        {
          "name": "C#3",
          "midi": 49,
          "time": 7.000003500000001,
          "velocity": 0.6299212598425197,
          "duration": 0.33194461041666656
        },
        {
          "name": "G#2",
          "midi": 44,
          "time": 7.333337000000001,
          "velocity": 0.6299212598425197,
          "duration": 0.33194461041666656
        },
        {
          "name": "F3",
          "midi": 53,
          "time": 7.666670500000001,
          "velocity": 0.6299212598425197,
          "duration": 0.3152779354166668
        },
        {
          "name": "F#3",
          "midi": 54,
          "time": 8.000004,
          "velocity": 0.6299212598425197,
          "duration": 0.33194461041666656
        },
        {
          "name": "C#3",
          "midi": 49,
          "time": 8.3333375,
          "velocity": 0.6299212598425197,
          "duration": 0.33194461041666656
        },
        {
          "name": "A3",
          "midi": 57,
          "time": 8.666671000000001,
          "velocity": 0.6299212598425197,
          "duration": 0.3152779354166668
        },
        {
          "name": "A3",
          "midi": 57,
          "time": 9.000004500000001,
          "velocity": 0.6299212598425197,
          "duration": 0.33194461041666656
        },
        {
          "name": "F#3",
          "midi": 54,
          "time": 9.333338000000001,
          "velocity": 0.6299212598425197,
          "duration": 0.33194461041666656
        },
        {
          "name": "C#4",
          "midi": 61,
          "time": 9.666671500000001,
          "velocity": 0.6299212598425197,
          "duration": 0.3152779354166668
        },
        {
          "name": "F3",
          "midi": 53,
          "time": 10.000005000000002,
          "velocity": 0.6299212598425197,
          "duration": 0.9486115854166659
        },
        {
          "name": "C#3",
          "midi": 49,
          "time": 11.0000055,
          "velocity": 0.6299212598425197,
          "duration": 0.9486115854166659
        },
        {
          "name": "F#3",
          "midi": 54,
          "time": 12.000005999999999,
          "velocity": 0.6299212598425197,
          "duration": 1.8986120604166672
        },
        {
          "name": "C#3",
          "midi": 49,
          "time": 14.000007,
          "velocity": 0.6299212598425197,
          "duration": 1.8986120604166672
        },
        {
          "name": "F#3",
          "midi": 54,
          "time": 16.000008,
          "velocity": 0.6299212598425197,
          "duration": 0.33194461041666656
        },
        {
          "name": "C#3",
          "midi": 49,
          "time": 16.3333415,
          "velocity": 0.6299212598425197,
          "duration": 0.33194461041666656
        },
        {
          "name": "A3",
          "midi": 57,
          "time": 16.666674999999998,
          "velocity": 0.6299212598425197,
          "duration": 0.3152779354166668
        },
        {
          "name": "A3",
          "midi": 57,
          "time": 17.000008499999996,
          "velocity": 0.6299212598425197,
          "duration": 0.33194461041666656
        },
        {
          "name": "F#3",
          "midi": 54,
          "time": 17.333341999999995,
          "velocity": 0.6299212598425197,
          "duration": 0.33194461041666656
        },
        {
          "name": "C#4",
          "midi": 61,
          "time": 17.666675499999993,
          "velocity": 0.6299212598425197,
          "duration": 0.3152779354166668
        },
        {
          "name": "B3",
          "midi": 59,
          "time": 18.00000899999999,
          "velocity": 0.6299212598425197,
          "duration": 1.8986120604166672
        },
        {
          "name": "C#3",
          "midi": 49,
          "time": 20.000009999999993,
          "velocity": 0.6299212598425197,
          "duration": 0.33194461041666656
        },
        {
          "name": "G#2",
          "midi": 44,
          "time": 20.33334349999999,
          "velocity": 0.6299212598425197,
          "duration": 0.33194461041666656
        },
        {
          "name": "F3",
          "midi": 53,
          "time": 20.66667699999999,
          "velocity": 0.6299212598425197,
          "duration": 0.3152779354166668
        },
        {
          "name": "F3",
          "midi": 53,
          "time": 21.000010499999988,
          "velocity": 0.6299212598425197,
          "duration": 0.33194461041666656
        },
        {
          "name": "C#3",
          "midi": 49,
          "time": 21.333343999999986,
          "velocity": 0.6299212598425197,
          "duration": 0.33194461041666656
        },
        {
          "name": "G#3",
          "midi": 56,
          "time": 21.666677499999984,
          "velocity": 0.6299212598425197,
          "duration": 0.3152779354166668
        },
        {
          "name": "F#3",
          "midi": 54,
          "time": 22.000010999999983,
          "velocity": 0.6299212598425197,
          "duration": 1.8986120604166672
        },
        {
          "name": "D3",
          "midi": 50,
          "time": 24.000011999999984,
          "velocity": 0.5039370078740157,
          "duration": 0.33194461041666656
        },
        {
          "name": "B2",
          "midi": 47,
          "time": 24.333345499999982,
          "velocity": 0.5039370078740157,
          "duration": 0.33194461041666656
        },
        {
          "name": "G3",
          "midi": 55,
          "time": 24.66667899999998,
          "velocity": 0.5039370078740157,
          "duration": 0.3152779354166668
        },
        {
          "name": "G3",
          "midi": 55,
          "time": 25.00001249999998,
          "velocity": 0.5039370078740157,
          "duration": 0.33194461041666656
        },
        {
          "name": "D3",
          "midi": 50,
          "time": 25.333345999999977,
          "velocity": 0.5039370078740157,
          "duration": 0.33194461041666656
        },
        {
          "name": "B3",
          "midi": 59,
          "time": 25.666679499999976,
          "velocity": 0.5039370078740157,
          "duration": 0.3152779354166668
        },
        {
          "name": "D3",
          "midi": 50,
          "time": 26.000012999999974,
          "velocity": 0.5039370078740157,
          "duration": 0.33194461041666656
        },
        {
          "name": "B2",
          "midi": 47,
          "time": 26.333346499999973,
          "velocity": 0.5039370078740157,
          "duration": 0.33194461041666656
        },
        {
          "name": "F#3",
          "midi": 54,
          "time": 26.66667999999997,
          "velocity": 0.5039370078740157,
          "duration": 0.3152779354166668
        },
        {
          "name": "F#3",
          "midi": 54,
          "time": 27.00001349999997,
          "velocity": 0.5039370078740157,
          "duration": 0.33194461041666656
        },
        {
          "name": "D3",
          "midi": 50,
          "time": 27.333346999999968,
          "velocity": 0.5039370078740157,
          "duration": 0.33194461041666656
        },
        {
          "name": "B3",
          "midi": 59,
          "time": 27.666680499999966,
          "velocity": 0.5039370078740157,
          "duration": 0.3152779354166668
        },
        {
          "name": "C#3",
          "midi": 49,
          "time": 28.000013999999965,
          "velocity": 0.5039370078740157,
          "duration": 0.3152779354166668
        },
        {
          "name": "D3",
          "midi": 50,
          "time": 28.333347499999963,
          "velocity": 0.5039370078740157,
          "duration": 0.3152779354166668
        },
        {
          "name": "E3",
          "midi": 52,
          "time": 28.66668099999996,
          "velocity": 0.5039370078740157,
          "duration": 0.3152779354166668
        },
        {
          "name": "F#3",
          "midi": 54,
          "time": 29.00001449999996,
          "velocity": 0.5039370078740157,
          "duration": 0.3152779354166668
        },
        {
          "name": "G#3",
          "midi": 56,
          "time": 29.33334799999996,
          "velocity": 0.5039370078740157,
          "duration": 0.3152779354166668
        },
        {
          "name": "A#3",
          "midi": 58,
          "time": 29.666681499999957,
          "velocity": 0.5039370078740157,
          "duration": 0.3152779354166668
        },
        {
          "name": "B2",
          "midi": 47,
          "time": 30.000014999999955,
          "velocity": 0.5039370078740157,
          "duration": 0.9486115854166677
        },
        {
          "name": "B3",
          "midi": 59,
          "time": 31.000015499999957,
          "velocity": 0.5039370078740157,
          "duration": 0.9486115854166677
        },
        {
          "name": "A3",
          "midi": 57,
          "time": 32.00001599999996,
          "velocity": 0.5039370078740157,
          "duration": 0.9486115854166641
        },
        {
          "name": "C#3",
          "midi": 49,
          "time": 33.00001649999996,
          "velocity": 0.5039370078740157,
          "duration": 0.9486115854166641
        },
        {
          "name": "D3",
          "midi": 50,
          "time": 34.00001699999996,
          "velocity": 0.5039370078740157,
          "duration": 0.3319446104166701
        },
        {
          "name": "A2",
          "midi": 45,
          "time": 34.33335049999996,
          "velocity": 0.5039370078740157,
          "duration": 0.3319446104166701
        },
        {
          "name": "F#3",
          "midi": 54,
          "time": 34.66668399999996,
          "velocity": 0.5039370078740157,
          "duration": 0.3152779354166668
        },
        {
          "name": "F#3",
          "midi": 54,
          "time": 35.00001749999996,
          "velocity": 0.5039370078740157,
          "duration": 0.3319446104166701
        },
        {
          "name": "D3",
          "midi": 50,
          "time": 35.333350999999965,
          "velocity": 0.5039370078740157,
          "duration": 0.3319446104166701
        },
        {
          "name": "F#3",
          "midi": 54,
          "time": 35.66668449999997,
          "velocity": 0.5039370078740157,
          "duration": 0.3152779354166668
        },
        {
          "name": "E3",
          "midi": 52,
          "time": 36.00001799999997,
          "velocity": 0.5039370078740157,
          "duration": 0.9486115854166641
        },
        {
          "name": "C#3",
          "midi": 49,
          "time": 37.00001849999997,
          "velocity": 0.5039370078740157,
          "duration": 0.9486115854166641
        },
        {
          "name": "D3",
          "midi": 50,
          "time": 38.000018999999966,
          "velocity": 0.5039370078740157,
          "duration": 0.3319446104166701
        },
        {
          "name": "E3",
          "midi": 52,
          "time": 38.33335249999997,
          "velocity": 0.5039370078740157,
          "duration": 0.3319446104166701
        },
        {
          "name": "F#3",
          "midi": 54,
          "time": 38.66668599999997,
          "velocity": 0.5039370078740157,
          "duration": 0.3152779354166668
        },
        {
          "name": "G3",
          "midi": 55,
          "time": 39.00001949999997,
          "velocity": 0.5039370078740157,
          "duration": 0.3319446104166701
        },
        {
          "name": "F#3",
          "midi": 54,
          "time": 39.333352999999974,
          "velocity": 0.5039370078740157,
          "duration": 0.3319446104166701
        },
        {
          "name": "E3",
          "midi": 52,
          "time": 39.666686499999976,
          "velocity": 0.5039370078740157,
          "duration": 0.3319446104166701
        },
        {
          "name": "F#3",
          "midi": 54,
          "time": 40.00001999999998,
          "velocity": 0.5039370078740157,
          "duration": 0.3319446104166701
        },
        {
          "name": "E3",
          "midi": 52,
          "time": 40.33335349999998,
          "velocity": 0.5039370078740157,
          "duration": 0.3319446104166701
        },
        {
          "name": "D3",
          "midi": 50,
          "time": 40.66668699999998,
          "velocity": 0.5039370078740157,
          "duration": 0.3319446104166701
        },
        {
          "name": "E3",
          "midi": 52,
          "time": 41.000020499999984,
          "velocity": 0.5039370078740157,
          "duration": 0.3152779354166668
        },
        {
          "name": "D3",
          "midi": 50,
          "time": 41.333353999999986,
          "velocity": 0.5039370078740157,
          "duration": 0.3319446104166701
        },
        {
          "name": "E3",
          "midi": 52,
          "time": 41.66668749999999,
          "velocity": 0.5039370078740157,
          "duration": 0.3152779354166668
        },
        {
          "name": "F#3",
          "midi": 54,
          "time": 42.00002099999999,
          "velocity": 0.5039370078740157,
          "duration": 0.3319446104166701
        },
        {
          "name": "G3",
          "midi": 55,
          "time": 42.33335449999999,
          "velocity": 0.5039370078740157,
          "duration": 0.3319446104166701
        },
        {
          "name": "A3",
          "midi": 57,
          "time": 42.66668799999999,
          "velocity": 0.5039370078740157,
          "duration": 0.3319446104166701
        },
        {
          "name": "B3",
          "midi": 59,
          "time": 43.000021499999995,
          "velocity": 0.5039370078740157,
          "duration": 0.3319446104166701
        },
        {
          "name": "A3",
          "midi": 57,
          "time": 43.333355,
          "velocity": 0.5039370078740157,
          "duration": 0.3319446104166701
        },
        {
          "name": "G3",
          "midi": 55,
          "time": 43.6666885,
          "velocity": 0.5039370078740157,
          "duration": 0.3152779354166668
        },
        {
          "name": "A3",
          "midi": 57,
          "time": 44.000022,
          "velocity": 0.5039370078740157,
          "duration": 0.9486115854166641
        },
        {
          "name": "E3",
          "midi": 52,
          "time": 45.0000225,
          "velocity": 0.5039370078740157,
          "duration": 0.9486115854166641
        },
        {
          "name": "F#3",
          "midi": 54,
          "time": 46.000023,
          "velocity": 0.5039370078740157,
          "duration": 0.3319446104166701
        },
        {
          "name": "G3",
          "midi": 55,
          "time": 46.3333565,
          "velocity": 0.5039370078740157,
          "duration": 0.3319446104166701
        },
        {
          "name": "A3",
          "midi": 57,
          "time": 46.66669,
          "velocity": 0.5039370078740157,
          "duration": 0.3319446104166701
        },
        {
          "name": "G3",
          "midi": 55,
          "time": 47.000023500000005,
          "velocity": 0.5039370078740157,
          "duration": 0.3319446104166701
        },
        {
          "name": "A3",
          "midi": 57,
          "time": 47.33335700000001,
          "velocity": 0.5039370078740157,
          "duration": 0.3319446104166701
        },
        {
          "name": "B3",
          "midi": 59,
          "time": 47.66669050000001,
          "velocity": 0.5039370078740157,
          "duration": 0.3319446104166701
        },
        {
          "name": "A3",
          "midi": 57,
          "time": 48.00002400000001,
          "velocity": 0.5039370078740157,
          "duration": 0.3319446104166701
        },
        {
          "name": "G3",
          "midi": 55,
          "time": 48.33335750000001,
          "velocity": 0.5039370078740157,
          "duration": 0.3319446104166701
        },
        {
          "name": "F#3",
          "midi": 54,
          "time": 48.666691000000014,
          "velocity": 0.5039370078740157,
          "duration": 0.3319446104166701
        },
        {
          "name": "E3",
          "midi": 52,
          "time": 49.000024500000016,
          "velocity": 0.5039370078740157,
          "duration": 0.3319446104166701
        },
        {
          "name": "D3",
          "midi": 50,
          "time": 49.33335800000002,
          "velocity": 0.5039370078740157,
          "duration": 0.3319446104166701
        },
        {
          "name": "C#3",
          "midi": 49,
          "time": 49.66669150000002,
          "velocity": 0.5039370078740157,
          "duration": 0.3152779354166668
        },
        {
          "name": "D3",
          "midi": 50,
          "time": 50.00002500000002,
          "velocity": 0.5039370078740157,
          "duration": 0.6319447604166655
        },
        {
          "name": "G3",
          "midi": 55,
          "time": 50.66669200000002,
          "velocity": 0.5039370078740157,
          "duration": 0.3152779354166668
        },
        {
          "name": "D3",
          "midi": 50,
          "time": 51.00002550000002,
          "velocity": 0.5039370078740157,
          "duration": 0.6319447604166655
        },
        {
          "name": "F#3",
          "midi": 54,
          "time": 51.66669250000002,
          "velocity": 0.5039370078740157,
          "duration": 0.3152779354166668
        },
        {
          "name": "B2",
          "midi": 47,
          "time": 52.00002600000002,
          "velocity": 0.5039370078740157,
          "duration": 1.8986120604166672
        },
        {
          "name": "A2",
          "midi": 45,
          "time": 54.00002700000002,
          "velocity": 0.5039370078740157,
          "duration": 0.6319447604166655
        },
        {
          "name": "E3",
          "midi": 52,
          "time": 54.666694000000014,
          "velocity": 0.5039370078740157,
          "duration": 0.3152779354166668
        },
        {
          "name": "A2",
          "midi": 45,
          "time": 55.000027500000016,
          "velocity": 0.5039370078740157,
          "duration": 0.6319447604166655
        },
        {
          "name": "C#3",
          "midi": 49,
          "time": 55.66669450000001,
          "velocity": 0.5039370078740157,
          "duration": 0.3152779354166668
        },
        {
          "name": "F#2",
          "midi": 42,
          "time": 56.000028000000015,
          "velocity": 0.5039370078740157,
          "duration": 1.8986120604166672
        },
        {
          "name": "F#2",
          "midi": 42,
          "time": 58.00002900000001,
          "velocity": 0.5039370078740157,
          "duration": 0.07361114791666523
        },
        {
          "name": "G2",
          "midi": 43,
          "time": 58.081973485416675,
          "velocity": 0.5039370078740157,
          "duration": 0.07361114791666523
        },
        {
          "name": "F#2",
          "midi": 42,
          "time": 58.16530686041667,
          "velocity": 0.5039370078740157,
          "duration": 4.587502293749999
        },
        {
          "name": "E2",
          "midi": 40,
          "time": 63.000031500000006,
          "velocity": 0.5039370078740157,
          "duration": 0.9486115854166641
        },
        {
          "name": "D2",
          "midi": 38,
          "time": 64.000032,
          "velocity": 0.5039370078740157,
          "duration": 0.3152779354166597
        },
        {
          "name": "F#3",
          "midi": 54,
          "time": 64.3333655,
          "velocity": 0.5039370078740157,
          "duration": 0.1569445229166604
        },
        {
          "name": "E3",
          "midi": 52,
          "time": 64.50003224999999,
          "velocity": 0.5039370078740157,
          "duration": 0.1569445229166604
        },
        {
          "name": "D3",
          "midi": 50,
          "time": 64.66669899999998,
          "velocity": 0.5039370078740157,
          "duration": 0.1569445229166604
        },
        {
          "name": "C#3",
          "midi": 49,
          "time": 64.83336574999997,
          "velocity": 0.5039370078740157,
          "duration": 0.1569445229166604
        },
        {
          "name": "B2",
          "midi": 47,
          "time": 65.00003249999996,
          "velocity": 0.5039370078740157,
          "duration": 0.1569445229166604
        },
        {
          "name": "C#3",
          "midi": 49,
          "time": 65.16669924999995,
          "velocity": 0.5039370078740157,
          "duration": 0.1569445229166604
        },
        {
          "name": "B2",
          "midi": 47,
          "time": 65.33336599999994,
          "velocity": 0.5039370078740157,
          "duration": 0.1569445229166604
        },
        {
          "name": "C#3",
          "midi": 49,
          "time": 65.50003274999993,
          "velocity": 0.5039370078740157,
          "duration": 0.1569445229166604
        },
        {
          "name": "D3",
          "midi": 50,
          "time": 65.66669949999992,
          "velocity": 0.5039370078740157,
          "duration": 0.1569445229166604
        },
        {
          "name": "C#3",
          "midi": 49,
          "time": 65.83336624999991,
          "velocity": 0.5039370078740157,
          "duration": 0.1569445229166604
        },
        {
          "name": "B2",
          "midi": 47,
          "time": 66.0000329999999,
          "velocity": 0.5039370078740157,
          "duration": 0.3152779354166597
        },
        {
          "name": "B3",
          "midi": 59,
          "time": 66.3333664999999,
          "velocity": 0.5039370078740157,
          "duration": 0.1569445229166604
        },
        {
          "name": "A3",
          "midi": 57,
          "time": 66.50003324999989,
          "velocity": 0.5039370078740157,
          "duration": 0.1569445229166604
        },
        {
          "name": "G#3",
          "midi": 56,
          "time": 66.66669999999988,
          "velocity": 0.5039370078740157,
          "duration": 0.1569445229166604
        },
        {
          "name": "A3",
          "midi": 57,
          "time": 66.83336674999987,
          "velocity": 0.5039370078740157,
          "duration": 0.1569445229166604
        },
        {
          "name": "G#3",
          "midi": 56,
          "time": 67.00003349999986,
          "velocity": 0.5039370078740157,
          "duration": 0.1569445229166604
        },
        {
          "name": "F#3",
          "midi": 54,
          "time": 67.16670024999985,
          "velocity": 0.5039370078740157,
          "duration": 0.1569445229166604
        },
        {
          "name": "F3",
          "midi": 53,
          "time": 67.33336699999984,
          "velocity": 0.5039370078740157,
          "duration": 0.1569445229166604
        },
        {
          "name": "D#3",
          "midi": 51,
          "time": 67.50003374999983,
          "velocity": 0.5039370078740157,
          "duration": 0.1569445229166604
        },
        {
          "name": "C#3",
          "midi": 49,
          "time": 67.66670049999982,
          "velocity": 0.5039370078740157,
          "duration": 0.1569445229166604
        },
        {
          "name": "F3",
          "midi": 53,
          "time": 67.83336724999981,
          "velocity": 0.5039370078740157,
          "duration": 0.1569445229166604
        },
        {
          "name": "F#3",
          "midi": 54,
          "time": 68.0000339999998,
          "velocity": 0.5039370078740157,
          "duration": 0.3319446104166701
        },
        {
          "name": "C#3",
          "midi": 49,
          "time": 68.33336749999981,
          "velocity": 0.5039370078740157,
          "duration": 0.3319446104166701
        },
        {
          "name": "A3",
          "midi": 57,
          "time": 68.66670099999982,
          "velocity": 0.5039370078740157,
          "duration": 0.3152779354166597
        },
        {
          "name": "A3",
          "midi": 57,
          "time": 69.00003449999981,
          "velocity": 0.5039370078740157,
          "duration": 0.3319446104166701
        },
        {
          "name": "F#3",
          "midi": 54,
          "time": 69.33336799999982,
          "velocity": 0.5039370078740157,
          "duration": 0.3319446104166701
        },
        {
          "name": "C#4",
          "midi": 61,
          "time": 69.66670149999983,
          "velocity": 0.5039370078740157,
          "duration": 0.3152779354166597
        },
        {
          "name": "F3",
          "midi": 53,
          "time": 70.00003499999983,
          "velocity": 0.5039370078740157,
          "duration": 0.3319446104166701
        },
        {
          "name": "C#3",
          "midi": 49,
          "time": 70.33336849999984,
          "velocity": 0.5039370078740157,
          "duration": 0.3319446104166701
        },
        {
          "name": "G#3",
          "midi": 56,
          "time": 70.66670199999984,
          "velocity": 0.5039370078740157,
          "duration": 0.3152779354166597
        },
        {
          "name": "G#3",
          "midi": 56,
          "time": 71.00003549999984,
          "velocity": 0.5039370078740157,
          "duration": 0.3319446104166701
        },
        {
          "name": "F3",
          "midi": 53,
          "time": 71.33336899999985,
          "velocity": 0.5039370078740157,
          "duration": 0.3319446104166701
        },
        {
          "name": "C#4",
          "midi": 61,
          "time": 71.66670249999986,
          "velocity": 0.5039370078740157,
          "duration": 0.3152779354166597
        },
        {
          "name": "C#4",
          "midi": 61,
          "time": 72.00003599999985,
          "velocity": 0.5039370078740157,
          "duration": 0.07361114791666523
        },
        {
          "name": "D4",
          "midi": 62,
          "time": 72.07920270624984,
          "velocity": 0.5039370078740157,
          "duration": 0.07361114791666523
        },
        {
          "name": "C#4",
          "midi": 61,
          "time": 72.16392497083318,
          "velocity": 0.5039370078740157,
          "duration": 4.586113404166667
        },
        {
          "name": "B3",
          "midi": 59,
          "time": 77.00003849999985,
          "velocity": 0.5039370078740157,
          "duration": 0.9486115854166712
        },
        {
          "name": "A3",
          "midi": 57,
          "time": 78.00003899999984,
          "velocity": 0.5039370078740157,
          "duration": 0.3152779354166597
        },
        {
          "name": "D4",
          "midi": 62,
          "time": 78.33337249999984,
          "velocity": 0.5039370078740157,
          "duration": 0.1569445229166604
        },
        {
          "name": "C#4",
          "midi": 61,
          "time": 78.50003924999983,
          "velocity": 0.5039370078740157,
          "duration": 0.1569445229166604
        },
        {
          "name": "B3",
          "midi": 59,
          "time": 78.66670599999982,
          "velocity": 0.5039370078740157,
          "duration": 0.1569445229166604
        },
        {
          "name": "A3",
          "midi": 57,
          "time": 78.83337274999981,
          "velocity": 0.5039370078740157,
          "duration": 0.1569445229166604
        },
        {
          "name": "G#3",
          "midi": 56,
          "time": 79.0000394999998,
          "velocity": 0.5039370078740157,
          "duration": 0.1569445229166604
        },
        {
          "name": "A3",
          "midi": 57,
          "time": 79.16670624999979,
          "velocity": 0.5039370078740157,
          "duration": 0.1569445229166604
        },
        {
          "name": "G#3",
          "midi": 56,
          "time": 79.33337299999978,
          "velocity": 0.5039370078740157,
          "duration": 0.1569445229166604
        },
        {
          "name": "F#3",
          "midi": 54,
          "time": 79.50003974999977,
          "velocity": 0.5039370078740157,
          "duration": 0.1569445229166604
        },
        {
          "name": "E3",
          "midi": 52,
          "time": 79.66670649999976,
          "velocity": 0.5039370078740157,
          "duration": 0.1569445229166604
        },
        {
          "name": "D3",
          "midi": 50,
          "time": 79.83337324999975,
          "velocity": 0.5039370078740157,
          "duration": 0.1569445229166604
        },
        {
          "name": "C#3",
          "midi": 49,
          "time": 80.00003999999974,
          "velocity": 0.5039370078740157,
          "duration": 0.07361114791666523
        },
        {
          "name": "D3",
          "midi": 50,
          "time": 80.07920670624974,
          "velocity": 0.5039370078740157,
          "duration": 0.07361114791666523
        },
        {
          "name": "C#3",
          "midi": 49,
          "time": 80.16392897083307,
          "velocity": 0.5039370078740157,
          "duration": 4.586113404166667
        },
        {
          "name": "B2",
          "midi": 47,
          "time": 85.00004249999974,
          "velocity": 0.6299212598425197,
          "duration": 0.9486115854166712
        },
        {
          "name": "A2",
          "midi": 45,
          "time": 86.00004299999974,
          "velocity": 0.6299212598425197,
          "duration": 0.9486115854166712
        },
        {
          "name": "G#2",
          "midi": 44,
          "time": 87.00004349999973,
          "velocity": 0.6299212598425197,
          "duration": 0.9486115854166712
        },
        {
          "name": "F#2",
          "midi": 42,
          "time": 88.00004399999973,
          "velocity": 0.6299212598425197,
          "duration": 0.3319446104166701
        },
        {
          "name": "C#2",
          "midi": 37,
          "time": 88.33337749999974,
          "velocity": 0.6299212598425197,
          "duration": 0.3319446104166701
        },
        {
          "name": "A2",
          "midi": 45,
          "time": 88.66671099999975,
          "velocity": 0.6299212598425197,
          "duration": 0.3152779354166597
        },
        {
          "name": "A2",
          "midi": 45,
          "time": 89.00004449999975,
          "velocity": 0.6299212598425197,
          "duration": 0.3319446104166701
        },
        {
          "name": "F#2",
          "midi": 42,
          "time": 89.33337799999975,
          "velocity": 0.6299212598425197,
          "duration": 0.3319446104166701
        },
        {
          "name": "C#3",
          "midi": 49,
          "time": 89.66671149999976,
          "velocity": 0.6299212598425197,
          "duration": 0.3152779354166597
        },
        {
          "name": "C#3",
          "midi": 49,
          "time": 90.00004499999976,
          "velocity": 0.6299212598425197,
          "duration": 0.3319446104166701
        },
        {
          "name": "G#2",
          "midi": 44,
          "time": 90.33337849999977,
          "velocity": 0.6299212598425197,
          "duration": 0.3319446104166701
        },
        {
          "name": "C#3",
          "midi": 49,
          "time": 90.66671199999978,
          "velocity": 0.6299212598425197,
          "duration": 0.3152779354166597
        },
        {
          "name": "F3",
          "midi": 53,
          "time": 91.00004549999977,
          "velocity": 0.6299212598425197,
          "duration": 0.3319446104166701
        },
        {
          "name": "C#3",
          "midi": 49,
          "time": 91.33337899999978,
          "velocity": 0.6299212598425197,
          "duration": 0.3319446104166701
        },
        {
          "name": "G#3",
          "midi": 56,
          "time": 91.66671249999979,
          "velocity": 0.6299212598425197,
          "duration": 0.3152779354166597
        },
        {
          "name": "F#3",
          "midi": 54,
          "time": 92.00004599999978,
          "velocity": 0.6299212598425197,
          "duration": 0.3319446104166701
        },
        {
          "name": "D3",
          "midi": 50,
          "time": 92.3333794999998,
          "velocity": 0.6299212598425197,
          "duration": 0.3319446104166701
        },
        {
          "name": "A3",
          "midi": 57,
          "time": 92.6667129999998,
          "velocity": 0.6299212598425197,
          "duration": 0.3152779354166597
        },
        {
          "name": "A3",
          "midi": 57,
          "time": 93.0000464999998,
          "velocity": 0.6299212598425197,
          "duration": 0.3319446104166701
        },
        {
          "name": "F#3",
          "midi": 54,
          "time": 93.3333799999998,
          "velocity": 0.6299212598425197,
          "duration": 0.3319446104166701
        },
        {
          "name": "D4",
          "midi": 62,
          "time": 93.66671349999982,
          "velocity": 0.6299212598425197,
          "duration": 0.3319446104166701
        },
        {
          "name": "C#4",
          "midi": 61,
          "time": 94.00004699999982,
          "velocity": 0.6299212598425197,
          "duration": 0.3152779354166597
        },
        {
          "name": "B3",
          "midi": 59,
          "time": 94.33338049999982,
          "velocity": 0.6299212598425197,
          "duration": 0.3152779354166597
        },
        {
          "name": "A3",
          "midi": 57,
          "time": 94.66671399999981,
          "velocity": 0.6299212598425197,
          "duration": 0.3152779354166597
        },
        {
          "name": "G#3",
          "midi": 56,
          "time": 95.00004749999981,
          "velocity": 0.6299212598425197,
          "duration": 0.3152779354166597
        },
        {
          "name": "F#3",
          "midi": 54,
          "time": 95.3333809999998,
          "velocity": 0.6299212598425197,
          "duration": 0.3152779354166597
        },
        {
          "name": "F3",
          "midi": 53,
          "time": 95.6667144999998,
          "velocity": 0.6299212598425197,
          "duration": 0.3152779354166597
        },
        {
          "name": "F#2",
          "midi": 42,
          "time": 96.0000479999998,
          "velocity": 0.6299212598425197,
          "duration": 3.7986130104166733
        },
        {
          "name": "F#3",
          "midi": 54,
          "time": 96.0000479999998,
          "velocity": 0.6299212598425197,
          "duration": 3.7986130104166733
        }
      ],
      "controlChanges": {},
      "id": 1,
      "name": "Piano",
      "channelNumber": 0,
      "isPercussion": false
    }
  ]
}